<?xml version="1.0" encoding="utf-8"?>
<!-- Generator: Adobe Illustrator 14.0.0, SVG Export Plug-In . SVG Version: 6.00 Build 43363)  -->
<!DOCTYPE svg PUBLIC "-//W3C//DTD SVG 1.1//EN" "http://www.w3.org/Graphics/SVG/1.1/DTD/svg11.dtd">
<svg version="1.1" id="Layer_1" xmlns="http://www.w3.org/2000/svg" xmlns:xlink="http://www.w3.org/1999/xlink" x="0px" y="0px"
	 width="50px" height="50px" viewBox="0 0 50 50" enable-background="new 0 0 50 50" xml:space="preserve">
<linearGradient id="SVGID_1_" gradientUnits="userSpaceOnUse" x1="1.4912" y1="-1.1187" x2="48.7099" y2="51.3231">
	<stop  offset="0" style="stop-color:#2E3192"/>
	<stop  offset="1" style="stop-color:#00AEEF"/>
</linearGradient>
<path fill-rule="evenodd" clip-rule="evenodd" fill="url(#SVGID_1_)" d="M5.389,0H44.59C47.569,0,50,2.431,50,5.391v39.197
	c0,2.959-2.431,5.391-5.41,5.391H5.389C2.43,49.979,0,47.547,0,44.588V5.391C0,2.431,2.43,0,5.389,0z"/>
<path fill-rule="evenodd" clip-rule="evenodd" fill="#2E3192" d="M5.452,0h39.18C0.042,5.391,5.452,0,0.042,44.588V5.391
	C0.042,2.431,2.472,0,5.452,0z"/>
<linearGradient id="SVGID_2_" gradientUnits="userSpaceOnUse" x1="6.8618" y1="4.0767" x2="43.0973" y2="45.7608">
	<stop  offset="0" style="stop-color:#00AEEF"/>
	<stop  offset="1" style="stop-color:#8ED8F8"/>
</linearGradient>
<path fill-rule="evenodd" clip-rule="evenodd" fill="url(#SVGID_2_)" d="M9.679,5.391h30.706c2.346,0,4.247,1.924,4.247,4.25v30.697
	c0,2.326-1.901,4.25-4.247,4.25H9.679c-2.325,0-4.227-1.924-4.227-4.25V9.641C5.452,7.315,7.354,5.391,9.679,5.391z"/>
<path fill-rule="evenodd" clip-rule="evenodd" fill="#8ED8F8" d="M39.898,44.588h-28.17c32.967-4.186,28.72,0.043,32.903-33.171
	V39.83C44.632,42.453,42.497,44.588,39.898,44.588z"/>
<path fill-rule="evenodd" clip-rule="evenodd" fill="#0095DA" d="M10.122,5.286h28.149C5.304,9.45,9.552,5.222,5.368,38.457V10.021
	C5.368,7.421,7.502,5.286,10.122,5.286z"/>
<path fill-rule="evenodd" clip-rule="evenodd" fill="#00AEEF" d="M44.484,50H11.729C50.084,45.137,45.139,50.063,50,11.417v33.066
	C50,47.527,47.527,50,44.484,50z"/>
<linearGradient id="SVGID_3_" gradientUnits="userSpaceOnUse" x1="10.8154" y1="9.2485" x2="39.0602" y2="40.6175">
	<stop  offset="0" style="stop-color:#2E3192"/>
	<stop  offset="1" style="stop-color:#00AEEF"/>
</linearGradient>
<path fill-rule="evenodd" clip-rule="evenodd" fill="url(#SVGID_3_)" d="M13.271,10.042h23.436c1.775,0,3.233,1.458,3.233,3.234
	v23.424c0,1.777-1.458,3.236-3.233,3.236H13.271c-1.775,0-3.233-1.459-3.233-3.236V13.277
	C10.038,11.501,11.496,10.042,13.271,10.042z"/>
<path fill-rule="evenodd" clip-rule="evenodd" fill="#2E3192" d="M13.292,10.042h23.457c-26.69,3.234-23.457,0-26.69,26.659V13.277
	C10.059,11.501,11.517,10.042,13.292,10.042z"/>
<linearGradient id="SVGID_4_" gradientUnits="userSpaceOnUse" x1="14.2256" y1="12.5713" x2="35.8989" y2="37.5036">
	<stop  offset="0" style="stop-color:#00AEEF"/>
	<stop  offset="1" style="stop-color:#8ED8F8"/>
</linearGradient>
<path fill-rule="evenodd" clip-rule="evenodd" fill="url(#SVGID_4_)" d="M15.828,13.277h18.386c1.395,0,2.535,1.142,2.535,2.537
	v18.35c0,1.396-1.141,2.537-2.535,2.537H15.828c-1.395,0-2.536-1.141-2.536-2.537v-18.35C13.292,14.419,14.434,13.277,15.828,13.277
	z"/>
<path fill-rule="evenodd" clip-rule="evenodd" fill="#8ED8F8" d="M33.896,36.701H17.054c19.717-2.494,17.181,0.043,19.695-19.83
	v16.998C36.749,35.434,35.46,36.701,33.896,36.701z"/>
<path fill-rule="evenodd" clip-rule="evenodd" fill="#0095DA" d="M16.103,13.213h16.822c-19.696,2.495-17.16-0.042-19.675,19.832
	V16.046C13.25,14.482,14.539,13.213,16.103,13.213z"/>
<path fill-rule="evenodd" clip-rule="evenodd" fill="#00AEEF" d="M36.644,39.957h-19.59c22.95-2.918,19.991,0.021,22.908-23.086
	v19.768C39.962,38.457,38.461,39.957,36.644,39.957z"/>
</svg>
