<?xml version="1.0" encoding="UTF-8"?>
<svg viewBox="0 0 1052.3621875 375" xmlns="http://www.w3.org/2000/svg">
 <path d="m111.54 124.05c0 1.5492-1.0758 2.3238-3.2275 2.3238-2.4099 0-3.6148-0.77459-3.6148-2.3238 0-7.1435-2.3668-12.953-7.1005-17.428-4.2173-3.7869-8.3054-5.6804-12.264-5.6804-5.8525 0-9.5104 2.3238-10.973 6.9714l-0.5164 3.4857v0.2582c0 3.4426 2.539 8.2194 7.6169 14.33 1.3771 1.5492 2.539 2.7541 3.4857 3.6148 1.3771 1.1188 3.6578 1.6783 6.8423 1.6783 3.3566 0 8.7788-0.6455 16.267-1.9365 7.5739 1.291 13.039 1.9365 16.396 1.9365 3.2705 0 5.5513-0.55943 6.8423-1.6783 3.6148-3.1845 6.6271-7.0575 9.037-11.619 1.3771-2.582 2.0656-4.6906 2.0656-6.3259 0-5.4222-2.4529-8.8218-7.3587-10.199-1.291-0.34427-2.6681-0.51641-4.1312-0.51641-3.959 0-8.0042 1.9365-12.135 5.8095-4.8197 4.3033-7.2296 10.07-7.2296 17.299m28.015-12.394c0 3.4426-2.3668 7.4878-7.1005 12.135l-3.3566 2.8402-1.291 0.77458c-1.6353 0.2582-3.3566 0.3873-5.164 0.3873-5.3361 0-8.0042-1.0758-8.0042-3.2275 0.17213-6.6271 2.1517-11.791 5.9386-15.492 3.2705-3.2706 6.6271-4.9058 10.07-4.9058 4.3894 0 7.1866 1.5922 8.3915 4.7767l0.51641 2.7111m-12.264 32.791c0-2.2377-6.3259-3.3566-18.978-3.3566-3.4427 0-6.498 0.12909-9.1661 0.3873l-3.0984 0.2582c-4.6476 0.60247-6.9714 1.4631-6.9714 2.582 0 1.291 1.1619 1.9365 3.4857 1.9365l15.621-1.291 15.492 1.291c2.4098 0 3.6148-0.60246 3.6148-1.8074m7.2296 3.0984c-0.17214 5.8525-8.9509 8.7788-26.336 8.7788-17.213 0-25.949-2.9263-26.207-8.7788-0.08607-5.5083-0.9037-10.414-2.4529-14.717-0.94673-2.3238-2.7541-5.2931-5.4222-8.9079-3.3566-4.5615-5.0349-8.6067-5.0349-12.135 0-5.5083 2.3668-9.7686 7.1005-12.781 2.6681-1.7213 5.6374-2.582 8.9079-2.582 4.4755 0 8.7358 1.6353 12.781 4.9058 0-3.9591 0.3873-6.6702 1.1619-8.1333 0.60246-1.6353 2.582-3.6148 5.9386-5.9386v-2.9693l-5.2931-3.2275v-4.6476h4.7767l1.5492-4.7767h4.3894l1.6783 4.7767h4.6476v4.6476l-5.164 3.2275v2.9693c3.2705 2.4099 5.2931 4.4755 6.0677 6.1968l0.9037 3.7439c0.08608 1.0328 0.17214 2.4099 0.2582 4.1312 4.0451-3.2705 8.2194-4.9058 12.523-4.9058 5.7664 0 10.242 2.1947 13.426 6.5841 1.8074 2.582 2.7111 5.5083 2.7111 8.7788 0 3.5287-1.6783 7.6169-5.0349 12.264l-2.9693 4.1312c-3.1844 4.8197-4.8197 11.275-4.9058 19.365m-57.708-35.89c0-3.6148 1.8074-5.9386 5.4222-6.9714 1.0328-0.34428 2.1086-0.51641 3.2275-0.51641 3.6148 0 7.0575 1.6353 10.328 4.9058 3.7009 3.7869 5.6374 8.9509 5.8095 15.492 0.08607 1.8935-1.8935 2.9693-5.9386 3.2275h-1.9365c-1.7213 0-3.4857-0.1291-5.2931-0.3873-2.8402-1.3771-5.6804-4.0882-8.5206-8.1333-2.0656-3.0123-3.0984-5.5513-3.0984-7.6169"/>
 <path d="m254.43 142.89c0 1.3771 0.98976 2.0656 2.9693 2.0656l8.9079-0.6455 7.746-0.3873h1.9365l15.105 0.77461 3.0984 0.25819c1.9794 0 2.9692-0.68853 2.9693-2.0656-1e-4 -2.4959-5.7666-3.873-17.299-4.1312h-4.0021c-9.7256 0-16.224 0.73158-19.494 2.1947-1.291 0.51641-1.9365 1.1619-1.9365 1.9365m-16.137-53.964c-1.6353 0-2.6681 0.81765-3.0984 2.4529-0.08607 0.2582-0.12911 0.51639-0.12911 0.77461 0 1.6353 0.81765 2.6681 2.4529 3.0984 0.25819 0.08607 0.51639 0.12911 0.7746 0.12911 2.0656 0 3.0984-1.0758 3.0984-3.2275s-1.0328-3.2275-3.0984-3.2275m16.912-8.1333c-2.2377 0-3.3566 1.0758-3.3566 3.2275s1.1188 3.2275 3.3566 3.2275c2.0656 0 3.0984-1.0758 3.0984-3.2275s-1.0328-3.2275-3.0984-3.2275m41.183 0c-1.4632 0-2.453 0.73158-2.9693 2.1947l-0.12911 1.0328c-1e-4 2.1517 1.0327 3.2275 3.0984 3.2275 2.1516 0 3.2274-1.0758 3.2275-3.2275s-1.0759-3.2275-3.2275-3.2275m16.783 8.1333c-2.0657 0-3.0985 1.0758-3.0984 3.2275s1.0327 3.2275 3.0984 3.2275c2.1516 0 3.2274-1.0758 3.2275-3.2275-1.3e-4 -1.6353-0.81775-2.6681-2.4529-3.0984-0.2583-0.08607-0.51651-0.12911-0.7746-0.12911m-9.2952 61.71c-1.1e-4 2.4099-4.4325 4.0882-13.297 5.0349l-12.523 0.77458h-2.3238c-10.5 0-18.504-0.90369-24.013-2.7111-2.6681-0.77461-4.0021-1.8074-4.0021-3.0984 0-2.4959 0.68853-5.3361 2.0656-8.5206 0.94673-1.8935 1.4201-3.2275 1.4201-4.0021 0-1.6353-1.9795-4.8198-5.9386-9.5534-2.1517-2.4959-3.3996-4.2173-3.7439-5.164 0-0.51639-0.2582-1.6783-0.77461-3.4857l-1.6783-6.455c-1.1188-4.2173-1.8504-8.6927-2.1947-13.426-3.9591-1.6353-5.9386-4.2603-5.9386-7.8751 0-3.0984 1.4201-5.2931 4.2603-6.5841 0.94673-0.43035 1.9795-0.64552 3.0984-0.64552 2.8402 0 4.9488 1.291 6.3259 3.873 0.60248 1.1188 0.90371 2.2377 0.90371 3.3566l-0.6455 4.9058c0 3.873 2.7541 8.6067 8.2624 14.201 0.43032-3.5287 0.6455-7.2296 0.6455-11.103 0-5.7664-1.0328-9.4243-3.0984-10.973-0.17213-0.17215-0.34428-0.30123-0.51639-0.3873-1.5492-0.94674-2.3238-2.625-2.3238-5.0349 0-3.1845 1.4631-5.3792 4.3894-6.5841 0.94675-0.43033 1.9365-0.6455 2.9693-0.6455 3.0123 0 5.164 1.3771 6.455 4.1312 0.51639 0.94675 0.77448 1.9795 0.7746 3.0984l-0.90371 5.5513c0 4.8197 2.3667 12.178 7.1005 22.076 1.8073-8.0903 2.711-14.287 2.7111-18.59-1e-4 -3.6148-0.64562-6.9284-1.9365-9.9407-0.51652-1.1189-0.77471-1.9795-0.77461-2.582-1e-4 -3.1845 1.42-5.3792 4.2603-6.5841 0.94662-0.43032 1.9364-0.6455 2.9693-0.6455 3.0122 0 5.1208 1.4201 6.3259 4.2603 0.43022 0.94673 0.6454 1.9365 0.6455 2.9693-1e-4 0.17213-0.73167 2.4529-2.1947 6.8423-0.34439 1.1188-0.51651 3.0123-0.51641 5.6804-1e-4 4.3033 0.90359 10.5 2.7111 18.59 4.6475-9.8116 6.9713-17.17 6.9714-22.076l-0.7746-5.4222v-0.12911c-1.2e-4 -3.1845 1.463-5.3792 4.3894-6.5841 0.94662-0.43033 1.9364-0.6455 2.9693-0.6455 3.0122 0 5.1639 1.3771 6.455 4.1312 0.51629 0.94675 0.77449 1.9795 0.77459 3.0984-1e-4 2.4099-0.77471 4.1312-2.3238 5.164-2.41 1.5492-3.6149 5.3361-3.6148 11.361-1e-4 3.7869 0.21505 7.4448 0.6455 10.974 5.5081-5.5943 8.2623-10.328 8.2624-14.201l-0.6455-4.9058c-1e-4 -3.0123 1.377-5.164 4.1312-6.455 0.94662-0.51639 1.9794-0.7746 3.0984-0.7746 3.0983 0 5.293 1.3771 6.5841 4.1312l0.7746 2.4529v0.6455c-1e-4 3.4426-1.9796 6.0677-5.9386 7.8751-0.51651 5.9386-1.9796 13.211-4.3894 21.818-0.17223 0.68854-0.25831 1.2049-0.2582 1.5492-1.1e-4 0.60247-0.64561 1.5922-1.9365 2.9693l-1.5492 1.9365c-4.1313 4.7337-6.1969 8.0042-6.1968 9.8116-1e-4 0.51639 1.0327 3.1845 3.0984 8.0042 0.34417 1.7213 0.51628 3.2275 0.51639 4.5185m-28.015-73.845c-1.6354 0-2.6682 0.81764-3.0984 2.4529-0.08618 0.2582-0.12919 0.51639-0.12908 0.77459-1.1e-4 1.6353 0.81751 2.6681 2.4529 3.0984 0.25809 0.08607 0.51631 0.12911 0.77461 0.12911 2.0655 0 3.0983-1.0758 3.0984-3.2275-1.2e-4 -1.5492-0.73167-2.582-2.1947-3.0984-0.2583-0.08606-0.55953-0.1291-0.90369-0.1291m23.238 50.349c-1e-4 -2.7541-7.7461-4.1312-23.238-4.1312-15.578 0-23.367 1.4201-23.367 4.2603 0 1.2049 1.1188 1.8074 3.3566 1.8074 2.582 0 5.8095-0.21516 9.6825-0.6455l8.3915-0.25819h2.0656c2.4097 0 6.9713 0.21515 13.685 0.6455l6.3259 0.25819c2.0655 0 3.0983-0.6455 3.0984-1.9365"/>
 <path d="m414.87 156.32-2.4529-2.4529v-9.1661l13.039-12.91v-25.691l-10.07-9.9407v-11.49l3.6148-3.6148h9.1661l2.3238 2.1947v3.2275h4.9058v-3.2275l2.1947-2.1947h14.33l2.1947 2.1947v3.2275h4.9058v-3.2275l2.1947-2.1947h9.2952l3.6148 3.6148v11.49l-10.07 9.9407v25.691l13.039 12.91v9.1661l-2.582 2.4529h-59.644m15.234-27.498v4.3894h29.306v-4.3894h-29.306m0-23.238v4.3894h29.306v-4.3894h-29.306"/>
 <path d="m605.39 126.5c-4.3895 0-6.5842 0.68853-6.5841 2.0656-1.2e-4 1.2049 1.9364 1.9365 5.8095 2.1947h7.1005c8.6065 0 12.91-0.73158 12.91-2.1947-1.2e-4 -1.3771-2.1948-2.0656-6.5841-2.0656h-12.652m0-8.0042c-3.787 0-5.8957 0.43035-6.3259 1.291-0.17224 0.17215-0.25832 0.43034-0.2582 0.77461-1.2e-4 0.94673 0.90359 1.5062 2.7111 1.6783 2.2376 0.25819 5.6373 0.3873 10.199 0.3873s8.0041-0.12911 10.328-0.3873c1.7212-0.17214 2.5819-0.73157 2.582-1.6783-1.2e-4 -1.3771-2.1948-2.0656-6.5841-2.0656h-12.652m24.013 5.5513 2.582 9.9407c-1e-4 3.0123-3.0555 4.7767-9.1661 5.2931 4.4754 1.7213 8.6496 2.582 12.523 2.582 0.51631 0 3.0553-0.12911 7.6169-0.38731 3.7868 0 6.8852 1.9795 9.2952 5.9386 0.34416 0.68852 0.77451 1.4631 1.291 2.3238l-4.6476 7.1005c-1.3772 1.7213-2.8403 2.8402-4.3894 3.3566-0.34439-1.8074-3.0985-2.9262-8.2624-3.3566l-3.0984-0.25819c-10.586-0.86066-17.73-3.1414-21.431-6.8423-3.3567 3.5287-8.4777 5.5513-15.363 6.0677-1.5492 0.17215-3.5718 0.43034-6.0677 0.77461-6.2829 0.51639-9.9407 1.4201-10.973 2.7111-0.17214 0.25819-0.30125 0.55943-0.38731 0.90369-2.2377-0.94673-4.3464-3.0984-6.3259-6.455-0.77461-1.3771-1.6783-2.7111-2.7111-4.0021 2.3238-4.3033 4.8197-6.8853 7.4878-7.746 0.94676-0.34427 1.9795-0.5164 3.0984-0.5164l7.6169 0.38731c3.959 0 8.1333-0.86068 12.523-2.582-6.1107-0.51639-9.1661-2.2808-9.1661-5.2931 0-0.25819 0.68853-2.4529 2.0656-6.5841 0.43032-1.3771 0.6455-2.3238 0.6455-2.8402-5.2501-6.3689-7.8751-12.006-7.8751-16.912 0-5.6804 2.7972-10.844 8.3915-15.492 4.9918-4.2173 8.6066-6.455 10.844-6.7132-1.8936-2.3238-2.8403-4.7337-2.8402-7.2296-1e-4 -4.0451 2.0225-6.541 6.0677-7.4878 0.94662-0.2581 1.9364-0.38718 2.9693-0.38729 4.3032 1.1e-4 7.1004 1.5922 8.3915 4.7767l0.6455 2.7111v0.3873c-1e-4 2.4099-0.94684 4.8197-2.8402 7.2296 1.6352 0.43033 4.088 1.7644 7.3587 4.0021 7.918 5.5082 11.877 11.576 11.877 18.203-1e-4 4.9919-2.5821 10.457-7.746 16.396m-15.363-12.006v-5.9386h4.5185v-4.9058h-4.5185v-5.5513h-4.6476v5.5513h-4.5185v4.9058h4.5185v5.9386h4.6476m-2.3238-36.406c-1.7214 0-2.7973 0.77458-3.2275 2.3238l-0.12908 0.77458c-1.1e-4 1.6353 0.86055 2.6681 2.582 3.0984 0.25809 0.08607 0.51629 0.12909 0.77461 0.12909 2.1515 0 3.2274-1.0758 3.2275-3.2275-1.1e-4 -2.0656-1.076-3.0984-3.2275-3.0984"/>
 <path d="m758.74 110.36c2.1516 0 4.4324-1.248 6.8423-3.7439 1.291-1.291 1.9365-2.4099 1.9365-3.3566 0-1.1189-1.0328-1.6783-3.0984-1.6783-2.4098 0-4.4324 1.0758-6.0677 3.2275-0.86069 1.0328-1.291 2.1086-1.291 3.2275 0 1.5492 0.55942 2.3238 1.6783 2.3238m-2.1947-28.273c0.17214 0 0.60246-0.04304 1.291-0.12911 3.873 0 8.0042 1.291 12.394 3.873l0.77461 0.51639c2.4959-4.0451 4.3894-6.0677 5.6804-6.0677 2.7541 1.5492 4.5616 3.2275 5.4222 5.0349 0.43034 0.86068 1.0758 2.6681 1.9365 5.4222 0.68853-0.17215 1.3771-0.25819 2.0656-0.25819 7.2296 0 14.115 4.4324 20.656 13.297 7.8321 10.242 11.748 24.185 11.748 41.828 0 3.9591-0.17213 7.5308-0.51639 10.715h-54.48c0.17215-5.7665 2.2808-11.232 6.3259-16.396 0.43034-0.68853 1.0328-1.4631 1.8074-2.3238 3.1845-4.0451 5.121-7.1435 5.8095-9.2952 0.34426-1.1188 0.60246-2.2808 0.7746-3.4857-5.6804 2.2377-9.9407 5.5513-12.781 9.9407-1.291 2.1516-2.7111 4.3894-4.2603 6.7132-0.43034 0.68854-1.0758 1.0328-1.9365 1.0328-2.1517 0-3.2275-1.334-3.2275-4.0021-0.86069 1.1189-1.8504 1.6783-2.9693 1.6783l-2.582-0.6455c-3.7009-0.94675-6.3259-2.582-7.8751-4.9058-0.51639-0.77459-1.0758-1.8074-1.6783-3.0984 0.60248-3.7009 3.5718-11.06 8.9079-22.076 3.873-7.9181 6.2829-13.599 7.2296-17.041 0.08605-0.7746 0.12909-1.8934 0.12909-3.3566 0-1.2049-0.21517-3.5287-0.6455-6.9714m-7.746 45.314c-2.0656 0-3.4427 0.90369-4.1312 2.7111-0.17213 0.43033-0.2582 0.86066-0.2582 1.291 0 0.34426 0.12909 0.7746 0.3873 1.291 2.2377 0 3.6148-0.94673 4.1312-2.8402 0.08608-0.2582 0.12911-0.55945 0.12911-0.9037 0-0.17214-0.08607-0.68853-0.2582-1.5492m63.388 19.881v-4.7767c0-14.029-3.5718-25.519-10.715-34.47-6.1968-7.746-11.834-11.619-16.912-11.619l-1.5492-0.2582c-0.17213 0.08606-0.30124 0.17213-0.38731 0.2582-1.1188 0-1.6783 0.47336-1.6783 1.4201 0 0.34428 0.2582 0.77461 0.77459 1.291 4.6476 0.43032 9.7255 3.7439 15.234 9.9407 6.9714 8.0902 10.457 19.795 10.457 35.115v0.77461c0 3.7869 0.81762 5.6804 2.4529 5.6804 1.3771 0 2.1517-1.1189 2.3238-3.3566"/>
 <path d="m920.08 156.32c-0.08604-1.0328-0.12908-3.0554-0.12908-6.0677 0-10.844 3.3566-18.892 10.07-24.142 1.9795-1.6353 4.3893-3.1414 7.2296-4.5185-3.3566-1.0328-5.6374-3.5718-6.8423-7.6169-0.34427-1.291-0.51639-2.625-0.51639-4.0021 0-5.7665 2.9693-9.8546 8.9079-12.264-1.5493-2.582-2.3239-5.0349-2.3238-7.3587-1.1e-4 -3.873 1.8934-6.7562 5.6804-8.6497 1.7212-0.86067 3.5716-1.291 5.5513-1.291 4.3032 0 7.4877 1.6783 9.5534 5.0349 0.94662 1.4631 1.42 3.0984 1.4201 4.9058-1e-4 2.4959-0.73167 4.9488-2.1947 7.3587 3.1844 1.291 5.4651 3.0123 6.8423 5.164 1.377 2.3238 2.0655 4.6906 2.0656 7.1005-1.4e-4 4.4754-1.5493 7.8751-4.6476 10.199-0.77471 0.68854-1.6354 1.1619-2.582 1.4201 7.918 4.0451 13.039 9.3382 15.363 15.879 1.2048 3.6148 1.8073 7.8751 1.8074 12.781-1e-4 3.0123-0.04314 5.0349-0.12908 6.0677h-55.126"/>
 <path d="m109.66 299.15c-17.127 0-25.82-2.8832-26.078-8.6497-0.43034-7.9181-1.7644-13.9-4.0021-17.945-0.94673-1.6353-2.2808-3.6148-4.0021-5.9386-2.9263-3.873-4.5615-7.1435-4.9058-9.8116-0.08607-0.68853-0.12911-1.4201-0.12911-2.1947 0-5.4222 2.2808-9.6825 6.8423-12.781 1.1189-0.68854 2.2808-1.248 3.4857-1.6783 4.5615-1.6353 9.08-1.3771 13.555 0.77461 1.6353 0.77458 3.2705 1.8074 4.9058 3.0984l0.12911 0.12911c0-1.8074 0.08605-3.7439 0.2582-5.8095 0-0.60249 0.30122-1.4201 0.90369-2.4529 1.3771-2.2377 3.0123-4.0021 4.9058-5.2931 0.34426-0.17214 0.68853-0.38731 1.0328-0.6455v-3.0984l-5.2931-3.0984v-4.6476h4.7767l1.6783-4.9058h3.873l1.6783 4.9058h4.7767v4.6476l-5.2931 3.0984v3.0984c4.4755 2.8402 6.7562 5.6804 6.8423 8.5206 0.17213 1.7213 0.2582 3.6148 0.2582 5.6804l0.12911-0.12911c5.4222-4.5615 11.103-6.0246 17.041-4.3894 1.5492 0.43031 3.0123 1.0758 4.3894 1.9365 4.8197 2.9262 7.2726 7.2726 7.3587 13.039 0 3.4427-1.7213 7.5308-5.164 12.264-2.8402 3.9591-4.6046 6.8423-5.2931 8.6497-1.4631 3.873-2.3238 8.8648-2.582 14.976-0.17212 5.7665-8.8649 8.6497-26.078 8.6497m0-43.507 3.7439-5.9386c0.60247-1.291 1.0758-2.4959 1.4201-3.6148 0.17215-0.60246 0.25822-1.8504 0.25822-3.7439 0-5.0779-1.7644-7.6169-5.2931-7.6169-3.7008 0-5.5513 2.539-5.5513 7.6169 0 1.8935 0.08607 3.1414 0.2582 3.7439 0.68853 2.3238 2.1517 5.0779 4.3894 8.2624 0.51641 0.60247 0.77461 1.0328 0.77461 1.291m34.47-0.2582c0-3.873-1.291-6.8423-3.873-8.9079-2.1516-1.8074-4.6906-2.7111-7.6169-2.7111-3.7008 0-7.703 1.8934-12.006 5.6804-5.0779 4.3894-7.9612 10.328-8.6497 17.816 0 0.60246 1.5922 1.291 4.7767 2.0656 3.7009 0.68854 9.9837 1.0328 18.849 1.0328l5.8095-7.746c1.8074-2.7541 2.7111-5.164 2.7111-7.2296m-34.47 17.428c-2.1517 0.94675-8.6927 1.7644-19.623 2.4529-1.6353 0.08608-2.9693 0.17213-4.0021 0.2582 0.86068 3.2705 1.4201 6.8853 1.6783 10.844 5.9386-1.8935 13.254-2.8402 21.947-2.8402 8.8648 0 16.181 0.94672 21.947 2.8402 0.2582-4.3033 0.81763-7.9181 1.6783-10.844l-19.107-1.5492c-1.6353-0.25819-3.1414-0.64549-4.5185-1.1619m-34.47-17.428c0 2.6681 2.1086 6.7132 6.3259 12.135 1.0328 1.291 1.7644 2.2378 2.1947 2.8402h2.3238c8.8649 0 15.32-0.60246 19.365-1.8074 1.291-0.34426 1.9365-0.77458 1.9365-1.291-0.68854-7.4878-3.5718-13.426-8.6497-17.816-4.2173-3.7869-8.2194-5.6804-12.006-5.6804-1.2049 0-2.4959 0.25819-3.873 0.7746-3.4427 0.86066-5.7665 3.1414-6.9714 6.8423l-0.6455 3.4857v0.51639m34.47 39.117c8.0902 0 13.685-0.51641 16.783-1.5492 0.7746-0.25822 1.1619-0.55945 1.1619-0.90372 0-2.2377-5.9386-3.3566-17.816-3.3566-4.5615 0-8.9939 0.30125-13.297 0.90371-3.1845 0.51639-4.7767 1.334-4.7767 2.4529 0 1.291 5.0779 2.1086 15.234 2.4529h2.7111"/>
 <path d="m274.62 270.1h5.6804c1.2909 0 2.8401 0.04301 4.6476 0.12908l12.781 0.77461h0.12911c1.5491 0 2.3237-0.21518 2.3238-0.6455v-0.51641c-1.2e-4 -2.582-5.7235-4.2603-17.17-5.0349-2.0657-0.17215-3.8731-0.25821-5.4222-0.25821-8.4346 0-14.933 0.86067-19.494 2.582-2.0656 0.77458-3.0984 1.6783-3.0984 2.7111v0.51641c0 0.43032 0.77461 0.6455 2.3238 0.6455l17.299-0.90369m23.883 5.8095c-6.7994-0.86066-13.771-1.291-20.914-1.291-7.4879 0-14.459 0.43034-20.914 1.291 1.0328 0.86066 1.5492 2.539 1.5492 5.0349 0 1.6353-0.25819 2.625-0.77458 2.9693 5.164-0.94673 11.877-1.4201 20.14-1.4201s14.975 0.47337 20.14 1.4201c-0.51651-0.34427-0.77471-1.334-0.77461-2.9693-1e-4 -2.496 0.51631-4.1742 1.5492-5.0349m-20.914 11.103c-4.3895 0-9.2953 0.21517-14.717 0.64551-4.2173 0.34425-6.3259 1.334-6.3259 2.9693 0 2.1516 7.0144 3.2275 21.043 3.2275s21.043-1.0758 21.043-3.2275c-1e-4 -0.68854-0.55953-1.334-1.6783-1.9365-3.2706-1.1189-9.7256-1.6783-19.365-1.6783m0-67.519c-2.1518 0-3.2276 1.0328-3.2275 3.0984-1.3e-4 2.2377 1.0757 3.3566 3.2275 3.3566 2.0655 0 3.0983-1.1189 3.0984-3.3566-1e-4 -2.0656-1.0329-3.0984-3.0984-3.0984m0-3.7439c3.0983 0 5.25 1.4201 6.455 4.2603l0.6455 2.582v0.38731c-1.1e-4 0.51639-0.34437 1.5922-1.0328 3.2275-1.205 3.5287-1.8075 6.5841-1.8074 9.1661-1e-4 4.2173 0.94663 10.457 2.8402 18.72 4.6475-9.8116 6.9713-17.213 6.9714-22.205l-0.77459-5.5513c-1.3e-4 -3.0123 1.3339-5.164 4.0021-6.455 0.9466-0.51639 1.9794-0.77458 3.0984-0.77458 3.0983 0 5.293 1.377 6.5841 4.1312 0.51631 1.0328 0.77451 2.0656 0.77461 3.0984-1e-4 2.2377-0.77471 4.0021-2.3238 5.2931-2.3239 2.3238-3.5288 6.1107-3.6148 11.361-1e-4 2.2378 0.21505 5.8525 0.6455 10.844 5.5942-5.7665 8.3914-10.457 8.3915-14.072l-0.64549-5.0349c-1.3e-4 -2.8402 1.2909-4.9488 3.873-6.3259 1.0327-0.60248 2.1085-0.90372 3.2275-0.90372 2.9262 0 5.1208 1.334 6.5841 4.0021l0.77461 2.4529v0.77458c-1e-4 3.5288-1.9796 6.1968-5.9386 8.0042-0.17225 3.7009-1.5924 10.973-4.2603 21.818-0.17225 0.51641-0.30136 0.98976-0.38731 1.4201-1.1e-4 1.2049-1.3772 3.2705-4.1312 6.1968-3.701 3.7009-5.5514 6.5841-5.5513 8.6497-1e-4 0.94672 1.0327 3.4857 3.0984 7.6169 0.34418 0.77461 0.51629 1.9365 0.51639 3.4857v0.90369c-0.08617 0.25819-0.12921 0.55943-0.12908 0.90369v0.12911l0.12908 0.12909c-1e-4 3.0984-8.3055 4.8197-24.916 5.164h-3.2275l-5.4222-0.1291h-0.12911c-8.0904-0.2582-14.244-0.94673-18.461-2.0656-2.6681-0.77458-4.0021-1.7643-4.0021-2.9693 0.08607-0.08605 0.08607-0.60246 0-1.5492-0.08608-0.17213-0.08608-0.34427 0-0.51639 0-1.9795 0.6455-4.2603 1.9365-6.8423 1.0328-2.0656 1.5492-3.4857 1.5492-4.2603 0-1.3771-0.73156-3.0123-2.1947-4.9058l-6.3259-7.2296c-0.68852-0.94673-1.0328-1.8504-1.0328-2.7111-2.6681-10.93-4.1742-18.031-4.5185-21.301-0.08606-0.68854-0.1291-1.334-0.1291-1.9365-3.9591-1.8074-5.9386-4.4754-5.9386-8.0042 0-2.8402 1.291-4.9488 3.873-6.3259 1.1189-0.60248 2.2378-0.90372 3.3566-0.90372 3.0123 0 5.164 1.3771 6.455 4.1312 0.51639 0.94673 0.77458 1.9795 0.77458 3.0984l-0.6455 5.0349c0 3.7869 2.7541 8.4776 8.2624 14.072 0.43034-3.7869 0.6455-7.4017 0.6455-10.844 0-4.7336-0.55943-7.8751-1.6783-9.4243-0.43034-0.60246-1.0758-1.291-1.9365-2.0656-1.5492-1.0328-2.3238-2.7541-2.3238-5.164 0-3.0123 1.4201-5.207 4.2603-6.5841 0.94673-0.43035 1.9795-0.6455 3.0984-0.6455 3.0123 0 5.164 1.377 6.455 4.1312 0.51628 0.94673 0.77448 1.9795 0.77458 3.0984l-0.77458 5.4222v0.1291c0 4.9058 2.3237 12.308 6.9714 22.205 1.8073-7.832 2.711-14.072 2.7111-18.72-1e-4 -3.4426-0.6456-6.7132-1.9365-9.8116-0.51649-1.2049-0.7747-2.0656-0.77458-2.582-1.2e-4 -3.0123 1.3769-5.164 4.1312-6.455 0.94662-0.51639 1.9794-0.77458 3.0984-0.77458m37.31 15.879c-1.3772 0-2.3669 0.68854-2.9693 2.0656-0.08618 0.34427-0.12922 0.68852-0.12911 1.0328-1.1e-4 1.7213 0.77449 2.7972 2.3238 3.2275 0.25809 0.08605 0.51631 0.12909 0.77461 0.12909 2.1515 0 3.2274-1.1189 3.2275-3.3566-1.1e-4 -2.0656-1.076-3.0984-3.2275-3.0984m-16.912-8.2624c-1.4632 0-2.453 0.73157-2.9693 2.1947l-0.12909 1.0328c-1.2e-4 1.5492 0.73144 2.582 2.1947 3.0984 0.25809 0.08606 0.55932 0.12909 0.90369 0.12909 2.2376 0 3.3565-1.0758 3.3566-3.2275s-1.119-3.2275-3.3566-3.2275m-41.054 0c-2.1516 0-3.2275 1.0758-3.2275 3.2275s1.0758 3.2275 3.2275 3.2275c2.0656 0 3.0984-1.0758 3.0984-3.2275s-1.0328-3.2275-3.0984-3.2275m-16.912 8.2624c-2.1516 0-3.2275 1.0328-3.2275 3.0984 0 2.2378 1.0758 3.3566 3.2275 3.3566 2.0656 0 3.0984-1.1189 3.0984-3.3566 0-1.4631-0.73157-2.4529-2.1947-2.9693-0.25822-0.08605-0.55944-0.12909-0.90372-0.12909m37.568 8.2624c-1.205 7.5738-2.7542 13.039-4.6476 16.396l-1.9365 3.0984v0.12911c-0.25832-0.25822-1.3772-1.5492-3.3566-3.873-2.496-2.9263-5.121-8.4776-7.8751-16.654 0.17213 1.2049 0.2582 2.4529 0.2582 3.7439 0 4.0451-0.73157 10.285-2.1947 18.72-4.6476-2.7541-9.1661-7.1435-13.555-13.168 1.4631 7.4017 2.582 12.264 3.3566 14.588 0.51641 1.7213 1.1619 2.7111 1.9365 2.9693 7.0575-4.0451 16.396-6.0677 28.015-6.0677 11.705 0 21.043 2.0226 28.015 6.0677 1.5491-0.51639 3.2704-6.3689 5.164-17.558-4.4756 6.1968-8.951 10.586-13.426 13.168-1.4632-7.4878-2.1948-13.383-2.1947-17.687-1.1e-4 -1.1189 0.08594-2.7111 0.25819-4.7767-1.7214 5.164-3.701 9.7685-5.9386 13.814-1.205 1.8074-2.5391 3.5287-4.0021 5.164-0.68863 0.68853-1.119 1.2049-1.291 1.5492l-2.8402-5.0349c-0.08615-0.34426-0.21526-0.68853-0.38728-1.0328-0.68864-1.8935-1.8075-6.412-3.3566-13.555"/>
 <path d="m430.41 249.06v22.851h29.435v-22.851h-29.435m-15.234 50.091-2.4529-2.4529v-8.9079l13.168-13.297v-25.82l-11.361-9.9407v-11.748l3.7439-3.6148h11.619l2.1947 2.1947v3.3566h3.7439v-3.3566l2.1947-2.1947h14.201l2.1947 2.1947v3.3566h3.6148v-3.3566l2.3238-2.1947h11.619l3.7439 3.6148v11.748l-11.361 9.9407v25.82l13.168 13.297v8.9079l-2.4529 2.4529h-59.902m2.0656-10.199v5.0349h55.771v-5.0349h-55.771m12.652-12.781-8.5206 8.2624h47.509l-8.5206-8.2624h-30.468m10.328-47.38v3.3566l-1.9365 1.8074h-8.3915l-1.9365-1.8074v-3.6148h-7.2296l-1.6783 1.8074v7.2296l8.7788 7.1005h34.599l8.7788-7.1005v-7.2296l-1.6783-1.8074h-7.2296v3.6148l-1.9365 1.8074h-8.3915l-1.9365-1.8074v-3.3566h-9.8116"/>
 <path d="m613.06 264.16c-6.0248 0-10.715-0.25821-14.072-0.7746 0.60235 1.2049 0.90359 2.2377 0.90369 3.0984-1e-4 1.291-0.2583 2.3668-0.77458 3.2275 2.4958-0.7746 7.1434-1.1619 13.943-1.1619s11.447 0.38731 13.943 1.1619c-0.5165-0.86067-0.77469-1.9365-0.77459-3.2275-1e-4 -1.0328 0.25809-2.0656 0.77459-3.0984-4.0452 0.51639-8.6928 0.7746-13.943 0.7746m0-46.734c-1.8075 0-3.0555 0.81761-3.7439 2.4529-0.17225 0.43033-0.2583 0.86068-0.2582 1.291-1e-4 1.8935 0.94662 3.1414 2.8402 3.7439 0.34416 0.08607 0.73147 0.12911 1.1619 0.12911 1.9794 0 3.2704-0.90372 3.873-2.7111 0.08595-0.34428 0.12898-0.73158 0.12911-1.1619-1.3e-4 -1.7213-0.86078-2.8832-2.582-3.4857-0.5165-0.17214-0.98988-0.25819-1.4201-0.25819m0 54.867c-3.2706 0-7.4879 0.30124-12.652 0.9037-1.4631 0.17215-2.3238 0.98977-2.582 2.4529 0 1.0328 2.3667 1.6783 7.1005 1.9365-0.43044-0.08607-0.2583-0.12911 0.51641-0.12911h7.6169c10.07 0 15.105-0.60246 15.105-1.8074-1.2e-4 -1.9795-2.496-3.0554-7.4878-3.2275h-3.7439c-1.119 0-2.0657-0.04304-2.8402-0.12911h-1.0328m-0.12911-11.877c9.6394 0 15.535-0.90369 17.687-2.7111 1.463-1.1189 2.5388-4.0882 3.2275-8.9079-0.43044-4.3033-3.2276-8.4345-8.3915-12.394-4.8198-3.7869-9.0371-5.8956-12.652-6.3259-3.3567 0.43034-7.4449 2.539-12.264 6.3259-5.0779 3.9591-7.832 8.0903-8.2624 12.394 0.60248 4.4755 1.5492 7.3157 2.8402 8.5206 0.34426 0.34427 0.73157 0.6455 1.1619 0.90369 2.1517 1.4632 7.7029 2.1947 16.654 2.1947m-2.1947-6.3259v-5.6804h-4.3894v-5.0349h4.3894v-5.5513h4.6476v5.5513h4.3894v5.0349h-4.3894v5.6804h-4.6476m2.0656 26.336c-0.77469 0-3.0555 1.5062-6.8423 4.5185-2.6682 1.8074-6.9714 2.8832-12.91 3.2275-4.3033 0-7.746 0.21516-10.328 0.6455-2.7541 0.60246-4.1312 1.7644-4.1312 3.4857 0.2582 1.7213 1.1619 2.582 2.7111 2.582l6.8423-1.0328c4.4754 0 9.1661-0.60246 14.072-1.8074 5.5942-1.4631 9.209-3.7869 10.844-6.9714 2.3237 4.5616 8.3483 7.3157 18.074 8.2624l3.3566 0.51641h3.3566l6.9714 1.0328c1.5491 0 2.4528-0.86067 2.7111-2.582-1e-4 -1.7213-1.3772-2.8832-4.1312-3.4857l-13.814-1.0328c-4.3895-0.34427-8.6068-2.0656-12.652-5.164-1.8075-1.4632-3.1846-2.1947-4.1312-2.1947m0.25821 11.232c-3.3567 3.3566-8.4346 5.4222-15.234 6.1968-2.7541 0.25819-7.5739 0.86066-14.459 1.8074-1.8074 0.34428-2.8402 1.1619-3.0984 2.4529-1.6353-0.43033-4.0451-3.0984-7.2296-8.0042-0.7746-1.2049-1.334-2.0226-1.6783-2.4529 2.8402-5.4222 6.3689-8.1333 10.586-8.1333l7.6169 0.3873c3.5287 0 7.6599-0.81764 12.394-2.4529-6.1107-0.77459-9.1661-2.625-9.1661-5.5513l2.582-9.8116v-0.25822c-5.164-5.6804-7.746-11.017-7.746-16.008 0-5.6804 2.7972-10.844 8.3915-15.492 4.9057-4.1312 8.5205-6.3259 10.844-6.5841-1.8936-2.3238-2.8403-4.7336-2.8402-7.2296-1.1e-4 -3.9591 1.9794-6.455 5.9386-7.4878 0.94662-0.25809 1.9794-0.3872 3.0984-0.38731 4.2172 1.1e-4 6.9713 1.5922 8.2624 4.7767l0.6455 2.7111v0.38728c-1e-4 2.6681-0.90382 5.0779-2.7111 7.2296 2.3237 0.25821 5.9815 2.4959 10.974 6.7132 5.5081 4.5615 8.2623 9.6825 8.2624 15.363-1.1e-4 4.8197-2.5821 10.156-7.746 16.008-1e-4 1.205 0.43023 2.9263 1.291 5.164 0.86056 2.7541 1.2909 4.3894 1.291 4.9058-1e-4 2.9263-3.0555 4.7767-9.1661 5.5513 4.6475 1.6353 8.7787 2.4529 12.394 2.4529l7.6169-0.3873c4.2172 0 7.7459 2.7111 10.586 8.1333l-4.3894 6.7132c-1.4632 1.8935-2.9694 3.1414-4.5185 3.7439-0.34438-1.7213-2.8403-2.7972-7.4878-3.2275 0.60235 0-0.68864-0.12911-3.873-0.3873-10.758-1.0328-17.902-3.3136-21.431-6.8423"/>
 <path d="m750.65 268.68c1.2049 0 1.8074 0.81763 1.8074 2.4529 0 2.1517-1.0758 3.2275-3.2275 3.2275-0.86065 0-1.291-0.68853-1.291-2.0656 0-2.4099 0.90369-3.6148 2.7111-3.6148m9.2952-15.75c-1.2049 0-1.8074-0.73155-1.8074-2.1947 0-2.3238 1.3771-4.2172 4.1312-5.6804 1.2049-0.60246 2.3238-0.90369 3.3566-0.90369 1.8074 0 2.7972 0.60246 2.9693 1.8074 0 1.9795-1.5492 3.873-4.6476 5.6804-1.5492 0.86069-2.8832 1.291-4.0021 1.291m1.0328-24.271c0.34426 1.2049 0.51639 2.0226 0.51639 2.4529 0 0.25821-0.12909 0.94673-0.3873 2.0656 1.3771 0 3.2706-0.68853 5.6804-2.0656-2.3238-1.2049-4.2603-2.0226-5.8095-2.4529m-15.363 44.41c0.51641 2.0656 1.8935 3.5718 4.1312 4.5185 0.86067 0.34427 1.6783 0.51639 2.4529 0.51639h0.25821c0.17213 0 1.1189-0.51639 2.8402-1.5492 0.51639-0.34427 0.94673-0.51639 1.291-0.51639h0.51639c0.43033 0 0.64552 0.25819 0.64552 0.77458l-0.77461 2.4529c0 0.7746 0.60246 1.1619 1.8074 1.1619 0.17214 0 1.248-1.5062 3.2275-4.5185 3.7869-5.8525 9.1661-10.285 16.137-13.297 0.68852-4.6476 2.4099-8.7358 5.164-12.264 0.68854-0.94674 1.3771-1.4201 2.0656-1.4201 0.77461 0 1.1619 0.55943 1.1619 1.6783 0 0.25822-0.7746 2.7111-2.3238 7.3587-0.60247 1.9795-0.90371 3.4427-0.90371 4.3894 0 0.25819 0.08607 0.81763 0.25822 1.6783 0 6.1107-2.582 12.523-7.746 19.236-3.4427 4.6476-5.3361 8.3485-5.6804 11.103h42.603c0.34428-3.9591 0.51641-6.8853 0.51641-8.7788 0-17.73-5.5513-31.888-16.654-42.474-3.3566-3.0984-6.0677-4.6476-8.1333-4.6476h-7.746c-0.68854-0.34427-1.3771-2.0656-2.0656-5.164-0.51639-2.4959-1.1619-4.0451-1.9365-4.6476-1.0328 3.0984-4.2173 5.5083-9.5534 7.2296-2.8402 0.86066-4.8197 1.7213-5.9386 2.582-0.94673 3.0123-3.7439 9.1231-8.3915 18.332-4.5615 9.123-6.9714 14.545-7.2296 16.267m72.296 26.078h-54.093c0.34426-5.9386 2.582-11.619 6.7132-17.041 3.1845-4.3033 5.0779-6.9284 5.6804-7.8751 1.2049-1.8935 1.9365-4.1742 2.1947-6.8423-5.5943 2.4098-9.9407 5.8525-13.039 10.328l-1.8074 2.9693c-1.291 2.0656-2.1086 3.2275-2.4529 3.4857-0.51639 0.43033-1.0758 0.6455-1.6783 0.6455-2.668 0-4.4755-0.9037-5.4222-2.7111-0.17215-0.2582-0.25821-0.55943-0.25821-0.9037-0.86067 0.43033-1.7213 0.6455-2.582 0.6455-4.1312 0-7.4017-2.582-9.8116-7.746 0.68853-3.7869 4.3033-12.523 10.844-26.207 0.68854-1.291 1.205-2.3238 1.5492-3.0984 2.582-5.7665 3.873-10.113 3.873-13.039 0-0.43032-0.25819-2.8402-0.77461-7.2296h1.0328c4.6476 0 9.08 1.4631 13.297 4.3894 2.3238-4.0451 4.2603-6.0677 5.8095-6.0677 2.7541 1.4631 4.6476 3.5287 5.6804 6.1968l1.4201 4.2603c0.86065-0.17214 1.5922-0.2582 2.1947-0.2582 6.8853 0 13.685 4.3894 20.398 13.168 7.8321 10.242 11.748 24.271 11.748 42.087 0 4.0451-0.17212 7.6599-0.51639 10.844"/>
 <path d="m972.16 293.99c-1e-4 -9.037-2.453-15.793-7.3587-20.269-1.6354-1.5492-3.6579-3.0123-6.0677-4.3894-3.3567-1.9795-5.035-3.7869-5.0349-5.4222-1e-4 -0.86067 0.86055-1.8074 2.582-2.8402 2.668-1.4631 4.2602-3.1845 4.7767-5.164 0.17202-0.77458 0.25809-1.7213 0.25819-2.8402-1e-4 -3.9591-2.0227-7.0575-6.0677-9.2952l-2.3238-1.6783c-0.43045-0.43032-0.64561-0.9037-0.6455-1.4201-1.1e-4 -1.4631 0.51628-2.9263 1.5492-4.3894 0.68843-0.94672 1.0327-2.0656 1.0328-3.3566-1e-4 -2.2377-1.205-3.873-3.6148-4.9058-0.77471-0.25821-1.5493-0.3873-2.3238-0.3873-2.41 0-4.1313 1.0758-5.164 3.2275-0.34436 0.68854-0.51651 1.3771-0.51641 2.0656-1e-4 0.77461 0.55935 2.2377 1.6783 4.3894 0.68843 1.2049 0.98966 2.3238 0.90372 3.3566-1.4e-4 1.0328-0.9899 2.0656-2.9693 3.0984-3.9592 2.3238-5.9387 5.4222-5.9386 9.2952-1.3e-4 3.3566 1.6782 6.0247 5.0349 8.0042 1.6352 1.1188 2.4528 2.0656 2.4529 2.8402-1.1e-4 1.6353-1.6784 3.4427-5.0349 5.4222-6.1968 3.7869-10.156 8.3915-11.877 13.814-0.94673 3.0123-1.4201 6.6271-1.4201 10.844h46.089m-50.607 5.164c-0.08607-1.0328-0.12911-3.0123-0.12911-5.9386 0-10.586 3.0984-18.504 9.2952-23.754 2.0656-1.7213 4.6905-3.3996 7.8751-5.0349-3.2705-1.0328-5.4652-3.5288-6.5841-7.4878-0.43032-1.291-0.6455-2.625-0.6455-4.0021 0-5.7664 2.9263-9.8977 8.7788-12.394-1.3772-2.496-2.0657-4.9488-2.0656-7.3587-1.1e-4 -3.9591 1.9364-6.8853 5.8095-8.7788 1.6352-0.77461 3.3995-1.1619 5.2931-1.1619 4.3893 0 7.6168 1.6783 9.6825 5.0349 0.94663 1.4631 1.42 3.0984 1.4201 4.9058-1e-4 2.3238-0.77471 4.7767-2.3238 7.3587 5.9385 2.4099 8.9078 6.541 8.9079 12.394-1.1e-4 4.5616-1.6784 8.0042-5.0349 10.328-0.68863 0.51641-1.4632 0.90371-2.3238 1.1619 7.7459 3.9591 12.781 8.994 15.105 15.105 1.463 3.7869 2.1946 8.3485 2.1947 13.685-1e-4 2.8402-0.04314 4.8197-0.12911 5.9386h-55.126"/>
</svg>
