<?xml version="1.0" encoding="utf-8"?>
<!-- Generator: Adobe Illustrator 14.0.0, SVG Export Plug-In . SVG Version: 6.00 Build 43363)  -->
<!DOCTYPE svg PUBLIC "-//W3C//DTD SVG 1.1//EN" "http://www.w3.org/Graphics/SVG/1.1/DTD/svg11.dtd">
<svg version="1.1" id="Layer_1" xmlns="http://www.w3.org/2000/svg" xmlns:xlink="http://www.w3.org/1999/xlink" x="0px" y="0px"
	 width="306px" height="344.35px" viewBox="0 0 306 344.35" enable-background="new 0 0 306 344.35" xml:space="preserve">
<path fill="#686868" d="M302.107,258.262c2.399-4.159,3.893-8.845,3.893-13.053V99.14c0-4.208-1.49-8.893-3.893-13.052L12.5,174.675
	L302.107,258.262z"/>
<path fill="#363636" d="M166.25,341.193l126.5-73.032c3.645-2.104,6.956-5.737,9.357-9.897L83.833,132.675L3.893,258.263
	c2.401,4.159,5.714,7.793,9.357,9.896l126.5,73.032C147.037,345.401,158.963,345.401,166.25,341.193z"/>
<path fill="#909090" d="M302.107,86.087c-2.401-4.16-5.715-7.793-9.357-9.897L166.25,3.156c-7.287-4.208-19.213-4.208-26.5,0
	L13.25,76.19C5.962,80.397,0,90.725,0,99.14v146.069c0,4.208,1.491,8.894,3.893,13.053L153,172.175L302.107,86.087z"/>
<g>
	<path fill="#FFFFFF" d="M153,274.175c-56.243,0-102-45.757-102-102s45.757-102,102-102c36.292,0,70.139,19.53,88.331,50.968
		l-44.144,25.544c-9.104-15.734-26.037-25.512-44.188-25.512c-28.122,0-51,22.878-51,51c0,28.121,22.878,51,51,51
		c18.151,0,35.085-9.776,44.19-25.515l44.144,25.543C223.143,254.644,189.294,274.175,153,274.175z"/>
</g>
<g>
	<polygon fill="#FFFFFF" points="293.088,158.449 269.725,158.449 269.725,135.086 246.363,135.086 246.363,158.449 223,158.449 
		223,181.811 246.363,181.811 246.363,205.175 269.725,205.175 269.725,181.811 293.088,181.811 	"/>
</g>
</svg>
