<?xml version="1.0" encoding="utf-8"?>
<!-- Generator: Adobe Illustrator 14.0.0, SVG Export Plug-In . SVG Version: 6.00 Build 43363)  -->
<!DOCTYPE svg PUBLIC "-//W3C//DTD SVG 1.1//EN" "http://www.w3.org/Graphics/SVG/1.1/DTD/svg11.dtd">
<svg version="1.1" id="Layer_1" xmlns="http://www.w3.org/2000/svg" xmlns:xlink="http://www.w3.org/1999/xlink" x="0px" y="0px"
	 width="325px" height="365px" viewBox="0 0 325 365" enable-background="new 0 0 325 365" xml:space="preserve">
<path id="XMLID_3_" fill="#9B4A94" d="M325.361,107.81c-0.003-6.137-1.314-11.561-3.97-16.215
	c-2.607-4.577-6.512-8.413-11.75-11.446c-43.234-24.929-86.51-49.782-129.729-74.737c-11.651-6.727-22.949-6.481-34.516,0.342
	c-17.208,10.148-103.365,59.51-129.039,74.38C5.785,86.255,0.64,95.622,0.637,107.798c-0.017,50.134,0,100.267-0.017,150.401
	c0.003,6.003,1.259,11.32,3.797,15.904c2.608,4.715,6.567,8.656,11.926,11.758c25.675,14.871,111.844,64.229,129.048,74.381
	c11.57,6.827,22.868,7.071,34.523,0.342c43.222-24.956,86.499-49.809,129.74-74.736c5.358-3.101,9.317-7.045,11.926-11.757
	c2.534-4.584,3.793-9.901,3.797-15.905C325.379,258.188,325.379,157.945,325.361,107.81"/>
<path id="XMLID_4_" fill="#6A2876" d="M163.497,182.511L4.418,274.105c2.608,4.715,6.567,8.656,11.926,11.758
	c25.675,14.871,111.844,64.229,129.048,74.38c11.57,6.827,22.868,7.071,34.523,0.342c43.222-24.956,86.499-49.808,129.74-74.735
	c5.358-3.102,9.317-7.045,11.926-11.758L163.497,182.511"/>
<path id="XMLID_5_" fill="#6A2876" d="M116.379,209.643c9.257,16.159,26.659,27.061,46.621,27.061
	c20.085,0,37.586-11.038,46.796-27.371l-46.299-26.82L116.379,209.643"/>
<path id="XMLID_6_" fill="#823084" d="M325.361,107.81c-0.003-6.137-1.314-11.561-3.97-16.215l-157.896,90.916l158.085,91.581
	c2.534-4.584,3.794-9.9,3.797-15.904C325.379,258.188,325.379,157.945,325.361,107.81"/>
<path id="XMLID_9_" fill="#FFFFFF" d="M209.796,209.331c-9.21,16.333-26.711,27.371-46.796,27.371
	c-19.962,0-37.364-10.9-46.621-27.062c-4.497-7.853-7.083-16.943-7.083-26.643c0-29.659,24.045-53.702,53.703-53.702
	c19.834,0,37.144,10.764,46.445,26.759l46.939-27.029c-18.657-32.206-53.489-53.874-93.386-53.874
	c-59.563,0-107.848,48.285-107.848,107.846c0,19.54,5.198,37.863,14.284,53.67c18.61,32.376,53.542,54.178,93.563,54.178
	c40.096,0,75.081-21.889,93.664-54.359L209.796,209.331"/>
<g id="XMLID_32_">
	<rect id="XMLID_1_" x="258.44" y="157.5" fill="#FFFFFF" width="10.667" height="51.667"/>
	<rect id="XMLID_30_" x="282.107" y="157.5" fill="#FFFFFF" width="10.666" height="51.667"/>
	<rect id="XMLID_31_" x="249.773" y="166.167" fill="#FFFFFF" width="51.667" height="10.667"/>
	<rect id="XMLID_23_" x="249.773" y="189.833" fill="#FFFFFF" width="51.667" height="10.667"/>
</g>
</svg>
