<?xml version="1.0" encoding="utf-8"?>
<!-- Generator: Adobe Illustrator 14.0.0, SVG Export Plug-In . SVG Version: 6.00 Build 43363)  -->
<!DOCTYPE svg PUBLIC "-//W3C//DTD SVG 1.1//EN" "http://www.w3.org/Graphics/SVG/1.1/DTD/svg11.dtd">
<svg version="1.1" id="Layer_1" xmlns="http://www.w3.org/2000/svg" xmlns:xlink="http://www.w3.org/1999/xlink" x="0px" y="0px"
	 width="100px" height="140px" viewBox="0 0 100 140" enable-background="new 0 0 100 140" xml:space="preserve">
<path fill="#010101" d="M9.641,1h6.289v6.234h5.797V1h6.289v18.867h-6.289v-6.289h-5.742v6.289H9.641 M36.328,7.289h-5.551V1h17.418
	v6.289h-5.578v12.578h-6.289 M50.957,1h6.59l4.047,6.645L65.641,1h6.59v18.867h-6.289v-9.352l-4.402,6.781l-4.402-6.781v9.352h-6.18
	 M75.348,1h6.289v12.633h8.914v6.234H75.348"/>
<path fill="#E44F26" d="M9.422,129.789L0.398,28.508h99.203l-9.023,101.227L49.918,141"/>
<path fill="#F1662A" d="M50,132.387V36.82h40.551l-7.738,86.406"/>
<path fill="#EBEBEB" d="M18.828,49.207H50v12.414H32.445l1.148,12.715H50v12.387H22.219 M22.766,92.957h12.469l0.875,9.926
	L50,106.602v12.961l-25.484-7.109"/>
<path fill="#FFFFFF" d="M81.063,49.207H49.945v12.414h29.969 M78.793,74.336H49.945V86.75h15.313l-1.449,16.133l-13.863,3.719
	v12.906l25.43-7.055"/>
</svg>
