<?xml version="1.0" encoding="utf-8"?>
<!-- Generator: Adobe Illustrator 14.0.0, SVG Export Plug-In . SVG Version: 6.00 Build 43363)  -->
<!DOCTYPE svg PUBLIC "-//W3C//DTD SVG 1.1//EN" "http://www.w3.org/Graphics/SVG/1.1/DTD/svg11.dtd">
<svg version="1.1" id="Layer_1" xmlns="http://www.w3.org/2000/svg" xmlns:xlink="http://www.w3.org/1999/xlink" x="0px" y="0px"
	 width="50px" height="50px" viewBox="0 0 50 50" enable-background="new 0 0 50 50" xml:space="preserve">
<path fill="#010101" d="M7.499,3.966c-2.066,1.227-6.135,5.901-6.173,7.127v2.029c0,2.572,2.404,4.833,4.588,4.833
	c2.621,0,4.805-2.172,4.805-4.751c0,2.579,2.11,4.751,4.731,4.751c2.621,0,4.663-2.172,4.663-4.751c0,2.579,2.243,4.751,4.864,4.751
	h0.048c2.621,0,4.865-2.172,4.865-4.751c0,2.579,2.04,4.751,4.662,4.751s4.73-2.172,4.73-4.751c0,2.579,2.184,4.751,4.806,4.751
	c2.183,0,4.587-2.26,4.587-4.833v-2.029c-0.039-1.226-4.107-5.901-6.173-7.127C36.083,3.741,31.633,3.702,25,3.703
	C18.368,3.704,9.326,3.807,7.499,3.966L7.499,3.966z M20.08,16.745c-0.251,0.437-0.561,0.836-0.922,1.188
	c-0.99,0.967-2.346,1.567-3.842,1.567c-1.439,0.001-2.821-0.562-3.849-1.568c-0.359-0.351-0.631-0.727-0.881-1.164l-0.001,0.001
	c-0.25,0.438-0.596,0.813-0.956,1.165C8.6,18.938,7.218,19.501,5.779,19.5c-0.18,0-0.368-0.05-0.52-0.102
	c-0.211,2.194-0.3,4.292-0.331,5.821v0.009c-0.004,0.776-0.008,1.415-0.012,2.302c0.041,4.604-0.456,14.923,2.03,17.458
	c3.853,0.898,10.941,1.309,18.053,1.311h0.001c7.111-0.002,14.201-0.412,18.053-1.311c2.487-2.535,1.989-12.854,2.03-17.458
	c-0.005-0.887-0.007-1.525-0.012-2.302v-0.009c-0.031-1.53-0.12-3.626-0.331-5.821c-0.152,0.052-0.339,0.102-0.52,0.102
	c-1.438,0.002-2.82-0.561-3.849-1.567c-0.359-0.351-0.707-0.727-0.957-1.165l-0.001,0c-0.249,0.437-0.522,0.813-0.88,1.164
	c-1.028,1.006-2.411,1.569-3.85,1.567c-1.496,0-2.852-0.6-3.842-1.567c-0.361-0.351-0.671-0.75-0.922-1.188
	c-0.248,0.437-0.557,0.837-0.913,1.188c-1.029,1.006-2.411,1.569-3.851,1.567c-0.053,0-0.104-0.001-0.156-0.003h-0.001
	c-0.053,0.002-0.104,0.003-0.157,0.003c-1.439,0.002-2.821-0.561-3.85-1.567C20.635,17.58,20.328,17.18,20.08,16.745L20.08,16.745z
	 M16.126,21.856l0,0.002h0.003c1.566,0.003,2.957,0,4.68,1.881c1.356-0.143,2.773-0.214,4.192-0.212h0.001
	c1.418-0.002,2.835,0.069,4.191,0.212c1.723-1.881,3.114-1.878,4.68-1.881h0.002v-0.002c0.74,0,3.699,0,5.761,5.79l2.214,7.944
	c1.642,5.91-0.524,6.055-3.228,6.061c-4.007-0.15-6.227-3.061-6.227-5.971c-2.219,0.364-4.806,0.545-7.394,0.545h-0.002
	c-2.587,0-5.175-0.181-7.394-0.545c0,2.91-2.219,5.82-6.227,5.971C8.677,41.645,6.51,41.5,8.151,35.59l2.216-7.942
	C12.428,21.856,15.387,21.856,16.126,21.856L16.126,21.856z M25,26.407L25,26.407c-0.004,0.004-4.219,3.876-4.977,5.252l2.76-0.11
	v2.407c0,0.112,1.108,0.067,2.217,0.015h0.001c1.108,0.053,2.217,0.098,2.217-0.015v-2.407l2.76,0.11
	C29.22,30.283,25.001,26.408,25,26.407L25,26.407L25,26.407L25,26.407z"/>
</svg>
