<?xml version="1.0" encoding="utf-8"?>
<!-- Generator: Adobe Illustrator 14.0.0, SVG Export Plug-In . SVG Version: 6.00 Build 43363)  -->
<!DOCTYPE svg PUBLIC "-//W3C//DTD SVG 1.1//EN" "http://www.w3.org/Graphics/SVG/1.1/DTD/svg11.dtd">
<svg version="1.1" id="Layer_1" xmlns="http://www.w3.org/2000/svg" xmlns:xlink="http://www.w3.org/1999/xlink" x="0px" y="0px"
	 width="274px" height="372px" viewBox="0 0 274 372" enable-background="new 0 0 274 372" xml:space="preserve">
<path fill="#5482A2" d="M88.495,287.912c0,0-14.178,8.244,10.09,11.035c29.4,3.354,44.426,2.873,76.825-3.26
	c0,0,8.518,5.342,20.414,9.967C123.194,336.783,31.448,303.852,88.495,287.912"/>
<path fill="#5482A2" d="M79.62,247.292c0,0-15.902,11.771,8.384,14.282c31.406,3.24,56.208,3.506,99.125-4.758
	c0,0,5.937,6.018,15.271,9.309C114.585,291.803,16.776,268.15,79.62,247.292"/>
<path fill="#F89921" d="M154.439,178.387c17.896,20.604-4.702,39.145-4.702,39.145s45.44-23.457,24.572-52.833
	c-19.491-27.394-34.438-41.005,46.479-87.934C220.788,76.765,93.775,108.487,154.439,178.387"/>
<path fill="#5482A2" d="M250.498,317.957c0,0,10.492,8.645-11.555,15.333c-41.923,12.7-174.488,16.534-211.314,0.506
	c-13.237-5.759,11.587-13.751,19.396-15.429c8.144-1.766,12.798-1.437,12.798-1.437c-14.722-10.37-95.157,20.364-40.857,29.166
	C167.05,370.111,288.909,335.283,250.498,317.957"/>
<path fill="#5482A2" d="M95.313,205.205c0,0-67.432,16.016-23.879,21.832c18.389,2.462,55.047,1.904,89.192-0.956
	c27.906-2.354,55.928-7.359,55.928-7.359s-9.841,4.214-16.96,9.075c-68.475,18.009-200.756,9.631-162.674-8.79
	C69.127,203.439,95.313,205.205,95.313,205.205"/>
<path fill="#5482A2" d="M216.276,272.818c69.607-36.17,37.424-70.931,14.96-66.248c-5.506,1.146-7.961,2.14-7.961,2.14
	s2.044-3.202,5.948-4.588c44.44-15.624,78.618,46.081-14.347,70.521C214.877,274.643,215.954,273.68,216.276,272.818"/>
<path fill="#F89921" d="M174.31,0.987c0,0,38.55,38.563-36.563,97.862c-60.232,47.568-13.735,74.69-0.024,105.679
	C102.563,172.805,76.76,144.88,94.07,118.89C119.478,80.739,189.863,62.242,174.31,0.987"/>
<path fill="#5482A2" d="M102.153,370.834c66.814,4.277,169.417-2.373,171.847-33.988c0,0-4.671,11.985-55.219,21.503
	c-57.028,10.732-127.364,9.479-169.081,2.601C49.701,360.949,58.24,368.018,102.153,370.834"/>
</svg>
