<?xml version="1.0" encoding="utf-8"?>
<!-- Generator: Adobe Illustrator 14.0.0, SVG Export Plug-In . SVG Version: 6.00 Build 43363)  -->
<!DOCTYPE svg PUBLIC "-//W3C//DTD SVG 1.1//EN" "http://www.w3.org/Graphics/SVG/1.1/DTD/svg11.dtd">
<svg version="1.1" id="Layer_1" xmlns="http://www.w3.org/2000/svg" xmlns:xlink="http://www.w3.org/1999/xlink" x="0px" y="0px"
	 width="170px" height="70px" viewBox="0 0 170 70" enable-background="new 0 0 170 70" xml:space="preserve">
<path id="path2389_5_" fill="#EA262A" d="M21.343,22.973V63.24h14.765c0,0-0.021-44.203-0.021-50.024
	c0-5.81,4.049-5.014,4.049-5.014h-4.028C27.954,8.202,21.343,14.819,21.343,22.973z"/>
<path id="path2389_3_" fill="#E9282C" d="M2.555,35.764v27.498h14.76c0,0-0.022-31.434-0.022-37.254c0-5.811,4.05-5.069,4.05-5.069
	l-4.028,0.054C9.161,20.993,2.555,27.61,2.555,35.764z"/>
<rect id="M_Left_1_" x="40.136" y="8.202" fill="#EE6843" width="14.765" height="55.038"/>
<rect id="S_Center_1_" x="115.314" y="28.336" fill="#2DA9E1" width="52.365" height="14.77"/>
<path id="path2389_1_" fill="#51B748" d="M115.4,23.627l-0.055,4.033c0,0-0.74-4.055,5.07-4.055c5.82,0,29.584,0.021,29.584,0.021
	V8.867h-19.828C122.018,8.867,115.4,15.473,115.4,23.627z"/>
<path id="path2389_2_" fill="#2DA9E1" d="M167.594,47.805l0.055-4.033c0,0,0.74,4.055-5.07,4.055c-5.82,0-47.264-0.021-47.264-0.021
	v14.76h37.508C160.977,62.564,167.594,55.959,167.594,47.805z"/>
<g>
	<g>
		<g>
			<path fill="#FFCB0C" d="M85,8.651c-6.626,0-12.704,2.342-17.454,6.242l-3.379,3.306c0,0,3.479-3.206,6.975,0.291
				s35.134,35.133,35.134,35.133c3.899-4.748,6.241-10.824,6.241-17.447C112.519,20.969,100.2,8.651,85,8.651z"/>
		</g>
	</g>
	<g>
		<g>
			<path fill="#FFCB0C" d="M99.55,53.581c-3.253-3.253-35.382-35.382-35.382-35.382c-4.164,4.823-6.687,11.102-6.687,17.977
				c0,15.195,12.318,27.514,27.52,27.514c6.872,0,13.149-2.523,17.971-6.687l3.306-3.38C106.277,53.623,102.803,56.834,99.55,53.581
				z"/>
		</g>
	</g>
</g>
</svg>
