<?xml version="1.0" encoding="utf-8"?>
<!-- Generator: Adobe Illustrator 14.0.0, SVG Export Plug-In . SVG Version: 6.00 Build 43363)  -->
<!DOCTYPE svg PUBLIC "-//W3C//DTD SVG 1.1//EN" "http://www.w3.org/Graphics/SVG/1.1/DTD/svg11.dtd">
<svg version="1.1" id="Layer_1" xmlns="http://www.w3.org/2000/svg" xmlns:xlink="http://www.w3.org/1999/xlink" x="0px" y="0px"
	 width="170px" height="70px" viewBox="0 0 170 70" enable-background="new 0 0 170 70" xml:space="preserve">
<path id="path2389_5_" fill="#EA262A" d="M21.348,8.202H17.32c0,0,4.049-0.796,4.049,5.014c0,5.821-0.021,50.024-0.021,50.024
	h14.765V22.973C36.113,14.819,29.502,8.202,21.348,8.202z"/>
<path id="path2389_3_" fill="#EF6842" d="M40.141,20.993l-4.028-0.054c0,0,4.05-0.741,4.05,5.069c0,5.82-0.022,37.254-0.022,37.254
	h14.76V35.764C54.901,27.61,48.295,20.993,40.141,20.993z"/>
<rect id="M_Left_1_" x="2.555" y="8.202" fill="#EA262A" width="14.765" height="55.038"/>
<rect id="S_Center_1_" x="115.314" y="28.336" fill="#2DA9E1" width="52.365" height="14.77"/>
<path id="path2389_1_" fill="#51B748" d="M115.4,23.627l-0.055,4.033c0,0-0.74-4.055,5.07-4.055c5.82,0,47.264,0.021,47.264,0.021
	V8.867h-37.508C122.018,8.867,115.4,15.473,115.4,23.627z"/>
<path id="path2389_2_" fill="#2DA9E1" d="M167.594,47.805l0.055-4.033c0,0,0.74,4.055-5.07,4.055c-5.82,0-47.264-0.021-47.264-0.021
	v14.76h37.508C160.977,62.564,167.594,55.959,167.594,47.805z"/>
<g>
	<g>
		<g>
			<path fill="#FFCB0C" d="M85,8.651c-6.626,0-12.704,2.342-17.454,6.242l-3.379,3.306c0,0,3.479-3.206,6.975,0.291
				s35.134,35.133,35.134,35.133c3.899-4.748,6.241-10.824,6.241-17.447C112.519,20.969,100.2,8.651,85,8.651z"/>
		</g>
	</g>
	<g>
		<g>
			<path fill="#FFCB0C" d="M99.55,53.581c-3.253-3.253-35.382-35.382-35.382-35.382c-4.164,4.823-6.687,11.102-6.687,17.977
				c0,15.195,12.318,27.514,27.52,27.514c6.872,0,13.149-2.523,17.971-6.687l3.306-3.38C106.277,53.623,102.803,56.834,99.55,53.581
				z"/>
		</g>
	</g>
</g>
</svg>
