<?xml version="1.0" encoding="utf-8"?>
<!-- Generator: Adobe Illustrator 14.0.0, SVG Export Plug-In . SVG Version: 6.00 Build 43363)  -->
<!DOCTYPE svg PUBLIC "-//W3C//DTD SVG 1.1//EN" "http://www.w3.org/Graphics/SVG/1.1/DTD/svg11.dtd">
<svg version="1.1" id="Layer_1" xmlns="http://www.w3.org/2000/svg" xmlns:xlink="http://www.w3.org/1999/xlink" x="0px" y="0px"
	 width="50px" height="50px" viewBox="0 0 50 50" enable-background="new 0 0 50 50" xml:space="preserve">
<linearGradient id="SVGID_1_" gradientUnits="userSpaceOnUse" x1="1.4824" y1="-1.1187" x2="48.6707" y2="51.2893">
	<stop  offset="0" style="stop-color:#C2262E"/>
	<stop  offset="1" style="stop-color:#ED1C24"/>
</linearGradient>
<path fill-rule="evenodd" clip-rule="evenodd" fill="url(#SVGID_1_)" d="M5.408,0h39.164c2.977,0,5.406,2.429,5.406,5.408V44.57
	c0,2.979-2.43,5.408-5.406,5.408H5.408C2.43,49.979,0,47.549,0,44.57V5.407C0,2.429,2.43,0,5.408,0z"/>
<path fill-rule="evenodd" clip-rule="evenodd" fill="#A92930" d="M5.45,0h39.163C0.043,5.407,5.45,0,0.043,44.57V5.407
	C0.043,2.429,2.472,0,5.45,0z"/>
<linearGradient id="SVGID_2_" gradientUnits="userSpaceOnUse" x1="6.9785" y1="4.2207" x2="43.1898" y2="45.877">
	<stop  offset="0" style="stop-color:#ED1C24"/>
	<stop  offset="1" style="stop-color:#F58466"/>
</linearGradient>
<path fill-rule="evenodd" clip-rule="evenodd" fill="url(#SVGID_2_)" d="M9.675,5.407h30.714c2.324,0,4.225,1.901,4.225,4.225
	v30.714c0,2.324-1.9,4.225-4.225,4.225H9.675c-2.323,0-4.225-1.9-4.225-4.225V9.632C5.45,7.308,7.352,5.407,9.675,5.407z"/>
<path fill-rule="evenodd" clip-rule="evenodd" fill="#F19B7E" d="M39.883,44.57H11.745c32.933-4.161,28.708,0.063,32.868-33.164
	v28.433C44.613,42.438,42.48,44.57,39.883,44.57z"/>
<path fill-rule="evenodd" clip-rule="evenodd" fill="#E31F2A" d="M10.119,5.28h28.137C5.323,9.463,9.549,5.238,5.387,38.445V10.033
	C5.387,7.414,7.499,5.28,10.119,5.28z"/>
<path fill-rule="evenodd" clip-rule="evenodd" fill="#EC3E34" d="M44.465,50h-32.72C50.064,45.141,45.143,50.063,50,11.406v33.08
	C50,47.507,47.508,50,44.465,50z"/>
<linearGradient id="SVGID_3_" gradientUnits="userSpaceOnUse" x1="10.938" y1="9.3823" x2="39.1641" y2="40.7306">
	<stop  offset="0" style="stop-color:#C2262E"/>
	<stop  offset="1" style="stop-color:#ED1C24"/>
</linearGradient>
<path fill-rule="evenodd" clip-rule="evenodd" fill="url(#SVGID_3_)" d="M13.266,10.033h23.447c1.775,0,3.232,1.458,3.232,3.232
	v23.448c0,1.773-1.457,3.231-3.232,3.231H13.266c-1.773,0-3.231-1.458-3.231-3.231V13.265
	C10.034,11.491,11.492,10.033,13.266,10.033z"/>
<path fill-rule="evenodd" clip-rule="evenodd" fill="#A92930" d="M13.309,10.033h23.426c-26.658,3.232-23.426,0-26.658,26.68V13.265
	C10.076,11.491,11.513,10.033,13.309,10.033z"/>
<linearGradient id="SVGID_4_" gradientUnits="userSpaceOnUse" x1="14.2148" y1="12.5586" x2="35.8747" y2="37.4754">
	<stop  offset="0" style="stop-color:#ED1C24"/>
	<stop  offset="1" style="stop-color:#F58466"/>
</linearGradient>
<path fill-rule="evenodd" clip-rule="evenodd" fill="url(#SVGID_4_)" d="M15.822,13.265h18.377c1.395,0,2.535,1.141,2.535,2.535
	v18.377c0,1.395-1.141,2.535-2.535,2.535H15.822c-1.373,0-2.514-1.141-2.514-2.535V15.8C13.309,14.406,14.449,13.265,15.822,13.265z
	"/>
<path fill-rule="evenodd" clip-rule="evenodd" fill="#F19B7E" d="M33.904,36.713H17.068c19.688-2.514,17.174,0.021,19.666-19.835
	v16.984C36.734,35.424,35.445,36.713,33.904,36.713z"/>
<path fill-rule="evenodd" clip-rule="evenodd" fill="#E31F2A" d="M16.097,13.202h16.835c-19.708,2.492-17.173-0.042-19.666,19.835
	V16.032C13.266,14.49,14.533,13.202,16.097,13.202z"/>
<path fill-rule="evenodd" clip-rule="evenodd" fill="#EC3E34" d="M36.65,39.944H17.068c22.92-2.894,19.961,0.042,22.877-23.067
	v19.772C39.945,38.466,38.467,39.944,36.65,39.944z"/>
</svg>
