<?xml version="1.0" encoding="utf-8"?>
<!-- Generator: Adobe Illustrator 14.0.0, SVG Export Plug-In . SVG Version: 6.00 Build 43363)  -->
<!DOCTYPE svg PUBLIC "-//W3C//DTD SVG 1.1//EN" "http://www.w3.org/Graphics/SVG/1.1/DTD/svg11.dtd">
<svg version="1.1" id="Layer_1" xmlns="http://www.w3.org/2000/svg" xmlns:xlink="http://www.w3.org/1999/xlink" x="0px" y="0px"
	 width="107px" height="110px" viewBox="0 0 107 110" enable-background="new 0 0 107 110" xml:space="preserve">
<path fill="#232D38" d="M69.701,55.003l19.118-33.015l9.238,33.015l-9.238,33.006L69.701,55.003z M60.383,60.362l19.121,33.01
	l-33.3-8.531l-24.06-24.479H60.383L60.383,60.362z M79.499,16.623L60.383,49.637H22.144l24.06-24.479L79.499,16.623L79.499,16.623z
	 M106.794,43.767L95.129,0.375L51.594,12.004l-6.444,11.329L32.072,23.24L0.207,55.005l31.865,31.758h0.001l13.071-0.096
	l6.454,11.328l43.53,11.63l11.664-43.388l-6.624-11.234L106.794,43.767"/>
</svg>
