<?xml version="1.0" encoding="utf-8"?>
<!-- Generator: Adobe Illustrator 14.0.0, SVG Export Plug-In . SVG Version: 6.00 Build 43363)  -->
<!DOCTYPE svg PUBLIC "-//W3C//DTD SVG 1.1//EN" "http://www.w3.org/Graphics/SVG/1.1/DTD/svg11.dtd">
<svg version="1.1" id="Layer_1" xmlns="http://www.w3.org/2000/svg" xmlns:xlink="http://www.w3.org/1999/xlink" x="0px" y="0px"
	 width="200px" height="230px" viewBox="0 0 200 230" enable-background="new 0 0 200 230" xml:space="preserve">
<g>
	<path id="path6" fill="#010101" d="M200.522,160.727V54.031L108.99,0.683v40.963l35.858,20.958c1.415,0.953,1.415,2.858,0,3.334
		l-42.464,24.769c-1.416,0.953-2.832,0.476-3.774,0L56.146,65.939c-1.416-0.476-1.416-2.857,0-3.334l35.859-20.958V0.683L0,54.031
		v106.695v-0.476v0.476l34.915-20.481V98.329c0-1.43,1.887-2.382,2.831-1.906l42.463,24.769c1.416,0.952,1.888,1.905,1.888,3.335
		v49.537c0,1.429-1.888,2.381-2.831,1.904l-35.858-20.957L8.493,175.493l91.533,53.824l91.533-53.349l-34.914-20.482l-35.859,20.959
		c-1.416,0.952-2.831,0-2.831-1.905v-49.538c0-1.429,0.944-2.857,1.888-3.333l42.464-24.77c1.415-0.952,2.831,0,2.831,1.906v41.917
		L200.522,160.727z"/>
	<path id="path8" fill="#010101" d="M100.026,229.317l91.533-53.349l-34.914-20.482l-35.859,20.959
		c-1.416,0.952-2.831,0-2.831-1.905v-49.538c0-1.429,0.944-2.857,1.888-3.333l42.464-24.77c1.415-0.952,2.831,0,2.831,1.906v41.917
		l34.914,20.481V54.031l-100.025,58.587V229.317z"/>
	<path id="path10" fill="#818181" d="M108.99,0.683v40.963l35.858,20.958c1.415,0.953,1.415,2.858,0,3.334l-42.464,24.769
		c-1.416,0.953-2.832,0.476-3.774,0L56.146,65.939c-1.416-0.476-1.416-2.857,0-3.334l35.859-20.958V0.683L0,54.031l100.026,58.587
		l100.025-58.587L108.99,0.683z"/>
	<path id="path12" fill="#010101" d="M79.737,176.445l-35.858-20.959L8.965,175.969l91.533,53.349V112.618L0,54.031v106.695v-0.476
		v0.476l34.915-20.481V98.329c0-1.43,1.887-2.382,2.831-1.906l42.463,24.769c1.416,0.952,1.888,1.905,1.888,3.335v49.537
		C82.568,175.969,81.153,177.397,79.737,176.445z"/>
</g>
</svg>
