<?xml version="1.0" encoding="utf-8"?>
<!-- Generator: Adobe Illustrator 14.0.0, SVG Export Plug-In . SVG Version: 6.00 Build 43363)  -->
<!DOCTYPE svg PUBLIC "-//W3C//DTD SVG 1.1//EN" "http://www.w3.org/Graphics/SVG/1.1/DTD/svg11.dtd">
<svg version="1.1" id="Layer_1" xmlns="http://www.w3.org/2000/svg" xmlns:xlink="http://www.w3.org/1999/xlink" x="0px" y="0px"
	 width="73px" height="42px" viewBox="0 0 73 42" enable-background="new 0 0 73 42" xml:space="preserve">
<path fill="#5C5E6F" d="M67.146,6.07c-0.068-0.904-0.611-1.592-1.234-1.727l-11.41-2.036c4.766,3.094,9.891,4.522,12.879,5.202
	L67.146,6.07z"/>
<path fill="#5C5E6F" d="M5.799,7.51c2.988-0.681,8.114-2.109,12.879-5.203L7.267,4.343C6.644,4.479,6.102,5.166,6.032,6.07
	L5.799,7.51z"/>
<path fill="#E4EAF6" d="M67.98,7.6c0-0.24-0.24-0.48-0.48-0.48c-2.559-0.48-7.359-1.68-11.039-4.24
	c-0.961-0.72-2.16-1.12-3.281-1.12H36.5H19.741c-1.2,0-2.32,0.4-3.28,1.12C12.781,5.44,7.981,6.64,5.5,7.12
	C5.26,7.2,5.1,7.36,5.02,7.6L3.18,29.12c-0.08,1.358,0.24,2.8,1.12,3.92c0.8,1.12,2,1.92,3.36,2.239l8.64,1.681
	c0.8,0.16,1.521,0.319,2.24,0.562c2.64,0.799,8.92,2.721,17.959,2.721c9.042,0,15.241-1.922,17.961-2.721
	c0.72-0.24,1.521-0.399,2.24-0.562l8.639-1.681C66.7,34.96,67.9,34.16,68.7,33.04c0.88-1.12,1.2-2.562,1.12-3.92L67.98,7.6z
	 M51.02,29.441H21.981c-0.321,0-0.561-0.241-0.561-0.562V8.32c0-0.32,0.241-0.56,0.561-0.56h29.082c0.318,0,0.518,0.24,0.518,0.56
	l0.002,20.56C51.582,29.202,51.34,29.441,51.02,29.441z"/>
<path fill="#F16465" d="M59.1,7.92c0.4,0,0.801-0.32,0.801-0.8s-0.318-0.8-0.801-0.8c-0.479,0-0.799,0.32-0.799,0.8
	S58.701,7.92,59.1,7.92z"/>
<path fill="#D8DEED" d="M64.461,28.96L57.1,30.721c-0.158,0-0.238,0.239-0.238,0.399c0,0.159,0.238,0.239,0.398,0.239l7.441-1.76
	c0.16,0,0.24-0.24,0.24-0.399C64.781,29.04,64.621,28.96,64.461,28.96z"/>
<path fill="#D8DEED" d="M64.461,24.318L57.1,26.08c-0.158,0-0.238,0.238-0.238,0.398s0.238,0.239,0.398,0.239l7.441-1.76
	c0.16,0,0.24-0.24,0.24-0.399C64.781,24.398,64.621,24.318,64.461,24.318z"/>
<path fill="#D8DEED" d="M64.461,27.439L57.1,29.2c-0.158,0-0.238,0.239-0.238,0.399c0,0.159,0.238,0.239,0.398,0.239l7.441-1.76
	c0.16,0,0.24-0.24,0.24-0.397C64.781,27.521,64.621,27.359,64.461,27.439z"/>
<path fill="#D8DEED" d="M64.461,25.92L57.1,27.602c-0.158,0-0.238,0.238-0.238,0.398s0.238,0.24,0.398,0.24l7.441-1.762
	c0.16,0,0.24-0.238,0.24-0.398C64.781,25.92,64.621,25.84,64.461,25.92z"/>
<circle fill="#464655" cx="58.621" cy="18.48" r="2.32"/>
<path fill="#5B5D6E" d="M54.221,8.56c-0.08-1.92-1.6-3.44-3.439-3.52c-3.762-0.24-9-0.56-14.202-0.56
	C31.38,4.48,26.22,4.8,22.46,5.04c-1.919,0.16-3.36,1.68-3.44,3.52l-0.88,22.081c-0.079,2.401,1.521,4.481,3.841,4.881
	c3.76,0.721,8.76,1.601,14.599,1.601c5.84,0,10.84-0.88,14.6-1.601c2.32-0.481,3.92-2.562,3.84-4.881L54.221,8.56z M51.02,29.441
	H21.981c-0.321,0-0.561-0.241-0.561-0.562V8.32c0-0.32,0.241-0.56,0.561-0.56h29.082c0.318,0,0.518,0.24,0.518,0.56l0.002,20.56
	C51.582,29.202,51.34,29.441,51.02,29.441z"/>
<path fill="#D8DEED" d="M64.461,30.561L57.1,32.24c-0.158,0-0.238,0.238-0.238,0.398c0,0.159,0.238,0.239,0.398,0.239l7.441-1.76
	c0.16,0,0.24-0.24,0.24-0.399C64.781,30.561,64.621,30.479,64.461,30.561z"/>
<path fill="#707487" d="M16.94,31.279c0,0.641-0.479,1.119-1.119,1.119c-0.641,0-1.12-0.479-1.12-1.119
	c0-0.641,0.479-1.119,1.12-1.119C16.46,30.16,16.94,30.721,16.94,31.279z"/>
<path fill="#707487" d="M15.901,26.08c-0.641,0-1.12,0.479-1.12,1.12c0,0.64,0.479,1.118,1.12,1.118c0.64,0,1.119-0.479,1.119-1.118
	C17.02,26.561,16.46,26.08,15.901,26.08z"/>
<path fill="#464655" d="M15.42,18.16v-2.08c0-0.24-0.16-0.32-0.4-0.32h-2.56v-2.72c0-0.24-0.24-0.4-0.479-0.4h-2.08
	c-0.24,0-0.48,0.16-0.48,0.4v2.72h-2.56c-0.24,0-0.4,0.16-0.4,0.32v2.08c0,0.239,0.16,0.479,0.4,0.479h2.56V21.2
	c0,0.24,0.24,0.399,0.48,0.399h2.08c0.239,0,0.479-0.161,0.479-0.399v-2.56h2.56C15.26,18.64,15.42,18.399,15.42,18.16z"/>
<circle fill="#464655" cx="64.861" cy="16.24" r="2.32"/>
<circle fill="#5C5E6F" cx="10.94" cy="17.12" r="1.1"/>
</svg>
