<?xml version="1.0" encoding="utf-8"?>
<!-- Generator: Adobe Illustrator 14.0.0, SVG Export Plug-In . SVG Version: 6.00 Build 43363)  -->
<!DOCTYPE svg PUBLIC "-//W3C//DTD SVG 1.1//EN" "http://www.w3.org/Graphics/SVG/1.1/DTD/svg11.dtd">
<svg version="1.1" id="Layer_1" xmlns="http://www.w3.org/2000/svg" xmlns:xlink="http://www.w3.org/1999/xlink" x="0px" y="0px"
	 width="73px" height="42px" viewBox="0 0 73 42" enable-background="new 0 0 73 42" xml:space="preserve">
<path fill="#464655" d="M68.147,6.07c-0.069-0.904-0.612-1.592-1.235-1.727l-11.41-2.036c4.765,3.094,9.891,4.522,12.879,5.202
	L68.147,6.07z"/>
<path fill="#464655" d="M4.799,7.51c2.988-0.681,8.114-2.109,12.879-5.203L6.267,4.343C5.644,4.479,5.102,5.166,5.032,6.07
	L4.799,7.51z"/>
<path fill="#E4EAF6" d="M70.82,29.12L68.98,7.6c0-0.24-0.24-0.48-0.48-0.48c-2.559-0.48-7.359-1.68-11.039-4.24
	c-0.961-0.72-2.16-1.12-3.281-1.12H36.5H18.741c-1.2,0-2.32,0.4-3.28,1.12C11.781,5.44,6.981,6.64,4.5,7.12
	C4.26,7.2,4.1,7.36,4.02,7.6L2.18,29.12c-0.08,1.359,0.24,2.8,1.12,3.92c0.8,1.12,2,1.92,3.36,2.24l8.64,1.68
	c0.8,0.16,1.521,0.32,2.24,0.561c2.64,0.799,9.92,2.72,18.959,2.72c9.042,0,16.241-1.921,18.961-2.72
	c0.719-0.24,1.52-0.4,2.24-0.561l8.639-1.68c1.361-0.32,2.561-1.12,3.361-2.24C70.58,31.92,70.9,30.479,70.82,29.12z"/>
<path fill="#F16465" d="M60.1,7.92c0.4,0,0.801-0.32,0.801-0.8s-0.32-0.8-0.801-0.8c-0.479,0-0.799,0.32-0.799,0.8
	S59.701,7.92,60.1,7.92z"/>
<path fill="#D8DEED" d="M65.461,28.96L58.1,30.72c-0.158,0-0.238,0.24-0.238,0.4s0.238,0.24,0.398,0.24l7.441-1.76
	c0.16,0,0.24-0.24,0.24-0.4C65.781,29.04,65.621,28.96,65.461,28.96z"/>
<path fill="#D8DEED" d="M65.461,24.319L58.1,26.08c-0.158,0-0.238,0.239-0.238,0.399s0.238,0.24,0.398,0.24l7.441-1.76
	c0.16,0,0.24-0.24,0.24-0.4C65.781,24.399,65.621,24.319,65.461,24.319z"/>
<path fill="#D8DEED" d="M65.461,27.44L58.1,29.2c-0.158,0-0.238,0.24-0.238,0.4S58.1,29.84,58.26,29.84l7.441-1.76
	c0.16,0,0.24-0.24,0.24-0.399C65.781,27.521,65.621,27.36,65.461,27.44z"/>
<path fill="#D8DEED" d="M65.461,25.92L58.1,27.601c-0.158,0-0.238,0.239-0.238,0.399s0.238,0.24,0.398,0.24l7.441-1.761
	c0.16,0,0.24-0.239,0.24-0.399C65.781,25.92,65.621,25.84,65.461,25.92z"/>
<circle fill="#464655" cx="59.621" cy="18.48" r="2.32"/>
<path fill="#707687" d="M56.02,30.64c0.08,2.32-1.52,4.4-3.84,4.881c-3.76,0.72-9.76,1.6-15.6,1.6c-5.839,0-11.839-0.88-15.599-1.6
	c-2.32-0.4-3.92-2.48-3.841-4.881l0.88-22.08c0.08-1.84,1.521-3.36,3.44-3.52c3.76-0.24,9.92-0.56,15.119-0.56
	c5.202,0,11.44,0.32,15.202,0.56c1.84,0.08,3.359,1.6,3.439,3.52L56.02,30.64z"/>
<path fill="#BFDCAF" d="M52.58,8.32c0-0.32-0.199-0.56-0.518-0.56H20.981c-0.32,0-0.561,0.24-0.561,0.56v20.56
	c0,0.32,0.24,0.561,0.561,0.561H52.02c0.32,0,0.561-0.24,0.561-0.561V8.32L52.58,8.32z"/>
<path fill="#D8DEED" d="M65.461,30.56L58.1,32.24c-0.158,0-0.238,0.239-0.238,0.399s0.238,0.24,0.398,0.24l7.441-1.76
	c0.16,0,0.24-0.24,0.24-0.4C65.781,30.56,65.621,30.479,65.461,30.56z"/>
<path fill="#464655" d="M15.94,31.28c0,0.64-0.479,1.119-1.119,1.119c-0.641,0-1.12-0.479-1.12-1.119c0-0.641,0.479-1.12,1.12-1.12
	C15.46,30.16,15.94,30.72,15.94,31.28z"/>
<path fill="#464655" d="M14.901,26.08c-0.641,0-1.12,0.479-1.12,1.12c0,0.64,0.479,1.119,1.12,1.119c0.64,0,1.119-0.479,1.119-1.119
	C16.02,26.56,15.46,26.08,14.901,26.08z"/>
<path fill="#464655" d="M14.42,18.16v-2.08c0-0.24-0.16-0.32-0.4-0.32h-2.56v-2.72c0-0.24-0.24-0.4-0.479-0.4h-2.08
	c-0.24,0-0.48,0.16-0.48,0.4v2.72h-2.56c-0.24,0-0.4,0.16-0.4,0.32v2.08c0,0.239,0.16,0.479,0.4,0.479h2.56V21.2
	c0,0.24,0.24,0.4,0.48,0.4h2.08c0.239,0,0.479-0.16,0.479-0.4V18.64h2.56C14.26,18.64,14.42,18.399,14.42,18.16z"/>
<circle fill="#464655" cx="65.861" cy="16.24" r="2.32"/>
<circle fill="#5C5E6F" cx="9.94" cy="17.12" r="1.1"/>
</svg>
