<?xml version="1.0" encoding="iso-8859-1"?>
<!-- Generator: Adobe Illustrator 19.0.0, SVG Export Plug-In . SVG Version: 6.00 Build 0)  -->
<svg version="1.1" id="Layer_1" xmlns="http://www.w3.org/2000/svg" xmlns:xlink="http://www.w3.org/1999/xlink" x="0px" y="0px"
	 viewBox="0 0 512 512" style="enable-background:new 0 0 512 512;" xml:space="preserve">
<path style="fill:#E4EAF6;" d="M353.103,512H123.586c-9.751,0-17.655-7.904-17.655-17.655V17.655C105.931,7.904,113.835,0,123.586,0
	h264.828c9.751,0,17.655,7.904,17.655,17.655v441.379C406.069,488.287,382.356,512,353.103,512z"/>
<path style="fill:#707487;" d="M353.103,238.345h-220.69c-4.875,0-8.828-3.953-8.828-8.828V44.138c0-4.875,3.953-8.828,8.828-8.828
	h247.172c4.875,0,8.828,3.953,8.828,8.828v158.897C388.414,222.536,372.605,238.345,353.103,238.345z"/>
<path style="fill:#464655;" d="M189.793,313.379h-17.655v-17.655c0-2.438-1.976-4.414-4.414-4.414h-17.655
	c-2.438,0-4.414,1.976-4.414,4.414v17.655H128c-2.438,0-4.414,1.976-4.414,4.414v17.655c0,2.438,1.976,4.414,4.414,4.414h17.655
	v17.655c0,2.438,1.976,4.414,4.414,4.414h17.655c2.438,0,4.414-1.976,4.414-4.414v-17.655h17.655c2.438,0,4.414-1.976,4.414-4.414
	v-17.655C194.207,315.356,192.231,313.379,189.793,313.379z"/>
<path style="fill:#D7DEED;" d="M317.802,361.94c-10.508,0-20.457-6.302-24.595-16.655c-5.431-13.582,1.173-28.991,14.75-34.426
	l44.138-17.655c13.578-5.418,29,1.176,34.422,14.754c5.431,13.582-1.173,28.991-14.75,34.426l-44.138,17.655
	C324.405,361.327,321.078,361.94,317.802,361.94z"/>
<g>
	<path style="fill:#707487;" d="M211.862,416.408c-3.5,0-6.819-2.099-8.199-5.551c-1.811-4.526,0.388-9.664,4.922-11.474
		l25.818-10.332c4.483-1.815,9.664,0.38,11.474,4.914c1.811,4.526-0.396,9.664-4.922,11.474l-25.818,10.332
		C214.069,416.202,212.957,416.408,211.862,416.408z"/>
	<path style="fill:#707487;" d="M265.483,417.917c-3.5,0-6.819-2.103-8.199-5.556c-1.811-4.526,0.396-9.664,4.922-11.474
		l25.827-10.327c4.491-1.784,9.664,0.388,11.474,4.922c1.811,4.526-0.396,9.664-4.922,11.474l-25.827,10.327
		C267.69,417.71,266.578,417.917,265.483,417.917z"/>
</g>
<g>
	<circle style="fill:#FF6464;" cx="317.793" cy="335.448" r="17.655"/>
	<circle style="fill:#FF6464;" cx="361.931" cy="317.793" r="17.655"/>
</g>
<g>
	<path style="fill:#D7DEED;" d="M382.163,472.29c-1.75,0-3.405-1.047-4.095-2.776L362.601,430.6
		c-0.905-2.263,0.19-4.832,2.457-5.737c2.259-0.918,4.828,0.194,5.732,2.461l15.467,38.914c0.905,2.263-0.19,4.832-2.457,5.737
		C383.266,472.191,382.706,472.29,382.163,472.29z"/>
	<path style="fill:#D7DEED;" d="M366.947,478.76c-1.75,0-3.405-1.047-4.095-2.776l-15.467-38.914
		c-0.905-2.263,0.19-4.832,2.457-5.737c2.241-0.909,4.828,0.194,5.732,2.461l15.467,38.914c0.905,2.263-0.19,4.832-2.457,5.737
		C368.051,478.66,367.49,478.76,366.947,478.76z"/>
	<path style="fill:#D7DEED;" d="M351.731,485.23c-1.75,0-3.405-1.047-4.095-2.776l-15.467-38.914
		c-0.905-2.263,0.19-4.832,2.457-5.737c2.241-0.918,4.828,0.199,5.732,2.461l15.467,38.914c0.905,2.263-0.19,4.832-2.457,5.737
		C352.834,485.131,352.275,485.23,351.731,485.23z"/>
	<path style="fill:#D7DEED;" d="M336.515,491.704c-1.75,0-3.405-1.047-4.095-2.776l-15.467-38.914
		c-0.905-2.263,0.19-4.832,2.457-5.737c2.241-0.914,4.828,0.199,5.732,2.461l15.467,38.914c0.905,2.263-0.19,4.832-2.457,5.737
		C337.619,491.605,337.059,491.704,336.515,491.704z"/>
	<path style="fill:#D7DEED;" d="M321.3,498.174c-1.75,0-3.405-1.047-4.095-2.776l-15.467-38.914
		c-0.905-2.263,0.19-4.832,2.457-5.737c2.25-0.922,4.828,0.194,5.732,2.461l15.467,38.914c0.905,2.263-0.19,4.832-2.457,5.737
		C322.403,498.074,321.844,498.174,321.3,498.174z"/>
</g>
<path style="fill:#BEDCAF;" d="M335.448,220.69H176.552c-4.875,0-8.828-3.953-8.828-8.828V61.793c0-4.875,3.953-8.828,8.828-8.828
	h158.897c4.875,0,8.828,3.953,8.828,8.828v150.069C344.276,216.737,340.323,220.69,335.448,220.69z"/>
<path style="fill:#D7DEED;" d="M269.241,498.759h-26.483c-4.875,0-8.828-3.953-8.828-8.828l0,0c0-4.875,3.953-8.828,8.828-8.828
	h26.483c4.875,0,8.828,3.953,8.828,8.828l0,0C278.069,494.806,274.116,498.759,269.241,498.759z"/>
<circle style="fill:#5B5D6E;" cx="158.897" cy="326.621" r="8.828"/>
<g>
</g>
<g>
</g>
<g>
</g>
<g>
</g>
<g>
</g>
<g>
</g>
<g>
</g>
<g>
</g>
<g>
</g>
<g>
</g>
<g>
</g>
<g>
</g>
<g>
</g>
<g>
</g>
<g>
</g>
</svg>
