<?xml version="1.0" encoding="utf-8"?>
<!-- Generator: Adobe Illustrator 14.0.0, SVG Export Plug-In . SVG Version: 6.00 Build 43363)  -->
<!DOCTYPE svg PUBLIC "-//W3C//DTD SVG 1.1//EN" "http://www.w3.org/Graphics/SVG/1.1/DTD/svg11.dtd">
<svg version="1.1" id="Layer_1" xmlns="http://www.w3.org/2000/svg" xmlns:xlink="http://www.w3.org/1999/xlink" x="0px" y="0px"
	 width="26px" height="43px" viewBox="0 0 26 43" enable-background="new 0 0 26 43" xml:space="preserve">
<path fill="#E4EAF6" d="M23.861,0.5H2.138c-0.8,0-1.448,0.648-1.448,1.448v39.105c0,0.799,0.648,1.447,1.448,1.447h18.827
	c2.4,0,4.346-1.945,4.346-4.346V1.948C25.311,1.148,24.662,0.5,23.861,0.5z M20.242,17.879c-0.001,0.4-0.325,0.724-0.725,0.724
	H6.483c-0.4,0-0.724-0.324-0.724-0.724V5.569c0-0.4,0.324-0.724,0.724-0.724h13.035c0.399,0,0.726,0.324,0.726,0.724L20.242,17.879
	L20.242,17.879z"/>
<path fill="#474756" d="M7.569,26.207H6.121v-1.448c0-0.2-0.162-0.362-0.362-0.362H4.311c-0.2,0-0.362,0.162-0.362,0.362v1.448H2.5
	c-0.2,0-0.362,0.162-0.362,0.361v1.449c0,0.198,0.162,0.36,0.362,0.36h1.448v1.449c0,0.198,0.162,0.36,0.362,0.36h1.448
	c0.2,0,0.362-0.162,0.362-0.36v-1.449h1.448c0.2,0,0.362-0.162,0.362-0.36v-1.449C7.931,26.369,7.769,26.207,7.569,26.207z"/>
<path fill="#D8DEEC" d="M18.07,30.189c-0.863,0-1.68-0.517-2.019-1.365c-0.446-1.114,0.097-2.379,1.209-2.824l3.621-1.447
	c1.113-0.445,2.379,0.096,2.824,1.209c0.444,1.115-0.097,2.379-1.211,2.824l-3.62,1.449C18.611,30.141,18.338,30.189,18.07,30.189z"
	/>
<g>
	<path fill="#717588" d="M9.379,34.658c-0.287,0-0.56-0.172-0.673-0.455c-0.148-0.371,0.032-0.793,0.404-0.941l2.118-0.848
		c0.368-0.148,0.792,0.031,0.941,0.402c0.149,0.373-0.032,0.793-0.404,0.941l-2.118,0.848C9.561,34.643,9.469,34.658,9.379,34.658z"
		/>
	<path fill="#717588" d="M13.777,34.782c-0.287,0-0.56-0.173-0.672-0.456c-0.149-0.371,0.032-0.793,0.404-0.941l2.118-0.847
		c0.368-0.146,0.792,0.032,0.939,0.403c0.148,0.371-0.03,0.793-0.402,0.94l-2.118,0.849C13.959,34.766,13.867,34.782,13.777,34.782z
		"/>
</g>
<g>
	<circle fill="#F16465" cx="18.068" cy="28.017" r="1.448"/>
	<circle fill="#F16465" cx="21.689" cy="26.569" r="1.448"/>
</g>
<g>
	<path fill="#D8DEEC" d="M23.35,39.242c-0.145,0-0.279-0.086-0.336-0.229l-1.27-3.191c-0.074-0.186,0.016-0.396,0.201-0.471
		s0.396,0.017,0.471,0.201l1.27,3.192c0.074,0.187-0.016,0.396-0.201,0.471C23.439,39.234,23.395,39.242,23.35,39.242z"/>
	<path fill="#D8DEEC" d="M22.102,39.773c-0.145,0-0.278-0.086-0.336-0.229l-1.27-3.19c-0.074-0.187,0.016-0.396,0.201-0.472
		c0.185-0.073,0.396,0.017,0.471,0.201l1.27,3.192c0.074,0.187-0.016,0.396-0.201,0.472C22.191,39.766,22.146,39.773,22.102,39.773z
		"/>
	<path fill="#D8DEEC" d="M20.854,40.305c-0.145,0-0.278-0.086-0.336-0.229l-1.27-3.191c-0.074-0.186,0.016-0.396,0.201-0.471
		c0.185-0.076,0.396,0.016,0.471,0.201l1.27,3.191c0.074,0.187-0.016,0.396-0.201,0.471C20.943,40.296,20.896,40.305,20.854,40.305z
		"/>
	<path fill="#D8DEEC" d="M19.604,40.835c-0.144,0-0.278-0.086-0.334-0.228L18,37.415c-0.074-0.187,0.016-0.396,0.201-0.47
		c0.184-0.076,0.396,0.016,0.471,0.201l1.27,3.191c0.074,0.186-0.017,0.396-0.201,0.471C19.695,40.827,19.648,40.835,19.604,40.835z
		"/>
	<path fill="#D8DEEC" d="M18.355,41.365c-0.144,0-0.278-0.086-0.336-0.227l-1.269-3.193c-0.074-0.187,0.017-0.396,0.201-0.471
		c0.187-0.074,0.396,0.017,0.471,0.203l1.269,3.19c0.074,0.187-0.016,0.396-0.201,0.471C18.447,41.357,18.4,41.365,18.355,41.365z"
		/>
</g>
<path fill="#5B5D6E" d="M23.139,3.396H2.862c-0.4,0-0.724,0.324-0.724,0.724v15.207c0,0.4,0.324,0.724,0.724,0.724h18.103
	c1.602,0,2.896-1.297,2.896-2.896V4.121C23.861,3.721,23.537,3.396,23.139,3.396z M20.242,17.879
	c-0.001,0.4-0.325,0.724-0.725,0.724H6.483c-0.4,0-0.724-0.324-0.724-0.724V5.569c0-0.4,0.324-0.724,0.724-0.724h13.035
	c0.399,0,0.726,0.324,0.726,0.724L20.242,17.879L20.242,17.879z"/>
<path fill="#D8DEEC" d="M14.086,41.414h-2.172c-0.4,0-0.724-0.324-0.724-0.725l0,0c0-0.4,0.324-0.726,0.724-0.726h2.172
	c0.4,0,0.725,0.324,0.725,0.726l0,0C14.811,41.09,14.486,41.414,14.086,41.414z"/>
<circle fill="#5C5E6F" cx="5.035" cy="27.293" r="0.725"/>
<path id="path2389_5_" fill="#E92429" d="M2.866,21.085v1.369h0.502c0,0,0-1.503,0-1.701s0.137-0.171,0.137-0.171H3.368
	C3.091,20.583,2.866,20.808,2.866,21.085z"/>
<path id="path2389_3_" fill="#E8272C" d="M2.228,21.52v0.936h0.501c0,0,0-1.069,0-1.268c0-0.197,0.138-0.172,0.138-0.172
	l-0.137,0.001C2.452,21.017,2.228,21.243,2.228,21.52z"/>
<rect id="M_Left_1_" x="3.505" y="20.583" fill="#EE6843" width="0.502" height="1.872"/>
<rect id="S_Center_1_" x="6.062" y="21.268" fill="#2BA8E0" width="1.78" height="0.502"/>
<path id="path2389_1_" fill="#50B648" d="M6.064,21.107l-0.002,0.137c0,0-0.026-0.138,0.171-0.138c0.198,0,1.006,0.001,1.006,0.001
	v-0.502H6.566C6.29,20.605,6.064,20.83,6.064,21.107z"/>
<path id="path2389_2_" fill="#2BA8E0" d="M7.838,21.93l0.002-0.138c0,0,0.025,0.138-0.172,0.138c-0.198,0-1.606,0-1.606,0v0.501
	h1.274C7.613,22.431,7.838,22.207,7.838,21.93z"/>
<g>
	<g>
		<g>
			<path fill="#FFCA0A" d="M5.03,20.598c-0.225,0-0.432,0.08-0.593,0.212l-0.115,0.113c0,0,0.118-0.109,0.237,0.01
				c0.119,0.119,1.194,1.194,1.194,1.194c0.133-0.161,0.212-0.368,0.212-0.593C5.966,21.017,5.547,20.598,5.03,20.598z"/>
		</g>
	</g>
	<g>
		<g>
			<path fill="#FFCA0A" d="M5.525,22.126c-0.111-0.111-1.203-1.203-1.203-1.203c-0.142,0.163-0.228,0.377-0.228,0.611
				c0,0.516,0.419,0.935,0.936,0.935c0.234,0,0.447-0.086,0.611-0.227l0.112-0.115C5.753,22.127,5.636,22.236,5.525,22.126z"/>
		</g>
	</g>
</g>
</svg>
