<?xml version="1.0" encoding="utf-8"?>
<!-- Generator: Adobe Illustrator 14.0.0, SVG Export Plug-In . SVG Version: 6.00 Build 43363)  -->
<!DOCTYPE svg PUBLIC "-//W3C//DTD SVG 1.1//EN" "http://www.w3.org/Graphics/SVG/1.1/DTD/svg11.dtd">
<svg version="1.1" id="Layer_1" xmlns="http://www.w3.org/2000/svg" xmlns:xlink="http://www.w3.org/1999/xlink" x="0px" y="0px"
	 width="70px" height="50px" viewBox="0 0 70 50" enable-background="new 0 0 70 50" xml:space="preserve">
<line fill="none" stroke="#EF4325" stroke-width="5" stroke-linecap="round" x1="5.375" y1="24.313" x2="10.856" y2="24.313"/>
<line fill="none" stroke="#49B749" stroke-width="5" stroke-linecap="round" x1="32.72" y1="34.273" x2="32.72" y2="23.917"/>
<path fill="none" stroke="#EF4324" stroke-width="5" stroke-linecap="round" d="M12.45,17.545c0-4.159,3.365-7.524,7.524-7.524"/>
<line fill="none" stroke="#EF4524" stroke-width="5" stroke-linecap="round" x1="27.814" y1="38.525" x2="40.773" y2="38.525"/>
<line fill="none" stroke="#EF4325" stroke-width="5" stroke-linecap="round" x1="12.45" y1="17.545" x2="12.45" y2="39.117"/>
<path fill="none" stroke="#49B749" stroke-width="5" stroke-linecap="round" d="M22.91,34.273c0,5.511,9.81,5.687,9.811,0"/>
<line fill="none" stroke="#7592CB" stroke-width="5" stroke-linecap="round" x1="22.822" y1="33.67" x2="22.822" y2="24.313"/>
<path fill="none" stroke="#F89926" stroke-width="5" stroke-linecap="round" d="M40.773,31.002c0-4.16,3.36-7.526,7.521-7.526"/>
<path fill="none" stroke="#EF4524" stroke-width="5" stroke-linecap="round" d="M48.296,31.002c0,4.156-3.364,7.523-7.522,7.523"/>
<path fill="none" stroke="#F89927" stroke-width="5" stroke-linecap="round" d="M56.326,31.002c0-4.16,3.365-7.526,7.523-7.526"/>
<path fill="none" stroke="#7592CB" stroke-width="5" stroke-linecap="round" d="M63.852,38.525c-4.16,0-7.521-3.365-7.521-7.523"/>
<line fill="none" stroke="#7592CB" stroke-width="5" stroke-linecap="round" x1="14.288" y1="24.313" x2="22.822" y2="24.313"/>
<circle fill="#49B749" stroke="#49B749" stroke-linecap="round" cx="63.852" cy="31.002" r="2.141"/>
</svg>
