<?xml version="1.0" encoding="utf-8"?>
<!-- Generator: Adobe Illustrator 14.0.0, SVG Export Plug-In . SVG Version: 6.00 Build 43363)  -->
<!DOCTYPE svg PUBLIC "-//W3C//DTD SVG 1.1//EN" "http://www.w3.org/Graphics/SVG/1.1/DTD/svg11.dtd">
<svg version="1.1" id="Layer_1" xmlns="http://www.w3.org/2000/svg" xmlns:xlink="http://www.w3.org/1999/xlink" x="0px" y="0px"
	 width="50px" height="50px" viewBox="0 0 50 50" enable-background="new 0 0 50 50" xml:space="preserve">
<path id="path3" fill="#F15640" d="M16.675,18.791l-2.555,0.392c-0.48-3.137-2.835-4.5-5.562-6.079
	c-0.686-0.396-1.393-0.807-2.085-1.254C2.065,8.997,3.054,3.938,4.192,1.66l2.312,1.155L5.348,2.237l1.158,0.574
	C6.414,2.997,4.317,7.376,7.877,9.68c0.639,0.413,1.318,0.807,1.977,1.188C12.878,12.619,16.006,14.431,16.675,18.791z"/>
<circle id="circle5" fill="#2C3C4F" cx="27.829" cy="29.391" r="18.949"/>
<rect id="rect9" x="7.588" y="12.815" transform="matrix(0.7071 -0.7071 0.7071 0.7071 -6.7449 14.0749)" fill="#2C3C4F" width="12.059" height="4.729"/>
<path id="path2389_5_" fill="#E92429" d="M18.351,25.073h-0.599c0,0,0.602-0.119,0.602,0.745c0,0.865-0.003,7.433-0.003,7.433h2.194
	v-5.983C20.544,26.057,19.562,25.073,18.351,25.073z"/>
<path id="path2389_3_" fill="#ED6741" d="M21.143,26.974l-0.598-0.008c0,0,0.601-0.11,0.601,0.753c0,0.865-0.003,5.535-0.003,5.535
	h2.193v-4.086C23.336,27.957,22.354,26.974,21.143,26.974z"/>
<rect id="M_Left_1_" x="15.558" y="25.073" fill="#E92429" width="2.194" height="8.178"/>
<rect id="S_Center_1_" x="32.312" y="28.064" fill="#2BA8E0" width="7.78" height="2.194"/>
<path id="path2389_1_" fill="#50B648" d="M32.325,27.365l-0.009,0.599c0,0-0.11-0.602,0.754-0.602s7.021,0.003,7.021,0.003v-2.193
	H34.52C33.308,25.172,32.325,26.153,32.325,27.365z"/>
<path id="path2389_2_" fill="#2BA8E0" d="M40.08,30.957l0.008-0.599c0,0,0.109,0.602-0.753,0.602c-0.865,0-7.023-0.003-7.023-0.003
	v2.193h5.573C39.097,33.15,40.08,32.169,40.08,30.957z"/>
<g>
	<g>
		<g>
			<path fill="#FFCA0A" d="M27.808,25.14c-0.984,0-1.887,0.349-2.593,0.928l-0.503,0.491c0,0,0.518-0.477,1.037,0.043
				c0.519,0.52,5.221,5.221,5.221,5.221c0.579-0.706,0.927-1.608,0.927-2.593C31.896,26.971,30.066,25.14,27.808,25.14z"/>
		</g>
	</g>
	<g>
		<g>
			<path fill="#FFCA0A" d="M29.97,31.815c-0.483-0.483-5.258-5.257-5.258-5.257c-0.618,0.717-0.993,1.649-0.993,2.671
				c0,2.257,1.831,4.088,4.089,4.088c1.021,0,1.953-0.375,2.67-0.993l0.492-0.502C30.97,31.822,30.453,32.299,29.97,31.815z"/>
		</g>
	</g>
</g>
</svg>
