<?xml version="1.0" encoding="utf-8"?>
<!-- Generator: Adobe Illustrator 14.0.0, SVG Export Plug-In . SVG Version: 6.00 Build 43363)  -->
<!DOCTYPE svg PUBLIC "-//W3C//DTD SVG 1.1//EN" "http://www.w3.org/Graphics/SVG/1.1/DTD/svg11.dtd">
<svg version="1.1" id="Layer_1" xmlns="http://www.w3.org/2000/svg" xmlns:xlink="http://www.w3.org/1999/xlink" x="0px" y="0px"
	 width="53px" height="30px" viewBox="0 0 53 30" enable-background="new 0 0 53 30" xml:space="preserve">
<defs>
    <filter id="dropshadow" height="200%">
      <feGaussianBlur in="SourceAlpha" stdDeviation="0.2"/>
      <feOffset dx="0.3" dy="0.3" result="offsetblur"/>
      <feMerge>
        <feMergeNode/>
        <feMergeNode in="SourceGraphic"/>
      </feMerge>
    </filter>
  </defs>
  <g filter="url(#dropshadow)">
<path fill="#EF4524" d="M6.418,16.785H3.08c-1.104,0-2-0.895-2-2s0.896-2,2-2h3.338c1.104,0,2,0.896,2,2S7.522,16.785,6.418,16.785
	L6.418,16.785z"/>
<path fill="#4AB749" d="M24.232,25.098c-1.104,0-2-0.896-2-2v-8.643c0-1.104,0.896-2,2-2s2,0.896,2,2v8.643
	C26.232,24.202,25.336,25.098,24.232,25.098L24.232,25.098z"/>
<path fill="#EF4523" d="M7.315,11.137c-1.104,0-2-0.896-2-2c0-4.565,3.714-8.279,8.279-8.279c1.104,0,2,0.896,2,2s-0.896,2-2,2
	c-2.359,0-4.279,1.92-4.279,4.279C9.315,10.242,8.419,11.137,7.315,11.137L7.315,11.137z"/>
<path fill="#EF4723" d="M30.954,28.646H20.137c-1.104,0-2-0.896-2-2s0.896-2,2-2h10.817c1.104,0,2,0.896,2,2
	S32.059,28.646,30.954,28.646L30.954,28.646z"/>
<path fill="#EF4524" d="M7.315,29.142c-1.104,0-2-0.896-2-2V9.137c0-1.104,0.896-2,2-2s2,0.896,2,2v18.004
	C9.315,28.246,8.419,29.142,7.315,29.142L7.315,29.142z"/>
<path fill="#4AB749" d="M20.186,28.603C20.186,28.603,20.186,28.603,20.186,28.603c-3.501,0-6.142-2.367-6.142-5.505
	c0-1.104,0.896-2,2-2s2,0.896,2,2c0,1.488,2.054,1.505,2.141,1.505c0,0,0,0,0,0c0.342,0,2.046-0.072,2.047-1.505
	c0-1.104,0.896-2,2-2c0,0,0,0,0,0c1.104,0,2,0.896,2,2C26.232,26.288,23.689,28.603,20.186,28.603L20.186,28.603z"/>
<path fill="#7592CA" d="M15.971,24.594c-1.104,0-2-0.896-2-2v-7.808c0-1.104,0.896-2,2-2s2,0.896,2,2v7.808
	C17.971,23.698,17.076,24.594,15.971,24.594L15.971,24.594z"/>
<path fill="#F89928" d="M30.954,22.368c-1.104,0-2-0.896-2-2c0-4.566,3.712-8.28,8.274-8.28c1.104,0,2,0.896,2,2s-0.896,2-2,2
	c-2.356,0-4.274,1.92-4.274,4.28C32.954,21.473,32.059,22.368,30.954,22.368L30.954,22.368z"/>
<path fill="#EF4723" d="M30.954,28.646c-1.104,0-2-0.896-2-2s0.896-2,2-2c2.358,0,4.276-1.919,4.276-4.278c0-1.104,0.896-2,2-2
	s2,0.896,2,2C39.23,24.933,35.518,28.646,30.954,28.646L30.954,28.646z"/>
<path fill="#F89929" d="M43.934,22.368c-1.104,0-2-0.896-2-2c0-4.566,3.713-8.28,8.277-8.28c1.104,0,2,0.896,2,2s-0.896,2-2,2
	c-2.358,0-4.277,1.92-4.277,4.28C45.934,21.473,45.038,22.368,43.934,22.368L43.934,22.368z"/>
<path fill="#7592CA" d="M50.213,28.646c-4.564,0-8.277-3.714-8.277-8.278c0-1.104,0.896-2,2-2s2,0.896,2,2
	c0,2.359,1.919,4.278,4.277,4.278c1.104,0,2,0.896,2,2S51.317,28.646,50.213,28.646L50.213,28.646z"/>
<path fill="#7592CA" d="M15.971,16.785H8.849c-1.104,0-2-0.895-2-2s0.896-2,2-2h7.123c1.104,0,2,0.896,2,2
	S17.076,16.785,15.971,16.785L15.971,16.785z"/>
</g>
<g filter="url(#dropshadow)">
	<circle fill="#4AB749" cx="50.213" cy="20.368" r="1.786"/>
	<path fill="#4AB749" d="M50.213,22.654c-1.26,0-2.285-1.025-2.285-2.286s1.025-2.286,2.285-2.286c1.261,0,2.287,1.025,2.287,2.286
		S51.474,22.654,50.213,22.654L50.213,22.654z M50.213,19.082c-0.709,0-1.285,0.577-1.285,1.286s0.576,1.286,1.285,1.286
		c0.71,0,1.287-0.577,1.287-1.286S50.923,19.082,50.213,19.082L50.213,19.082z"/>
</g>
</svg>
