<?xml version="1.0" encoding="utf-8"?>
<!-- Generator: Adobe Illustrator 14.0.0, SVG Export Plug-In . SVG Version: 6.00 Build 43363)  -->
<!DOCTYPE svg PUBLIC "-//W3C//DTD SVG 1.1//EN" "http://www.w3.org/Graphics/SVG/1.1/DTD/svg11.dtd">
<svg version="1.1" id="Layer_1" xmlns="http://www.w3.org/2000/svg" xmlns:xlink="http://www.w3.org/1999/xlink" x="0px" y="0px"
	 width="50px" height="50px" viewBox="0 0 50 50" enable-background="new 0 0 50 50" xml:space="preserve">
<path id="path3" fill="#F15640" d="M16.675,18.791l-2.555,0.392
	c-0.48-3.137-2.835-4.5-5.562-6.079c-0.686-0.396-1.393-0.807-2.085-1.254C2.065,8.997,3.054,3.938,4.192,1.66l2.312,1.155
	L5.348,2.237l1.158,0.574C6.414,2.997,4.317,7.376,7.877,9.68c0.639,0.413,1.318,0.807,1.977,1.188
	C12.878,12.619,16.006,14.431,16.675,18.791z"/>
<circle id="circle5" fill="#2C3C4F" cx="27.829" cy="29.391" r="18.949"/>
<rect id="rect9" x="7.586" y="12.814" transform="matrix(-0.7071 0.7071 -0.7071 -0.7071 33.9776 16.2844)" fill="#2C3C4F" width="12.059" height="4.729"/>
</svg>
