<?xml version="1.0" encoding="utf-8"?>
<!-- Generator: Adobe Illustrator 14.0.0, SVG Export Plug-In . SVG Version: 6.00 Build 43363)  -->
<!DOCTYPE svg PUBLIC "-//W3C//DTD SVG 1.1//EN" "http://www.w3.org/Graphics/SVG/1.1/DTD/svg11.dtd">
<svg version="1.1" id="Layer_1" xmlns="http://www.w3.org/2000/svg" xmlns:xlink="http://www.w3.org/1999/xlink" x="0px" y="0px"
	 width="50px" height="50px" viewBox="0 0 50 50" enable-background="new 0 0 50 50" xml:space="preserve">
<path id="path3" d="M16.675,18.791l-2.555,0.392c-0.48-3.137-2.835-4.5-5.562-6.079c-0.686-0.396-1.393-0.807-2.085-1.254
	C2.065,8.997,3.054,3.938,4.192,1.66l2.312,1.155L5.348,2.237l1.158,0.574C6.414,2.997,4.317,7.376,7.877,9.68
	c0.639,0.413,1.318,0.807,1.977,1.188C12.878,12.619,16.006,14.431,16.675,18.791z"/>
<circle id="circle5" fill="#2C3C4F" cx="27.829" cy="29.391" r="18.949"/>
<rect id="rect9" x="7.588" y="12.815" transform="matrix(0.7071 -0.7071 0.7071 0.7071 -6.7449 14.0749)" fill="#2C3C4F" width="12.059" height="4.729"/>
<path id="path2389_5_" fill="#E92429" d="M16.091,22.007v7.41h2.718c0,0-0.004-8.134-0.004-9.206c0-1.069,0.746-0.922,0.746-0.922
	h-0.741C17.308,19.289,16.091,20.506,16.091,22.007z"/>
<path id="path2389_3_" fill="#E8272C" d="M12.633,24.36v5.062h2.716c0,0-0.004-5.785-0.004-6.856c0-1.069,0.745-0.933,0.745-0.933
	l-0.741,0.009C13.849,21.642,12.633,22.86,12.633,24.36z"/>
<rect id="M_Left_1_" x="19.55" y="19.289" fill="#EE6843" width="2.717" height="10.128"/>
<rect id="S_Center_1_" x="33.386" y="22.994" fill="#2BA8E0" width="9.638" height="2.718"/>
<path id="path2389_1_" fill="#50B648" d="M33.402,22.127l-0.011,0.742c0,0-0.136-0.746,0.933-0.746c1.072,0,5.445,0.004,5.445,0.004
	v-2.716H36.12C34.619,19.411,33.402,20.627,33.402,22.127z"/>
<path id="path2389_2_" fill="#2BA8E0" d="M43.008,26.576l0.01-0.741c0,0,0.137,0.746-0.934,0.746s-8.698-0.005-8.698-0.005v2.717
	h6.903C41.789,29.293,43.008,28.078,43.008,26.576z"/>
<g>
	<g>
		<g>
			<path fill="#FFCA0A" d="M27.807,19.371c-1.22,0-2.338,0.431-3.212,1.148l-0.622,0.609c0,0,0.641-0.59,1.284,0.053
				c0.644,0.644,6.466,6.466,6.466,6.466c0.717-0.873,1.148-1.991,1.148-3.211C32.871,21.639,30.604,19.371,27.807,19.371z"/>
		</g>
	</g>
	<g>
		<g>
			<path fill="#FFCA0A" d="M30.484,27.64c-0.598-0.599-6.512-6.511-6.512-6.511c-0.766,0.887-1.23,2.043-1.23,3.308
				c0,2.797,2.267,5.063,5.064,5.063c1.265,0,2.42-0.464,3.308-1.229l0.608-0.623C31.723,27.647,31.083,28.238,30.484,27.64z"/>
		</g>
	</g>
</g>
</svg>
