<?xml version="1.0" encoding="utf-8"?>
<!-- Generator: Adobe Illustrator 14.0.0, SVG Export Plug-In . SVG Version: 6.00 Build 43363)  -->
<!DOCTYPE svg PUBLIC "-//W3C//DTD SVG 1.1//EN" "http://www.w3.org/Graphics/SVG/1.1/DTD/svg11.dtd">
<svg version="1.1" id="Layer_1" xmlns="http://www.w3.org/2000/svg" xmlns:xlink="http://www.w3.org/1999/xlink" x="0px" y="0px"
	 width="60px" height="40px" viewBox="0 0 60 40" enable-background="new 0 0 60 40" xml:space="preserve">
<line fill="none" stroke="#F89920" stroke-width="6" stroke-linecap="round" x1="24.72" y1="28.274" x2="24.72" y2="17.917"/>
<path fill="none" stroke="#F89920" stroke-width="6" stroke-linecap="round" d="M3.45,11.545c0-4.159,3.365-7.524,7.524-7.524"/>
<line fill="none" stroke="#EF3E24" stroke-width="6" stroke-linecap="round" x1="19.814" y1="32.526" x2="32.773" y2="32.526"/>
<line fill="none" stroke="#EF3C24" stroke-width="6" stroke-linecap="round" x1="3.45" y1="11.545" x2="3.45" y2="33.117"/>
<path fill="none" stroke="#44B649" stroke-width="6" stroke-linecap="round" d="M14.91,28.274c0.121,5.869,9.811,5.464,9.811,0"/>
<line fill="none" stroke="#7292CB" stroke-width="6" stroke-linecap="round" x1="14.822" y1="28.67" x2="14.822" y2="18.313"/>
<path fill="none" stroke="#F89920" stroke-width="6" stroke-linecap="round" d="M32.773,25.002c0-4.16,3.364-7.526,7.523-7.526"/>
<path fill="none" stroke="#EF3E24" stroke-width="6" stroke-linecap="round" d="M40.296,25.002c0,4.156-3.364,7.524-7.523,7.524"/>
<path fill="none" stroke="#7292CB" stroke-width="6" stroke-linecap="round" d="M48.326,25.002c0-4.16,3.365-7.526,7.524-7.526"/>
<path fill="none" stroke="#F89920" stroke-width="6" stroke-linecap="round" d="M55.851,32.526c-4.159,0-7.524-3.366-7.524-7.524"/>
<line fill="none" stroke="#7292CB" stroke-width="6" stroke-linecap="round" x1="6.288" y1="18.313" x2="14.822" y2="18.313"/>
<circle fill="#EF4024" stroke="#EF3F24" stroke-width="2" stroke-linecap="round" cx="55.851" cy="25.002" r="2.14"/>
</svg>
