<?xml version="1.0" encoding="utf-8"?>
<!-- Generator: Adobe Illustrator 14.0.0, SVG Export Plug-In . SVG Version: 6.00 Build 43363)  -->
<!DOCTYPE svg PUBLIC "-//W3C//DTD SVG 1.1//EN" "http://www.w3.org/Graphics/SVG/1.1/DTD/svg11.dtd">
<svg version="1.1" id="Layer_1" xmlns="http://www.w3.org/2000/svg" xmlns:xlink="http://www.w3.org/1999/xlink" x="0px" y="0px"
	 width="50px" height="50px" viewBox="0 0 50 50" enable-background="new 0 0 50 50" xml:space="preserve">
<path id="path3" fill="#F15640" d="M16.675,18.791l-2.555,0.392c-0.48-3.137-2.835-4.5-5.562-6.079
	c-0.686-0.396-1.393-0.807-2.085-1.254C2.065,8.997,3.054,3.938,4.192,1.66l2.312,1.155L5.348,2.237l1.158,0.574
	C6.414,2.997,4.317,7.376,7.877,9.68c0.639,0.413,1.318,0.807,1.977,1.188C12.878,12.619,16.006,14.431,16.675,18.791z"/>
<circle id="circle5" fill="#2C3C4F" cx="27.829" cy="29.391" r="18.949"/>
<rect id="rect9" x="7.588" y="12.815" transform="matrix(0.7071 -0.7071 0.7071 0.7071 -6.7449 14.0749)" fill="#2C3C4F" width="12.059" height="4.729"/>
<path id="path2389_8_" fill="#E92429" d="M18.028,27.401v6.188h2.269c0,0-0.003-6.793-0.003-7.688c0-0.893,0.622-0.771,0.622-0.771
	h-0.619C19.045,25.131,18.028,26.147,18.028,27.401z"/>
<path id="path2389_7_" fill="#E8272C" d="M15.141,29.366v4.226h2.268c0,0-0.003-4.83-0.003-5.725c0-0.894,0.623-0.778,0.623-0.778
	l-0.619,0.008C16.156,27.097,15.141,28.113,15.141,29.366z"/>
<rect id="M_Left_2_" x="20.916" y="25.131" fill="#EE6843" width="2.27" height="8.458"/>
<rect id="S_Center_2_" x="32.469" y="28.226" fill="#2BA8E0" width="8.047" height="2.27"/>
<path id="path2389_6_" fill="#50B648" d="M32.482,27.501l-0.009,0.62c0,0-0.114-0.623,0.779-0.623c0.895,0,7.263,0.003,7.263,0.003
	v-2.268h-5.764C33.499,25.233,32.482,26.249,32.482,27.501z"/>
<path id="path2389_4_" fill="#2BA8E0" d="M40.503,31.217l0.009-0.62c0,0,0.113,0.623-0.779,0.623c-0.895,0-7.264-0.003-7.264-0.003
	v2.269h5.764C39.486,33.485,40.503,32.47,40.503,31.217z"/>
<g>
	<g>
		<g>
			<path fill="#FFCA0A" d="M27.811,25.2c-1.018,0-1.952,0.359-2.682,0.959l-0.52,0.508c0,0,0.535-0.492,1.072,0.045
				s5.398,5.398,5.398,5.398c0.6-0.729,0.959-1.663,0.959-2.681C32.039,27.093,30.146,25.2,27.811,25.2z"/>
		</g>
	</g>
	<g>
		<g>
			<path fill="#FFCA0A" d="M30.047,32.104c-0.5-0.5-5.438-5.438-5.438-5.438c-0.641,0.741-1.027,1.706-1.027,2.763
				c0,2.335,1.893,4.228,4.229,4.228c1.057,0,2.021-0.387,2.762-1.027l0.508-0.52C31.08,32.11,30.547,32.604,30.047,32.104z"/>
		</g>
	</g>
</g>
</svg>
