<?xml version="1.0" encoding="UTF-8" standalone="no"?>
<!-- Generator: Adobe Illustrator 19.0.0, SVG Export Plug-In . SVG Version: 6.00 Build 0)  -->

<svg
   xmlns:dc="http://purl.org/dc/elements/1.1/"
   xmlns:cc="http://creativecommons.org/ns#"
   xmlns:rdf="http://www.w3.org/1999/02/22-rdf-syntax-ns#"
   xmlns:svg="http://www.w3.org/2000/svg"
   xmlns="http://www.w3.org/2000/svg"
   xmlns:sodipodi="http://sodipodi.sourceforge.net/DTD/sodipodi-0.dtd"
   xmlns:inkscape="http://www.inkscape.org/namespaces/inkscape"
   version="1.1"
   id="Layer_1"
   x="0px"
   y="0px"
   viewBox="0 0 512 512"
   style="enable-background:new 0 0 512 512;"
   xml:space="preserve"
   inkscape:version="0.91 r13725"
   sodipodi:docname="fuse.svg"><metadata
     id="metadata17"><rdf:RDF><cc:Work
         rdf:about=""><dc:format>image/svg+xml</dc:format><dc:type
           rdf:resource="http://purl.org/dc/dcmitype/StillImage" /></cc:Work></rdf:RDF></metadata><defs
     id="defs15" /><sodipodi:namedview
     pagecolor="#ffffff"
     bordercolor="#666666"
     borderopacity="1"
     objecttolerance="10"
     gridtolerance="10"
     guidetolerance="10"
     inkscape:pageopacity="0"
     inkscape:pageshadow="2"
     inkscape:window-width="702"
     inkscape:window-height="480"
     id="namedview13"
     showgrid="false"
     inkscape:zoom="0.4609375"
     inkscape:cx="256"
     inkscape:cy="256"
     inkscape:window-x="0"
     inkscape:window-y="0"
     inkscape:window-maximized="0"
     inkscape:current-layer="Layer_1" /><path
     style="fill:#f1543f"
     d="m 179.21764,199.06052 -23.00678,3.52883 C 151.88125,174.33971 130.67441,162.05939 106.11694,147.83912 99.949208,144.26788 93.574634,140.57467 87.339004,136.54309 47.639568,110.85284 56.541678,65.281577 66.796143,44.770526 l 20.816521,10.409316 -10.409326,-5.205717 10.426286,5.167542 c -0.82095,1.66947 -19.707056,41.11542 12.354574,61.859823 5.753032,3.72291 11.874092,7.26659 17.794702,10.69676 27.24199,15.77626 55.41631,32.09028 61.43874,71.36227 z"
     id="path3"
     inkscape:connector-curvature="0" /><circle
     style="fill:#2b3b4e"
     cx="-10.506034"
     cy="406.02606"
     r="170.66699"
     id="circle5"
     transform="matrix(0.70710678,-0.70710678,0.70710678,0.70710678,0,0)" /><path
     style="fill:#1b2835"
     d="m 158.98555,173.84333 c -0.20259,0.20258 -0.38927,0.41895 -0.59184,0.62154 l 241.32775,241.32777 c 0.20471,-0.20046 0.42108,-0.38713 0.62367,-0.58972 66.64977,-66.64977 66.64977,-174.70983 0,-241.35959 -66.64975,-66.64977 -174.70981,-66.64977 -241.35958,0 z"
     id="path7"
     inkscape:connector-curvature="0" /><rect
     x="-64.809029"
     y="203.70755"
     style="fill:#324a5e"
     width="108.606"
     height="42.591"
     id="rect9"
     transform="matrix(0.70710678,-0.70710678,0.70710678,0.70710678,0,0)" /><rect
     x="-11.359534"
     y="203.70755"
     style="fill:#2b3b4e"
     width="55.160995"
     height="42.591"
     id="rect11"
     transform="matrix(0.70710678,-0.70710678,0.70710678,0.70710678,0,0)" /></svg>