<?xml version="1.0" encoding="utf-8"?>
<!-- Generator: Adobe Illustrator 14.0.0, SVG Export Plug-In . SVG Version: 6.00 Build 43363)  -->
<!DOCTYPE svg PUBLIC "-//W3C//DTD SVG 1.1//EN" "http://www.w3.org/Graphics/SVG/1.1/DTD/svg11.dtd">
<svg version="1.1" id="Layer_1" xmlns="http://www.w3.org/2000/svg" xmlns:xlink="http://www.w3.org/1999/xlink" x="0px" y="0px"
	 width="70px" height="50px" viewBox="0 0 70 50" enable-background="new 0 0 70 50" xml:space="preserve">
<line fill="none" stroke="#F5686E" stroke-width="5" stroke-linecap="square" x1="6.375" y1="25.313" x2="10.375" y2="25.313"/>
<line fill="#A5A5A5" stroke="#9EAB96" stroke-width="5" stroke-linecap="square" x1="31.72" y1="35.273" x2="31.72" y2="24.917"/>
<path fill="none" stroke="#F5686E" stroke-width="5" stroke-linecap="square" d="M11.45,18.545c0-4.159,3.365-7.524,7.524-7.524"/>
<line fill="none" stroke="#F5686E" stroke-width="5" stroke-linecap="square" x1="26.814" y1="39.525" x2="39.773" y2="39.525"/>
<line fill="none" stroke="#F5686E" stroke-width="5" stroke-linecap="square" x1="11.45" y1="18.545" x2="11.45" y2="40.117"/>
<path fill="#A5A5A5" stroke="#9EAB96" stroke-width="5" stroke-linecap="square" d="M21.91,35.273c0,5.511,9.81,5.687,9.811,0"/>
<line fill="none" stroke="#CBE1EA" stroke-width="5" stroke-linecap="square" x1="21.822" y1="34.67" x2="21.822" y2="25.313"/>
<path fill="none" stroke="#FEB57D" stroke-width="5" stroke-linecap="square" d="M39.773,32.002c0-4.16,3.359-7.526,7.521-7.526"/>
<path fill="none" stroke="#F5686E" stroke-width="5" stroke-linecap="square" d="M47.296,32.002c0,4.156-3.364,7.523-7.522,7.523"/>
<path fill="none" stroke="#FEB57D" stroke-width="5" stroke-linecap="square" d="M55.326,32.002c0-4.16,3.365-7.526,7.523-7.526"/>
<path fill="none" stroke="#CBE1EA" stroke-width="5" stroke-linecap="square" d="M62.852,39.525c-4.16,0-7.521-3.365-7.521-7.523"/>
<line fill="none" stroke="#CBE1EA" stroke-width="5" stroke-linecap="square" x1="13.288" y1="25.313" x2="21.822" y2="25.313"/>
<circle fill="#A5A5A5" stroke="#9EAB96" stroke-linecap="square" cx="62.852" cy="32.002" r="2.141"/>
</svg>
