<?xml version="1.0" encoding="utf-8"?>
<!-- Generator: Adobe Illustrator 14.0.0, SVG Export Plug-In . SVG Version: 6.00 Build 43363)  -->
<!DOCTYPE svg PUBLIC "-//W3C//DTD SVG 1.1//EN" "http://www.w3.org/Graphics/SVG/1.1/DTD/svg11.dtd">
<svg version="1.1" id="Layer_1" xmlns="http://www.w3.org/2000/svg" xmlns:xlink="http://www.w3.org/1999/xlink" x="0px" y="0px"
	 width="360px" height="360px" viewBox="0 0 360 360" enable-background="new 0 0 360 360" xml:space="preserve">
<g>
	<circle fill="none" stroke="#010101" stroke-width="6" cx="181.497" cy="180.771" r="22.722"/>
	<path fill="none" stroke="#FFFFFF" stroke-width="6" d="M192.796,225.016"/>
	<path fill="none" stroke="#FFFFFF" stroke-width="6" d="M225.844,169.272"/>
	<path fill="none" stroke="#FFFFFF" stroke-width="6" d="M170.101,136.223"/>
	<path fill="none" stroke="#FFFFFF" stroke-width="6" d="M137.053,191.967"/>
	<path fill="none" stroke="#010101" stroke-width="6" d="M248.179,163.4c9.426,36.879-12.829,74.418-49.71,83.845
		c-37.619,9.614-74.419-12.827-83.846-49.709c-9.427-36.879,12.829-74.417,49.711-83.844
		C201.214,104.265,238.752,126.521,248.179,163.4z"/>
	<path fill="none" stroke="#FFFFFF" stroke-width="6" d="M270.512,157.528"/>
	<path fill="none" stroke="#FFFFFF" stroke-width="6" d="M158.566,91.158"/>
	<path fill="none" stroke="#FFFFFF" stroke-width="6" d="M92.197,203.104"/>
	<path fill="none" stroke="#FFFFFF" stroke-width="6" d="M204.143,269.475"/>
	<path fill="none" stroke="#010101" stroke-width="6" d="M292.844,151.657c15.746,61.602-21.429,124.303-83.029,140.047
		c-63.076,16.122-124.304-21.431-140.048-83.03c-15.745-61.601,21.428-124.303,83.03-140.049
		C214.398,52.881,277.1,90.055,292.844,151.657z"/>
	<path fill="none" stroke="#FFFFFF" stroke-width="6" d="M147.027,46.092"/>
	<path fill="none" stroke="#FFFFFF" stroke-width="6" d="M47.332,214.243"/>
	<path fill="none" stroke="#FFFFFF" stroke-width="6" d="M215.484,313.936"/>
	<path fill="none" stroke="#FFFFFF" stroke-width="6" d="M315.178,145.784"/>
	<path fill="none" stroke="#010101" stroke-width="6" d="M337.512,139.911c22.063,86.323-30.029,174.188-116.353,196.251
		c-88.539,22.63-174.188-30.03-196.252-116.354C2.844,133.487,54.936,45.623,141.26,23.559
		C227.583,1.496,315.448,53.589,337.512,139.911z"/>
	<path fill="none" stroke="#010101" stroke-width="3" d="M135.491,1.025"/>
	<path fill="none" stroke="#010101" stroke-width="6" d="M2.477,225.38"/>
	<path fill="none" stroke="#010101" stroke-width="6" d="M226.831,358.395"/>
	<path fill="none" stroke="#010101" stroke-width="6" d="M359.846,134.04"/>
</g>
<line fill="none" stroke="#010101" stroke-width="6" x1="248.179" y1="163.4" x2="337.512" y2="139.911"/>
<line fill="none" stroke="#010101" stroke-width="6" x1="24.907" y1="219.811" x2="114.623" y2="197.536"/>
<line fill="none" stroke="#010101" stroke-width="6" x1="196.832" y1="164.006" x2="297.306" y2="67.811"/>
<line fill="none" stroke="#010101" stroke-width="6" x1="66.199" y1="293.641" x2="163.022" y2="197.536"/>
<line fill="none" stroke="#010101" stroke-width="6" x1="200.211" y1="114.609" x2="225.423" y2="24.688"/>
<line fill="none" stroke="#010101" stroke-width="6" x1="138.17" y1="335.882" x2="163.022" y2="247.245"/>
<line fill="none" stroke="#010101" stroke-width="6" x1="164.334" y1="113.692" x2="141.26" y2="23.559"/>
<line fill="none" stroke="#010101" stroke-width="6" x1="221.64" y1="337.268" x2="198.469" y2="247.245"/>
<line fill="none" stroke="#010101" stroke-width="6" x1="164.334" y1="162.126" x2="68.479" y2="65.012"/>
<line fill="none" stroke="#010101" stroke-width="6" x1="293.64" y1="295.443" x2="196.832" y2="197.536"/>
<line fill="none" stroke="#010101" stroke-width="6" x1="114.95" y1="162.126" x2="25.629" y2="137.083"/>
<line fill="none" stroke="#010101" stroke-width="6" x1="336.343" y1="224.2" x2="247.697" y2="199.346"/>
<path fill="none" stroke="#010101" stroke-width="6" d="M215.964,120.29"/>
<path fill="none" stroke="#010101" stroke-width="6" d="M192.253,160.918"/>
<path fill="none" stroke="#010101" stroke-width="6" d="M169.078,200.008"/>
<path fill="none" stroke="#010101" stroke-width="6" d="M145.335,239.436"/>
<path fill="none" stroke="#010101" stroke-width="6" d="M147.027,120.29"/>
<path fill="none" stroke="#010101" stroke-width="6" d="M169.671,160.58"/>
<path fill="none" stroke="#010101" stroke-width="6" d="M191.935,200.191"/>
<path fill="none" stroke="#010101" stroke-width="6" d="M214.758,240.8"/>
<path fill="none" stroke="#010101" stroke-width="6" d="M121.844,145.784"/>
<path fill="none" stroke="#010101" stroke-width="6" d="M161.121,168.875"/>
<path fill="none" stroke="#010101" stroke-width="6" d="M200.211,192.05"/>
<path fill="none" stroke="#010101" stroke-width="6" d="M240.521,215.895"/>
<path fill="none" stroke="#010101" stroke-width="6" d="M121.09,213.962"/>
<path fill="none" stroke="#010101" stroke-width="6" d="M160.865,191.605"/>
<path fill="none" stroke="#010101" stroke-width="6" d="M200.479,169.341"/>
<path fill="none" stroke="#010101" stroke-width="6" d="M242.393,145.784"/>
</svg>
