<?xml version="1.0" encoding="iso-8859-1"?>
<!-- Generator: Adobe Illustrator 19.0.0, SVG Export Plug-In . SVG Version: 6.00 Build 0)  -->
<svg version="1.1" id="Layer_1" xmlns="http://www.w3.org/2000/svg" xmlns:xlink="http://www.w3.org/1999/xlink" x="0px" y="0px"
	 viewBox="0 0 512 512" style="enable-background:new 0 0 512 512;" xml:space="preserve">
<path style="fill:#F6D76F;" d="M369.437,474.854V512h33.391v-37.146c-5.472-17.394-9.924-27.411-16.696-48.559
	C378.435,447.443,375.096,460.8,369.437,474.854z"/>
<path style="fill:#FBB071;" d="M318.33,278.261c0,0,25.6,143.583,34.411,181.462c3.942,6.545,9.754,11.834,16.696,15.132
	c5.061,2.404,10.72,3.754,16.696,3.754s11.635-1.349,16.696-3.754c13.161-6.253,22.261-19.663,22.261-35.202V274.22
	C381.774,277.148,358.4,277.148,318.33,278.261z"/>
<path style="fill:#F6D76F;" d="M109.172,474.854V512h33.391v-37.146c-6.772-10.715-11.224-18.507-19.015-32.976
	C117.983,455.235,113.53,466.365,109.172,474.854z"/>
<path style="fill:#FAE8AC;" d="M175.954,474.854V512h33.391v-37.146c-6.772-8.489-10.111-16.281-17.902-28.524
	C185.878,458.574,183.652,466.365,175.954,474.854z"/>
<path style="fill:#F6D76F;" d="M159.259,459.723c3.942,6.545,9.754,11.834,16.696,15.132c5.061,2.404,10.72,3.754,16.696,3.754
	c5.976,0,11.635-1.349,16.696-3.754c13.161-6.253,22.261-19.663,22.261-35.202v-72.971l-102.493-28.316
	C129.113,338.365,151.374,429.635,159.259,459.723z"/>
<path style="fill:#FBB071;" d="M391.698,0c-12.243,0-22.261,10.017-22.261,22.261v3.268l21.241,21.219L391.698,0z"/>
<path style="fill:#FF835D;" d="M86.911,286.546c-18.364,0-33.391,15.027-33.391,33.391v43.195h73.367L86.911,286.546z"/>
<g>
	<path style="fill:#FBB071;" d="M302.654,474.854V512h33.391v-37.146c-6.585-9.602-11.037-17.394-16.696-28.524
		C311.652,457.461,309.426,465.252,302.654,474.854z"/>
	<path style="fill:#FBB071;" d="M233.39,208.629l-68.563,0.011c-43.031-0.007-77.914,34.876-77.914,77.906v153.106
		c0,15.539,9.1,28.949,22.261,35.202c5.061,2.404,10.72,3.754,16.696,3.754s11.635-1.349,16.696-3.754
		c6.942-3.298,12.753-8.587,16.696-15.132c3.532-5.862,5.565-12.728,5.565-20.07v-72.971h115.57l67.988-86.194l-67.989-71.858
		H233.39z"/>
</g>
<g>
	<path style="fill:#FF835D;" d="M425.089,47.79V25.529h-66.783c-3.903,0-7.648,0.677-11.13,1.908V0
		c-12.243,0-22.261,10.017-22.261,22.261v160.69c0,14.158-12.622,25.678-26.78,25.678h-17.742v231.023
		c0,15.539,9.1,28.949,22.261,35.202c5.061,2.404,10.72,3.754,16.696,3.754c5.976,0,11.635-1.349,16.696-3.754
		c6.942-3.298,12.753-8.587,16.696-15.132c3.532-5.862,5.565-12.728,5.565-20.07V362.75c38.28-11.479,66.783-46.817,66.783-88.529
		V47.79z"/>
	<rect x="131.428" y="299.898" style="fill:#FF835D;" width="33.391" height="33.391"/>
	<rect x="198.211" y="266.507" style="fill:#FF835D;" width="33.391" height="33.391"/>
</g>
<path style="fill:#F6D76F;" d="M380.567,47.79v55.012c0,0,18.778,0,26.713,0c6.781,0,12.983-2.438,17.809-6.47
	c2.568-2.145,4.753-4.735,6.413-7.664l26.978-7.486V47.79C458.48,47.79,380.567,47.79,380.567,47.79z"/>
<g>
</g>
<g>
</g>
<g>
</g>
<g>
</g>
<g>
</g>
<g>
</g>
<g>
</g>
<g>
</g>
<g>
</g>
<g>
</g>
<g>
</g>
<g>
</g>
<g>
</g>
<g>
</g>
<g>
</g>
</svg>
