<?xml version="1.0" encoding="iso-8859-1"?>
<!-- Generator: Adobe Illustrator 19.0.0, SVG Export Plug-In . SVG Version: 6.00 Build 0)  -->
<svg version="1.1" id="Layer_1" xmlns="http://www.w3.org/2000/svg" xmlns:xlink="http://www.w3.org/1999/xlink" x="0px" y="0px"
	 viewBox="0 0 512 512" style="enable-background:new 0 0 512 512;" xml:space="preserve">
<path style="fill:#05232E;" d="M336.696,0c-18.442,0-33.391,14.95-33.391,33.391l33.391,24.116V0z"/>
<g>
	<path style="fill:#FB5858;" d="M61.217,244.87c-18.441,0-33.391,14.949-33.391,33.391v44.522c18.44,0,33.391-14.952,33.391-33.391
		c14.099-1.855,20.035-3.339,31.908-8.534c-5.195-8.904-11.13-23.745-14.783-35.988H61.217z"/>
	<path style="fill:#FB5858;" d="M384.742,110.934l43.779-21.89V44.522c-10.728,0-20.266,5.064-26.376,12.927
		C403.007,60.412,384.742,110.934,384.742,110.934z"/>
</g>
<path style="fill:#8F5543;" d="M317.217,478.609l17.066,21.89l16.325-21.89V344.557c-11.13,0-20.777,0.116-33.391,0.116V478.609z"/>
<rect x="317.217" y="478.609" style="fill:#05232E;" width="33.391" height="33.391"/>
<path style="fill:#8F5543;" d="M94.609,374.226v104.382l17.066,18.922L128,478.609V378.435c29.133,0,56.083-9.333,78.035-25.164
	l-66.163-63.508C125.774,310.539,110.191,348.383,94.609,374.226z"/>
<rect x="94.609" y="478.609" style="fill:#05232E;" width="33.391" height="33.391"/>
<g>
	<path style="fill:#FAEAB6;" d="M373.612,140.614c0,0,13.357,166.957-101.658,183.282l11.872,42.987
		c11.566-0.879,22.745-3.129,33.391-6.568c11.874-3.837,23.081-9.157,33.391-15.757c40.162-25.714,66.783-70.722,66.783-121.948
		v-77.913L373.612,140.614z"/>
	<path style="fill:#FAEAB6;" d="M269.727,317.217l-108.336-20.035c-2.968,16.325-3.71,28.939-8.574,44.885l53.218,11.204
		l44.399,9.347L269.727,317.217z"/>
</g>
<g>
	<polygon style="fill:#8F5543;" points="27.826,512 61.217,512 61.217,478.609 44.892,454.492 27.826,478.609 	"/>
	<polygon style="fill:#8F5543;" points="250.435,512 283.826,512 283.826,478.609 266.76,458.203 250.435,478.609 	"/>
</g>
<path style="fill:#325763;" d="M403.478,123.548V66.783c0-3.241-0.471-6.371-1.332-9.334c-4.039-13.897-16.859-24.057-32.059-24.057
	H269.913V0c-18.442,0-33.391,14.95-33.391,33.391s14.95,33.391,33.391,33.391h82.603
	C367.702,81.968,403.478,123.548,403.478,123.548z"/>
<path style="fill:#FF835D;" d="M384,89.043V44.522c-14.537,0-26.899,9.294-31.484,22.261c-1.231,3.482-1.908,7.227-1.908,11.13
	v144.696l-83.108,45.635l-72.718-45.635H128c-19.665,0-37.409,8.619-49.658,22.261c-10.631,11.838-17.124,27.455-17.124,44.522
	v58.435H27.826v130.783h33.391V378.435c11.53,0,22.718-1.461,33.391-4.208c22.15-5.701,42.071-16.946,58.209-32.159
	c9.087-8.567,16.969-18.394,23.375-29.202l74.242,15.629v150.114h33.391V333.357C339.99,327.751,384,280.224,384,222.609v-72.348
	l100.174-16.696V89.043H384z"/>
<path style="fill:#FB5858;" d="M189.673,281.579l88.921,18.72c40.031-3.046,72.015-37.162,72.015-77.69H194.783v22.261
	C194.783,257.602,192.999,269.915,189.673,281.579z"/>
</svg>
