<?xml version="1.0" encoding="iso-8859-1"?>
<!-- Generator: Adobe Illustrator 19.0.0, SVG Export Plug-In . SVG Version: 6.00 Build 0)  -->
<svg version="1.1" id="Layer_1" xmlns="http://www.w3.org/2000/svg" xmlns:xlink="http://www.w3.org/1999/xlink" x="0px" y="0px"
	 viewBox="0 0 512 512" style="enable-background:new 0 0 512 512;" xml:space="preserve">
<g>
	<path style="fill:#FBB071;" d="M122.435,336.696c0-18.441-14.949-33.391-33.391-33.391l-13.078,16.417l13.078,16.974H122.435z"/>
	<path style="fill:#FBB071;" d="M356.174,336.696c0-18.441-14.949-33.391-33.391-33.391l-13.727,16.51l13.727,16.882H356.174z"/>
	<path style="fill:#FBB071;" d="M389.565,336.696h33.391c0-18.441-14.949-33.391-33.391-33.391l-14.099,16.51L389.565,336.696z"/>
</g>
<path style="fill:#8F5543;" d="M55.652,240.047v96.649h33.391v-44.522c35.157,0,67.381-12.543,92.454-33.391l-0.071-18.736H55.652z"
	/>
<g>
	<path style="fill:#FBB071;" d="M0,258.783l16.696,16.139l16.696-16.139l15.953-15.768l-15.953-17.623
		C14.95,225.391,0,240.342,0,258.783z"/>
	<path style="fill:#FBB071;" d="M91.971,225.345H66.458l-15.212,17.623l15.519,15.815c0,0,20.006-0.086,41.115-0.086
		C99.718,249.793,91.637,225.628,91.971,225.345z"/>
	<polygon style="fill:#FBB071;" points="0,325.565 16.696,342.447 33.391,325.565 33.391,292.174 16.696,276.405 0,292.174 	"/>
	<polygon style="fill:#FBB071;" points="133.565,425.739 151.745,409.971 133.565,392.348 100.174,392.348 85.704,409.971 
		100.174,425.739 	"/>
	<polygon style="fill:#FBB071;" points="200.348,425.739 217.043,409.971 200.348,392.348 166.957,392.348 151.003,409.971 
		166.957,425.739 	"/>
	<polygon style="fill:#FBB071;" points="66.783,425.739 82.736,410.713 66.783,392.348 33.391,392.348 17.438,408.487 
		33.391,425.739 	"/>
	<polygon style="fill:#FBB071;" points="0,392.348 15.953,407.745 33.391,392.348 33.391,358.957 15.953,346.156 0,358.957 	"/>
</g>
<g>
	<rect x="33.391" y="225.391" style="fill:#C97E67;" width="33.391" height="33.391"/>
	<rect y="258.783" style="fill:#C97E67;" width="33.391" height="33.391"/>
	<path style="fill:#C97E67;" d="M233.739,392.348h-33.391v33.391C218.79,425.739,233.739,410.789,233.739,392.348z"/>
	<rect x="133.565" y="392.348" style="fill:#C97E67;" width="33.391" height="33.391"/>
	<rect x="66.783" y="392.348" style="fill:#C97E67;" width="33.391" height="33.391"/>
	<rect y="325.565" style="fill:#C97E67;" width="33.391" height="33.391"/>
	<path style="fill:#C97E67;" d="M33.391,425.739v-33.391H0C0,410.789,14.95,425.739,33.391,425.739z"/>
</g>
<g>
	<path style="fill:#FBB071;" d="M261.565,86.261c-1.863,0-3.716,0.038-5.565,0.097l-26.713,93.955L256,258.783h33.391l25.6-80.139
		l-25.6-90.139C280.332,87.034,271.039,86.261,261.565,86.261z"/>
	<path style="fill:#FBB071;" d="M189.217,102.131l-30.052,78.182l30.052,78.47h33.391l28.939-77.913l-28.939-90.173
		C210.987,93.382,199.81,97.23,189.217,102.131z"/>
</g>
<path style="fill:#C97E67;" d="M222.609,90.696v168.086H256V86.358C244.551,86.722,233.389,88.206,222.609,90.696z"/>
<path style="fill:#8F5543;" d="M466.288,192c5.933-13.717,12.32-30.536,12.32-39.363c0-16.476-8.957-30.851-22.261-38.55
	c-13.304,7.699-22.261,22.074-22.261,38.55c0,6.743,3.73,18.148,8.134,29.273c0,16.768-0.248,25.32-0.248,32.554L466.288,192z"/>
<path style="fill:#FBB071;" d="M446.407,192c-1.4-3.239-2.824-6.652-4.185-10.09l-21.466-17.037
	c-22.285-2.925-65.1-7.972-65.1-7.972c13.318,33.986,33.909,101.881,33.909,101.881h54.477C482.1,258.783,512,228.883,512,192
	H446.407z"/>
<polygon style="fill:#C97E67;" points="356.174,336.696 389.565,336.696 389.565,258.783 372.313,236.522 356.174,258.783 "/>
<path style="fill:#8F5543;" d="M382.357,134.398l-13.633-10.82c-22.547-17.893-49.673-30.261-79.333-35.073v248.191h33.391v-77.913
	h66.783V189.22C389.565,165.287,390.832,142.872,382.357,134.398z"/>
<g>
	<path style="fill:#C97E67;" d="M92.296,225.391c-2.12,10.805-3.252,21.965-3.252,33.391h100.174V102.131
		C139.809,124.988,103.059,170.531,92.296,225.391z"/>
	<path style="fill:#C97E67;" d="M389.565,189.22c0.397,0.937,0.795,1.867,1.19,2.78h19.882c3.781-8.743,7.739-18.737,10.119-27.127
		c1.353-4.774,2.202-9.035,2.202-12.236c0-16.476-8.957-30.851-22.261-38.55c-8.052,4.66-14.493,11.775-18.339,20.311
		c-2.508,5.569-3.922,11.736-3.922,18.239C378.435,160.876,384,176.076,389.565,189.22z"/>
</g>
<g>
</g>
<g>
</g>
<g>
</g>
<g>
</g>
<g>
</g>
<g>
</g>
<g>
</g>
<g>
</g>
<g>
</g>
<g>
</g>
<g>
</g>
<g>
</g>
<g>
</g>
<g>
</g>
<g>
</g>
</svg>
