<?xml version="1.0" encoding="iso-8859-1"?>
<!-- Generator: Adobe Illustrator 19.0.0, SVG Export Plug-In . SVG Version: 6.00 Build 0)  -->
<svg version="1.1" id="Layer_1" xmlns="http://www.w3.org/2000/svg" xmlns:xlink="http://www.w3.org/1999/xlink" x="0px" y="0px"
	 viewBox="0 0 512 512" style="enable-background:new 0 0 512 512;" xml:space="preserve">
<g>
	<polygon style="fill:#6B8F9C;" points="75.77,370.296 109.162,370.296 109.162,336.905 93.125,314.991 75.77,336.905 	"/>
	<polygon style="fill:#6B8F9C;" points="0,370.296 33.391,370.296 33.391,336.905 16.696,315.734 0,336.905 	"/>
</g>
<g>
	<polygon style="fill:#325763;" points="402.838,370.296 436.23,370.296 436.23,336.905 419.617,314.249 402.838,336.905 	"/>
	<polygon style="fill:#325763;" points="478.609,370.296 512,370.296 512,336.905 496.047,314.249 478.609,336.905 	"/>
	<path style="fill:#325763;" d="M169.134,187.037c-26.992-18.212-47.968-44.658-59.299-75.747C47.171,123.99,0,179.376,0,245.791
		v91.114h151.541C161.391,412.035,256,451.337,256,451.337l56.765-108.148C266.76,295.699,179.942,200.718,169.134,187.037z"/>
</g>
<path style="fill:#05232E;" d="M402.165,111.291c-11.331,31.09-32.306,57.535-59.298,75.747
	c-7.84,18.133-56.072,122.017-86.866,175.26v89.038c0,0,94.609-39.302,104.459-114.432H512V245.79
	C512,179.376,464.829,123.99,402.165,111.291z"/>
<path style="fill:#6B8F9C;" d="M166.957,273.254c0,48.974,40.07,89.043,89.043,89.043s89.043-40.07,89.043-89.043v-66.783
	c0-6.673-0.768-13.172-2.177-19.435c-4.494-19.979-15.744-37.468-31.214-49.92H200.348c-15.47,12.453-26.72,29.941-31.214,49.92
	c-1.409,6.263-2.177,12.762-2.177,19.435V273.254z"/>
<path style="fill:#05232E;" d="M311.624,171.967c0.028,0,0.028-111.304,0.028-111.304C280.917,60.663,256,85.58,256,116.315v1.113
	c7.791,11.313,14.495,19.351,23.374,27.638C290.504,155.455,297.183,161.391,311.624,171.967z"/>
<path style="fill:#325763;" d="M311.624,171.967c-0.595-30.22-25.262-54.539-55.624-54.539v-1.113
	c0-30.736-24.917-55.652-55.652-55.652c0,0,0,111.304,0.028,111.304c-0.008,0.372-0.028,0.74-0.028,1.113
	c0,30.736,24.917,55.652,55.652,55.652s55.652-24.917,55.652-55.652C311.652,172.708,311.631,172.339,311.624,171.967z"/>
<circle style="fill:#6B8F9C;" cx="256" cy="173.078" r="22.261"/>
<g>
</g>
<g>
</g>
<g>
</g>
<g>
</g>
<g>
</g>
<g>
</g>
<g>
</g>
<g>
</g>
<g>
</g>
<g>
</g>
<g>
</g>
<g>
</g>
<g>
</g>
<g>
</g>
<g>
</g>
</svg>
