<?xml version="1.0" encoding="iso-8859-1"?>
<!-- Generator: Adobe Illustrator 19.0.0, SVG Export Plug-In . SVG Version: 6.00 Build 0)  -->
<svg version="1.1" id="Layer_1" xmlns="http://www.w3.org/2000/svg" xmlns:xlink="http://www.w3.org/1999/xlink" x="0px" y="0px"
	 viewBox="0 0 512 512" style="enable-background:new 0 0 512 512;" xml:space="preserve">
<path style="fill:#FBB071;" d="M425.553,194.782c-70.122,0-139.501,40.813-139.501,40.813c0,23.798,20.777,134.305,117.471,114.232
	c24.221-20.607,41.795-48.761,49.09-80.828h25.996c18.443,0,33.391-14.959,33.391-33.391L425.553,194.782z"/>
<path style="fill:#F6D76F;" d="M306.428,85.676H91.171v123.601C91.171,209.277,187.362,153.229,306.428,85.676z"/>
<path style="fill:#FBB071;" d="M91.171,261.917v68.085c0,30.664,24.851,55.526,55.515,55.526h148.08l0.423-0.423
	C235.595,347.64,91.171,261.917,91.171,261.917z"/>
<path style="fill:#F6D76F;" d="M377.825,333.912c-11.634-0.37-19.797-1.854-25.732-5.564c-2.226-8.162-3.71-17.809-3.492-27.727l0,0
	c-11.477-18.976-18.083-41.227-18.083-65.024l-116.443-14.844H38.214l52.956,41.163l125.793,93.998
	c22.154,16.503,49.027,27.025,78.226,29.191c0,0,70.261-10.751,84.931-18.914c8.33-4.711,16.167-10.193,23.408-16.355
	C394.295,345.555,385.678,340.19,377.825,333.912z M345.965,334.328c-4.028-4.028-6.52-9.593-6.52-15.742l0,0
	C339.445,324.735,341.936,330.3,345.965,334.328L345.965,334.328z"/>
<path style="fill:#FAE8AC;" d="M306.428,85.676c-33.532,0-64.494,11.012-89.464,29.613L91.171,209.277l-35.889,26.319h209.252
	l15.583-20.037l17.066,20.037h107.595c0-50.621-1.266-72.722-1.266-114.233C377.356,99.104,343.46,85.676,306.428,85.676z"/>
<path style="fill:#FBB071;" d="M0,235.596c0,29.801,13.591,56.231,34.444,74.345l56.726-48.026v-46.357L0,235.596z"/>
<path style="fill:#F6D76F;" d="M91.171,209.277l-56.726-48.026C13.591,179.376,0,205.805,0,235.596h91.171V209.277z"/>
<g>
	<rect x="219.214" y="157.685" style="fill:#FFFFFF;" width="33.391" height="33.391"/>
	<rect x="263.736" y="202.206" style="fill:#FFFFFF;" width="33.391" height="33.391"/>
</g>
<path style="fill:#FAE8AC;" d="M374.429,336.839c-6.709-0.465-21.848-1.841-28.464-2.511l-51.199,51.199l-22.312,22.312
	c24.646,24.646,64.605,24.647,89.252,0c11.566-11.567,17.703-26.505,18.414-41.649C380.589,356.192,378.69,346.106,374.429,336.839z
	"/>
<path style="fill:#FF835D;" d="M339.445,318.587c0,6.147,2.491,11.713,6.52,15.742c4.028,4.028,9.593,6.519,15.741,6.519
	c4.735,0,9.115-1.488,12.723-4.009c1.231-0.859,2.364-1.842,3.396-2.927c-11.591-9.267-21.51-20.536-29.224-33.291
	C343.059,304.67,339.445,311.199,339.445,318.587z"/>
<path style="fill:#F6D76F;" d="M330.518,235.595h125.83c0,0.012,55.652,0.012,55.652,0.012c0-18.443-14.948-33.391-33.391-33.391
	h-25.993c-7.296-32.078-24.879-60.243-49.093-80.843C360.415,141.333,330.518,184.975,330.518,235.595z"/>
<g>
</g>
<g>
</g>
<g>
</g>
<g>
</g>
<g>
</g>
<g>
</g>
<g>
</g>
<g>
</g>
<g>
</g>
<g>
</g>
<g>
</g>
<g>
</g>
<g>
</g>
<g>
</g>
<g>
</g>
</svg>
