<?xml version="1.0" encoding="iso-8859-1"?>
<!-- Generator: Adobe Illustrator 19.0.0, SVG Export Plug-In . SVG Version: 6.00 Build 0)  -->
<svg version="1.1" id="Layer_1" xmlns="http://www.w3.org/2000/svg" xmlns:xlink="http://www.w3.org/1999/xlink" x="0px" y="0px"
	 viewBox="0 0 512 512" style="enable-background:new 0 0 512 512;" xml:space="preserve">
<path style="fill:#325763;" d="M306.088,5.817h-33.391v40.516c6.677,17.111,21.147,46.05,33.391,70.537V5.817z"/>
<path style="fill:#6B8F9C;" d="M239.306,5.817h-33.391v112.166c12.242-18.922,24.486-50.087,33.391-71.652V5.817z"/>
<g>
	<path style="fill:#325763;" d="M349.836,361.203c-13.697,0-18.149-0.174-33.395-0.174l-0.048,145.133l33.391,0.012l0.062-144.971
		C349.729,361.201,349.109,361.203,349.836,361.203z"/>
	<path style="fill:#325763;" d="M328.466,218.202c-0.065,13.925,0.756,69.902,0.756,85.017l64.457,54.024v70.092h33.391V341.6
		L328.466,218.202z"/>
</g>
<g>
	<path style="fill:#6B8F9C;" d="M162.144,361.203l0.063,144.98l33.391-0.011l-0.048-144.764
		C181.859,361.408,173.169,361.203,162.144,361.203z"/>
	<path style="fill:#6B8F9C;" d="M191.683,201.954L84.93,341.599v85.734h33.391v-70.092l73.74-60.448
		C192.06,280.548,191.748,215.883,191.683,201.954z"/>
</g>
<polygon style="fill:#325763;" points="427.07,155.025 427.07,69.29 393.679,69.29 393.679,139.381 370.082,159.995 370.03,202.709 
	"/>
<polygon style="fill:#6B8F9C;" points="118.321,139.381 118.321,69.29 84.93,69.29 84.93,155.025 142.184,202.709 141.918,159.995 
	"/>
<path style="fill:#F6D76F;" d="M451.268,243.518l-115.623-42.319l34.438,92.926l56.988,47.475
	C456.935,341.599,451.268,276.769,451.268,243.518z"/>
<g>
	<path style="fill:#FAE8AC;" d="M493.352,262.017L370.082,159.995l-27.258,28.734l27.258,38.326l50.343,41.605
		c21.971,18.31,24.954,50.955,6.645,72.938c21.971,18.298,54.628,15.327,72.938-6.645
		C518.306,312.972,515.334,280.326,493.352,262.017z"/>
	<path style="fill:#FAE8AC;" d="M171.657,182.305L54.711,266.756c-21.971,18.31-20.215,66.691,30.218,74.843l56.988-47.475
		L171.657,182.305z"/>
</g>
<path style="fill:#FDF3D3;" d="M91.575,268.662l50.343-41.605l31.251-34.548l-31.251-32.513L18.649,262.017
	c-21.983,18.31-24.954,50.955-6.656,72.938c18.31,21.97,50.966,24.943,72.938,6.645C66.621,319.617,69.604,286.971,91.575,268.662z"
	/>
<polygon style="fill:#05232E;" points="202.641,329.668 370.082,294.128 370.082,227.067 202.641,195.153 "/>
<polygon style="fill:#FBB071;" points="197.729,227.067 370.082,227.067 370.082,159.995 197.729,110.514 "/>
<path style="fill:#05232E;" d="M370.082,159.995c0-45.431-25.963-84.69-63.994-103.329c-10.332-5.064-21.555-8.603-33.391-10.332
	c-5.447-0.796-11.017-1.215-16.697-1.215l-60.538,114.877H370.082z"/>
<path style="fill:#FBB071;" d="M198.862,294.128c0,0,23.417,95.619,23.427,95.619l127.558-28.543
	c5.886-8.526,10.701-18.114,14.168-28.673c3.824-11.65,6.003-24.478,6.067-38.403H198.862z"/>
<path style="fill:#05232E;" d="M256,361.203c-0.006,0-10.662,39.501-16.696,60.494v50.484h33.391v-50.488
	c11.627-5.202,27.841-13.657,43.746-25.923c12.013-9.264,23.848-20.707,33.395-34.568C349.109,361.203,256,361.203,256,361.203z"/>
<path style="fill:#325763;" d="M256,361.029c-6.506-20.782-16.708-39.297-46.179-39.297c-47.232,0-47.674,39.471-47.677,39.471
	c9.551,13.861,21.39,25.305,33.406,34.57c15.911,12.268,32.127,20.721,43.754,25.924c10.065,4.503,16.696,6.574,16.696,6.574
	v-67.241H256z"/>
<path style="fill:#F6D76F;" d="M256,361.203l0.337-67.013l-55.209-34.804l-59.208,34.74c0.065,13.924,2.243,26.751,6.068,38.4
	c3.468,10.558,8.287,20.155,14.167,28.676H256z"/>
<polygon style="fill:#325763;" points="141.92,227.067 141.92,294.128 256,294.128 256,226.892 203.774,190.24 "/>
<polygon style="fill:#F6D76F;" points="141.92,227.067 256,227.067 256,159.995 204.152,112.781 141.92,159.995 "/>
<path style="fill:#325763;" d="M256,45.118c-5.675,0-11.251,0.419-16.694,1.213c-11.836,1.73-23.059,5.266-33.391,10.329
	c-38.034,18.638-63.994,57.899-63.994,103.335H256L256,45.118L256,45.118z"/>
</svg>
