<?xml version="1.0" encoding="iso-8859-1"?>
<!-- Generator: Adobe Illustrator 19.0.0, SVG Export Plug-In . SVG Version: 6.00 Build 0)  -->
<svg version="1.1" id="Layer_1" xmlns="http://www.w3.org/2000/svg" xmlns:xlink="http://www.w3.org/1999/xlink" x="0px" y="0px"
	 viewBox="0 0 512 512" style="enable-background:new 0 0 512 512;" xml:space="preserve">
<g>
	<polygon style="fill:#578C76;" points="397.357,356.38 397.357,411.826 414.052,451.896 430.748,411.826 430.748,322.988 
		349.736,322.988 294.957,356.38 	"/>
	<polygon style="fill:#578C76;" points="293.843,246.561 397.357,246.561 397.357,300.728 430.748,300.728 430.748,213.17 
		349.736,213.17 	"/>
	<polygon style="fill:#578C76;" points="430.748,190.909 412.458,73.709 395.13,42.296 379.067,76.298 391.741,157.518 
		349.741,157.518 301.635,190.33 	"/>
</g>
<rect x="205.913" style="fill:#B9F291;" width="33.391" height="102.834"/>
<rect x="272.696" style="fill:#84D993;" width="33.391" height="110.625"/>
<g>
	<polygon style="fill:#50BF94;" points="81.252,322.988 81.252,411.826 97.948,454.122 114.643,411.826 114.643,356.38 
		217.043,356.38 162.264,322.988 	"/>
	<polygon style="fill:#50BF94;" points="81.252,213.17 81.252,300.728 114.643,300.728 114.643,246.561 218.157,246.561 
		162.264,213.17 	"/>
	<polygon style="fill:#50BF94;" points="120.259,157.518 132.933,76.298 116.87,40.07 99.542,73.709 81.252,190.909 
		209.252,190.909 162.259,157.518 	"/>
	<path style="fill:#50BF94;" d="M349.736,207.763C349.65,230.251,210,175.912,210,268.499l46,207.711
		c0,0,93.736-33.512,93.736-117.079V207.763z"/>
</g>
<path style="fill:#84D993;" d="M162.264,207.761V359.13c0,83.567,93.736,117.079,93.736,117.079v-207.71
	C252.388,176.394,162.347,230.25,162.264,207.761z"/>
<polygon style="fill:#B9F291;" points="132.933,0 99.542,0 99.542,73.709 132.933,76.298 "/>
<rect x="81.252" y="411.826" style="fill:#84D993;" width="33.391" height="100.174"/>
<g>
	<polygon style="fill:#50BF94;" points="412.458,0 379.067,0 379.067,76.298 412.458,73.709 	"/>
	<rect x="397.357" y="411.826" style="fill:#50BF94;" width="33.391" height="100.174"/>
</g>
<rect x="195.651" y="75.008" style="fill:#578C76;" width="120.698" height="82.677"/>
<path style="fill:#84D993;" d="M256,268.499c0.988-2.884,2.411-5.564,4.185-7.969c0.019-0.024,0.035-0.052,0.053-0.078
	c0.145-0.196,0.307-0.377,0.456-0.569c4.96-6.349,12.432-10.637,20.931-11.322c0.796-0.065,1.599-0.097,2.411-0.097h24.843
	c22.508,0,40.77-18.214,40.855-40.702c0-0.053,0.004-0.106,0.004-0.159v-82.933H256l-50.087,64.916L256,268.499z"/>
<path style="fill:#B9F291;" d="M203.119,248.465h24.843c0.811,0,1.616,0.032,2.411,0.097c8.665,0.698,16.27,5.134,21.226,11.688
	c0.052,0.068,0.11,0.132,0.161,0.201c0.105,0.141,0.197,0.294,0.299,0.437c1.656,2.314,3,4.867,3.94,7.611V124.672h-93.741v82.933
	c0,0.052,0.003,0.105,0.004,0.157C162.347,230.25,180.61,248.465,203.119,248.465z"/>
</svg>
