<?xml version="1.0" encoding="iso-8859-1"?>
<!-- Generator: Adobe Illustrator 19.0.0, SVG Export Plug-In . SVG Version: 6.00 Build 0)  -->
<svg version="1.1" id="Layer_1" xmlns="http://www.w3.org/2000/svg" xmlns:xlink="http://www.w3.org/1999/xlink" x="0px" y="0px"
	 viewBox="0 0 512 512" style="enable-background:new 0 0 512 512;" xml:space="preserve">
<path style="fill:#05232E;" d="M3.164,498.808c17.59,17.59,46.107,17.59,63.698,0l111.975-111.975
	c-12.472-8.068-24.297-17.545-35.225-28.471L3.164,498.808z"/>
<path style="fill:#325763;" d="M446.174,55.798c-18.951-18.951-40.575-33.597-63.657-43.946c-0.003,0.015,0.001,17.52,0.001,17.52
	c0,28.033-13.244,53.013-33.787,69.062v84.139c23.528-1.633,47.608,6.521,65.595,24.508c32.98,32.98,32.98,86.453,0,119.433
	c-19.093,19.093-41.622,32.647-65.595,40.687v46.956c35.704-9.228,69.481-27.832,97.444-55.794
	C529.723,274.811,529.723,139.349,446.174,55.798z"/>
<path style="fill:#6B8F9C;" d="M175.46,326.513L294.893,207.08c14.994-14.993,34.224-23.146,53.837-24.508V98.433
	c-14.867,11.616-33.55,18.564-53.837,18.564v90.082L178.331,323.64l-34.721,34.721c10.928,10.927,22.754,20.404,35.225,28.471
	c50.968,32.973,112.877,42.092,169.893,27.326v-46.96C289.883,386.935,222.327,373.381,175.46,326.513z"/>
<path style="fill:#8F5543;" d="M294.893,207.08l95.546,95.546l23.886,23.886c32.98-32.981,32.98-86.453,0-119.433
	c-17.987-17.987-42.067-26.139-65.595-24.508C329.116,183.933,309.886,192.086,294.893,207.08z"/>
<path style="fill:#05232E;" d="M199.346,302.626l95.546-95.546c0-0.001-119.433,119.433-119.433,119.433
	c46.868,46.867,114.424,60.422,173.27,40.687c23.973-8.04,46.502-21.594,65.595-40.687l-23.886-23.886
	C337.755,355.311,252.031,355.311,199.346,302.626z"/>
<path style="fill:#F6D76F;" d="M199.346,302.626c52.684,52.684,138.408,52.684,191.093,0l-95.546-95.546L199.346,302.626z"/>
<path style="fill:#05232E;" d="M382.516,29.371l-0.003-17.505C371.531,6.943,360.232,2.979,348.729,0l0.007,29.379
	c0,29.734-24.104,53.837-53.837,53.837V26.915L348.729,0l-53.837,26.919c0.007-0.002,0.007,56.299,0.007,56.299
	c-0.007-0.003-0.007,33.78-0.007,33.78c20.288,0,38.971-6.948,53.837-18.564C369.272,82.383,382.516,57.405,382.516,29.371z"/>
<path style="fill:#F72349;" d="M294.898,26.915v56.301c29.734,0,53.837-24.104,53.837-53.837L348.729,0L294.898,26.915z"/>
<polygon style="fill:#FBB071;" points="294.898,26.916 238.597,55.067 294.898,83.218 "/>
</svg>
