<?xml version="1.0" encoding="iso-8859-1"?>
<!-- Generator: Adobe Illustrator 19.0.0, SVG Export Plug-In . SVG Version: 6.00 Build 0)  -->
<svg version="1.1" id="Layer_1" xmlns="http://www.w3.org/2000/svg" xmlns:xlink="http://www.w3.org/1999/xlink" x="0px" y="0px"
	 viewBox="0 0 512 512" style="enable-background:new 0 0 512 512;" xml:space="preserve">
<polygon style="fill:#325763;" points="356.174,448.659 389.565,448.659 389.565,337.354 312.158,293.338 "/>
<g>
	<path style="fill:#05232E;" d="M66.783,364.248v84.41h33.391v-77.913c41.491,0,76.354-28.377,86.239-66.783L65.67,241.53
		C65.67,274.921,66.783,329.461,66.783,364.248z"/>
	<path style="fill:#05232E;" d="M33.394,192.659C14.949,192.66,0,207.609,0,226.051v44.524c18.419,0,33.353-14.913,33.391-33.323
		c0-0.023,0.002-0.047,0.002-0.07l17.25-22.921L33.394,192.659z"/>
</g>
<path style="fill:#C97E67;" d="M148.969,94.813l-49.774,8.546c-36.196,6.255-65.803,41.439-65.803,78.169v11.13
	c0.002,0,0.002,44.524,0.002,44.524c0,0.023-0.002,0.047-0.002,0.07v77.841H0v133.565h33.391v-77.913
	c11.812,0,23.077-2.321,33.391-6.497c25.915-10.494,45.776-32.814,52.846-60.286h69.589l44.522,33.391h44.522l47.861-133.565
	C268.243,167.513,204.243,128.556,148.969,94.813z"/>
<path style="fill:#05232E;" d="M467.478,114.746h-33.391h-17.173c-13.916-35.911-50.307-57.214-92.718-50.009l-45.935,7.88v157.784
	v134.78l44.522,83.478h33.391V337.354h33.391l11.785-66.783h32.737v33.391h33.391l22.261-33.391
	c12.295,0,22.261-9.966,22.261-22.261v-89.043C512,134.78,491.965,114.746,467.478,114.746z"/>
<polygon style="fill:#F6D76F;" points="467.478,170.398 467.478,81.354 434.087,81.354 434.087,170.398 453.009,170.398 "/>
<g>
	<rect x="77.913" y="192.656" style="fill:#05232E;" width="33.391" height="33.391"/>
	<rect x="122.435" y="237.178" style="fill:#05232E;" width="33.391" height="33.391"/>
</g>
<path style="fill:#325763;" d="M278.261,203.789V72.617l-43.533,7.474l-85.759,14.723
	C159.515,156.685,213.383,203.789,278.261,203.789z"/>
</svg>
