<?xml version="1.0" encoding="iso-8859-1"?>
<!-- Generator: Adobe Illustrator 19.0.0, SVG Export Plug-In . SVG Version: 6.00 Build 0)  -->
<svg version="1.1" id="Layer_1" xmlns="http://www.w3.org/2000/svg" xmlns:xlink="http://www.w3.org/1999/xlink" x="0px" y="0px"
	 viewBox="0 0 512 512" style="enable-background:new 0 0 512 512;" xml:space="preserve">
<g>
	<polygon style="fill:#6B8F9C;" points="300.849,76.316 281.6,104.255 252.62,83.736 231.889,109.448 286.795,133.195 
		328.348,94.609 	"/>
	<polygon style="fill:#6B8F9C;" points="204.386,91.157 183.652,116.87 212.591,135.421 231.889,109.448 	"/>
</g>
<g>
	<path style="fill:#05232E;" d="M478.609,189.217v-77.913c-24.588,0-44.522,19.933-44.522,44.522v11.297l10.017,43.983
		L478.609,189.217z"/>
	<path style="fill:#05232E;" d="M356.174,298.666v140.986h38.957V298.367C385.484,298.367,373.612,298.666,356.174,298.666z"/>
</g>
<path style="fill:#325763;" d="M466.303,189.217L328.348,94.609l-96.459,14.839l-48.237,7.422l-96.464,83.849
	c16.325,40.812,38.586,94.238,57.596,137.25l139.043,12.64v89.043h38.957v-94.355c11.808-3.292,23.008-8.044,33.391-14.051
	c14.858-8.596,28.044-19.758,38.957-32.879c3.837-4.615,7.396-9.468,10.643-14.541h38.269c0.394,0,0.782-0.022,1.175-0.029
	l33.391-9.128C498.72,263.072,512,241.614,512,217.043v-27.826H466.303z"/>
<path style="fill:#05232E;" d="M38.957,139.13V72.348c-18.442,0-33.391,14.95-33.391,33.391v33.391
	c0,18.441,14.949,33.391,33.391,33.391v172.522H0v94.609h38.957V384c41.779,0,79.415-17.714,105.827-46.031
	c24.109-25.848,38.869-60.531,38.869-98.665V116.87L38.957,139.13z"/>
<rect x="83.478" y="261.565" style="fill:#325763;" width="33.391" height="33.391"/>
<g>
	<rect x="205.913" y="283.826" style="fill:#05232E;" width="33.391" height="33.391"/>
	<rect x="250.435" y="239.304" style="fill:#05232E;" width="33.391" height="33.391"/>
</g>
<path style="fill:#6B8F9C;" d="M378.435,189.217h44.522v-77.913c-16.325,0-30.59,8.792-38.34,21.894
	c-3.922,6.632-6.182,14.365-6.182,22.628V189.217z"/>
<path style="fill:#F6D76F;" d="M445.217,217.043v66.783h33.391v-33.391C478.609,231.994,463.659,217.043,445.217,217.043z"/>
<g>
</g>
<g>
</g>
<g>
</g>
<g>
</g>
<g>
</g>
<g>
</g>
<g>
</g>
<g>
</g>
<g>
</g>
<g>
</g>
<g>
</g>
<g>
</g>
<g>
</g>
<g>
</g>
<g>
</g>
</svg>
