<?xml version="1.0" encoding="iso-8859-1"?>
<!-- Generator: Adobe Illustrator 19.0.0, SVG Export Plug-In . SVG Version: 6.00 Build 0)  -->
<svg version="1.1" id="Layer_1" xmlns="http://www.w3.org/2000/svg" xmlns:xlink="http://www.w3.org/1999/xlink" x="0px" y="0px"
	 viewBox="0 0 512 512" style="enable-background:new 0 0 512 512;" xml:space="preserve">
<path style="fill:#FBB071;" d="M157.109,251.562c-45.33,0.035-82.066,36.792-82.066,82.128c0,45.36,36.772,82.13,82.13,82.13
	c12.735,0,24.793-2.899,35.551-8.074v27.368c0,12.863,10.427,23.29,23.289,23.29s23.29-10.427,23.29-23.29v-58.645l19.055-131.378
	L157.109,251.562z"/>
<path style="fill:#FB5858;" d="M313.508,286.052l41.553-34.49h48.818c36.73,0,66.783-30.052,66.783-66.783v-48.506
	c-0.022-0.001-0.04,0-0.059,0C353.577,136.273,313.508,187.362,313.508,286.052z"/>
<path style="fill:#AA3E51;" d="M470.662,53.595c-109.334,0.001-197.965,88.632-197.966,197.965l38.586,32.266l43.544-32.265
	c0.021,0,0.042,0.001,0.065,0.001h0.482c0-63.547,51.691-115.257,115.229-115.289c0.019,0,0.038-0.001,0.057-0.001
	C493.463,136.24,512,117.748,512,94.935C512,72.104,493.492,53.595,470.662,53.595z"/>
<path style="fill:#F72349;" d="M354.891,251.562c-0.022,0-0.043-0.001-0.065-0.001h-99.939l17.809,124.276v59.277
	c0,12.863,10.427,23.29,23.29,23.29c12.863,0,23.289-10.427,23.289-23.29v-27.368c10.758,5.173,22.815,8.074,35.551,8.074
	c45.359,0,82.13-36.771,82.13-82.13C436.956,288.353,400.219,251.597,354.891,251.562z"/>
<polygon style="fill:#AA3E51;" points="272.696,287.334 256.371,253.403 239.304,287.334 239.304,376.378 272.696,376.378 "/>
<polygon style="fill:#FBB071;" points="272.696,187.16 239.304,187.16 239.304,220.552 258.597,252.661 272.696,220.552 "/>
<rect x="239.304" y="220.55" style="fill:#FF835D;" width="33.391" height="66.783"/>
<path style="fill:#AA3E51;" d="M157.174,284.951l-23.981,48.591l23.981,48.887c26.874,0,48.739-21.865,48.739-48.739
	S184.048,284.951,157.174,284.951z"/>
<path style="fill:#F72349;" d="M108.435,333.69c0,26.876,21.865,48.739,48.739,48.739v-97.478
	C130.3,284.951,108.435,306.815,108.435,333.69z"/>
<path style="fill:#AA3E51;" d="M354.826,382.429c26.874,0,48.739-21.865,48.739-48.739s-21.864-48.739-48.739-48.739l-24.252,49.332
	L354.826,382.429z"/>
<g>
	<path style="fill:#FF835D;" d="M306.087,333.69c0,26.876,21.865,48.739,48.739,48.739v-97.478
		C327.952,284.951,306.087,306.815,306.087,333.69z"/>
	<path style="fill:#FF835D;" d="M41.399,136.273c-0.019,0-0.038-0.001-0.058-0.001c-0.002,0.001-0.002,48.508-0.002,48.508
		c0,36.73,30.052,66.783,66.783,66.783h87.404C195.525,159.908,143.583,136.273,41.399,136.273z"/>
</g>
<path style="fill:#F72349;" d="M41.338,53.595C18.508,53.595,0,72.104,0,94.935c0,22.812,18.536,41.305,41.341,41.337
	c0.019,0,0.039,0.001,0.058,0.001c63.538,0.032,115.229,51.742,115.229,115.289l82.677-0.001
	C239.303,142.227,150.674,53.596,41.338,53.595z"/>
<circle style="fill:#FB5858;" cx="470.662" cy="94.931" r="16.696"/>
<circle style="fill:#FF835D;" cx="41.338" cy="94.931" r="16.696"/>
<g>
</g>
<g>
</g>
<g>
</g>
<g>
</g>
<g>
</g>
<g>
</g>
<g>
</g>
<g>
</g>
<g>
</g>
<g>
</g>
<g>
</g>
<g>
</g>
<g>
</g>
<g>
</g>
<g>
</g>
</svg>
