<?xml version="1.0" encoding="iso-8859-1"?>
<!-- Generator: Adobe Illustrator 19.0.0, SVG Export Plug-In . SVG Version: 6.00 Build 0)  -->
<svg version="1.1" id="Layer_1" xmlns="http://www.w3.org/2000/svg" xmlns:xlink="http://www.w3.org/1999/xlink" x="0px" y="0px"
	 viewBox="0 0 512 512" style="enable-background:new 0 0 512 512;" xml:space="preserve">
<path style="fill:#C97E67;" d="M66.783,353.094v134.143h33.391V359.281c40.662,0,75.218-26.057,87.938-62.376L65.67,250.434
	C65.67,276.311,66.783,335.026,66.783,353.094z"/>
<g>
	<path style="fill:#8F5543;" d="M343.93,264.904l-15.559,32.001v190.33h33.391v-190.33
		C361.762,296.906,356.174,284.939,343.93,264.904z"/>
	<path style="fill:#8F5543;" d="M259.539,105.495c-12.166-21.66-35.35-36.296-61.963-36.296l-28.394,82.175
		C191.087,151.373,241.53,123.547,259.539,105.495z"/>
</g>
<path style="fill:#C97E67;" d="M197.576,69.198c-26.613,0-49.798,14.637-61.963,36.296c11.309,26.957,40.058,58.122,61.963,58.122
	V69.198z"/>
<path style="fill:#F6D76F;" d="M197.576,117.471c-21.905,0-42.819-4.252-61.963-11.976c-5.766,10.262-9.049,22.105-9.049,34.716
	l-40.86,72.38c0,10.797,22.261,55.652,35.625,84.314h76.247l59.537-94.332L197.576,117.471z"/>
<g>
	<path style="fill:#FBB071;" d="M478.609,40.905V24.764h-33.391c-14.537,0-26.899,9.294-31.484,22.261h-24.169
		c0,12.243,10.019,22.261,22.261,22.261v112.906c0,14.156-11.517,25.671-25.672,25.671h-32.792
		c-14.464-35.101-46.277-61.224-84.774-67.651c0-12.611-3.283-24.454-9.049-34.716c-19.144,7.725-40.058,11.976-61.963,11.976
		v45.869l16.129,16.972l-16.128,16.419v100.174h64.012v190.33h33.391v-190.33h56.673h34.501c50.98,0,92.455-41.474,92.455-92.454
		V94.455c7.357-2.484,13.333-7.958,16.485-14.979L512,74.297V40.906h-33.391V40.905z"/>
	<path style="fill:#FBB071;" d="M121.33,296.905c3.377-9.643,5.235-20,5.235-30.797V140.211c-4.956,0.827-9.803,1.981-14.515,3.438
		c-45.557,14.089-78.658,56.537-78.658,106.72c0,13.468,0,46.536,0,46.536v28.985H0v161.346h33.391V359.281
		c11.772,0,23.022-2.205,33.391-6.189C92.231,343.318,112.293,322.71,121.33,296.905z"/>
</g>
<g>
	<rect x="230.968" y="230.121" style="fill:#8F5543;" width="33.391" height="33.391"/>
	<rect x="197.576" y="163.339" style="fill:#8F5543;" width="33.391" height="33.391"/>
</g>
</svg>
