<?xml version="1.0" encoding="iso-8859-1"?>
<!-- Generator: Adobe Illustrator 19.0.0, SVG Export Plug-In . SVG Version: 6.00 Build 0)  -->
<svg version="1.1" id="Layer_1" xmlns="http://www.w3.org/2000/svg" xmlns:xlink="http://www.w3.org/1999/xlink" x="0px" y="0px"
	 viewBox="0 0 512 512" style="enable-background:new 0 0 512 512;" xml:space="preserve">
<path style="fill:#325763;" d="M417.391,313.629V512h38.957V312.233C443.629,312.233,422.492,313.629,417.391,313.629z"/>
<path style="fill:#05232E;" d="M166.957,333.444V512h38.957V397.913c39.105,0,74.581-15.519,100.621-40.726l0.098-24.403
	C306.632,332.783,168.852,333.444,166.957,333.444z"/>
<path style="fill:#FAEAB6;" d="M374.274,359.773l9.726-0.56c11.814-3.296,23.003-8.074,33.391-14.086
	c14.861-8.6,28.045-19.765,38.957-32.895c19.726-23.738,32.027-53.869,33.274-86.842h0.117V115.385l-115.465,11.13V359.773z"/>
<path style="fill:#6B8F9C;" d="M225.719,341.793c18.977-24.478,51.789-54.916,82.503-85.63L256,200.095l-144.696,19.731
	c-43.03,0-77.913-34.883-77.913-77.913S68.274,64,111.304,64V30.609C49.832,30.609,0,80.441,0,141.913
	s49.832,111.304,111.304,111.304v108.522H72.348V512h38.957V397.913c19.722,0,38.519-3.952,55.652-11.097
	C190.256,377.099,210.466,361.466,225.719,341.793z"/>
<path style="fill:#325763;" d="M489.739,52.472l-22.261-19.081h-30.052V0c-13.429,0-24.89,8.386-29.472,20.195L343.42,186.666
	L256,200.095v53.122c0,33.371-11.303,64.098-30.281,88.576l80.816,15.393l38.509,7.335V512H384V324.188
	c41-15.189,70.502-53.749,72.254-100.06l0.094,0.003v-97.616l33.391-11.13l1.142-0.381C502.497,111.133,512,97.948,512,85.704
	V55.652L489.739,52.472z"/>
<g>
</g>
<g>
</g>
<g>
</g>
<g>
</g>
<g>
</g>
<g>
</g>
<g>
</g>
<g>
</g>
<g>
</g>
<g>
</g>
<g>
</g>
<g>
</g>
<g>
</g>
<g>
</g>
<g>
</g>
</svg>
