<?xml version="1.0" encoding="iso-8859-1"?>
<!-- Generator: Adobe Illustrator 19.0.0, SVG Export Plug-In . SVG Version: 6.00 Build 0)  -->
<svg version="1.1" id="Layer_1" xmlns="http://www.w3.org/2000/svg" xmlns:xlink="http://www.w3.org/1999/xlink" x="0px" y="0px"
	 viewBox="0 0 512 512" style="enable-background:new 0 0 512 512;" xml:space="preserve">
<path style="fill:#FBB071;" d="M100.174,291.585V500.87h33.391V386.783c48.001,0,89.924-26.008,112.459-63.952
	c0,0,0.136-30.741,0.136-31.245C213.359,291.585,128.078,291.585,100.174,291.585z"/>
<path style="fill:#FF835D;" d="M432.029,314.798v95.154v24.135v66.783h33.391v-66.783v-24.135V313.31
	C454.568,313.31,444.98,314.798,432.029,314.798z"/>
<path style="fill:#FAE8AC;" d="M406.629,74.597l-0.504,168.613c0,23.274-3.533,49.888-7.487,70.19V347
	c11.945-1.08,23.174-4.036,33.391-8.647c12.952-5.846,24.28-14.349,33.391-25.043c15.273-17.927,24.319-42.014,24.319-70.098V74.203
	L406.629,74.597z"/>
<path style="fill:#FDF3D3;" d="M365.246,345.263l12.114-16.84l-0.504-55.003c-0.001,0-191.251-0.504-191.251-0.504
	c-1.01,12.615-0.331,26.24-0.331,38.487C185.275,311.401,365.245,345.264,365.246,345.263z"/>
<path style="fill:#F6D76F;" d="M196.841,188.969l-130.035,5.754c-20.192-14.079-33.415-37.459-33.415-63.941
	c0-43.03,34.883-77.913,77.913-77.913l14.934-16.315l-14.934-17.076C49.832,19.478,0,69.31,0,130.783
	c0,45.64,27.474,84.857,66.783,102.034v82.885l16.889,16.758l-16.889,16.633v1.516H33.391V500.87h33.391V386.783
	c11.544,0,22.735-1.512,33.391-4.324c37.976-10.023,69.139-36.656,85.101-71.058c4.69-10.109,8.062-20.888,9.914-32.111
	c9.088-10.411,25.235-29.587,32.805-39.679L196.841,188.969z"/>
<path style="fill:#FBB071;" d="M489.739,30.211v-3.975l-0.002,3.97L478.609,11.13h-66.783c-10.345,0-18.731,8.387-18.731,18.731
	c0,7.013,3.86,13.116,9.565,16.327l-35.356,135.237l-170.464,7.543v70.258c0,6.81-0.57,13.511-1.652,20.063l170.056,31.998v-0.313
	c0.001,0,0.001,78.592,0.001,78.592h-0.024l10.736,17.438l-10.736,15.952h0.024v77.913h33.391v-77.793l-9.974-15.881l9.974-17.786
	V313.4c12.836-1.668,24.41-6.486,33.847-14.315c15.393-12.755,23.864-32.601,23.864-55.875v-91.095v-33.391V85.333l33.391-11.13
	l1.142-0.381C502.497,69.95,512,56.765,512,44.522v-11.13L489.739,30.211z"/>
<path style="fill:#325763;" d="M140.782,52.87c9.22,0,16.696-7.475,16.696-16.696s-7.475-16.696-16.696-16.696h-29.478V52.87
	H140.782z"/>
<g>
	<rect x="241.363" y="211.233" style="fill:#05232E;" width="33.391" height="33.391"/>
	<rect x="308.87" y="244.625" style="fill:#05232E;" width="33.391" height="33.391"/>
	<rect x="364.522" y="211.233" style="fill:#05232E;" width="33.391" height="33.391"/>
	<rect x="365.223" y="389.565" style="fill:#05232E;" width="33.391" height="33.391"/>
	<rect x="432.028" y="434.087" style="fill:#05232E;" width="33.391" height="33.391"/>
	<rect x="422.957" y="118.728" style="fill:#05232E;" width="33.391" height="33.391"/>
</g>
<g>
	<rect x="115.111" y="248.921" style="fill:#325763;" width="33.391" height="33.391"/>
	<rect x="66.783" y="315.704" style="fill:#325763;" width="33.391" height="33.391"/>
</g>
</svg>
