<?xml version="1.0" encoding="iso-8859-1"?>
<!-- Generator: Adobe Illustrator 19.0.0, SVG Export Plug-In . SVG Version: 6.00 Build 0)  -->
<svg version="1.1" id="Layer_1" xmlns="http://www.w3.org/2000/svg" xmlns:xlink="http://www.w3.org/1999/xlink" x="0px" y="0px"
	 viewBox="0 0 512 512" style="enable-background:new 0 0 512 512;" xml:space="preserve">
<path style="fill:#FDF3D3;" d="M44.892,220.012l166.214,231.513l69.009-0.742l5.195-384.371
	C203.687,65.67,94.609,99.061,44.892,220.012z"/>
<g>
	<path style="fill:#FAE8AC;" d="M256,71.605V446.33h44.151l172.151-214.447C443.362,151.745,354.318,76.058,256,71.605z"/>
	<path style="fill:#FAE8AC;" d="M107.487,182.428c-38.107-3.97-61.109,18.291-75.208,53.166
		c-6.712,16.603-6.678,60.104,41.672,115.615l88.153,61.596l24.517,32.041l22.431-32.041L107.487,182.428z"/>
</g>
<g>
	<path style="fill:#F6D76F;" d="M404.513,182.428L302.948,412.806l22.431,31.299l24.517-31.299l88.153-61.596
		c32.768-33.25,40.93-68.768,40.93-86.676C478.979,220.346,435.2,182.168,404.513,182.428z"/>
	<path style="fill:#F6D76F;" d="M107.487,182.428l19.03-61.106l-48.503-5.743C29.896,162.104,0,227.328,0,299.542l73.951,51.667
		c-4.664-16.428-7.168-33.759-7.168-51.667C66.783,255.354,81.998,214.662,107.487,182.428z"/>
</g>
<path style="fill:#FAE8AC;" d="M256,110.325l43.409-29.815L256,43.542c-69.176,0-131.94,27.425-177.987,72.036l29.473,66.849
	C142.169,138.541,195.851,110.325,256,110.325z"/>
<path style="fill:#F6D76F;" d="M404.513,182.428c0,0,0.021-0.049,0.052-0.119l0.22-0.5c0.098-0.22,0.22-0.5,0.368-0.834l0.226-0.512
	c0.059-0.134,0.12-0.273,0.186-0.42l51.895,4.351l-23.474-68.816C387.94,70.968,325.176,43.542,256,43.542v66.783
	C316.149,110.325,369.831,138.541,404.513,182.428z"/>
<g>
	<path style="fill:#FBB071;" d="M433.996,115.587c-0.009-0.009-28.43,64.456-28.43,64.456l-0.186,0.42l-0.226,0.512l-0.368,0.834
		l-0.22,0.5l-0.052,0.119c25.489,32.234,40.704,72.927,40.704,117.114c0,17.909-2.504,35.239-7.168,51.667L512,299.542
		C512,227.332,482.107,162.113,433.996,115.587z"/>
	<polygon style="fill:#FBB071;" points="256,412.806 220.753,443.362 256,468.458 349.896,468.458 349.896,412.806 	"/>
</g>
<rect x="162.104" y="412.806" style="fill:#F6D76F;" width="93.896" height="55.652"/>
</svg>
