<?xml version="1.0" encoding="iso-8859-1"?>
<!-- Generator: Adobe Illustrator 19.0.0, SVG Export Plug-In . SVG Version: 6.00 Build 0)  -->
<svg version="1.1" id="Layer_1" xmlns="http://www.w3.org/2000/svg" xmlns:xlink="http://www.w3.org/1999/xlink" x="0px" y="0px"
	 viewBox="0 0 512 512" style="enable-background:new 0 0 512 512;" xml:space="preserve">
<path style="fill:#FB5858;" d="M255.928,52.313c-18.441,0-33.391,14.95-33.391,33.391v6.775l16.768,16.969l-16.768,16.422
	c0,20.976-14.425,38.644-33.875,43.61V33.391C188.661,14.95,173.71,0,155.27,0s-33.391,14.95-33.391,33.391v59.088l16.51,16.969
	l-16.51,16.422v33.391l17.995,16.969l-17.995,16.422v66.783c0,15.981,3.378,31.187,9.446,44.95
	c-23.814-1.135-42.838-20.861-42.838-44.95l-16.139-15.679l16.139-17.712v-73.558c0-18.441-14.95-33.391-33.391-33.391
	s-33.391,14.95-33.391,33.391v8.904l17.252,17.066l-17.252,16.325v64.653c0,61.64,50.148,111.789,111.789,111.789l16.768-15.421
	l16.623,15.421h55.725l0.001-0.547c0.039,0.004,0.078,0.007,0.117,0.011l35.129-34.178l-35.072-33.407
	c-19.574-4.881-34.123-22.604-34.123-43.667L171.779,244.5l16.882-7.393c56.434-5.604,100.658-53.352,100.658-111.235V85.704
	C289.319,67.263,274.369,52.313,255.928,52.313z"/>
<path style="fill:#F72349;" d="M456.904,185.878c-18.441,0-33.391,14.95-33.391,33.391l18.365,17.809l-18.365,15.583v73.558
	c0,24.09-19.024,43.815-42.838,44.95c6.068-13.763,9.446-28.968,9.446-44.95v-73.558l-15.026-15.583l15.026-17.809v-33.391
	l-15.768-14.84l15.768-18.551c0-18.441-14.95-33.391-33.391-33.391c-18.441,0-33.391,14.95-33.391,33.391v140.34l16.882,16.969
	l-16.882,16.422c0,20.96-14.402,38.617-33.829,43.6l0.067-80.403c0-18.441-14.95-33.391-33.391-33.391s-33.391,14.95-33.391,33.391
	l-0.011,13.688l-0.001,1.338c0.012,0-0.006,6.441-0.006,6.441l-0.05,59.805v0.536h-0.118l20.405,17.228l-20.405,16.164h0.09
	l-0.028,32.828h-0.062l17.438,17.791l-17.438,15.6h0.035L222.609,512h66.783l0.062-73.993h55.663l15.88-16.164l17.51,16.164
	c61.64,0,111.789-50.148,111.789-111.789l-15.768-16.422l15.768-16.969V219.27C490.296,200.829,475.345,185.878,456.904,185.878z"/>
<g>
	<rect x="222.609" y="437.448" style="fill:#FB5858;" width="33.391" height="33.391"/>
	<rect x="345.11" y="404.614" style="fill:#FB5858;" width="33.391" height="33.391"/>
	<rect x="356.73" y="152.487" style="fill:#FB5858;" width="33.391" height="33.391"/>
	<rect x="356.73" y="219.27" style="fill:#FB5858;" width="33.391" height="33.391"/>
	<rect x="423.513" y="219.27" style="fill:#FB5858;" width="33.391" height="33.391"/>
	<rect x="456.904" y="292.831" style="fill:#FB5858;" width="33.391" height="33.391"/>
	<rect x="323.339" y="292.831" style="fill:#FB5858;" width="33.391" height="33.391"/>
	<rect x="222.609" y="371.222" style="fill:#FB5858;" width="33.391" height="33.391"/>
</g>
<g>
	<rect x="133.498" y="337.831" style="fill:#F72349;" width="33.391" height="33.391"/>
	<rect x="55.096" y="226.048" style="fill:#F72349;" width="33.391" height="33.391"/>
	<rect x="222.542" y="92.483" style="fill:#F72349;" width="33.391" height="33.391"/>
	<rect x="121.878" y="92.483" style="fill:#F72349;" width="33.391" height="33.391"/>
	<rect x="121.878" y="159.265" style="fill:#F72349;" width="33.391" height="33.391"/>
	<rect x="155.27" y="226.048" style="fill:#F72349;" width="33.391" height="33.391"/>
	<rect x="21.704" y="161.391" style="fill:#F72349;" width="33.391" height="33.391"/>
</g>
</svg>
