<?xml version="1.0" encoding="iso-8859-1"?>
<!-- Generator: Adobe Illustrator 19.0.0, SVG Export Plug-In . SVG Version: 6.00 Build 0)  -->
<svg version="1.1" id="Layer_1" xmlns="http://www.w3.org/2000/svg" xmlns:xlink="http://www.w3.org/1999/xlink" x="0px" y="0px"
	 viewBox="0 0 512 512" style="enable-background:new 0 0 512 512;" xml:space="preserve">
<polygon style="fill:#F6D76F;" points="345.043,450.783 378.435,450.783 378.435,339.478 361.739,316.104 345.043,339.478 "/>
<path style="fill:#05232E;" d="M66.783,262.576v188.207h33.391V372.87c29.136,0,55.001-13.997,71.246-35.631
	C166.827,334.235,83.075,275.564,66.783,262.576z"/>
<path style="fill:#FB5858;" d="M101.99,288.447c0,15.78,0.887,35.486,0.887,51.031h52.949c5.413,0,10.643-0.791,15.594-2.239
	c12.402-3.627,23.021-11.457,30.205-21.846l0.136-27.288L101.99,288.447z"/>
<polygon style="fill:#F6D76F;" points="456.349,116.87 456.349,61.217 422.958,61.217 422.958,116.87 440.027,134.933 "/>
<path style="fill:#FAE8AC;" d="M33.392,194.783C14.949,194.784,0,209.734,0,228.175v44.524c18.419,0,33.353-14.913,33.391-33.323
	c0-0.023,0.001-0.047,0.001-0.07l14.749-22.861L33.392,194.783z"/>
<path style="fill:#FDF3D3;" d="M183.652,116.87H99.194c-36.286,0.561-65.803,30.384-65.803,66.783v11.13
	c0.001,0,0.001,44.524,0.001,44.524c0,0.023-0.001,0.047-0.001,0.07v77.841H0v133.565h33.391V372.87
	c11.812,0,23.077-2.321,33.391-6.497c14.235-5.764,26.633-15.095,36.095-26.894c7.765-9.682,13.565-21.009,16.751-33.391h69.589
	l12.407,9.305l32.115,24.086h44.522l44.585-172.585C281.033,152.4,242.517,139.859,183.652,116.87z"/>
<rect x="77.913" y="194.783" style="fill:#05232E;" width="33.391" height="33.391"/>
<rect x="122.435" y="239.304" style="fill:#325763;" width="33.391" height="33.391"/>
<path style="fill:#FAE8AC;" d="M467.479,116.87h-44.522v-11.128c0-18.443-14.95-33.394-33.392-33.394v44.522H372.87
	c-35.405,15.824-59.142,25.229-94.609,38.666v295.247h33.391V339.478h66.783c18.365,0,35.621-14.86,38.344-33.022l13.342-88.95
	l59.618-21.611l13.885-29.164l-13.885-27.601L467.479,116.87z"/>
<g>
	<rect x="311.652" y="239.304" style="fill:#05232E;" width="33.391" height="33.391"/>
	<path style="fill:#05232E;" d="M372.87,116.87h-94.609l-33.505,40.457l33.505,54.152C330.508,211.478,372.87,169.117,372.87,116.87
		z"/>
</g>
<path style="fill:#325763;" d="M278.261,211.478V116.87h-94.609C183.652,169.117,226.013,211.478,278.261,211.478z"/>
<rect x="489.739" y="139.13" style="fill:#FB5858;" width="22.261" height="56.765"/>
<g>
</g>
<g>
</g>
<g>
</g>
<g>
</g>
<g>
</g>
<g>
</g>
<g>
</g>
<g>
</g>
<g>
</g>
<g>
</g>
<g>
</g>
<g>
</g>
<g>
</g>
<g>
</g>
<g>
</g>
</svg>
