<?xml version="1.0" encoding="iso-8859-1"?>
<!-- Generator: Adobe Illustrator 19.0.0, SVG Export Plug-In . SVG Version: 6.00 Build 0)  -->
<svg version="1.1" id="Layer_1" xmlns="http://www.w3.org/2000/svg" xmlns:xlink="http://www.w3.org/1999/xlink" x="0px" y="0px"
	 viewBox="0 0 512 512" style="enable-background:new 0 0 512 512;" xml:space="preserve">
<polygon style="fill:#F72349;" points="222.609,122.168 205.171,106.482 189.217,122.168 189.217,191.609 222.609,191.609 "/>
<polygon style="fill:#AA3E51;" points="322.783,122.168 307.571,106.482 289.391,122.168 289.391,193.093 322.783,193.093 "/>
<rect x="189.217" y="88.776" style="fill:#325763;" width="33.391" height="33.391"/>
<rect x="289.391" y="88.776" style="fill:#05232E;" width="33.391" height="33.391"/>
<g>
	<path style="fill:#F72349;" d="M91.477,211.211H66.783v-77.913c-55.282,0-66.779,33.391-66.779,33.391v-1.041
		C0,165.652,0,191.019,0,222.025c0,31.005,21.681,56.372,48.179,56.372h37.467c20.835,0,42.354-8.671,42.354-31.673
		C128,225.205,106.482,211.211,91.477,211.211z"/>
	<path style="fill:#F72349;" d="M12.347,332.619l11.421,31.378l102.748-37.875c-4.907-9.907-8.198-19.544-11.13-30.423
		L12.347,332.619z"/>
	<path style="fill:#F72349;" d="M134.678,342.447l-83.381,69.232l21.463,25.578l84.179-69.582
		C148.903,359.96,141.093,351.593,134.678,342.447z"/>
	<path style="fill:#F72349;" d="M117.845,474.854c35.473,20.56,58.232,29.288,82.07,34.303l6.874-32.676
		c-14.898-3.134-29.302-7.966-43.001-14.414l40.642-70.647c-10.348-4.356-18.261-10.113-27.455-16.325L117.845,474.854z"/>
</g>
<g>
	<path style="fill:#AA3E51;" d="M488.232,363.996l11.421-31.378L389.936,292.73c-2.934,10.878-6.223,21.258-11.13,31.165
		L488.232,363.996z"/>
	<path style="fill:#AA3E51;" d="M352.092,363.223l87.148,74.033l21.463-25.578l-87.091-72.942
		C367.196,347.882,360.129,355.509,352.092,363.223z"/>
	<path style="fill:#AA3E51;" d="M348.212,462.068c-13.699,6.448-28.103,11.28-43.001,14.414l6.874,32.676
		c23.838-5.015,46.599-13.744,82.07-34.303l-59.129-102.727c-9.195,6.211-17.85,11.97-28.197,16.325L348.212,462.068z"/>
</g>
<path style="fill:#F72349;" d="M420.536,211.211c-5.734-19.593-14.871-37.73-26.73-53.734H256l-84.962,138.222L256,430.837
	c23.568,0,46.023-4.758,66.462-13.363c10.347-4.355,20.178-9.695,29.373-15.905c8.145-5.502,15.789-11.691,22.856-18.475
	c8.036-7.715,15.319-16.205,21.733-25.351c4.96-7.071,9.396-14.535,13.26-22.333c4.907-9.907,8.884-20.355,11.817-31.234
	c2.254-8.358,3.892-16.966,4.862-25.777C427.038,251.918,420.536,211.211,420.536,211.211z"/>
<path style="fill:#FB5858;" d="M118.206,157.476c-11.857,16.004-20.995,34.143-26.73,53.734c-4.477,15.295-6.88,31.478-6.88,48.224
	c0,6.41,0.364,12.734,1.05,18.963c0.969,8.81,2.607,17.418,4.861,25.773c2.933,10.879,6.909,21.327,11.816,31.235
	c3.862,7.799,8.298,15.262,13.257,22.333c6.414,9.146,13.696,17.638,21.732,25.353c7.067,6.784,14.709,12.973,22.854,18.475
	c9.195,6.212,19.025,11.551,29.373,15.908c20.438,8.604,42.893,13.363,66.462,13.363V157.476H118.206z"/>
<g>
	<rect x="144.696" y="190.865" style="fill:#F72349;" width="33.391" height="33.391"/>
	<rect x="189.217" y="235.386" style="fill:#F72349;" width="33.391" height="33.391"/>
</g>
<path style="fill:#FB5858;" d="M33.391,166.689c18.442,0.003,33.391-14.946,33.391-33.391V99.907L33.391,2.843
	C14.954,2.843,0.003,17.793,0,36.234l0.003,129.415v1.041C0.003,166.689,14.954,166.689,33.391,166.689z"/>
<path style="fill:#F72349;" d="M66.783,99.907V36.234C66.779,17.793,51.829,2.843,33.391,2.843v97.064H66.783z"/>
<path style="fill:#AA3E51;" d="M511.997,166.689c0,0-20.402-33.391-66.779-33.391v77.913h-29.576v67.187c0,0,4.028,0,10.724,0
	h37.455c26.498,0,48.179-25.367,48.179-56.372c0-31.006,0-56.373,0-56.373C511.997,165.649,511.997,166.689,511.997,166.689z"/>
<path style="fill:#F72349;" d="M478.609,166.689c18.438,0,33.388,0,33.388,0v-1.041L512,36.234
	c-0.003-18.441-14.954-33.391-33.391-33.391l-33.391,97.064v33.391C445.217,151.743,460.167,166.693,478.609,166.689z"/>
<path style="fill:#AA3E51;" d="M478.609,2.843c-18.438,0-33.388,14.95-33.391,33.391v63.673h33.391V2.843z"/>
</svg>
