<?xml version="1.0" encoding="iso-8859-1"?>
<!-- Generator: Adobe Illustrator 19.0.0, SVG Export Plug-In . SVG Version: 6.00 Build 0)  -->
<svg version="1.1" id="Layer_1" xmlns="http://www.w3.org/2000/svg" xmlns:xlink="http://www.w3.org/1999/xlink" x="0px" y="0px"
	 viewBox="0 0 512 512" style="enable-background:new 0 0 512 512;" xml:space="preserve">
<polygon style="fill:#50BF94;" points="189.217,144.696 166.957,166.957 189.588,217.786 211.478,166.957 "/>
<g>
	<polygon style="fill:#84D993;" points="278.261,144.696 256,166.957 279.374,217.786 300.522,166.957 	"/>
	<polygon style="fill:#84D993;" points="233.739,144.696 211.478,166.957 234.852,218.527 256,166.957 	"/>
</g>
<g>
	<polygon style="fill:#50BF94;" points="144.696,144.696 122.435,166.957 146.551,218.527 166.957,166.957 	"/>
	<polygon style="fill:#50BF94;" points="100.174,144.696 77.913,166.957 100.545,217.043 122.435,166.957 	"/>
	<path style="fill:#50BF94;" d="M432.022,179.221c-13.986-20.823-37.75-34.525-64.718-34.525c-21.223,0-40.455,8.497-54.506,22.261
		h-101.32l-56.765,55.652c0,0,47.49,20.405,79.026,33.045c0.108,0.043,0.008,0.23,0.009,0.346
		c0.188,18.205,15.134,33.046,33.382,33.046h77.913c0-16.752-12.507-30.722-28.644-33.046c-1.553-0.224-3.137-0.346-4.747-0.346
		h-11.13C386.226,242.273,512,222.609,512,222.609v-33.391L432.022,179.221z"/>
</g>
<g>
	<path style="fill:#B9F291;" d="M366.934,222.609h-95.025c16.177,2.318,28.613,16.227,28.613,33.045h11.13
		c1.612,0,3.196,0.121,4.747,0.346h50.905C367.304,249.692,366.934,241.05,366.934,222.609z"/>
	<path style="fill:#B9F291;" d="M262.353,222.609H152.487L211.478,256h22.27c-0.001-0.116-0.009-0.229-0.009-0.346
		C233.739,238.836,246.175,224.927,262.353,222.609z"/>
</g>
<path style="fill:#FAE8AC;" d="M77.913,212.591c-18.441,0-33.391,24.968-33.391,43.409h166.957v-44.151L77.913,212.591z"/>
<path style="fill:#84D993;" d="M400.696,222.609c0-18.441-14.949-33.391-33.391-33.391s-33.391,14.95-33.391,33.391
	S348.862,256,367.304,256H512v-33.391H400.696z"/>
<path style="fill:#FFFFFF;" d="M489.739,222.609h-33.391V256C474.791,255.999,489.739,241.048,489.739,222.609z"/>
<path style="fill:#84D993;" d="M144.696,255.654c0-16.818-12.436-30.728-28.613-33.045h95.396v-55.652H89.043
	C39.866,166.957,0,206.824,0,256v66.783c0,24.588,19.932,44.522,44.522,44.522h166.957c0-24.589-19.934-44.522-44.522-44.522H44.522
	V256c0-18.441,14.949-33.391,33.391-33.391h28.614c-16.178,2.318-28.614,16.227-28.614,33.045c0,0.116,0.008,0.23,0.009,0.346
	c0.188,18.205,15.134,33.046,33.382,33.046h77.913c0-16.752-12.507-30.722-28.644-33.046c-1.553-0.224-3.137-0.346-4.747-0.346
	H144.696z"/>
<g>
</g>
<g>
</g>
<g>
</g>
<g>
</g>
<g>
</g>
<g>
</g>
<g>
</g>
<g>
</g>
<g>
</g>
<g>
</g>
<g>
</g>
<g>
</g>
<g>
</g>
<g>
</g>
<g>
</g>
</svg>
