<?xml version="1.0" encoding="iso-8859-1"?>
<!-- Generator: Adobe Illustrator 19.0.0, SVG Export Plug-In . SVG Version: 6.00 Build 0)  -->
<svg version="1.1" id="Layer_1" xmlns="http://www.w3.org/2000/svg" xmlns:xlink="http://www.w3.org/1999/xlink" x="0px" y="0px"
	 viewBox="0 0 512 512" style="enable-background:new 0 0 512 512;" xml:space="preserve">
<path style="fill:#F6D76F;" d="M428.522,66.783h11.13c18.441,0,33.391-14.95,33.391-33.391V0h-33.391v33.391h-33.391l-17.066,33.021
	C399.583,66.412,428.522,66.783,428.522,66.783z"/>
<path style="fill:#C97E67;" d="M61.217,244.87c-18.442,0-33.391,14.949-33.391,33.391v44.522c18.44,0,33.391-14.952,33.391-33.391
	c7.421-4.823,14.84-9.275,20.777-12.986c0-8.904-2.226-19.292-3.653-31.536H61.217z"/>
<path style="fill:#FBB071;" d="M374.353,119.096l56.395-0.742l-24.487-65.298V0H372.87v33.391h-33.391V0h-33.391v33.391h-33.391V0
	h-33.391v33.391c0,18.441,14.95,33.391,33.391,33.391h79.821C360.255,84.221,374.353,119.096,374.353,119.096z"/>
<path style="fill:#8F5543;" d="M317.217,478.609l17.066,21.148l16.325-21.148V344.557c-11.873,0-18.551-0.627-33.391-0.627V478.609z
	"/>
<rect x="317.217" y="478.609" style="fill:#05232E;" width="33.391" height="33.391"/>
<path style="fill:#8F5543;" d="M165.815,277.148c-22.974,17.809-43.009,34.134-71.206,51.2v150.261l16.325,19.664L128,478.609
	V378.435c33.293,0,63.742-12.181,87.13-32.331C215.133,346.098,165.815,277.148,165.815,277.148z"/>
<rect x="94.609" y="478.609" style="fill:#05232E;" width="33.391" height="33.391"/>
<path style="fill:#FBB071;" d="M165.815,327.927c26-17.388,48.26-31.487,71.264-48.553l-42.296-56.765H128
	c-19.665,0-37.409,8.619-49.658,22.261c-10.631,11.838-17.124,27.455-17.124,44.522v58.435H27.826v130.783l16.325,20.405
	l17.066-20.405V378.435c11.53,0,22.718-1.461,33.391-4.208C123.156,366.879,148.005,350.327,165.815,327.927z"/>
<rect x="27.826" y="478.609" style="fill:#8F5543;" width="33.391" height="33.391"/>
<g>
	<path style="fill:#F6D76F;" d="M270.028,304.903c-15.008-1.81-54.894-4.753-54.894,41.194c0,0.008,35.301,13.009,35.301,13.009
		L270.028,304.903z"/>
	<path style="fill:#F6D76F;" d="M269.818,319.352l14.008,47.53c11.566-0.879,22.745-3.129,33.391-6.568
		c11.874-3.837,23.081-9.157,33.391-15.757c40.162-25.714,66.783-70.722,66.783-121.948v-77.913l-37.843-7.049
		C379.548,137.647,360.997,288.278,269.818,319.352z"/>
</g>
<path style="fill:#C97E67;" d="M484.174,89.043h-55.652V44.522c-8.554,0-16.353,3.22-22.261,8.509v36.013H384V44.522
	c-14.537,0-26.899,9.294-31.484,22.261c-1.231,3.482-1.908,7.227-1.908,11.13v144.696H194.783v22.261
	c0,31.394-10.838,60.256-28.968,83.058l49.319,18.17c5.457-14.8,20.293-23.412,35.301-21.601v154.112l17.809,18.922l15.583-18.922
	V333.36C339.996,327.76,384,280.228,384,222.609v-72.348l100.174-16.696V89.043z"/>
<rect x="250.435" y="478.609" style="fill:#8F5543;" width="33.391" height="33.391"/>
</svg>
