<?xml version="1.0" encoding="iso-8859-1"?>
<!-- Generator: Adobe Illustrator 19.0.0, SVG Export Plug-In . SVG Version: 6.00 Build 0)  -->
<svg version="1.1" id="Layer_1" xmlns="http://www.w3.org/2000/svg" xmlns:xlink="http://www.w3.org/1999/xlink" x="0px" y="0px"
	 viewBox="0 0 512 512" style="enable-background:new 0 0 512 512;" xml:space="preserve">
<path style="fill:#05232E;" d="M105.739,411.826h72.348c0-18.442-14.95-33.391-33.391-33.391v-41.183
	c-14.47,0-27.826,1.048-38.957,1.048V411.826z"/>
<g>
	<path style="fill:#8F5543;" d="M345.043,100.174c-18.442,0-33.391,14.949-33.391,33.391l24.487,45.635l-24.487,43.409h-139.13
		c-34.504,16.696-47.861,23.374-79.026,38.957c4.452,31.165,8.904,51.2,12.243,76.735c11.94,6.908,25.049,12.014,38.957,14.962
		c8.977,1.902,18.283,2.912,27.826,2.912h66.783c0-4.878,90.922-3.723,130.226-32.278c54.459-39.565,62.33-115.672,62.33-160.278
		c7.506-13.183,28.939-8.255,38.957-18.922c18.604-19.81,10.017-39.573,10.017-44.522H345.043z"/>
	<path style="fill:#8F5543;" d="M311.652,340.591v71.235H384c0-18.442-14.95-33.391-33.391-33.391v-38.957
		C337.252,339.478,325.205,340.591,311.652,340.591z"/>
</g>
<g>
	<path style="fill:#05232E;" d="M172.522,222.609H77.913v-77.913c-21.515,0-38.957,17.441-38.957,38.957s0,38.957,0,38.957v94.609H0
		v94.609h72.348c0-18.442-14.949-33.391-33.391-33.391v-22.261c24.329,0,47.136-6.508,66.783-17.873
		C145.661,315.206,172.522,272.046,172.522,222.609z"/>
	<path style="fill:#05232E;" d="M367.304,233.739v-44.522c0-30.736-24.917-55.652-55.652-55.652v155.826
		C342.388,289.391,367.304,264.475,367.304,233.739z"/>
</g>
<path style="fill:#FBB071;" d="M478.609,100.174c0,18.412-14.979,33.391-33.391,33.391h-33.391v89.043
	c0,55.236-44.938,100.174-100.174,100.174h-38.957c-18.442,0-33.391,14.949-33.391,33.391v55.652h72.348
	c0-18.442-14.95-33.391-33.391-33.391v-22.261h33.391c13.552,0,26.631-2.026,38.957-5.778
	c54.762-16.673,94.609-67.573,94.609-127.786v-55.652c36.883,0,66.783-29.9,66.783-66.783h-33.391V100.174z"/>
</svg>
