<?xml version="1.0" encoding="iso-8859-1"?>
<!-- Generator: Adobe Illustrator 19.0.0, SVG Export Plug-In . SVG Version: 6.00 Build 0)  -->
<svg version="1.1" id="Layer_1" xmlns="http://www.w3.org/2000/svg" xmlns:xlink="http://www.w3.org/1999/xlink" x="0px" y="0px"
	 viewBox="0 0 512 512" style="enable-background:new 0 0 512 512;" xml:space="preserve">
<g>
	<path style="fill:#16A5D9;" d="M289.75,240.64c10.274-3.627,19.85-9.161,28.152-16.371l-38.646-38.646
		c-11.754,12.127-28.079,27.709-36.983,37.356L289.75,240.64z"/>
	<path style="fill:#16A5D9;" d="M290.504,422.586c14.099,11.873,34.724,28.711,36.94,34.023C340.998,489.103,373.09,512,410.431,512
		h23.174v-33.391h-23.174v-56.487l-44.981-28.475L290.504,422.586z"/>
</g>
<path style="fill:#99E5FF;" d="M402.753,106.369c7.907-0.578,27.807-0.168,34.809,0.038l0.983-33.377
	c-2.75-0.081-27.186-0.769-38.223,0.038c-0.111,0.008-0.22,0.02-0.332,0.029C384.325,31.386,344.112,1.72,296.956,1.72
	c-27.275,0-53.4,4.999-77.528,14.104C64.186,95.351,76.8,421.94,320.558,421.94c0.024-12.387,2.569-24.192,7.147-34.933
	c-32.984-22.456-56.484-57.2-64.513-96.915c20.164-0.554,39.555-8.141,54.711-21.3L289.75,240.64l-23.564-23.564
	c3.196-11.017,7.602-21.554,13.07-31.451C303.579,141.599,348.957,110.297,402.753,106.369z"/>
<path style="fill:#4AD0FF;" d="M320.558,421.94c-52.865-30.583-88.739-85.935-93.309-148.537
	c-1.723-23.607,1.042-46.521,7.552-67.918c-5.384-3.879-10.528-8.235-15.372-13.079c-48.762-48.762-48.762-127.821,0-176.583
	c-24.298-16.788-56.415-21.117-85.563-8.622c-17.958,7.698-32.061,20.62-41.331,36.224l36.373,36.373
	c-33.84,39.946-55.453,91.315-55.453,147.645c0,126.363,102.804,229.167,229.167,229.167h24.822
	c-4.432-10.626-6.891-22.273-6.891-34.488h89.878v-56.476h23.174v-33.391h-23.174c-37.099,0-69.022,22.599-82.727,54.752
	C323.127,397.747,320.582,409.553,320.558,421.94z"/>
<g>
</g>
<g>
</g>
<g>
</g>
<g>
</g>
<g>
</g>
<g>
</g>
<g>
</g>
<g>
</g>
<g>
</g>
<g>
</g>
<g>
</g>
<g>
</g>
<g>
</g>
<g>
</g>
<g>
</g>
</svg>
