<?xml version="1.0" encoding="iso-8859-1"?>
<!-- Generator: Adobe Illustrator 19.0.0, SVG Export Plug-In . SVG Version: 6.00 Build 0)  -->
<svg version="1.1" id="Layer_1" xmlns="http://www.w3.org/2000/svg" xmlns:xlink="http://www.w3.org/1999/xlink" x="0px" y="0px"
	 viewBox="0 0 512 512" style="enable-background:new 0 0 512 512;" xml:space="preserve">
<g>
	<path style="fill:#05232E;" d="M108.522,396.487V512h38.957V400.696c38.684,0,67.398-16.452,85.967-42.732l-82.071-55.216
		C135.791,333.913,125.774,365.078,108.522,396.487z"/>
	<path style="fill:#05232E;" d="M409.043,0c-18.441,0-33.391,14.95-33.391,33.391v89.043h33.391V0z"/>
</g>
<polygon style="fill:#6B8F9C;" points="442.435,89.043 419.617,115.757 442.435,139.637 475.826,133.565 475.826,89.043 "/>
<g>
	<path style="fill:#05232E;" d="M92.76,233.739H75.13c-21.515,0-38.957,17.441-38.957,38.957v67.601
		c21.513,0,38.957-17.444,38.957-38.957l42.095-28.298C108.302,256.682,102.99,248.608,92.76,233.739z"/>
	<path style="fill:#05232E;" d="M347.826,316.475V512h38.957V315.063C372.127,315.063,363.965,316.475,347.826,316.475z"/>
</g>
<g>
	<path style="fill:#6B8F9C;" d="M370.643,201.461c-32.07,35.277-46.738,76.841-88.956,92.665l32.747,67.866
		c11.808-3.292,23.008-8.044,33.391-14.051c14.858-8.596,28.045-19.758,38.957-32.879c20.848-25.071,33.391-57.297,33.391-92.454
		v-33.391C401.733,189.217,385.484,185.136,370.643,201.461z"/>
	<path style="fill:#6B8F9C;" d="M291.988,316.475c-17.998-4.003-70.492-3.71-56.425,41.96l39.915,8.87l9.832-31.536L291.988,316.475
		z"/>
	<path style="fill:#6B8F9C;" d="M182.46,346.634c24.937-18.286,47.197-44.257,70.201-73.196l-43.965-57.651
		c-0.001,0-66.817-2.155-66.817-2.155c-19.38-0.626-36.895,7.19-49.119,20.107C81.83,245.29,75.13,260.921,75.13,278.261v86.261
		H36.174v108.522l20.591,20.777l18.365-20.777v-72.348c11.53,0,22.718-1.461,33.391-4.208
		C138.559,388.756,164.503,370.836,182.46,346.634z"/>
</g>
<path style="fill:#325763;" d="M364.522,89.043V0c-18.441,0-33.391,14.95-33.391,33.391v55.652l-55.652,128.897
	c0.006,0.001-66.784-2.154-66.784-2.154l0.001,51.344c0,29.785-9.754,57.289-26.236,79.504l50.984,11.33l2.119,0.471
	c4-18.002,21.84-29.355,39.838-25.353l0.076,0.017v139.945l20.221,22.261l18.736-22.261v-146.17
	c42.218-15.824,72.348-56.588,72.348-104.264c0-18.441,14.95-33.391,33.391-33.391v-45.533l22.261-4.047V89.043H364.522z"/>
<g>
	<rect x="36.174" y="473.043" style="fill:#05232E;" width="38.957" height="38.957"/>
	<rect x="275.478" y="473.043" style="fill:#05232E;" width="38.957" height="38.957"/>
</g>
<g>
</g>
<g>
</g>
<g>
</g>
<g>
</g>
<g>
</g>
<g>
</g>
<g>
</g>
<g>
</g>
<g>
</g>
<g>
</g>
<g>
</g>
<g>
</g>
<g>
</g>
<g>
</g>
<g>
</g>
</svg>
