<?xml version="1.0" encoding="iso-8859-1"?>
<!-- Generator: Adobe Illustrator 19.0.0, SVG Export Plug-In . SVG Version: 6.00 Build 0)  -->
<svg version="1.1" id="Layer_1" xmlns="http://www.w3.org/2000/svg" xmlns:xlink="http://www.w3.org/1999/xlink" x="0px" y="0px"
	 viewBox="0 0 512 512" style="enable-background:new 0 0 512 512;" xml:space="preserve">
<path style="fill:#FB5858;" d="M228.174,422.259V512h100.174c0-18.441-14.949-33.391-33.391-33.391h-33.391v-56.35
	c-5.506,0.454-11.073,0.698-16.696,0.698S233.68,422.713,228.174,422.259z"/>
<path style="fill:#FAE8AC;" d="M0,222.609c0,29.619,23.141,53.825,52.33,55.545c-5.08-17.638-7.808-36.273-7.808-55.545H0z"/>
<path style="fill:#FB5858;" d="M445.217,66.783c0,17.107-6.44,32.706-17.018,44.522h39.279c24.588,0,44.522-19.933,44.522-44.522
	H445.217z"/>
<path style="fill:#F6D76F;" d="M378.435,0c-36.883,0-66.783,29.9-66.783,66.783v155.826H244.87
	c46.103,0,83.478,37.375,83.478,83.478s-37.375,83.478-83.478,83.478v33.391v-33.391c92.06,0,166.957-74.897,166.957-166.956
	c0-16.552,12.045-30.283,27.847-32.925c-4.388-12.633-11.25-24.101-19.985-33.858c0.012,0-0.206-0.227-0.206-0.227
	c-1.524-1.693-3.101-3.336-4.735-4.92l-18.737-19.468c12.603-3.43,23.722-10.45,32.188-19.907
	c10.578-11.816,17.018-27.414,17.018-44.522C445.217,29.9,415.318,0,378.435,0z"/>
<path style="fill:#FDF3D3;" d="M244.87,389.565c-92.208,0-166.957-74.749-166.957-166.956H44.522
	c0,19.272,2.728,37.907,7.808,55.545c22.6,78.48,91.88,137.176,175.844,144.105c5.506,0.454,11.073,0.698,16.696,0.698V389.565z"/>
<path style="fill:#FBB071;" d="M244.87,389.565V222.609H77.913C77.913,314.817,152.662,389.565,244.87,389.565z"/>
<path style="fill:#FF835D;" d="M328.348,306.087c0-46.103-37.375-83.478-83.478-83.478v166.956
	C290.973,389.565,328.348,352.19,328.348,306.087z"/>
<path style="fill:#FAE8AC;" d="M411.826,222.609c0,92.06-74.897,166.956-166.957,166.956v33.391c5.623,0,11.189-0.244,16.696-0.698
	c102.836-8.486,183.652-94.624,183.652-199.65c0-11.533-1.956-22.609-5.542-32.92C423.873,192.326,411.826,206.057,411.826,222.609z
	"/>
</svg>
