<?xml version="1.0" encoding="iso-8859-1"?>
<!-- Generator: Adobe Illustrator 19.0.0, SVG Export Plug-In . SVG Version: 6.00 Build 0)  -->
<svg version="1.1" id="Layer_1" xmlns="http://www.w3.org/2000/svg" xmlns:xlink="http://www.w3.org/1999/xlink" x="0px" y="0px"
	 viewBox="0 0 512 512" style="enable-background:new 0 0 512 512;" xml:space="preserve">
<path style="fill:#325763;" d="M347.826,183.652H164.174c-10.741,0-19.478-8.737-19.478-19.478s8.737-19.478,19.478-19.478h19.478
	c25.61,0,48.093-13.316,60.95-33.391l111.571-38.957h-192c-50.71,0-91.826,41.116-91.826,91.826S113.464,256,164.174,256h183.652
	c50.71,0,91.826,41.116,91.826,91.826s-41.116,91.826-91.826,91.826H43.976H0l18.632,21.727C20.402,463.449,62.82,512,133.02,512
	h214.806C438.35,512,512,438.35,512,347.826S438.35,183.652,347.826,183.652z"/>
<path style="fill:#4AD0FF;" d="M347.826,256H164.174c-50.71,0-91.826-41.116-91.826-91.826s41.116-91.826,91.826-91.826
	l258.783-38.957H300.255C287.398,13.316,264.914,0,239.304,0h-75.13C73.65,0,0,73.65,0,164.174s73.65,164.174,164.174,164.174
	h183.652c10.741,0,19.478,8.737,19.478,19.478c0,10.741-8.737,19.478-19.478,19.478H133.02c-70.2,0-112.618,48.551-114.387,50.621
	L0,439.652h43.976h303.85c50.71,0,91.826-41.116,91.826-91.826S398.536,256,347.826,256z"/>
<polygon style="fill:#325763;" points="422.957,111.304 512,111.304 512,72.348 395.13,44.522 "/>
<polygon style="fill:#4AD0FF;" points="478.609,50.087 445.217,33.391 422.957,33.391 407.374,72.348 512,72.348 512,50.087 "/>
<path style="fill:#6B8F9C;" d="M347.826,217.043H164.174c-29.151,0-52.87-23.719-52.87-52.87s23.719-52.87,52.87-52.87h258.783
	l0.11-38.957L164.174,51.2c-69.565,0-109.635,62.264-109.635,112.974s36.73,109.635,109.635,109.635l183.652,1.113
	c50.71,0,68.452,22.194,68.452,72.904c0,67.339-15.026,70.122-206.47,70.122L43.976,439.652l0.868,0.968
	c5.587,5.988,37.743,37.988,88.175,37.988h214.806c72.114,0,130.783-58.669,130.783-130.783S419.94,217.043,347.826,217.043z"/>
<path style="fill:#99E5FF;" d="M33.391,164.174c0,72.114,58.669,130.783,130.783,130.783h183.652c29.151,0,52.87,23.719,52.87,52.87
	s-23.719,52.87-52.87,52.87H133.02c-55.652,0-89.043,38.957-89.043,38.957h303.85c50.71,0,91.826-41.116,91.826-91.826
	S398.536,256,347.826,256H164.174c-50.71,0-91.826-41.116-91.826-91.826s41.116-91.826,91.826-91.826h258.783V33.391H164.174
	C92.06,33.391,33.391,92.06,33.391,164.174z"/>
<rect x="356.174" y="55.652" style="fill:#325763;" width="33.391" height="33.391"/>
</svg>
