<?xml version="1.0" encoding="iso-8859-1"?>
<!-- Generator: Adobe Illustrator 19.0.0, SVG Export Plug-In . SVG Version: 6.00 Build 0)  -->
<svg version="1.1" id="Layer_1" xmlns="http://www.w3.org/2000/svg" xmlns:xlink="http://www.w3.org/1999/xlink" x="0px" y="0px"
	 viewBox="0 0 512 512" style="enable-background:new 0 0 512 512;" xml:space="preserve">
<polygon style="fill:#05232E;" points="316.023,306.087 316.023,439.838 378.461,439.838 378.461,391.197 361.739,375.096 
	378.461,357.806 378.461,306.273 "/>
<rect x="345.066" y="357.81" style="fill:#325763;" width="33.391" height="33.391"/>
<path style="fill:#6B8F9C;" d="M133.287,110.543c-54.94,0-99.896,44.956-99.896,99.896h128.38v35.178
	c0,37.154-15.797,70.607-41.026,94.047h98.958v-229.12H133.287z"/>
<g>
	<rect x="128.378" y="143.661" style="fill:#325763;" width="33.391" height="33.391"/>
	<path style="fill:#325763;" d="M456.339,286.72l0.009,52.944c0,9.206-7.49,16.696-16.696,16.696
		c-9.206,0-16.696-7.49-16.696-16.696v-33.391h-33.391v33.391c0,27.618,22.469,50.087,50.087,50.087
		c27.618,0,50.087-22.469,50.087-50.087l-0.009-50.087l-15.945-22.817C468.591,271.953,462.655,277.89,456.339,286.72z"/>
</g>
<path style="fill:#F6D76F;" d="M512,256.186h-22.332c0,0-57.715-58.673-67.268-68.082c0,19.478,0.506,40.251,0.506,40.251
	l-0.004,11.135c0,21.782,13.981,40.351,33.436,47.231c5.212,1.843,10.814,2.856,16.651,2.856H512V256.186z"/>
<polygon style="fill:#325763;" points="378.435,257.67 378.435,259.03 307.757,176.417 253.068,110.543 219.704,110.543 
	219.704,439.838 282.143,439.838 282.143,391.197 271.026,373.426 282.143,357.806 282.143,326.53 316.023,319.405 378.457,306.273 
	"/>
<rect x="248.754" y="357.81" style="fill:#6B8F9C;" width="33.391" height="33.391"/>
<path style="fill:#325763;" d="M378.457,213.534l44.449,14.82c0,0,33.387,11.132,33.425,11.144v0.72
	c0.386,8.867,7.699,15.967,16.659,15.967h16.736l-0.012-72.348c-0.011,0,0-44.892,0-44.892c0-36.73-30.052-66.783-66.783-66.783
	h-44.492l-48.144,63.351L378.457,213.534z"/>
<path style="fill:#6B8F9C;" d="M33.391,324.461C14.949,324.461,0,339.411,0,357.852v44.522c18.441,0,33.391-14.949,33.391-33.391
	l14.47-23.383L33.391,324.461z"/>
<path style="fill:#325763;" d="M33.391,210.439v229.398h62.44v-48.64l-12.909-17.214l12.909-16.177
	c9.036-5.04,17.39-11.15,24.914-18.143c25.228-23.441,41.026-56.892,41.026-94.047v-35.178L33.391,210.439L33.391,210.439z"/>
<g>
	<rect x="62.442" y="357.81" style="fill:#6B8F9C;" width="33.391" height="33.391"/>
	<path style="fill:#6B8F9C;" d="M378.435,259.03V72.162h-86.985c-21.197,0-38.381,17.183-38.381,38.381v106.685L378.435,259.03z"/>
</g>
</svg>
