<?xml version="1.0" encoding="iso-8859-1"?>
<!-- Generator: Adobe Illustrator 19.0.0, SVG Export Plug-In . SVG Version: 6.00 Build 0)  -->
<svg version="1.1" id="Layer_1" xmlns="http://www.w3.org/2000/svg" xmlns:xlink="http://www.w3.org/1999/xlink" x="0px" y="0px"
	 viewBox="0 0 511.999 511.999" style="enable-background:new 0 0 511.999 511.999;" xml:space="preserve">
<g>
	<path style="fill:#FAE8AC;" d="M390.072,312.939l-175.331-0.769c8.459,19.994,17.687,39.219,24.243,57.36h115.975L390.072,312.939z
		"/>
	<path style="fill:#FAE8AC;" d="M461.913,97.947c-7.988,0-14.658,5.614-16.299,13.111l15.976,17.322l16.964-14.855
		C477.975,104.828,470.756,97.947,461.913,97.947z"/>
	<path style="fill:#FAE8AC;" d="M189.217,258.226c-14.714,0-28.305,4.764-39.346,12.822l-86.005,62.82l-8.308,33.67l34.576,2.282
		l32.301-23.585v67.818h111.304c0-13.523-10.963-24.487-24.487-24.487h-2.907c-5.467,1.447-11.205,2.226-17.128,2.226l51.67-69.623
		L189.217,258.226z"/>
</g>
<path style="fill:#6B8F9C;" d="M0,380.516c14.503,19.857,42.351,24.198,62.208,9.695l27.926-20.391l-26.268-35.951L0,380.516z"/>
<path style="fill:#F6D76F;" d="M500.87,129.112l-22.261-15.583l-0.057-0.004l-32.939-2.468l-0.807-0.06
	c-1.664-7.465-8.317-13.05-16.284-13.05c-7.091,0-13.144,4.428-15.564,10.664l-58,149.614H189.217v133.565
	c5.923,0,11.66-0.779,17.128-2.226c12.791-3.384,24.073-10.466,32.639-20.035c8.232-9.195,13.943-20.684,16.076-33.391h99.899
	v33.391c0,24.588,19.934,44.522,44.522,44.522V369.53h0.441c11.433,0,23.248-2.79,34.165-7.881v7.881
	c0,24.588,19.934,44.522,44.522,44.522v-244.87c0,0,7.513-2.504,16.696-5.565c9.183-3.061,16.696-12.077,16.696-20.035
	c0-7.958,0-14.47,0-14.47H500.87z"/>
</svg>
