<?xml version="1.0" encoding="iso-8859-1"?>
<!-- Generator: Adobe Illustrator 19.0.0, SVG Export Plug-In . SVG Version: 6.00 Build 0)  -->
<svg version="1.1" id="Layer_1" xmlns="http://www.w3.org/2000/svg" xmlns:xlink="http://www.w3.org/1999/xlink" x="0px" y="0px"
	 viewBox="0 0 512 512" style="enable-background:new 0 0 512 512;" xml:space="preserve">
<path style="fill:#FBB071;" d="M144.696,323.896V512h33.391v-66.783c32.723,0,60.274-22.073,68.624-52.136
	C246.711,393.081,175.861,346.156,144.696,323.896z"/>
<path style="fill:#FF835D;" d="M389.565,379.548V512h33.391V376.209C414.052,376.209,402.062,376.229,389.565,379.548z"/>
<path style="fill:#FAE8AC;" d="M478.609,128.293v94.316l-26.713,23.374l-28.939-23.374v-38.664
	C422.957,153.209,447.873,128.293,478.609,128.293z"/>
<path style="fill:#FF835D;" d="M367.304,128.293v94.316l30.052,17.809l25.6-17.809v-38.664
	C422.957,153.209,398.04,128.293,367.304,128.293z"/>
<path style="fill:#FAE8AC;" d="M162.504,353.948c0,2.301,19.916,24.608,19.702,26.854l140.576,26.761l25.394-59.386l-165.638-20.942
	L162.504,353.948z"/>
<path style="fill:#F6D76F;" d="M422.957,222.609L322.783,373.571V512h33.391v-98.895c56.309,3.99,100.174-35.699,100.174-94.775
	v-54.91l44.522-18.551v-22.261H422.957z"/>
<path style="fill:#FBB071;" d="M422.957,222.609v95.722c0,20.324-7.346,37.61-20.691,48.673c-10.318,8.559-23.608,13-38.367,13
	c-4.797,0-9.761-0.467-14.815-1.425l-26.301-5.009l-32.278-42.997l32.278-38.106l44.522-3.076v-66.783H422.957z"/>
<path style="fill:#F6D76F;" d="M111.304,307.078C101.287,252.661,87.93,75.687,87.93,75.687l-65.678,31.896
	c-7.208,20.643-11.122,42.846-11.122,65.949c0,74.165,40.29,138.904,100.174,173.546v42.487H77.913V512h33.391v-66.783
	c39.342,0,71.235-31.893,71.235-71.235v-27.108l140.243,26.696v-81.104L111.304,307.078z"/>
<path style="fill:#FBB071;" d="M22.252,107.583h55.661v165.97c9.415,12.601,20.629,23.917,33.391,33.525V0
	C70.086,23.844,38.147,61.954,22.252,107.583z"/>
<g>
</g>
<g>
</g>
<g>
</g>
<g>
</g>
<g>
</g>
<g>
</g>
<g>
</g>
<g>
</g>
<g>
</g>
<g>
</g>
<g>
</g>
<g>
</g>
<g>
</g>
<g>
</g>
<g>
</g>
</svg>
