<?xml version="1.0" encoding="iso-8859-1"?>
<!-- Generator: Adobe Illustrator 19.0.0, SVG Export Plug-In . SVG Version: 6.00 Build 0)  -->
<svg version="1.1" id="Layer_1" xmlns="http://www.w3.org/2000/svg" xmlns:xlink="http://www.w3.org/1999/xlink" x="0px" y="0px"
	 viewBox="0 0 512 512" style="enable-background:new 0 0 512 512;" xml:space="preserve">
<g>
	<path style="fill:#4AD0FF;" d="M338.917,151.361c-11.037-35.503-44.149-61.282-83.283-61.282v60.873
		c13.351,9.696,25.965,20.085,40.412,27.504C313.508,169.554,326.122,162.134,338.917,151.361z"/>
	<path style="fill:#4AD0FF;" d="M512,256.001l-0.835-2.182c-34.571-41.138-77.412-72.413-125.306-90.001
		c-57.511,62.872-72.351,113.33-79.029,136.333L512,256.001z"/>
</g>
<path style="fill:#50BF94;" d="M291.988,256.001c0,34.059,40.07,87.188,93.192,91.247c48.551-17.675,91.949-49.419,126.82-91.247
	H291.988z"/>
<path style="fill:#99E5FF;" d="M338.917,151.361c-14.008-2.351-28.317-3.583-42.87-3.583c-13.703,0-27.191,1.086-40.412,3.176
	c-58.287,9.209-111.358,38.058-154.37,80.771l-14.818,41.712l269.326-17.437c0-34.482,11.164-66.349,30.086-92.182
	C370.687,158.244,355.003,154.061,338.917,151.361z"/>
<rect x="288.991" y="189.218" style="fill:#FFFFFF;" width="33.391" height="33.391"/>
<path style="fill:#99E5FF;" d="M134.656,366.296c23.225,0,44.313-9.097,59.94-23.9c-17.622-20.726-42.109-47.439-59.94-68.957
	V366.296z"/>
<path style="fill:#50BF94;" d="M255.635,359.868v62.053c39.584,0,72.988-26.385,83.635-62.522
	c-13.891-12.501-29.473-27.341-43.223-40.697C283.084,329.832,267.501,346.157,255.635,359.868z"/>
<path style="fill:#84D993;" d="M355.773,256.001H255.599l-17.779,23.374l-15.613-23.374H70.864c0,0,30.401,22.847,30.401,23.096
	c10.546,10.482,21.707,20.105,33.391,28.824c18.71,13.964,38.787,25.572,59.94,34.477c19.511,8.213,39.929,14.136,61.039,17.471
	c13.222,2.089,26.711,3.174,40.412,3.174c14.673,0,29.102-1.251,43.223-3.642c15.72-2.662,31.057-6.741,45.91-12.151
	C366.67,321.581,355.773,290.06,355.773,256.001z"/>
<path style="fill:#4AD0FF;" d="M101.265,231.714l-28.974-36.31C57.018,176.263,24.487,160.603,0,160.603v95.398l101.254,18.922
	C101.254,274.922,101.254,231.725,101.265,231.714z"/>
<path style="fill:#50BF94;" d="M0,256.001v95.398c24.487,0,57.018-15.661,72.291-34.802l28.974-36.31
	c-0.011-0.011-0.011-24.287-0.011-24.287H0z"/>
<rect x="222.208" y="256.001" style="fill:#FFFFFF;" width="33.391" height="33.391"/>
<g>
</g>
<g>
</g>
<g>
</g>
<g>
</g>
<g>
</g>
<g>
</g>
<g>
</g>
<g>
</g>
<g>
</g>
<g>
</g>
<g>
</g>
<g>
</g>
<g>
</g>
<g>
</g>
<g>
</g>
</svg>
