<?xml version="1.0" encoding="iso-8859-1"?>
<!-- Generator: Adobe Illustrator 19.0.0, SVG Export Plug-In . SVG Version: 6.00 Build 0)  -->
<svg version="1.1" id="Layer_1" xmlns="http://www.w3.org/2000/svg" xmlns:xlink="http://www.w3.org/1999/xlink" x="0px" y="0px"
	 viewBox="0 0 512 512" style="enable-background:new 0 0 512 512;" xml:space="preserve">
<polygon style="fill:#FB5858;" points="411.826,0 398.84,16.696 411.826,33.391 445.217,33.391 457.461,15.212 445.217,0 "/>
<polygon style="fill:#AA3E51;" points="200.348,512 233.739,512 233.739,276.405 200.348,277.148 "/>
<path style="fill:#F72349;" d="M406.261,0.22c-40.371,2.866-72.348,36.605-72.348,77.693V244.87h-19.482
	c-17.811-45.605-62.172-77.913-114.084-77.913l-60.475,122.805c49.178,0,96.464-0.371,149.518-0.371h44.522
	c24.588,0,44.522-19.934,44.522-44.522V77.913c18.441,0,33.391-14.95,33.391-33.391V0C409.953,0,408.102,0.09,406.261,0.22z"/>
<path style="fill:#FB5858;" d="M199.977,288.278l0.371-121.322c-51.911,0-96.273,32.308-114.084,77.913h-8.351
	c-24.588,0-44.522,19.933-44.522,44.522h77.913C148.035,289.391,166.957,288.278,199.977,288.278z"/>
<path style="fill:#F72349;" d="M200.348,200.348c-49.178,0-89.043,39.866-89.043,89.043l89.043,29.682l54.539-64.186
	L200.348,200.348z"/>
<path style="fill:#FB5858;" d="M200.348,200.348v118.725l44.522,14.84c24.588,0,44.522-19.934,44.522-44.522
	C289.391,240.214,249.525,200.348,200.348,200.348z"/>
<path style="fill:#325763;" d="M445.217,0v66.783c18.442,0,33.391-14.95,33.391-33.391S463.659,0,445.217,0z"/>
</svg>
