<?xml version="1.0" encoding="iso-8859-1"?>
<!-- Generator: Adobe Illustrator 19.0.0, SVG Export Plug-In . SVG Version: 6.00 Build 0)  -->
<svg version="1.1" id="Layer_1" xmlns="http://www.w3.org/2000/svg" xmlns:xlink="http://www.w3.org/1999/xlink" x="0px" y="0px"
	 viewBox="0 0 512 512" style="enable-background:new 0 0 512 512;" xml:space="preserve">
<path style="fill:#16A5D9;" d="M224.318,376.283c-20.85,27.568-32.04,58.608-32.68,87.106c35.445-0.797,74.83-17.899,106.563-49.632
	l30.894-30.895c-15.216-18.897-25.234-35.593-45.269-54.515C257.113,346.157,241.53,360.626,224.318,376.283z"/>
<g>
	<path style="fill:#99E5FF;" d="M116.596,363.606c29.137,29.138,73.755,33.321,107.365,12.595
		c-15.822-22.253-30.291-37.836-51.439-64.549L116.596,363.606z"/>
	<path style="fill:#99E5FF;" d="M381.774,356.174c4.22-7.267-1.661-128.549,4.085-134.982c-12.042-3.63-24.407-6.539-37.038-8.696
		c-49.412,6.774-90.595,10.113-172.565,19.473c-27.281,11.423-52.513,26.614-74.991,44.922L77.913,296.07
		c0,0,53.426,35.617,128,56.765C277.866,373.239,380.723,355.551,381.774,356.174z"/>
</g>
<path style="fill:#4AD0FF;" d="M353.361,296.803h-96.248l-17.809,22.64l-17.809-22.64H101.265v-24.169
	c-0.003,0-0.006,1.723-0.007,4.243C72.629,252.373,23.116,214.563,0,224.313l44.533,72.49l56.732,18.954
	c11.696,9.525,24.14,18.204,37.226,25.954c26.165,15.495,54.916,27.24,85.472,34.489c0.119,0.028,0.238,0.056,0.356,0.082
	c23.001,5.429,47.018,8.321,71.729,8.321c11.167,0,22.191-0.595,33.047-1.742c19.29-2.035,38.045-5.821,56.085-11.213
	c23.368-15.132,62.709-46.844,62.681-74.74C447.047,296.91,354.157,296.869,353.361,296.803z"/>
<path style="fill:#16A5D9;" d="M101.254,296.803H44.533L0.022,368.307c23.105,9.759,72.618-28.05,101.236-52.555
	c-0.001-1.664-0.001-3.667-0.002-5.743C101.254,304.434,101.254,296.803,101.254,296.803z"/>
<rect x="222.208" y="296.904" style="fill:#FFFFFF;" width="33.391" height="33.391"/>
<g>
	<path style="fill:#4AD0FF;" d="M326.143,267.28c9.624-10.909,17.045-19.071,27.625-29.555c-1.164-8.575-2.815-16.997-4.946-25.229
		c-24.38-94.143-110.063-163.885-211.716-163.885v92.002c0,35.804,15.058,68.261,39.151,91.355
		c22.786,21.842,53.653,35.311,87.515,35.311H326.143z"/>
	<path style="fill:#4AD0FF;" d="M355.773,296.803l68.296,33.771L512,296.803l-0.835-1.789
		c-34.571-33.743-77.412-59.398-125.306-73.823c-5.746,6.433-10.77,13.326-14.989,20.594
		c-13.582,10.134-18.777,13.844-23.971,20.522C349.125,274.179,352.092,285.31,355.773,296.803z"/>
</g>
<path style="fill:#16A5D9;" d="M355.773,296.803c0-19.695,5.419-38.349,15.096-55.019c-4.422-2.623-9.581-4.135-15.096-4.135
	c-0.674,0-1.342,0.03-2.006,0.075c-15.428,1.032-27.625,13.865-27.625,29.555c0,15.553,11.983,28.296,27.218,29.523
	c0.796,0.066,1.599,0.107,2.412,0.107c0.029,27.896,10.92,53.713,29.407,74.74c48.551-14.499,91.949-40.537,126.82-74.847H355.773
	V296.803z"/>
</svg>
