<?xml version="1.0" encoding="iso-8859-1"?>
<!-- Generator: Adobe Illustrator 19.0.0, SVG Export Plug-In . SVG Version: 6.00 Build 0)  -->
<svg version="1.1" id="Layer_1" xmlns="http://www.w3.org/2000/svg" xmlns:xlink="http://www.w3.org/1999/xlink" x="0px" y="0px"
	 viewBox="0 0 512 512" style="enable-background:new 0 0 512 512;" xml:space="preserve">
<g>
	<path style="fill:#F72349;" d="M144.696,321.67V512h33.391v-66.783c32.723,0,60.274-22.073,68.624-52.136
		C246.711,393.081,173.635,341.704,144.696,321.67z"/>
	<path style="fill:#F72349;" d="M389.565,512h33.391V378.435c-10.017,0-18.922,1.113-33.391,1.113V512z"/>
</g>
<path style="fill:#FB5858;" d="M400.696,211.478c0-18.442-14.949-33.391-33.391-33.391v44.522L384,235.965l16.696-13.357V211.478z"
	/>
<path style="fill:#FBB071;" d="M162.504,329.461c0,0,19.916,49.095,19.702,51.341l64.504,12.28l76.072,14.481l30.052-46.937
	L162.504,329.461z"/>
<path style="fill:#FF835D;" d="M322.783,373.571V512h33.391v-98.895c11.769,0.834,22.997-0.233,33.391-2.993
	c12.497-3.319,23.794-9.077,33.391-16.887c20.614-16.774,33.391-43.011,33.391-74.894l-42.296-23.374
	C397.357,308.313,322.783,373.571,322.783,373.571z"/>
<polygon style="fill:#FAE8AC;" points="422.957,318.33 456.348,318.33 456.348,263.421 398.47,248.209 "/>
<path style="fill:#F72349;" d="M500.87,222.609h-44.522v-11.13c0-18.442-14.949-33.391-33.391-33.391v44.522h-55.652v66.783h-44.522
	l-33.391,42.296l33.391,41.884l26.301,5.009c5.053,0.957,10.017,1.425,14.815,1.425c14.759,0,28.049-4.441,38.367-13
	c13.345-11.064,20.691-28.349,20.691-48.673v-49.345l33.391-5.565L500.87,256V222.609z"/>
<path style="fill:#FB5858;" d="M111.304,289.391V107.583L66.783,79.026l-44.531,28.557c-7.208,20.643-11.122,42.846-11.122,65.949
	c0,74.165,40.29,138.904,100.174,173.546v42.487H77.913V512h33.391v-66.783c12.069,0,23.43-3.012,33.391-8.309
	c15.304-8.137,27.287-21.688,33.391-38.104c2.117-5.693,3.524-11.729,4.119-18.002c0.214-2.245,0.333-4.518,0.333-6.82v-27.108
	l140.243,26.696v-84.179H111.304z"/>
<path style="fill:#FAE8AC;" d="M111.304,0C70.086,23.844,38.147,61.954,22.252,107.583h89.052V0z"/>
<g>
</g>
<g>
</g>
<g>
</g>
<g>
</g>
<g>
</g>
<g>
</g>
<g>
</g>
<g>
</g>
<g>
</g>
<g>
</g>
<g>
</g>
<g>
</g>
<g>
</g>
<g>
</g>
<g>
</g>
</svg>
