<?xml version="1.0" encoding="iso-8859-1"?>
<!-- Generator: Adobe Illustrator 19.0.0, SVG Export Plug-In . SVG Version: 6.00 Build 0)  -->
<svg version="1.1" id="Layer_1" xmlns="http://www.w3.org/2000/svg" xmlns:xlink="http://www.w3.org/1999/xlink" x="0px" y="0px"
	 viewBox="0 0 512 512" style="enable-background:new 0 0 512 512;" xml:space="preserve">
<polygon style="fill:#FAE8AC;" points="83.478,456.348 83.478,512 116.87,512 133.195,428.522 "/>
<path style="fill:#F6D76F;" d="M194.783,231.652c-43.03,0-77.913,34.883-77.913,77.913v10.947l18.551,16.74l-18.551,16.651v31.655
	H83.478v70.79h33.391l20.777-21.89c7.42-14.098,74.202-57.136,74.202-57.136L194.783,231.652z"/>
<rect x="116.87" y="320.512" style="fill:#FBB071;" width="33.391" height="33.391"/>
<polygon style="fill:#FAE8AC;" points="328.091,512 361.482,512 361.482,456.348 345.414,423.327 328.091,456.348 "/>
<g>
	<polygon style="fill:#F6D76F;" points="261.565,512 294.957,512 294.957,456.348 278.632,424.07 261.565,456.348 	"/>
	<polygon style="fill:#F6D76F;" points="328.091,456.348 361.482,456.348 361.482,353.908 344.673,322.412 328.091,353.908 	"/>
	<path style="fill:#F6D76F;" d="M274.023,22.261c0,18.364,15.027,33.391,33.391,33.391h3.974l32.542-33.391H274.023z"/>
</g>
<rect x="116.87" y="437.793" style="fill:#FAEAB6;" width="33.391" height="74.207"/>
<path style="fill:#FAE8AC;" d="M194.267,353.903c-4.401,38.856-37.365,69.053-77.398,69.053v33.391h33.391v-33.391
	c40.033,0,72.997-30.197,77.398-69.053l-15.624-22.773L194.267,353.903z"/>
<path style="fill:#FBB071;" d="M395.13,44.522L372.87,22.261h-22.261V0h-33.391v22.261l-5.829,33.391l-30.726,175.994l-85.88,0.011
	v33.386l21.518,16.557l-21.518,16.835v55.469h66.783v102.445h33.391V353.903h66.527v-12.867h0.256V231.658l-17.809-16.84
	l17.809-16.551v-33.391l-15.583-16.098l15.583-17.293v-42.44c9.887,0,18.768-4.302,24.882-11.13h41.901V44.522H395.13z"/>
<g>
	<rect x="194.783" y="265.038" style="fill:#8F5543;" width="33.391" height="33.391"/>
	<rect x="262.289" y="287.299" style="fill:#8F5543;" width="33.391" height="33.391"/>
	<rect x="328.348" y="198.266" style="fill:#8F5543;" width="33.391" height="33.391"/>
	<rect x="328.348" y="131.484" style="fill:#8F5543;" width="33.391" height="33.391"/>
</g>
</svg>
