<?xml version="1.0" encoding="iso-8859-1"?>
<!-- Generator: Adobe Illustrator 19.0.0, SVG Export Plug-In . SVG Version: 6.00 Build 0)  -->
<svg version="1.1" id="Layer_1" xmlns="http://www.w3.org/2000/svg" xmlns:xlink="http://www.w3.org/1999/xlink" x="0px" y="0px"
	 viewBox="0 0 512 512" style="enable-background:new 0 0 512 512;" xml:space="preserve">
<path style="fill:#C97E67;" d="M389.565,297.925v180.684l16.696,16.696l16.696-16.696V298.218
	C412.939,298.218,405.518,297.925,389.565,297.925z"/>
<rect x="389.565" y="478.609" style="fill:#05232E;" width="33.391" height="33.391"/>
<polygon style="fill:#8F5543;" points="0,512 33.391,512 33.391,478.609 15.953,463.397 0,478.609 "/>
<g>
	<polygon style="fill:#05232E;" points="66.783,512 100.174,512 100.174,478.609 83.478,463.397 66.783,478.609 	"/>
	<polygon style="fill:#05232E;" points="317.217,512 350.609,512 350.609,478.609 333.542,461.171 317.217,478.609 	"/>
</g>
<g>
	<path style="fill:#8F5543;" d="M421.101,10.76l-51.276,22.632l-19.217,133.565h-34.783c-48.325,21.89-80.974,35.247-122.527,50.087
		L244.87,334.09h72.348v144.519h33.391V333.417c13.784-1.473,26.921-5.337,38.957-11.171c12.487-6.052,23.786-14.218,33.391-24.028
		c20.588-21.029,33.391-49.596,33.391-81.027V107.593C441.878,64.927,421.101,10.76,421.101,10.76z"/>
	<path style="fill:#8F5543;" d="M66.783,421.701v56.908h33.391v-51.2c53.02,0,96.412-41.193,99.936-93.319L66.412,296.44
		C66.412,342.447,66.783,387.71,66.783,421.701z"/>
</g>
<path style="fill:#FBB071;" d="M173.913,166.957h-40.348l-49.345,80.51l49.345,79.768c0,2.305-0.085,4.59-0.238,6.855H244.87
	V201.461C223.722,192.557,199.235,179.2,173.913,166.957z"/>
<path style="fill:#F6D76F;" d="M315.826,166.957H244.87l-30.795,32.278l30.795,38.678
	C284.055,237.913,315.826,206.142,315.826,166.957z"/>
<path style="fill:#FAE8AC;" d="M244.87,237.913v-70.957h-70.957C173.913,206.142,205.684,237.913,244.87,237.913z"/>
<path style="fill:#8F5543;" d="M456.348,0l-34.504,33.762l34.504,35.789c13.1-0.03,24.511-7.224,30.541-17.869L512,42.218V0H456.348
	z"/>
<path style="fill:#FBB071;" d="M411.826,33.391v118.725c24.486,0,44.522-20.036,44.522-44.522V33.391l-21.89-21.89L411.826,33.391z"
	/>
<path style="fill:#F6D76F;" d="M411.826,33.391l15.953-17.438L411.826,0h-66.783c-46.03,0-83.478,37.448-83.478,83.478h33.391
	c0-27.618,22.469-50.087,50.087-50.087H411.826z"/>
<g>
	<path style="fill:#C97E67;" d="M33.391,166.957v-22.261l-15.953-17.438L0,144.696v30.742c0,18.354,15.026,33.391,33.391,33.391
		v169.606H0v100.174h33.391v-51.2c11.709,0,22.946-2.016,33.391-5.708c36.85-13.026,63.799-46.996,66.544-87.61
		c0.154-2.266,0.238-4.55,0.238-6.855V166.957H33.391z"/>
	<rect x="411.826" style="fill:#C97E67;" width="44.522" height="33.391"/>
</g>
<rect x="66.783" y="200.348" style="fill:#F6D76F;" width="33.391" height="33.391"/>
<rect x="172.399" y="267.309" style="fill:#FAE8AC;" width="33.391" height="33.391"/>
<path style="fill:#8F5543;" d="M33.391,111.304C15.026,111.304,0,126.33,0,144.696h33.391V111.304z"/>
</svg>
