<?xml version="1.0" encoding="iso-8859-1"?>
<!-- Generator: Adobe Illustrator 19.0.0, SVG Export Plug-In . SVG Version: 6.00 Build 0)  -->
<svg version="1.1" id="Layer_1" xmlns="http://www.w3.org/2000/svg" xmlns:xlink="http://www.w3.org/1999/xlink" x="0px" y="0px"
	 viewBox="0 0 512 512" style="enable-background:new 0 0 512 512;" xml:space="preserve">
<path style="fill:#FB5858;" d="M374.65,109.708c-12.451-32.952-44.274-56.393-81.584-56.393l-54.814,40.96
	c-20.935,15.644-41.945,45.468-46.688,66.273c-1.507,6.613-2.927,12.84-4.163,18.263C187.402,178.81,347.64,119.838,374.65,109.708z
	"/>
<g>
	<path style="fill:#FF835D;" d="M293.067,401.231v57.454c37.102,0,68.769-23.181,81.367-55.842
		C358.029,402.843,313.508,401.231,293.067,401.231z"/>
	<path style="fill:#FF835D;" d="M151.574,375.53c23.206,0,44.278-9.082,59.902-23.865l-59.902-64.87V375.53z"/>
	<path style="fill:#FF835D;" d="M512,232.28c0-13.236-10.73-23.966-23.966-23.966h-7.763
		c-13.905,10.956-19.841,18.376-27.262,29.507c10.388,6.678,21.518,13.357,35.031,18.425C501.272,256.243,512,245.513,512,232.28z"
		/>
</g>
<g>
	<path style="fill:#FB5858;" d="M488.039,256.246c0-16.756-2.741-32.867-7.769-47.932c-11.782-35.308-36.2-64.835-67.915-83.177
		c-119.625,0-130.743,130.136-130.743,186.159l206.425-55.047c0,0.144-0.004,0.286-0.004,0.43c0.184-0.134,0.364-0.272,0.549-0.404
		C488.401,256.269,488.223,256.246,488.039,256.246z"/>
	<path style="fill:#FB5858;" d="M488.584,256.273c-0.185,0.132-0.365,0.27-0.549,0.404c-9.797,7.115-20.927,13.05-29.832,19.729
		c7.421,10.388,14.84,19.292,22.069,27.773h7.761c13.236,0,23.966-10.731,23.966-23.966
		C512,267.162,501.563,256.569,488.584,256.273z"/>
</g>
<path style="fill:#FF835D;" d="M74.574,277.148l262.087-20.9c0-56.023,30.446-104.941,75.695-131.112
	c-11.668-6.749-24.332-11.97-37.705-15.427c-12.142-3.139-24.869-4.827-37.989-4.827c-16.286-0.003-31.972,2.577-46.677,7.341
	c-15.853,5.132-30.564,12.804-43.642,22.548l-26.817,20.039l-32.124,24.002l-73.948,55.255
	C113.456,234.069,74.574,277.148,74.574,277.148z"/>
<path style="fill:#FB5858;" d="M357.349,332.662c-8.967-3.572-17.871-7.283-26.033-11.735c2.968-11.13,4.452-20.035,8.813-32.406
	c-2.259-10.402-3.468-21.196-3.468-32.274H69.379l44.075,22.175c-0.001,0.002,38.12,28.485,38.12,28.485l59.902,44.757l34.865,26.05
	c13.922,10.372,29.694,18.402,46.724,23.517c13.807,4.148,28.442,6.383,43.595,6.383c13.043,0,25.695-1.67,37.771-4.773
	c13.453-3.456,26.192-8.696,37.924-15.481C389.62,374.211,370.626,355.315,357.349,332.662z"/>
<path style="fill:#F72349;" d="M323.415,311.217h-70.5c0,26.029,21.1,47.13,47.13,47.13c17.687,0,33.09-9.748,41.151-24.16
	C335.768,326.864,330.574,320.927,323.415,311.217z"/>
<path style="fill:#FF835D;" d="M323.415,311.217c0,11.052,7.558,20.315,17.78,22.97c1.913,0.496,3.91,0.789,5.978,0.789
	c3.646,0,7.087-0.846,10.174-2.314c-7.922-13.516-13.793-28.37-17.22-44.14C330.448,291.523,323.415,300.548,323.415,311.217z"/>
<path style="fill:#F72349;" d="M336.661,256.248c0,11.078,1.208,21.871,3.468,32.274c3.426,15.77,9.298,30.625,17.22,44.14
	c13.277,22.653,32.272,41.549,55.008,54.698c31.716-18.343,56.136-47.873,67.917-83.182c5.026-15.065,7.767-31.176,7.767-47.93
	H336.661z"/>
<path style="fill:#FB5858;" d="M113.456,271.953v-37.885c-0.002-0.003-38.564-54.716-38.564-54.716
	C59.836,157.99,26.134,140.512,0,140.512v115.733L113.456,271.953z"/>
<path style="fill:#F72349;" d="M113.456,256.246H0v115.732c26.134,0,59.836-17.477,74.892-38.84l38.563-54.714
	C113.456,278.422,113.456,256.246,113.456,256.246z"/>
<g>
</g>
<g>
</g>
<g>
</g>
<g>
</g>
<g>
</g>
<g>
</g>
<g>
</g>
<g>
</g>
<g>
</g>
<g>
</g>
<g>
</g>
<g>
</g>
<g>
</g>
<g>
</g>
<g>
</g>
</svg>
