<?xml version="1.0" encoding="iso-8859-1"?>
<!-- Generator: Adobe Illustrator 19.0.0, SVG Export Plug-In . SVG Version: 6.00 Build 0)  -->
<svg version="1.1" id="Layer_1" xmlns="http://www.w3.org/2000/svg" xmlns:xlink="http://www.w3.org/1999/xlink" x="0px" y="0px"
	 viewBox="0 0 512 512" style="enable-background:new 0 0 512 512;" xml:space="preserve">
<path style="fill:#05232E;" d="M157.619,373.622l-0.033-0.007v60.472c0,43.03,34.883,77.913,77.913,77.913h33.391
	c0-18.441-14.95-33.391-33.391-33.391V346.898C234.912,346.903,185.06,364.029,157.619,373.622z"/>
<g>
	<path style="fill:#325763;" d="M467.478,83.478l-80.325-35.803l35.803,102.586c24.588,0,44.522-19.933,44.522-44.522h-14.84
		L467.478,83.478z"/>
	<path style="fill:#325763;" d="M333.542,312.765c-23.247,0-155.826-0.156-175.705-0.156c0,13.512-0.252,33.547-0.252,60.999
		c0.011,0.004,0.022,0.009,0.033,0.014c23.293,10.247,49.04,15.942,76.12,15.942c0.589,0,1.173-0.017,1.76-0.022
		c27.128-0.248,52.896-6.191,76.153-16.712l0,0L333.542,312.765z"/>
</g>
<path style="fill:#6B8F9C;" d="M157.586,373.609c5.458-16.228,22.51-25.875,39.47-21.78c11.943,2.883,24.284,4.345,36.684,4.345
	c25.6,0,49.776-6.207,71.107-17.193l59.119-130.099c0,0-96.835-56.883-96.835-64.186l-77.913,55.652l-90.899,67.896
	c9.647,36.36,20.035,58.621,33.848,91.755c8.078,5.151,16.564,9.72,25.415,13.616l0.004,0.001l0.033,0.007
	C157.608,373.618,157.597,373.613,157.586,373.609z"/>
<path style="fill:#325763;" d="M189.217,244.87v-44.522h-66.783c-42.852,0-77.913,35.061-77.913,77.913v155.826
	c0,43.03,34.883,77.913,77.913,77.913h33.391c0-18.441-14.95-33.391-33.391-33.391V366.818c3.341-2.139,6.585-4.42,9.731-6.819
	C166.837,333.564,189.217,291.833,189.217,244.87z"/>
<path style="fill:#05232E;" d="M422.957,83.478h44.522c0-9.888-4.301-18.768-11.13-24.882v-2.944
	C456.348,24.917,431.431,0,400.696,0c-15.63,0-29.747,6.452-39.857,16.829l-0.013-0.003l-71.6,73.512l0.013,0.011
	c-13.673,14.039-22.108,33.202-22.108,54.347c0,7.303,1.026,14.36,2.905,21.062l-0.02,0.007l34.831,173.215l6.806,33.851v105.778
	h-33.391c0,18.441,14.95,33.391,33.391,33.391c61.471,0,111.304-49.833,111.304-111.304V83.478z"/>
</svg>
