<?xml version="1.0" encoding="iso-8859-1"?>
<!-- Generator: Adobe Illustrator 19.0.0, SVG Export Plug-In . SVG Version: 6.00 Build 0)  -->
<svg version="1.1" id="Layer_1" xmlns="http://www.w3.org/2000/svg" xmlns:xlink="http://www.w3.org/1999/xlink" x="0px" y="0px"
	 viewBox="0 0 512 512" style="enable-background:new 0 0 512 512;" xml:space="preserve">
<path style="fill:#FBB071;" d="M0,322.783v33.391h33.391c9.275-5.565,25.6-10.76,36.73-17.438
	c-12.614-4.452-20.777-8.162-33.955-15.953H0z"/>
<path style="fill:#8F5543;" d="M478.609,281.527v-47.787c0-12.295-9.966-22.261-22.261-22.261s-22.261,9.966-22.261,22.261v16.406
	c0,21.808,0.371,27.744,0.371,31.455C441.878,281.6,470.075,281.6,478.609,281.527z"/>
<g>
	<path style="fill:#FBB071;" d="M478.609,281.527c-3.311-2.965-6.814-5.721-10.5-8.229c0.001-0.001-14.771-10.053-34.021-23.152
		c-3.577-2.434-7.309-4.973-11.13-7.573L336.51,267.13c0,0-6.678,89.043,75.316,89.043H512
		C512,326.51,499.098,299.868,478.609,281.527z"/>
	<path style="fill:#FBB071;" d="M250.901,340.962l83.384-0.742c-0.001-30.736,25.658-65.298,56.393-65.298l0.742-41.183
		c0-6.54-1.084-11.902-5.658-16.475c-21.835-14.857-39.456-26.848-39.456-26.848c-32.088-21.825-70.836-34.59-112.568-34.59
		c-69.156,0-130.127,35.039-166.132,88.331c0.124,0.239,0.234,0.473,0.356,0.712C67.964,244.87,219.317,309.378,250.901,340.962z"/>
</g>
<path style="fill:#FAEAB6;" d="M378.435,322.783V267.13c-30.736,0-55.652,24.917-55.652,55.652h-71.881
	c-4.919,7.049-12.338,10.76-19.759,16.696c8.162,5.936,17.066,11.873,24.858,16.696h155.826
	C393.384,356.174,378.435,341.223,378.435,322.783z"/>
<g>
	<path style="fill:#C97E67;" d="M144.696,244.87H67.139c-15.425,23.042-26.195,49.461-30.972,77.913
		c-1.822,10.859-2.776,22.014-2.776,33.391H256c0-11.635-1.788-22.85-5.099-33.391C236.718,277.626,194.533,244.87,144.696,244.87z"
		/>
	<path style="fill:#C97E67;" d="M378.435,233.739v33.391h44.522v-33.391c0-12.295-9.966-22.261-22.261-22.261
		c-5.754,0-10.981,2.203-14.933,5.786C381.272,221.336,378.435,227.199,378.435,233.739z"/>
</g>
</svg>
