<?xml version="1.0" encoding="iso-8859-1"?>
<!-- Generator: Adobe Illustrator 19.0.0, SVG Export Plug-In . SVG Version: 6.00 Build 0)  -->
<svg version="1.1" id="Layer_1" xmlns="http://www.w3.org/2000/svg" xmlns:xlink="http://www.w3.org/1999/xlink" x="0px" y="0px"
	 viewBox="0 0 512 512" style="enable-background:new 0 0 512 512;" xml:space="preserve">
<path style="fill:#C97E67;" d="M478.609,345.85v-74c0-12.295-9.966-22.261-22.261-22.261s-22.261,9.966-22.261,22.261v73.834
	C434.087,345.686,474.825,345.85,478.609,345.85z"/>
<path style="fill:#8F5543;" d="M371.116,216.943l-4.632-37.218l-36.462,8.773l-13.393-35.032l-33.287,17.277l-21.439-30.769
	l-28.163,24.773l-49.716,183.635l220.383-0.371c0-21.417-0.943-98.276,0.386-98.028l3.828-32.89L371.116,216.943z"/>
<g>
	<path style="fill:#C97E67;" d="M205.576,139.974l-21.439,30.769l-33.286-17.277l-13.392,35.032l-36.461-8.774l-4.632,37.218
		l-37.504,0.149l4.335,37.252l-36.393,9.066l13.111,35.137L6.767,316.09l21.193,30.943L0,372.026h200.348
		c15.212-6.948,23.745-11.028,33.391-15.48V164.747L205.576,139.974z"/>
	<rect x="278.261" y="216.198" style="fill:#C97E67;" width="33.391" height="33.391"/>
</g>
<g>
	<rect x="100.174" y="249.589" style="fill:#8F5543;" width="33.391" height="33.391"/>
	<rect x="144.696" y="294.111" style="fill:#8F5543;" width="33.391" height="33.391"/>
</g>
<path style="fill:#FAEAB6;" d="M472.907,307.581l-38.82-34.364l-14.116-12.496c-12.226,11.974-41.537,44.522-41.537,44.522
	c-20.745,0-38.176,14.189-43.119,33.391H233.739c-18.442,0-33.391,14.949-33.391,33.391h222.609
	C440.765,348.753,452.638,333.913,472.907,307.581z"/>
<path style="fill:#FBB071;" d="M378.435,271.852v33.391h44.522v-33.391c0-4.055-1.102-7.845-2.995-11.119
	c-3.194-5.522-8.681-9.54-15.169-10.749c-1.33-0.248-2.696-0.393-4.097-0.393C388.401,249.591,378.435,259.557,378.435,271.852z"/>
<path style="fill:#8F5543;" d="M490.914,305.243c-4.214,0-8.321,0.386-12.306,1.089c-1.932,0.341-3.834,0.755-5.702,1.249
	c-29.068,7.698-49.95,33.626-49.95,64.445h21.085c38.058,0,67.958-29.9,67.958-66.783H490.914z"/>
<g>
</g>
<g>
</g>
<g>
</g>
<g>
</g>
<g>
</g>
<g>
</g>
<g>
</g>
<g>
</g>
<g>
</g>
<g>
</g>
<g>
</g>
<g>
</g>
<g>
</g>
<g>
</g>
<g>
</g>
</svg>
