<?xml version="1.0" encoding="iso-8859-1"?>
<!-- Generator: Adobe Illustrator 19.0.0, SVG Export Plug-In . SVG Version: 6.00 Build 0)  -->
<svg version="1.1" id="Layer_1" xmlns="http://www.w3.org/2000/svg" xmlns:xlink="http://www.w3.org/1999/xlink" x="0px" y="0px"
	 viewBox="0 0 512 512" style="enable-background:new 0 0 512 512;" xml:space="preserve">
<g>
	<path style="fill:#F72349;" d="M392.162,105.739l41.925,50.087c18.442,0,33.391-14.95,33.391-33.391v-16.696H392.162z"/>
	<path style="fill:#F72349;" d="M434.087,77.913V33.391C434.087,14.95,419.138,0,400.696,0c-17.52,0-31.88,13.498-33.271,30.66
		c0,9.039,0.25,17.201-0.492,46.883C394.595,77.542,411.455,77.913,434.087,77.913z"/>
</g>
<polygon style="fill:#FBB071;" points="478.609,100.174 434.087,77.913 401.066,102.029 434.087,122.435 "/>
<path style="fill:#FB5858;" d="M217.043,404.035V512h77.913c0-18.441-14.949-33.391-33.391-33.391h-11.13v-75.316
	C240.788,403.292,226.69,404.035,217.043,404.035z"/>
<path style="fill:#FF835D;" d="M233.368,405.518c50.739,0,105.085-26.25,135.071-59.384c27.022-29.858,54.887-70.47,46.726-172.87
	l-38.957-16.628l-119.68,3.354l-22.79,29.227c-38.214,48.603-54.539,65.67-80.51,101.285
	C174.748,317.96,197.751,362.884,233.368,405.518z"/>
<path style="fill:#FB5858;" d="M66.783,109.131c-19.956,11.548-33.391,33.111-33.391,57.826v22.261l66.04,32.649L66.783,109.131z"/>
<path style="fill:#FAE8AC;" d="M233.739,422.957l19.664-17.438l-19.664-15.953C168.44,324.266,66.783,189.217,66.783,189.217H33.391
	v33.391c0,101.205,75.046,184.869,172.522,198.416C215.009,422.288,224.295,422.957,233.739,422.957z"/>
<path style="fill:#FBB071;" d="M400.696,218.966v3.643c0,91.195-73.498,165.534-164.369,166.924
	c-0.825,0.012-1.647,0.03-2.474,0.031c-0.038,0-0.076,0.001-0.114,0.001v22.261v11.13c-9.444,0-18.73-0.669-27.826-1.932v7.497
	c0,9.104,4.372,17.185,11.13,22.261c4.65,3.494,10.431,5.565,16.696,5.565c6.264,0,12.045-2.071,16.696-5.565
	c6.758-5.077,11.13-13.158,11.13-22.261v-7.497c94.258-13.099,167.539-91.762,172.275-188.452
	C433.841,232.526,400.696,218.966,400.696,218.966z"/>
<path style="fill:#FF835D;" d="M66.783,222.609c0,92.208,74.749,166.956,166.957,166.956l58.991-102.771l-58.991-97.577H100.174
	v-89.043c-12.169,0-23.566,3.27-33.391,8.957V222.609z"/>
<g>
	<path style="fill:#FB5858;" d="M233.853,389.564c0.827-0.001,1.651-0.019,2.474-0.031c54.13-1.373,97.586-45.683,97.586-100.142
		c0-55.325-44.849-100.174-100.174-100.174v200.348C233.777,389.565,233.815,389.564,233.853,389.564z"/>
	<path style="fill:#FB5858;" d="M434.087,77.913c0-27.662-22.424-50.087-50.087-50.087c-5.813,0-11.385,1.011-16.575,2.834
		c-9.727,3.416-18.089,9.732-24.023,17.933l-85.668,109.848l-1.207,1.547l144.168,58.977l33.145,13.559l0.246,0.101V77.913z"/>
</g>
</svg>
