<?xml version="1.0" encoding="iso-8859-1"?>
<!-- Generator: Adobe Illustrator 19.0.0, SVG Export Plug-In . SVG Version: 6.00 Build 0)  -->
<svg version="1.1" id="Layer_1" xmlns="http://www.w3.org/2000/svg" xmlns:xlink="http://www.w3.org/1999/xlink" x="0px" y="0px"
	 viewBox="0 0 512 512" style="enable-background:new 0 0 512 512;" xml:space="preserve">
<g>
	<path style="fill:#05232E;" d="M395.125,105.125c-9.22,0-16.695,7.474-16.696,16.695l16.719,14.495l16.672-14.494
		C411.82,112.6,404.345,105.125,395.125,105.125z"/>
	<path style="fill:#05232E;" d="M33.39,221.724C15.026,221.724,0,236.751,0,255.115v43.194h85.705L33.39,221.724z"/>
</g>
<g>
	<polygon style="fill:#325763;" points="322.776,295.513 322.776,406.875 378.428,406.875 378.424,328.91 	"/>
	<path style="fill:#325763;" d="M478.609,150.653h-22.951l-43.837-28.831l-33.391-0.001c0-9.219-7.475-16.695-16.696-16.695
		c-9.219,0-16.693,7.473-16.696,16.692l0.007,101.904c36.883,0,100.167-5.768,100.167,31.114h33.397
		c18.365,0,33.391-15.026,33.391-33.391v-37.402C512,165.679,496.974,150.653,478.609,150.653z"/>
</g>
<g>
	<path style="fill:#FB5858;" d="M378.429,188.054l-45.628,66.783h112.411C445.212,217.954,415.312,188.054,378.429,188.054z"/>
	<polygon style="fill:#FB5858;" points="289.386,328.91 378.424,328.91 378.424,295.519 265.177,271.311 	"/>
</g>
<path style="fill:#FBB071;" d="M89.045,328.91h144.683l20.044-53.435c0,0-119.092-0.553-164.727,0.003
	C89.045,298.296,89.045,317.217,89.045,328.91z"/>
<polygon style="fill:#05232E;" points="233.728,121.817 162.505,200.348 233.728,295.519 233.734,406.875 289.386,406.875 
	289.386,295.519 378.424,295.519 378.424,121.817 "/>
<path style="fill:#325763;" d="M133.298,121.817c-54.904,0-99.832,44.881-99.909,99.769c0,0.047,0,0.092,0,0.138v185.15h55.656
	V328.91c18.364,0,33.391-15.027,33.391-33.391h111.292V121.817L133.298,121.817L133.298,121.817z"/>
<g>
	<rect x="166.945" y="228.73" style="fill:#05232E;" width="33.391" height="33.391"/>
	<rect x="100.161" y="195.339" style="fill:#05232E;" width="33.391" height="33.391"/>
</g>
</svg>
