<?xml version="1.0" encoding="iso-8859-1"?>
<!-- Generator: Adobe Illustrator 19.0.0, SVG Export Plug-In . SVG Version: 6.00 Build 0)  -->
<svg version="1.1" id="Layer_1" xmlns="http://www.w3.org/2000/svg" xmlns:xlink="http://www.w3.org/1999/xlink" x="0px" y="0px"
	 viewBox="0 0 512 512" style="enable-background:new 0 0 512 512;" xml:space="preserve">
<path style="fill:#325763;" d="M122.435,374.226v98.817l20.405,23.745l18.551-23.745v-94.609c38.411,0,73.029-16.22,97.395-42.178
	l-82.554-82.113C162.875,286.052,140.614,337.995,122.435,374.226z"/>
<path style="fill:#8F5543;" d="M372.87,294.214v178.829l20.035,24.487l18.922-24.487V292.802
	C398.099,292.802,389.195,294.214,372.87,294.214z"/>
<rect x="122.435" y="473.043" style="fill:#05232E;" width="38.957" height="38.957"/>
<path style="fill:#8F5543;" d="M402.551,87.188l53.797-42.666V0c-9.888,0-18.768,4.301-24.882,11.13h2.621L402.551,87.188z"/>
<g>
	<path style="fill:#05232E;" d="M408.487,84.962c0,0-18.551-61.588-21.543-73.832h-29.146l-94.92,169.501l48.404,46.801
		L408.487,84.962z"/>
	<polygon style="fill:#05232E;" points="434.087,68.638 434.087,11.13 411.826,11.13 387.339,69.009 	"/>
</g>
<path style="fill:#C97E67;" d="M512,44.522H411.826V0c-9.888,0-18.768,4.301-24.882,11.13c-5.289,5.908-8.509,13.707-8.509,22.261
	v11.13l-77.913,139.13l-37.644-3.021L222.61,177.4l-84.963,67.469c20.777,27.826,37.843,50.829,59.521,78.415l61.619,12.973
	l41.735,8.786v128l19.664,25.229l19.292-25.229V339.732c11.808-3.292,23.008-8.044,33.391-14.051
	c14.858-8.596,28.045-19.758,38.957-32.879c20.848-25.072,33.391-57.297,33.391-92.454V100.174L512,89.043V44.522z"/>
<rect x="372.87" y="473.043" style="fill:#05232E;" width="38.957" height="38.957"/>
<rect x="300.522" y="473.043" style="fill:#325763;" width="38.957" height="38.957"/>
<path style="fill:#05232E;" d="M95.645,205.35H50.087C22.424,205.35,0,227.774,0,255.437v105.739
	c27.66,0,50.087-22.427,50.087-50.087v-55.652h38.957l27.826-25.779C111.675,220.753,104.255,214.075,95.645,205.35z"/>
<path style="fill:#8F5543;" d="M197.168,323.285c15.998-22.022,25.441-49.113,25.441-78.415v-67.47l-66.986-5.237
	c-26.312-2.057-49.187,11.67-59.979,33.188c-4.226,8.428-6.6,18.051-6.6,28.389v108.522H50.087v130.783l20.035,25.971l18.922-25.971
	v-94.609c11.53,0,22.718-1.461,33.391-4.208C152.92,366.381,179.186,348.036,197.168,323.285z"/>
<rect x="50.087" y="473.043" style="fill:#05232E;" width="38.957" height="38.957"/>
<g>
</g>
<g>
</g>
<g>
</g>
<g>
</g>
<g>
</g>
<g>
</g>
<g>
</g>
<g>
</g>
<g>
</g>
<g>
</g>
<g>
</g>
<g>
</g>
<g>
</g>
<g>
</g>
<g>
</g>
</svg>
