<?xml version="1.0" encoding="iso-8859-1"?>
<!-- Generator: Adobe Illustrator 19.0.0, SVG Export Plug-In . SVG Version: 6.00 Build 0)  -->
<svg version="1.1" id="Layer_1" xmlns="http://www.w3.org/2000/svg" xmlns:xlink="http://www.w3.org/1999/xlink" x="0px" y="0px"
	 viewBox="0 0 512 512" style="enable-background:new 0 0 512 512;" xml:space="preserve">
<g>
	<path style="fill:#4AD0FF;" d="M300.522,237.078l-122.435,41.183c0,24.588,19.934,44.522,44.522,44.522h77.913V237.078z"/>
	<path style="fill:#4AD0FF;" d="M300.151,150.261L89.043,189.217c0,24.588,19.933,44.522,44.522,44.522l167.327,44.151
		C300.892,249.692,300.151,169.553,300.151,150.261z"/>
	<path style="fill:#4AD0FF;" d="M261.565,144.696c0-24.589-19.934-44.522-44.522-44.522H0c0,24.589,19.933,44.522,44.522,44.522
		l217.786,87.188L261.565,144.696z"/>
</g>
<g>
	<path style="fill:#16A5D9;" d="M300.151,233.739H133.565c0,24.588,19.933,44.522,44.522,44.522h122.435
		C300.522,266.76,300.151,253.403,300.151,233.739z"/>
	<path style="fill:#16A5D9;" d="M189.217,144.696H44.522c0,24.588,19.933,44.522,44.522,44.522h212.591
		C267.501,176.974,189.217,144.696,189.217,144.696z"/>
</g>
<path style="fill:#99E5FF;" d="M189.217,166.957c0,7.624,0.768,15.068,2.228,22.261c3.339,16.449,10.305,31.579,20.027,44.522
	c20.306,27.034,52.635,44.522,89.048,44.522l75.316-72.348l-75.315-61.217H189.217V166.957z"/>
<path style="fill:#325763;" d="M478.609,83.478h-69.335c-24.533,11.13-79.442,33.391-79.442,33.391H512
	C512,98.429,497.051,83.478,478.609,83.478z"/>
<path style="fill:#4AD0FF;" d="M344.673,87.188c0,0,0.371,150.631,0.371,188.167v38.157c39.308-17.177,66.783-56.393,66.783-102.034
	V116.87L344.673,87.188z"/>
<path style="fill:#16A5D9;" d="M409.274,83.478c-7.092-22.578-28.182-38.957-53.1-38.957c-30.736,0-55.652,24.917-55.652,55.652
	v322.783c0,24.588,19.934,44.522,44.522,44.522V275.355c20.166-14.093,33.391-37.462,33.391-63.876V116.87h33.391v-16.696
	C411.826,94.356,410.93,88.749,409.274,83.478z"/>
<g>
</g>
<g>
</g>
<g>
</g>
<g>
</g>
<g>
</g>
<g>
</g>
<g>
</g>
<g>
</g>
<g>
</g>
<g>
</g>
<g>
</g>
<g>
</g>
<g>
</g>
<g>
</g>
<g>
</g>
</svg>
