<?xml version="1.0" encoding="iso-8859-1"?>
<!-- Generator: Adobe Illustrator 19.0.0, SVG Export Plug-In . SVG Version: 6.00 Build 0)  -->
<svg version="1.1" id="Layer_1" xmlns="http://www.w3.org/2000/svg" xmlns:xlink="http://www.w3.org/1999/xlink" x="0px" y="0px"
	 viewBox="0 0 512 512" style="enable-background:new 0 0 512 512;" xml:space="preserve">
<g>
	<path style="fill:#8F5543;" d="M453.565,66.783v-11.13C453.565,24.917,428.649,0,397.913,0v66.783l28.383,18.551L453.565,66.783z"
		/>
	<path style="fill:#8F5543;" d="M80.696,319.073V512h38.957v-89.308c55.938,0,104.103-33.279,125.778-81.117l-80.255-21.76
		C139.13,319.814,116.87,319.073,80.696,319.073z"/>
	<path style="fill:#8F5543;" d="M47.304,308.477c-21.515,0-38.957,17.441-38.957,38.957v31.002l53.119,14.591
		C61.747,391.141,47.304,308.477,47.304,308.477z"/>
</g>
<path style="fill:#FBB071;" d="M185.322,165.771l-90.947,57.364c-25.889,16.329-47.071,54.733-47.071,85.342v69.958H8.348V512
	h38.957v-89.308c11.516,0,22.698-1.419,33.391-4.076c35.655-8.86,65.833-31.576,84.48-62.11
	c26.638-33.723,62.256-70.082,92.68-107.925L185.322,165.771z"/>
<rect x="118.539" y="251.281" style="fill:#8F5543;" width="33.391" height="33.391"/>
<path style="fill:#05232E;" d="M466.098,85.971l-36.834,32.158l16.276,42.594l36.998-12.333
	c11.609-3.862,21.114-17.052,21.114-29.295V89.043L466.098,85.971z"/>
<path style="fill:#C97E67;" d="M453.565,66.783h-55.652v-11.13C397.913,24.917,372.996,0,342.261,0v66.783l-156.939,98.989v118.903
	c0,26.313-7.366,50.905-20.146,71.831l80.255-14.931l41.178-7.661V512h38.957V333.913h33.391V512h38.957V333.913l47.627-173.19
	l20.558-74.752L453.565,66.783z"/>
<g>
	<rect x="218.713" y="255.755" style="fill:#05232E;" width="33.391" height="33.391"/>
	<rect x="285.496" y="222.364" style="fill:#05232E;" width="33.391" height="33.391"/>
</g>
</svg>
