<?xml version="1.0" encoding="iso-8859-1"?>
<!-- Generator: Adobe Illustrator 19.0.0, SVG Export Plug-In . SVG Version: 6.00 Build 0)  -->
<svg version="1.1" id="Layer_1" xmlns="http://www.w3.org/2000/svg" xmlns:xlink="http://www.w3.org/1999/xlink" x="0px" y="0px"
	 viewBox="0 0 512 512" style="enable-background:new 0 0 512 512;" xml:space="preserve">
<path style="fill:#99E5FF;" d="M216.301,173.264l-48.142,15.953c0,9.104,4.372,17.184,11.13,22.261
	c-6.758,5.077-11.13,13.157-11.13,22.261s4.372,17.184,11.13,22.261c-6.758,5.077-11.13,13.157-11.13,22.261
	c0,9.104,4.372,17.185,11.13,22.261c-6.758,5.075-11.13,13.157-11.13,22.261s4.372,17.185,11.13,22.261
	c-6.758,5.075-11.13,13.157-11.13,22.261c0,9.104,4.372,17.185,11.13,22.261c-6.758,5.076-11.13,13.157-11.13,22.261
	c0,9.104,4.372,17.185,11.13,22.261c-6.758,5.075-11.13,13.157-11.13,22.261c0,15.368,12.458,27.826,27.826,27.826L216.301,173.264z
	"/>
<path style="fill:#4AD0FF;" d="M316.015,484.174c15.368,0,27.826-12.458,27.826-27.826c0-9.104-4.372-17.185-11.13-22.261
	c6.758-5.075,11.13-13.157,11.13-22.261c0-9.104-4.372-17.185-11.13-22.261c6.758-5.075,11.13-13.157,11.13-22.261
	c0-9.104-4.372-17.185-11.13-22.261c6.758-5.075,11.13-13.157,11.13-22.261s-4.372-17.185-11.13-22.261
	c6.758-5.075,11.13-13.157,11.13-22.261c0-9.104-4.372-17.184-11.13-22.261c6.758-5.077,11.13-13.157,11.13-22.261
	s-4.372-17.184-11.13-22.261c6.758-5.077,11.13-13.157,11.13-22.261l-50.369-15.953L316.015,484.174z"/>
<path style="fill:#16A5D9;" d="M358.99,19.667C328.515,7.146,293.387,0,256,0l-30.052,72.348
	C263.335,72.348,334.284,48.603,358.99,19.667z"/>
<g>
	<path style="fill:#4AD0FF;" d="M256,0c-37.387,0-72.515,7.146-102.99,19.667C173.264,47.861,218.613,73.832,256,73.832V0z"/>
	<path style="fill:#4AD0FF;" d="M44.41,155.826v267.13h30.887V189.217h30.987v267.13h30.887v-267.13h58.813V512
		c24.588,0,44.522-19.932,44.522-44.522V189.217H256l35.247-80.51L44.41,155.826z"/>
</g>
<path style="fill:#16A5D9;" d="M256,111.675v77.542h15.494v278.261c0,24.589,19.934,44.522,44.522,44.522V189.217h58.813v267.13
	h30.887v-267.13h30.987v233.739h30.887v-267.13L256,111.675z"/>
<path style="fill:#4AD0FF;" d="M199.235,39.699L256,155.826h211.59c0-46.492-27.648-88.22-71.491-116.781
	C370.643,39.046,239.627,39.699,199.235,39.699z"/>
<g>
	<path style="fill:#99E5FF;" d="M256,72.726c40.392,0,80.395-7.669,115.69-22.172c8.493-3.495,16.629-7.335,24.409-11.509
		c-11.353-7.391-23.786-13.902-37.109-19.378C328.515,32.2,293.387,39.335,256,39.335l-24.116,15.947L256,72.726z"/>
	<path style="fill:#99E5FF;" d="M256,38.957c-40.392,0-117.612,0.089-140.099,0.089C72.058,67.606,44.41,109.334,44.41,155.826H256
		V38.957z"/>
</g>
<path style="fill:#FFFFFF;" d="M256,72.726V39.335c-37.387,0-72.515-7.135-102.99-19.667c-13.323,5.476-25.756,11.987-37.109,19.378
	c7.78,4.174,15.917,8.014,24.409,11.509C175.605,65.057,215.608,72.726,256,72.726z"/>
<g>
</g>
<g>
</g>
<g>
</g>
<g>
</g>
<g>
</g>
<g>
</g>
<g>
</g>
<g>
</g>
<g>
</g>
<g>
</g>
<g>
</g>
<g>
</g>
<g>
</g>
<g>
</g>
<g>
</g>
</svg>
