<?xml version="1.0" encoding="iso-8859-1"?>
<!-- Generator: Adobe Illustrator 19.0.0, SVG Export Plug-In . SVG Version: 6.00 Build 0)  -->
<svg version="1.1" id="Layer_1" xmlns="http://www.w3.org/2000/svg" xmlns:xlink="http://www.w3.org/1999/xlink" x="0px" y="0px"
	 viewBox="0 0 512 512" style="enable-background:new 0 0 512 512;" xml:space="preserve">
<g>
	<path style="fill:#F6D76F;" d="M387.896,273.252l24.323,127.952h33.391V273.2C426.296,273.2,409.043,273.252,387.896,273.252z"/>
	<path style="fill:#F6D76F;" d="M458.661,33.391C458.661,15.027,443.634,0,425.269,0v99.061h33.391V33.391z"/>
	<path style="fill:#F6D76F;" d="M262.678,230.4l-92.917,46.816c-0.028,0.092-0.05,0.186-0.078,0.278
		c-3.797,12.754-5.848,26.26-5.848,40.247c0,3.601,0,105.178,0,105.178c0,24.559-19.981,44.541-44.541,44.541H0V512h119.294
		c49.12,0,89.081-39.962,89.081-89.081c25.614,0,56.15,0,78.915,0l23.249-49.493C296.07,329.461,274.922,271.026,262.678,230.4z"/>
</g>
<g>
	<path style="fill:#FBB071;" d="M319.443,257.113l-91.056,20.103c-3.361,8.545-5.228,17.841-5.228,27.578
		c0,37.809,27.836,69.111,64.13,74.545v43.58V512h158.32c0-18.364-15.027-33.391-33.391-33.391h-91.538V376.868v-1.215v-15.115
		C320.681,314.711,319.443,309.983,319.443,257.113z"/>
	<path style="fill:#FBB071;" d="M412.383,224.278l-86.261-0.557l-0.557,88.487c0,26.157,15.583,28.439,53.176,28.439
		c0.028,0,0.055,0.002,0.082,0.002v60.886h33.396v-94.251L412.383,224.278z"/>
</g>
<path style="fill:#FF835D;" d="M484.272,93.984l-25.611-24.947h-33.391h-16.068V33.391C409.202,15.027,394.174,0,375.81,0v98.847
	v0.955l-25.22,77.05h-45.867c-63.723,0-117.564,42.305-134.972,100.36c-0.028,0.094-0.042,0.187-0.068,0.28
	c0.027-0.092,0.05-0.186,0.078-0.278h58.626h8.972c45.827,0,83.322,37.495,83.322,83.322l58.06-19.89
	c-18.327-0.045-33.319-15.052-33.319-33.389v-65.456h33.391l0.007,65.48c0.003,0.001,33.399,0.001,33.399,0.001V328.2
	c19.014-10.801,33.391-33.672,33.391-55.002V138.526L512,127.391V93.984H484.272z"/>
<g>
</g>
<g>
</g>
<g>
</g>
<g>
</g>
<g>
</g>
<g>
</g>
<g>
</g>
<g>
</g>
<g>
</g>
<g>
</g>
<g>
</g>
<g>
</g>
<g>
</g>
<g>
</g>
<g>
</g>
</svg>
