<?xml version="1.0" encoding="iso-8859-1"?>
<!-- Generator: Adobe Illustrator 19.0.0, SVG Export Plug-In . SVG Version: 6.00 Build 0)  -->
<svg version="1.1" id="Layer_1" xmlns="http://www.w3.org/2000/svg" xmlns:xlink="http://www.w3.org/1999/xlink" x="0px" y="0px"
	 viewBox="0 0 512 512" style="enable-background:new 0 0 512 512;" xml:space="preserve">
<path style="fill:#05232E;" d="M173.635,322.783l-1.113,144.696h77.913c0-18.441-14.949-33.391-33.391-33.391h-11.13V323.153
	C196.266,323.153,184.023,322.783,173.635,322.783z"/>
<path style="fill:#C97E67;" d="M161.391,304.603v46.005c0,9.104,4.372,17.185,11.13,22.261c4.65,3.494,10.431,5.565,16.696,5.565
	c6.264,0,12.045-2.071,16.696-5.565c6.758-5.077,11.13-13.158,11.13-22.261v-45.264
	C217.043,305.345,170.296,304.603,161.391,304.603z"/>
<path style="fill:#8F5543;" d="M139.13,434.087H128V319.443c-10.388,0-24.487,0-33.391,0v148.035h77.913
	C172.522,449.037,157.572,434.087,139.13,434.087z"/>
<path style="fill:#C97E67;" d="M0,194.783c0,58.996,34.005,110.041,83.478,134.629v21.197c0,9.104,4.372,17.185,11.13,22.261
	c4.65,3.494,10.431,5.565,16.696,5.565s12.045-2.071,16.696-5.565c6.758-5.077,11.13-13.158,11.13-22.261v-5.976
	c3.675,0.269,7.386,0.411,11.13,0.411l134.308-143.583L150.261,44.522C67.275,44.522,0,111.795,0,194.783z"/>
<path style="fill:#05232E;" d="M409.274,267.13H512c0-18.441-14.949-33.391-33.391-33.391h-69.335
	c-10.434,7.049-20.822,11.501-28.985,16.696C389.195,256.371,400.325,263.049,409.274,267.13z"/>
<g>
	<path style="fill:#8F5543;" d="M409.274,233.739c-7.092-22.578-28.182-38.957-53.1-38.957h-55.652
		c0-82.987-67.273-150.261-150.261-150.261v300.522c3.744,0,7.455-0.141,11.13-0.411c6.195-0.454,12.286-1.287,18.249-2.469
		c0,0.009,37.403-7.405,37.403-7.405l150.012-29.735c20.027-3.978,36.187-18.69,42.219-37.894c1.656-5.27,2.552-10.878,2.552-16.696
		C411.826,244.617,410.93,239.009,409.274,233.739z"/>
	<rect x="38.957" y="194.783" style="fill:#8F5543;" width="33.391" height="33.391"/>
	<rect x="83.478" y="239.304" style="fill:#8F5543;" width="33.391" height="33.391"/>
</g>
<rect x="183.652" y="116.87" style="fill:#C97E67;" width="33.391" height="33.391"/>
</svg>
