<?xml version="1.0" encoding="iso-8859-1"?>
<!-- Generator: Adobe Illustrator 19.0.0, SVG Export Plug-In . SVG Version: 6.00 Build 0)  -->
<svg version="1.1" id="Layer_1" xmlns="http://www.w3.org/2000/svg" xmlns:xlink="http://www.w3.org/1999/xlink" x="0px" y="0px"
	 viewBox="0 0 512 512" style="enable-background:new 0 0 512 512;" xml:space="preserve">
<polygon style="fill:#50BF94;" points="415.722,0 369.16,252.661 415.722,512 482.504,512 482.504,0 "/>
<path style="fill:#84D993;" d="M348.939,0v29.628c7.296,10.768,11.56,23.758,11.56,37.744s-4.264,26.977-11.56,37.746v319.695
	l-25.786,63.813L382.33,512h33.391V0H348.939z"/>
<polygon style="fill:#6B8F9C;" points="382.33,458.012 382.33,424.62 348.939,424.62 320.927,458.012 "/>
<polygon style="fill:#05232E;" points="325.379,478.609 348.939,512 382.33,512 382.33,478.609 "/>
<polygon style="fill:#325763;" points="382.33,266.163 382.33,232.772 348.939,232.772 319.443,266.163 "/>
<path style="fill:#05232E;" d="M348.939,286.76v-53.987h-43.414v-103.66c-10.198,0-173.073-0.344-220.468-0.344
	c-2.121,1.386-3.44,2.265-5.653,3.678c-11.187,47.457-34.247,145.646-42.901,185.213c-2.302,10.525-3.125,21.528-3.125,32.722
	C33.379,439.641,105.738,512,194.997,512c0,0,50.243-46.377,110.527-100.562v-91.286h76.806V286.76H348.939z"/>
<path style="fill:#325763;" d="M96.868,0C59.659,0,29.496,30.163,29.496,67.373c0,31.167,21.169,57.38,49.909,65.074
	c1.853,0.496,3.74,0.907,5.653,1.245c14.003-28.695,45.168-80.637,62.115-111.12C134.833,8.727,116.873,0,96.868,0z"/>
<path style="fill:#05232E;" d="M119.209,41.8c-5.978-5.23-13.793-8.409-22.341-8.409c-18.738,0-33.981,15.243-33.981,33.981
	c0,15.214,10.051,28.124,23.863,32.442c8.602-6.319,25.668-17.82,32.717-22.272C119.466,71.977,119.209,50.087,119.209,41.8z"/>
<path style="fill:#6B8F9C;" d="M348.939,29.628C336.825,11.75,316.349,0,293.127,0c-20.005,0-37.965,8.727-50.304,22.573
	c22.081,38.273,42.523,76.094,62.114,111.118c0.196-0.035,0.392-0.069,0.588-0.105c18.012-3.352,33.51-13.854,43.414-28.469
	c7.296-10.768,11.56-23.758,11.56-37.746C360.499,53.386,356.235,40.396,348.939,29.628z"/>
<path style="fill:#05232E;" d="M270.913,41.8c5.978-5.23,13.793-8.409,22.341-8.409c18.738,0,33.981,15.243,33.981,33.981
	c0,15.214-10.051,28.124-23.863,32.442c-8.602-6.319-25.668-17.82-32.718-22.272C270.655,71.977,270.913,50.087,270.913,41.8z"/>
<path style="fill:#6B8F9C;" d="M194.997,11.717c-17.132,0-33.353,3.899-47.825,10.856c-10.311,4.956-19.731,11.469-27.963,19.228
	c-16.201,15.27-27.794,35.376-32.46,58.014c-1.493,7.243-2.28,14.744-2.28,22.429c0,3.866,0.2,7.684,0.588,11.448
	c5.728,55.664,52.763,99.081,109.94,99.081c0,0,82.152-115.161,82.15-115.161L194.997,11.717z"/>
<g>
	<path style="fill:#325763;" d="M303.246,99.814c-4.667-22.638-16.258-42.744-32.46-58.014
		c-8.232-7.759-17.652-14.271-27.962-19.228c-14.473-6.957-30.694-10.856-47.826-10.856v221.055
		c57.177,0,104.212-43.416,109.94-99.081c0.387-3.763,0.588-7.582,0.588-11.448C305.525,114.559,304.739,107.058,303.246,99.814z"/>
	<path style="fill:#325763;" d="M348.939,424.123l-43.414,0.411v-13.096c0-30.521-24.743-55.264-55.264-55.264l-34.702,82.736
		L250.261,512h98.678V424.123z"/>
</g>
<path style="fill:#6B8F9C;" d="M250.261,356.174c-30.521,0-55.264,24.742-55.264,55.264V512h55.264V356.174z"/>
<path style="fill:#05232E;" d="M228.385,165.988v-28.06c0-18.442-14.946-33.389-33.388-33.391c-0.001,0-18.024,21.597-18.024,45.724
	c0,23.279,18.02,49.119,18.02,49.119C213.439,199.377,228.385,184.43,228.385,165.988z"/>
<g>
	<path style="fill:#325763;" d="M194.994,104.537c-18.443,0-33.391,14.948-33.391,33.391v28.06
		c0,18.443,14.948,33.391,33.391,33.391V104.537z"/>
	<rect x="83.69" y="333.523" style="fill:#325763;" width="33.391" height="33.391"/>
	<rect x="128.211" y="378.045" style="fill:#325763;" width="33.391" height="33.391"/>
</g>
<g>
</g>
<g>
</g>
<g>
</g>
<g>
</g>
<g>
</g>
<g>
</g>
<g>
</g>
<g>
</g>
<g>
</g>
<g>
</g>
<g>
</g>
<g>
</g>
<g>
</g>
<g>
</g>
<g>
</g>
</svg>
