<?xml version="1.0" encoding="iso-8859-1"?>
<!-- Generator: Adobe Illustrator 19.0.0, SVG Export Plug-In . SVG Version: 6.00 Build 0)  -->
<svg version="1.1" id="Layer_1" xmlns="http://www.w3.org/2000/svg" xmlns:xlink="http://www.w3.org/1999/xlink" x="0px" y="0px"
	 viewBox="0 0 512 512" style="enable-background:new 0 0 512 512;" xml:space="preserve">
<path style="fill:#FF835D;" d="M417.391,512h38.957V350.299c-9.863,0-35.069,0.208-38.957,0.208V512z"/>
<path style="fill:#FB5858;" d="M166.957,386.816V512h38.957V397.913c39.105,0,74.581-15.519,100.621-40.726l-80.816-46.73
	C220.186,317.459,185.176,363.671,166.957,386.816z"/>
<path style="fill:#FBB071;" d="M414.557,324.188L322.952,189.59L256,200.095l-78.106,53.122
	c15.405,30.353,31.088,60.32,47.825,88.576l80.816,15.393l38.508,7.335V512H384V372.353L414.557,324.188z"/>
<path style="fill:#FF835D;" d="M225.719,341.793C244.697,317.315,256,286.589,256,253.217v-53.122l-144.696,19.731
	c-43.03,0-77.913-34.883-77.913-77.913S68.274,64,111.304,64c7.235-4.452,15.583-10.017,21.704-15.026
	c-2.226-5.565-3.339-11.687-6.615-18.365h-15.09C49.832,30.609,0,80.441,0,141.913c0,61.471,49.832,111.304,111.304,111.304v108.522
	H72.348V512h38.957V397.913c19.722,0,38.519-3.952,55.652-11.097C190.256,377.099,210.466,361.466,225.719,341.793z"/>
<g>
	<path style="fill:#FB5858;" d="M111.304,64h44.522c24.588,0,44.522-19.933,44.522-44.522h-44.522
		c-11.286,0-21.585,4.208-29.432,11.13C117.146,38.767,111.304,50.698,111.304,64z"/>
	<path style="fill:#FB5858;" d="M489.739,63.603V0h-55.652C372.87,0,322.783,50.087,322.783,111.304v77.913l0.169,0.373L384,324.188
		v48.681c11.541,0,22.735-1.557,33.391-4.457c14.083-3.831,27.221-10.02,38.957-18.114C489.897,327.161,512,288.474,512,244.87
		l-22.261-124.025C489.739,103.513,489.739,63.603,489.739,63.603z"/>
</g>
<path style="fill:#FBB071;" d="M512,98.583V73.143l-22.261-9.54l-44.522-19.081h-33.391v76.323h77.913
	C501.983,120.844,512,110.827,512,98.583z"/>
<path style="fill:#FF835D;" d="M393.095,63.253c0,10.345,8.387,18.731,18.731,18.731V44.522
	C401.481,44.522,393.095,52.909,393.095,63.253z"/>
</svg>
