<?xml version="1.0" encoding="iso-8859-1"?>
<!-- Generator: Adobe Illustrator 19.0.0, SVG Export Plug-In . SVG Version: 6.00 Build 0)  -->
<svg version="1.1" id="Layer_1" xmlns="http://www.w3.org/2000/svg" xmlns:xlink="http://www.w3.org/1999/xlink" x="0px" y="0px"
	 viewBox="0 0 512 512" style="enable-background:new 0 0 512 512;" xml:space="preserve">
<g>
	<polygon style="fill:#B9F291;" points="106.808,105.174 106.808,55.367 73.416,55.367 73.416,138.565 200.348,135.791 
		144.432,105.174 	"/>
	<polygon style="fill:#B9F291;" points="101.242,263.889 101.242,344.097 73.416,344.097 73.416,377.489 134.634,377.489 
		134.634,304.659 151.174,307.968 189.217,291.617 150.035,273.693 	"/>
</g>
<g>
	<polygon style="fill:#84D993;" points="265.505,304.659 265.505,377.489 326.723,377.489 326.723,344.097 298.897,344.097 
		298.897,263.889 250.105,273.693 217.043,292.73 248.966,307.957 	"/>
	<polygon style="fill:#84D993;" points="326.723,138.565 326.723,55.367 293.331,55.367 293.331,105.174 255.708,105.174 
		202.574,138.565 	"/>
</g>
<path style="fill:#50BF94;" d="M421.468,183.894c-33.622,0-60.975,27.353-60.975,60.976v161.874
	c0,39.627-32.238,71.865-71.864,71.865c-39.627,0-71.865-32.239-71.865-71.865v-48.711l32.2-50.076l1.139-34.263l4.492-135.128
	l1.11-33.391l1.105-33.238c0-12.299-3.629-23.741-9.873-33.323L221.818,0H200.07l-36.452,165.843l19.757,192.189v48.711
	c0,58.04,47.218,105.256,105.256,105.256c58.037,0,105.255-47.218,105.255-105.256V244.87c0-15.211,12.374-27.585,27.583-27.585
	h17.115v-33.391H421.468z"/>
<path style="fill:#84D993;" d="M200.07,358.033V0h-21.749l-25.121,38.611c-6.244,9.582-9.873,21.025-9.873,33.323l1.105,33.238
	l1.11,33.391l4.492,135.128l1.14,34.275l32.2,50.064h16.696V358.033z"/>
</svg>
