<?xml version="1.0" encoding="iso-8859-1"?>
<!-- Generator: Adobe Illustrator 19.0.0, SVG Export Plug-In . SVG Version: 6.00 Build 0)  -->
<svg version="1.1" id="Layer_1" xmlns="http://www.w3.org/2000/svg" xmlns:xlink="http://www.w3.org/1999/xlink" x="0px" y="0px"
	 viewBox="0 0 511.999 511.999" style="enable-background:new 0 0 511.999 511.999;" xml:space="preserve">
<path style="fill:#6B8F9C;" d="M476.823,178.257c28.45-28.45,40.722-69.026,32.827-108.543l-32.745,6.541
	c5.704,28.546-3.153,57.851-23.694,78.39c-2.852,2.853-5.729,5.348-8.9,7.702l-6.886,32.434l30.669-8.653
	C471.119,183.67,474.006,181.075,476.823,178.257z"/>
<path style="fill:#16A5D9;" d="M357.354,58.786c20.54-20.538,49.844-29.393,78.389-23.693l6.542-32.743
	c-39.514-7.895-80.092,4.376-108.544,32.826c-2.818,2.818-5.414,5.707-7.871,8.731l-7.541,30.668l31.322-6.886
	C352.006,64.517,354.501,61.64,357.354,58.786z"/>
<path style="fill:#6B8F9C;" d="M325.77,43.807C233.02,6.48,122.922,25.393,47.769,100.546l206.005,205.54L325.77,43.807z"/>
<path style="fill:#325763;" d="M467.228,186.835l-11.874,7.397l-251.666,60.654l207.765,209.342
	c75.155-75.154,94.066-185.252,56.745-277.999L467.228,186.835z"/>
<path style="fill:#16A5D9;" d="M468.194,186.228l-71.211-71.211c0,0-169.921,149.887-227.632,204.019L0,488.388l23.611,23.611
	L192.96,342.649c9.966,3.141,21.018,1.906,30.133-3.733l38.848-24.194l193.41-120.492l11.9-7.413L468.194,186.228z"/>
<path style="fill:#4AD0FF;" d="M396.983,115.018l-47.33-47.331l-23.881-23.88L197.28,250.057
	c-0.001,0.001-24.202,38.841-24.179,38.865c-5.654,9.1-6.893,20.149-3.751,30.116c1.694,5.377,4.643,10.444,8.907,14.707
	L396.983,115.018z"/>
</svg>
