<?xml version="1.0" encoding="iso-8859-1"?>
<!-- Generator: Adobe Illustrator 19.0.0, SVG Export Plug-In . SVG Version: 6.00 Build 0)  -->
<svg version="1.1" id="Layer_1" xmlns="http://www.w3.org/2000/svg" xmlns:xlink="http://www.w3.org/1999/xlink" x="0px" y="0px"
	 viewBox="0 0 512 512" style="enable-background:new 0 0 512 512;" xml:space="preserve">
<g>
	<path style="fill:#05232E;" d="M490.914,272.696h-22.115l-108.483-88.523c-34.512-28.149-78.57-45.043-126.578-45.043
		l-23.188,145.623c0,0,132.638,41.368,186.187,54.725h26.219C450.783,313.508,458.605,305.005,490.914,272.696z"/>
	<path style="fill:#05232E;" d="M211.108,165.101L67.139,228.174c-15.425,23.042-26.195,49.461-30.972,77.913H0v33.391h211.478
		C211.478,278.006,211.108,236.336,211.108,165.101z"/>
</g>
<path style="fill:#325763;" d="M267.13,261.565h-33.391V139.13c-69.156,0-130.128,35.039-166.132,88.331
	c0.217,0.24,0.412,0.473,0.624,0.712h31.942c61.472,0,111.304,49.832,111.304,111.304h22.734
	c4.975,19.147,23.402,33.391,44.049,33.391h44.522c18.179-20.035,26.342-28.939,44.522-44.522c0.479-0.411,1.257,0.022,1.881,0.048
	C352.019,289.062,312.79,261.565,267.13,261.565z"/>
<g>
	<path style="fill:#FB5858;" d="M367.304,328.348c-24.589,0-44.522,19.934-44.522,44.522h89.043c0-13.302-5.84-25.233-15.09-33.391
		c-7.408-6.536-17.004-10.644-27.552-11.083C368.561,328.37,367.935,328.348,367.304,328.348z"/>
	<path style="fill:#FB5858;" d="M490.914,272.696c-38.058,0-67.958,29.9-67.958,66.783h21.085c38.058,0,67.958-29.9,67.958-66.783
		H490.914z"/>
</g>
<g>
</g>
<g>
</g>
<g>
</g>
<g>
</g>
<g>
</g>
<g>
</g>
<g>
</g>
<g>
</g>
<g>
</g>
<g>
</g>
<g>
</g>
<g>
</g>
<g>
</g>
<g>
</g>
<g>
</g>
</svg>
