<?xml version="1.0" encoding="iso-8859-1"?>
<!-- Generator: Adobe Illustrator 19.0.0, SVG Export Plug-In . SVG Version: 6.00 Build 0)  -->
<svg version="1.1" id="Layer_1" xmlns="http://www.w3.org/2000/svg" xmlns:xlink="http://www.w3.org/1999/xlink" x="0px" y="0px"
	 viewBox="0 0 512 512" style="enable-background:new 0 0 512 512;" xml:space="preserve">
<path style="fill:#325763;" d="M144.696,322.783V94.609c0-39.956-32.391-72.348-72.348-72.348l-12.8,17.809l12.8,15.583
	c21.515,0,38.957,17.441,38.957,38.957v228.174c0,18.441,14.949,33.391,33.391,33.391c12.999-11.854,23.42-20.671,39.05-33.391
	H144.696z"/>
<path style="fill:#05232E;" d="M0,94.609c0,9.22,7.475,16.696,16.696,16.696s16.696-7.475,16.696-16.696
	c0-21.515,17.441-38.957,38.957-38.957V22.261C32.392,22.261,0,54.653,0,94.609z"/>
<path style="fill:#325763;" d="M456.348,317.774c0,21.515,0,21.907,0,38.4h16.696c21.515,0,38.957-17.441,38.957-38.957
	L456.348,317.774z"/>
<path style="fill:#6B8F9C;" d="M495.304,317.217c0-21.515-17.441-38.957-38.957-38.957l-27.421,41.229l27.421,36.684
	C477.863,356.174,495.304,338.732,495.304,317.217z"/>
<g>
	<path style="fill:#325763;" d="M386.751,278.261c0,31.673-0.089,48.835-0.089,77.913h69.685v-77.913H386.751z"/>
	<path style="fill:#325763;" d="M289.391,445.217c0,24.588,19.933,44.522,44.522,44.522h22.261c0-12.295-9.966-22.261-22.261-22.261
		V322.504h-44.522V445.217z"/>
</g>
<path style="fill:#F6D76F;" d="M343.374,313.322l-96.696,0.139c0,12.169,0.365,27.965,0.365,42.713h120.261
	C367.304,337.733,361.816,313.322,343.374,313.322z"/>
<path style="fill:#6B8F9C;" d="M278.261,222.609c-33.88,0-64.807,12.621-88.353,33.409c-0.23-0.002-0.459-0.018-0.69-0.018
	l-0.102,0.721c-19.306,17.317-33.546,40.168-40.211,66.061c-2.747,10.673-4.208,21.861-4.208,33.391v89.043
	c0,24.588,19.933,44.522,44.522,44.522h22.261c0-12.295-9.966-22.261-22.261-22.261v-77.913c24.715,0,46.277-13.436,57.826-33.391
	c5.685-9.825,8.957-21.222,8.957-33.391h77.913c18.442,0,33.391,14.95,33.391,33.391v89.043c0,24.588,19.934,44.522,44.522,44.522
	h22.261c0-12.295-9.966-22.261-22.261-22.261V356.174c0-29.078-9.297-55.983-25.075-77.913
	C362.505,244.559,322.948,222.609,278.261,222.609z"/>
<path style="fill:#FBB071;" d="M434.087,322.783v-33.391c-9.22,0-16.696,7.475-16.696,16.696S424.866,322.783,434.087,322.783z"/>
</svg>
