<?xml version="1.0" encoding="iso-8859-1"?>
<!-- Generator: Adobe Illustrator 19.0.0, SVG Export Plug-In . SVG Version: 6.00 Build 0)  -->
<svg version="1.1" id="Layer_1" xmlns="http://www.w3.org/2000/svg" xmlns:xlink="http://www.w3.org/1999/xlink" x="0px" y="0px"
	 viewBox="0 0 512 512" style="enable-background:new 0 0 512 512;" xml:space="preserve">
<path style="fill:#325763;" d="M425.739,66.783h11.13c18.441,0,33.391-14.95,33.391-33.391V0H436.87v22.261h-33.391l-14.866,45.023
	C399.064,67.283,425.739,66.783,425.739,66.783z"/>
<path style="fill:#6B8F9C;" d="M403.512,53.031l-11.182,57.815l33.442-21.802V44.522C417.219,44.522,409.42,47.742,403.512,53.031z"
	/>
<path style="fill:#325763;" d="M58.435,222.609c-18.442,0-33.391,14.95-33.391,33.391v44.522c18.44,0,33.391-14.952,33.391-33.391
	c10.203-4.082,15.397-7.049,26.527-12.243c-3.71-9.647-6.678-20.035-9.403-32.278H58.435z"/>
<g>
	<path style="fill:#05232E;" d="M378.805,122.805l24.673-33.762V0h-33.391v22.261h-33.391V0h-33.391v22.261h-33.391V0h-33.391
		v33.391c0,18.441,14.95,33.391,33.391,33.391h79.821C355.061,84.962,378.805,122.805,378.805,122.805z"/>
	<path style="fill:#05232E;" d="M314.435,512h33.391V344.557c-10.574,0-20.221,0.116-33.391,0.116V512z"/>
	<path style="fill:#05232E;" d="M163.032,280.858c-27.611,19.293-43.936,30.424-71.206,48.233V512h33.391V378.435
		c33.297,0,63.747-12.183,87.137-32.336L163.032,280.858z"/>
</g>
<path style="fill:#6B8F9C;" d="M163.032,327.927c28.041-20.356,54.012-39.649,93.339-70.072L192,200.348h-66.783
	c-19.665,0-37.409,8.619-49.658,22.261c-10.631,11.838-17.124,27.455-17.124,44.522v80.696H25.043v130.783l16.882,19.664
	l16.51-19.664V378.435c11.53,0,22.718-1.461,33.391-4.208C120.373,366.879,145.222,350.327,163.032,327.927z"/>
<rect x="25.043" y="478.609" style="fill:#325763;" width="33.391" height="33.391"/>
<g>
	<path style="fill:#6B8F9C;" d="M260.082,333.36l20.962,33.523c11.566-0.879,22.745-3.129,33.391-6.568
		c11.874-3.837,23.081-9.157,33.391-15.757c40.162-25.714,66.783-70.722,66.783-121.948v-80.843l-53.612,0.333
		C360.997,142.099,282.156,283.826,260.082,333.36z"/>
	<path style="fill:#6B8F9C;" d="M270.118,302.024c-15.006-1.808-57.762-1.132-57.762,44.074l35.298,13.005L270.118,302.024z"/>
</g>
<polygon style="fill:#05232E;" points="247.652,512 281.043,512 281.043,478.609 264.534,460.429 247.652,478.609 "/>
<path style="fill:#325763;" d="M453.565,89.043h-72.348V44.522c-14.537,0-26.899,9.294-31.484,22.261
	c-1.231,3.482-1.908,7.227-1.908,11.13v11.13l-22.261,66.783h-44.522L192,200.348v44.522c0,31.394-10.838,60.256-28.968,83.058
	l49.322,18.172c5.454-14.805,20.291-23.416,35.298-21.61v154.12h33.391V333.36c56.164-5.605,100.174-53.136,100.174-110.751v-73.813
	l33.391-7.03l10.311-2.17c5.837,9.722,16.48,16.23,28.645,16.23c18.442,0,33.391-14.95,33.391-33.391S472.007,89.043,453.565,89.043
	z"/>
</svg>
