<?xml version="1.0" encoding="iso-8859-1"?>
<!-- Generator: Adobe Illustrator 19.0.0, SVG Export Plug-In . SVG Version: 6.00 Build 0)  -->
<svg version="1.1" id="Layer_1" xmlns="http://www.w3.org/2000/svg" xmlns:xlink="http://www.w3.org/1999/xlink" x="0px" y="0px"
	 viewBox="0 0 512 512" style="enable-background:new 0 0 512 512;" xml:space="preserve">
<path style="fill:#FF835D;" d="M460.484,33.391c0.012,0.045,0.026,0.088,0.037,0.132l-66.875,1.508
	c0,9.862,0.742,20.25,0.742,31.751h67.525c18.442,0,33.391-14.95,33.391-33.391H460.484z M460.596,33.51
	C460.797,33.505,460.693,33.507,460.596,33.51L460.596,33.51z"/>
<path style="fill:#FB5858;" d="M449.946,35.032l10.576-1.508c-0.011-0.045-0.026-0.088-0.037-0.132
	C455.479,14.247,438.088,0,417.391,0c-24.588,0-44.522,19.933-44.522,44.522v133.565l23.003,33.762l21.518-33.762V77.913
	c0-3.843,0.487-7.573,1.404-11.13C422.751,51.423,434.702,39.278,449.946,35.032z"/>
<g>
	<path style="fill:#F6D76F;" d="M161.391,345.043v-94.609l-55.652,38.957C105.739,320.127,130.656,345.043,161.391,345.043z"/>
	<path style="fill:#F6D76F;" d="M72.348,345.043V242.273l-55.652,47.118C16.696,320.128,41.612,345.043,72.348,345.043z"/>
</g>
<path style="fill:#FB5858;" d="M217.043,220.753V512h66.783c0-18.441-14.949-33.391-33.391-33.391v-89.042
	c13.517-10.153,22.261-26.317,22.261-44.523L217.043,220.753z"/>
<polygon style="fill:#F6D76F;" points="372.87,211.478 395.873,255.629 417.391,211.478 417.391,178.087 372.87,178.087 "/>
<path style="fill:#05232E;" d="M372.87,244.87h-18.12c-18.779-58.128-73.327-100.174-137.706-100.174l-26.713,18.174l26.713,15.218
	c0,87.188,17.066,111.304,111.304,111.304h44.522c24.588,0,44.522-19.934,44.522-44.522v-33.391H372.87V244.87z"/>
<path style="fill:#325763;" d="M217.043,178.087v-33.391c-60.191,0-111.792,36.756-133.599,89.043H72.348
	c-30.736,0-55.652,24.917-55.652,55.652h89.043C190.33,289.391,217.043,278.632,217.043,178.087z"/>
<path style="fill:#05232E;" d="M217.043,178.087c-61.472,0-111.304,49.832-111.304,111.304l111.304,37.101l54.168-74.574
	L217.043,178.087z"/>
<path style="fill:#325763;" d="M217.043,178.087v148.405l55.652,18.551c30.736,0,55.652-24.917,55.652-55.652
	C328.348,227.919,278.515,178.087,217.043,178.087z"/>
</svg>
