<?xml version="1.0" encoding="iso-8859-1"?>
<!-- Generator: Adobe Illustrator 19.0.0, SVG Export Plug-In . SVG Version: 6.00 Build 0)  -->
<svg version="1.1" id="Layer_1" xmlns="http://www.w3.org/2000/svg" xmlns:xlink="http://www.w3.org/1999/xlink" x="0px" y="0px"
	 viewBox="0 0 512 512" style="enable-background:new 0 0 512 512;" xml:space="preserve">
<path style="fill:#6B8F9C;" d="M434.087,311.255v33.789c0,24.588,19.933,44.522,44.522,44.522h22.261
	c0-12.295-9.966-22.261-22.261-22.261v-87.93C465.707,289.927,442.093,304.4,434.087,311.255z"/>
<path style="fill:#325763;" d="M55.652,333.913C24.917,333.913,0,358.83,0,389.565h122.435l20.297-28.798l-20.297-26.854H55.652z"/>
<path style="fill:#FAE8AC;" d="M399.922,311.652v33.391c11.433,0,23.248-2.79,34.165-7.881c5.959-2.779,11.656-6.233,16.866-10.318
	c15.957-12.507,25.99-29.567,27.656-47.471c0.169-1.816,0-3.639,0-5.468v-95.818l-76.125,1.388
	C402.483,179.475,399.922,286.879,399.922,311.652z"/>
<path style="fill:#6B8F9C;" d="M122.435,294.957v94.609h111.304c0-13.523-10.963-24.487-24.487-24.487h-8.548
	c8.37-5.821,16.061-12.544,22.94-20.035h131.751l28.807-59.687l-28.807-48.412l-122.902-19.968
	C171.965,207.827,122.435,242.922,122.435,294.957z"/>
<path style="fill:#F6D76F;" d="M500.87,138.017l-22.261-15.583h-33.391L422.289,155.1l22.929,34.117
	c0,0,40.904-13.635,50.087-16.696S512,160.445,512,152.487s0-14.47,0-14.47H500.87z"/>
<path style="fill:#325763;" d="M434.679,122.435c-18.365,0-38.981,13.948-45.813,30.995l-33.471,83.515v108.099
	c0,12.288,4.986,23.418,13.045,31.477c8.058,8.058,19.189,13.045,31.477,13.045h22.261c0-12.299-9.962-22.261-22.261-22.261v-55.652
	c5.781,0,11.853-1.319,17.607-3.666c0.06-0.024,0.121-0.046,0.18-0.07c14.858-6.135,27.513-19.098,27.513-34.007V155.715
	l-9.98-16.611l9.98-16.669H434.679z"/>
<path style="fill:#05232E;" d="M429.635,139.075c0,8.849,6.879,16.061,15.583,16.64v-33.28
	C436.513,123.014,429.635,130.226,429.635,139.075z"/>
<g>
</g>
<g>
</g>
<g>
</g>
<g>
</g>
<g>
</g>
<g>
</g>
<g>
</g>
<g>
</g>
<g>
</g>
<g>
</g>
<g>
</g>
<g>
</g>
<g>
</g>
<g>
</g>
<g>
</g>
</svg>
