<?xml version="1.0" encoding="iso-8859-1"?>
<!-- Generator: Adobe Illustrator 19.0.0, SVG Export Plug-In . SVG Version: 6.00 Build 0)  -->
<svg version="1.1" id="Layer_1" xmlns="http://www.w3.org/2000/svg" xmlns:xlink="http://www.w3.org/1999/xlink" x="0px" y="0px"
	 viewBox="0 0 512 512" style="enable-background:new 0 0 512 512;" xml:space="preserve">
<g>
	<path style="fill:#05232E;" d="M389.565,94.609v-8.348c0-13.831-11.213-25.043-25.043-25.043
		c-13.831,0-25.043,11.213-25.043,25.043v8.348l25.971,13.727L389.565,94.609z"/>
	<path style="fill:#05232E;" d="M473.043,86.261c0-13.831-11.213-25.043-25.043-25.043c-13.831,0-25.043,11.213-25.043,25.043v8.348
		l25.6,13.727l24.487-13.727V86.261z"/>
</g>
<path style="fill:#FAE8AC;" d="M389.565,94.609l-61.217,78.284l61.217,105.729l94.767-64.032
	C499.549,204.308,512,179.757,512,161.391V94.609H389.565z"/>
<path style="fill:#6B8F9C;" d="M0,450.783c61.472,0,111.304-49.833,111.304-111.304L56.023,307.2L0,339.478V450.783z"/>
<g>
	<path style="fill:#05232E;" d="M389.565,450.783h44.522c0-18.442-14.949-33.391-33.391-33.391h-11.13v-77.913l-53.055-36.73
		l-58.249,36.73C278.261,400.949,328.094,450.783,389.565,450.783z"/>
	<path style="fill:#05232E;" d="M256,450.783h44.522c0-18.442-14.949-33.391-33.391-33.391H256v-77.913l-53.055-41.183
		l-58.249,41.183C144.696,400.949,194.528,450.783,256,450.783z"/>
</g>
<path style="fill:#FDF3D3;" d="M111.304,94.609C50.087,94.609,0,144.696,0,205.913v133.565h278.261l59.734-113.901L278.261,94.609
	H111.304z"/>
<g>
	<rect x="178.087" y="128" style="fill:#FFFFFF;" width="33.391" height="33.391"/>
	<rect x="178.087" y="194.783" style="fill:#FFFFFF;" width="33.391" height="33.391"/>
	<rect x="77.913" y="239.304" style="fill:#FFFFFF;" width="33.391" height="33.391"/>
</g>
<rect x="278.261" y="94.609" style="fill:#325763;" width="111.304" height="244.87"/>
</svg>
