<?xml version="1.0" encoding="iso-8859-1"?>
<!-- Generator: Adobe Illustrator 19.0.0, SVG Export Plug-In . SVG Version: 6.00 Build 0)  -->
<svg version="1.1" id="Layer_1" xmlns="http://www.w3.org/2000/svg" xmlns:xlink="http://www.w3.org/1999/xlink" x="0px" y="0px"
	 viewBox="0 0 512 512" style="enable-background:new 0 0 512 512;" xml:space="preserve">
<path style="fill:#6B8F9C;" d="M100.174,378.563v118.411h38.957V382.887c37.799,0,71.826-16.13,95.588-41.512l-97.395-46.609
	C137.647,295.88,100.296,377.046,100.174,378.563z"/>
<path style="fill:#325763;" d="M172.162,329.604c0.68-0.683,76.818-72.511,76.818-74.275l-52.139-82.655L67.457,190.734
	c-20.562-14.027-34.066-37.636-34.066-64.404c0-43.03,34.883-77.913,77.913-77.913V15.026C49.832,15.026,0,64.858,0,126.33
	c0,45.64,27.474,84.857,66.783,102.034v118.349H27.826v150.261h38.957V382.887c11.544,0,22.735-1.512,33.391-4.324
	C129.537,370.813,154.823,353.131,172.162,329.604z"/>
<path style="fill:#05232E;" d="M489.739,43.011L467.478,23.93H395.13c-12.295,0-22.261,9.967-22.261,22.261
	c0,8.099,4.34,15.166,10.807,19.061l-23.456,84.619l-163.379,22.803v82.655c0,27.482-9.157,53.216-24.678,74.274l62.556,11.77
	l109.212,20.551v135.049h38.957V365.625c11.891-0.701,23.113-3.243,33.391-7.411v138.76h38.957V329.171
	c14.023-17.641,22.261-40.796,22.261-67.594V110.007l13.385-4.462C502.497,101.672,512,88.487,512,76.243V46.191L489.739,43.011z"/>
<g>
</g>
<g>
</g>
<g>
</g>
<g>
</g>
<g>
</g>
<g>
</g>
<g>
</g>
<g>
</g>
<g>
</g>
<g>
</g>
<g>
</g>
<g>
</g>
<g>
</g>
<g>
</g>
<g>
</g>
</svg>
