<?xml version="1.0" encoding="iso-8859-1"?>
<!-- Generator: Adobe Illustrator 19.0.0, SVG Export Plug-In . SVG Version: 6.00 Build 0)  -->
<svg version="1.1" id="Layer_1" xmlns="http://www.w3.org/2000/svg" xmlns:xlink="http://www.w3.org/1999/xlink" x="0px" y="0px"
	 viewBox="0 0 512 512" style="enable-background:new 0 0 512 512;" xml:space="preserve">
<g>
	<path style="fill:#05232E;" d="M137.622,168.301L19.56,286.363c-26.08,26.081-26.08,68.364,0,94.445l65.273-65.273
		c12.419,0.687,24.933-0.941,36.866-4.855c16.206-16.206,57.5-50.598,79.019-68.339
		C182.168,220.753,151.988,182.667,137.622,168.301z"/>
	<path style="fill:#05232E;" d="M492.44,286.363L374.381,168.303c-4.493-40.194-7.771-69.505-7.771-69.505
		C360.384,43.215,313.242,0,255.999,0c0,0-24.116,110.934-62.701,283.084c58.621,102.4,93.496,164.73,120.209,211.478
		c8.756,6.02,17.066,11.873,25.971,17.438h20.927c24.952-25.998,40.29-61.293,40.29-100.174c0-5.497-0.317-10.92-0.915-16.258
		c0.004,0-4.132-37.011-9.483-84.891c11.933,3.917,24.449,5.543,36.868,4.856l65.273,65.273
		C518.52,354.728,518.52,312.444,492.44,286.363z"/>
</g>
<path style="fill:#325763;" d="M202.203,495.304c17.405-81.917,53.747-330.389,53.747-330.389L255.999,0
	c-57.243,0-104.385,43.215-110.601,98.798c-0.002,0-3.281,29.309-7.777,69.503c-4.758,42.544-10.879,97.28-15.922,142.378
	c-5.354,47.879-9.492,84.89-9.492,84.89c-0.587,5.337-0.904,10.76-0.904,16.257c0,38.881,15.338,74.175,40.29,100.174h20.927
	C181.426,507.177,193.445,501.324,202.203,495.304z"/>
<path style="fill:#FAE8AC;" d="M177.503,205.261l9.643-89.489l-30.742,285.265c-0.027,0.246-0.055,0.49-0.079,0.737l-0.026,0.239
	c-0.309,3.228-0.474,6.5-0.474,9.813c0,28.594,11.982,54.39,31.197,72.642c5.373-3.693,11.877-5.859,18.889-5.859
	c17.972,0,32.622,14.2,33.356,31.992c5.442,0.915,11.029,1.399,16.731,1.399l61.96-350.609
	C278.631,173.264,221.495,192.557,177.503,205.261z"/>
<path style="fill:#FDF3D3;" d="M306.086,478.609c7.012,0,13.517,2.166,18.888,5.859c19.217-18.252,31.199-44.048,31.199-72.642
	c0-3.312-0.165-6.585-0.48-9.814c0.004,0-0.021-0.239-0.021-0.239c-0.024-0.246-0.053-0.491-0.079-0.737L334.496,205.26
	c-26.183-3.799-45.476-6.025-78.496-10.477V512c5.702,0,11.29-0.484,16.731-1.399C273.464,492.809,288.114,478.609,306.086,478.609z
	"/>
<path style="fill:#F6D76F;" d="M334.496,205.261l-9.651-89.555l-68.845,49.174l-35.247,30.645l35.247,38.214
	C285.872,233.739,313.242,223.035,334.496,205.261z"/>
<path style="fill:#FBB071;" d="M177.503,205.261c21.254,17.774,48.623,28.478,78.496,28.478v-68.86l-0.051,0.036l-68.802-49.143
	L177.503,205.261z"/>
<path style="fill:#05232E;" d="M205.913,478.609c-7.012,0-13.517,2.166-18.889,5.859c-8.756,6.019-14.502,16.102-14.502,27.532
	h66.783c0-0.469-0.017-0.934-0.036-1.399C238.535,492.809,223.885,478.609,205.913,478.609z"/>
<path style="fill:#325763;" d="M324.975,484.468c-5.372-3.693-11.876-5.859-18.888-5.859c-17.972,0-32.622,14.2-33.356,31.992
	c-0.019,0.465-0.036,0.931-0.036,1.399h66.783C339.478,500.57,333.732,490.487,324.975,484.468z"/>
</svg>
