<?xml version="1.0" encoding="iso-8859-1"?>
<!-- Generator: Adobe Illustrator 19.0.0, SVG Export Plug-In . SVG Version: 6.00 Build 0)  -->
<svg version="1.1" id="Layer_1" xmlns="http://www.w3.org/2000/svg" xmlns:xlink="http://www.w3.org/1999/xlink" x="0px" y="0px"
	 viewBox="0 0 512 512" style="enable-background:new 0 0 512 512;" xml:space="preserve">
<g>
	<path style="fill:#F72349;" d="M478.609,189.217v-77.913c-24.588,0-44.522,19.933-44.522,44.522v12.364l32.216,57.758
		L478.609,189.217z"/>
	<path style="fill:#F72349;" d="M356.174,300.151v139.501h38.957V298.367C383.258,298.367,373.612,300.151,356.174,300.151z"/>
</g>
<path style="fill:#FF835D;" d="M466.303,189.217l-32.216-21.028l-11.13-7.265c0,0-26.342-12.148-41.273-21.795H183.652
	L91.64,222.979c17.067,43.038,34.134,74.946,53.143,114.99l139.043,12.64v89.043h38.957v-94.355
	c11.808-3.292,23.008-8.044,33.391-14.051c14.858-8.596,28.045-19.758,38.957-32.879c3.837-4.615,7.396-9.468,10.644-14.541h38.269
	c38.057,0,67.957-29.9,67.957-66.783v-27.826H466.303z"/>
<path style="fill:#FB5858;" d="M38.957,139.13v-33.391h44.522c0-18.441-14.949-33.391-33.391-33.391h-11.13
	c-18.442,0-33.391,14.95-33.391,33.391v33.391c0,18.441,14.949,33.391,33.391,33.391v172.522H0v94.609h38.957V384
	c41.779,0,79.415-17.714,105.827-46.031c24.109-25.848,38.869-60.531,38.869-98.665V139.13H38.957z"/>
<rect x="83.478" y="261.565" style="fill:#FF835D;" width="33.391" height="33.391"/>
<g>
	<rect x="205.913" y="283.826" style="fill:#F72349;" width="33.391" height="33.391"/>
	<rect x="250.435" y="239.304" style="fill:#F72349;" width="33.391" height="33.391"/>
</g>
<path style="fill:#FB5858;" d="M378.435,189.217h44.522v-77.913c-18.682,0-34.667,11.512-41.273,27.826
	c-2.088,5.157-3.249,10.79-3.249,16.696V189.217z"/>
</svg>
