<?xml version="1.0" encoding="iso-8859-1"?>
<!-- Generator: Adobe Illustrator 19.0.0, SVG Export Plug-In . SVG Version: 6.00 Build 0)  -->
<svg version="1.1" id="Layer_1" xmlns="http://www.w3.org/2000/svg" xmlns:xlink="http://www.w3.org/1999/xlink" x="0px" y="0px"
	 viewBox="0 0 512 512" style="enable-background:new 0 0 512 512;" xml:space="preserve">
<g>
	<path style="fill:#FBB071;" d="M387.181,89.043c-1.385-12.521-11.995-22.261-24.885-22.261c-12.89,0-23.501,9.74-24.885,22.261
		l24.329,16.325L387.181,89.043z"/>
	<path style="fill:#FBB071;" d="M256,445.217h44.522c0-18.442-14.949-33.391-33.391-33.391H256v-77.913l-53.055-37.101
		l-58.249,37.101C144.696,395.384,194.528,445.217,256,445.217z"/>
</g>
<path style="fill:#F6D76F;" d="M456.19,89.043c-1.385-12.521-11.995-22.261-24.885-22.261c-12.89,0-23.501,9.74-24.885,22.261
	H144.696L93.125,212.221l51.571,121.692h133.565c0,61.471,49.833,111.304,111.304,111.304h44.522
	c0-18.442-14.949-33.391-33.391-33.391h-11.13V238.552l94.767-64.032C499.549,164.238,512,140.8,512,122.435V89.043H456.19z"/>
<g>
	<path style="fill:#FAE8AC;" d="M111.304,89.043C50.087,89.043,0,139.13,0,200.348v244.87c61.472,0,111.304-49.833,111.304-111.304
		h33.391V89.043H111.304z"/>
	<rect x="178.087" y="122.435" style="fill:#FAE8AC;" width="33.391" height="33.391"/>
	<rect x="222.609" y="166.957" style="fill:#FAE8AC;" width="33.391" height="33.391"/>
</g>
<rect x="77.913" y="233.739" style="fill:#F6D76F;" width="33.391" height="33.391"/>
</svg>
