<?xml version="1.0" encoding="iso-8859-1"?>
<!-- Generator: Adobe Illustrator 19.0.0, SVG Export Plug-In . SVG Version: 6.00 Build 0)  -->
<svg version="1.1" id="Layer_1" xmlns="http://www.w3.org/2000/svg" xmlns:xlink="http://www.w3.org/1999/xlink" x="0px" y="0px"
	 viewBox="0 0 512 512" style="enable-background:new 0 0 512 512;" xml:space="preserve">
<path style="fill:#6B8F9C;" d="M469.334,220.753l-23.56-57.174c0-0.287-0.009-0.572-0.011-0.858
	c-0.462-61.076-50.108-110.446-111.293-110.446H200.904c0,18.441,14.949,33.391,33.391,33.391H334.47
	c42.965,0,77.803,34.778,77.909,77.718c0,1.211-0.18,38.076-0.18,56.627C425.553,220.012,469.334,220.753,469.334,220.753z"/>
<path style="fill:#05232E;" d="M178.609,369.832c5.148,50.494,47.799,89.893,99.652,89.893h33.391
	c0-18.442-14.949-33.391-33.391-33.391v-66.783l-41.405-76.467L178.609,369.832z"/>
<path style="fill:#325763;" d="M422.957,193.438v-11.13c0-8.004-4.238-15.001-10.579-18.923c-3.399-2.104-7.392-3.338-11.681-3.338
	c-12.295,0-22.261,9.966-22.261,22.261v11.13l21.89,22.121L422.957,193.438z"/>
<path style="fill:#05232E;" d="M478.609,193.438v-11.13c0-12.295-9.966-22.261-22.261-22.261c-3.832,0-7.436,0.969-10.585,2.675
	c0.002,0.286,0.011,0.571,0.011,0.858v29.86h-89.736l-0.719-39.031l-54.795,30.211l-22.558-58.365l-41.11,47.195l-65.076,91.825
	l65.076,94.276h63.666c0,55.324,44.849,100.174,100.174,100.174h33.391c0-18.442-14.949-33.391-33.391-33.391V336.54l83.636-56.511
	C499.549,269.747,512,245.195,512,226.829v-33.391H478.609z"/>
<g>
	<path style="fill:#325763;" d="M195.745,126.255l-22.558,58.365l-54.794-30.212l-1.153,62.569l-61.824-9.685l20.226,59.215
		L14.229,278.52l39.323,48.676L0,359.551L22.261,373v86.725c48.274,0,88.568-34.147,98.056-79.604l58.292-10.289l58.247-10.281
		V173.45L195.745,126.255z"/>
	<rect x="278.261" y="237.112" style="fill:#325763;" width="33.391" height="33.391"/>
</g>
<g>
	<rect x="123.548" y="248.242" style="fill:#05232E;" width="33.391" height="33.391"/>
	<rect x="168.07" y="292.764" style="fill:#05232E;" width="33.391" height="33.391"/>
</g>
<g>
</g>
<g>
</g>
<g>
</g>
<g>
</g>
<g>
</g>
<g>
</g>
<g>
</g>
<g>
</g>
<g>
</g>
<g>
</g>
<g>
</g>
<g>
</g>
<g>
</g>
<g>
</g>
<g>
</g>
</svg>
