<?xml version="1.0" encoding="iso-8859-1"?>
<!-- Generator: Adobe Illustrator 19.0.0, SVG Export Plug-In . SVG Version: 6.00 Build 0)  -->
<svg version="1.1" id="Layer_1" xmlns="http://www.w3.org/2000/svg" xmlns:xlink="http://www.w3.org/1999/xlink" x="0px" y="0px"
	 viewBox="0 0 512 512" style="enable-background:new 0 0 512 512;" xml:space="preserve">
<path style="fill:#FBB071;" d="M163.253,70.784c-15.88-16.643-38.26-27.029-63.08-27.029v81.874
	C128,121.322,154.713,100.174,163.253,70.784z"/>
<path style="fill:#FAE8AC;" d="M57.641,226.879L40.07,213.701c-9.795-7.346-27.826-13.357-40.07-13.357v55.652l93.496,26.716
	C84.591,269.357,69.009,241.53,57.641,226.879z"/>
<path style="fill:#F6D76F;" d="M163.253,70.784c-24.479,13.979-45.914,32.674-63.08,54.844
	c-22.291,28.789-37.367,63.439-42.533,101.251c-1.301,9.522-1.989,19.238-1.989,29.117l290.504,110.195L268.8,42.852
	C230.399,42.852,194.373,53.012,163.253,70.784z"/>
<path style="fill:#FBB071;" d="M488.034,208.065h-11.5C454.785,113.424,370.034,42.852,268.8,42.852v345.6l219.234-132.456
	c13.236,0,23.966-10.732,23.966-23.966C512,218.794,501.27,208.065,488.034,208.065z"/>
<path style="fill:#FDF3D3;" d="M0,255.997v55.652c12.243,0,30.275-6.01,40.07-13.357l17.571-13.178
	c16.934-7.966,40.308-16.87,61.456-29.114L0,255.997z"/>
<g>
	<path style="fill:#FF835D;" d="M488.034,255.997h-12.255L303.861,256c0,45.924,71.235,94.33,156.127,94.33
		c7.217-14.599,12.798-30.148,16.533-46.402h11.513c13.236,0,23.966-10.732,23.966-23.966
		C512,266.728,501.27,255.997,488.034,255.997z"/>
	<rect x="156.939" y="119.752" style="fill:#FF835D;" width="33.391" height="33.391"/>
	<rect x="201.461" y="164.274" style="fill:#FF835D;" width="33.391" height="33.391"/>
	<rect x="111.304" y="186.535" style="fill:#FF835D;" width="33.391" height="33.391"/>
</g>
<path style="fill:#F6D76F;" d="M100.174,316.104V468.24c24.819,0,47.197-10.385,63.077-27.026
	C143.583,404.035,115.757,351.722,100.174,316.104z"/>
<path style="fill:#FAE8AC;" d="M385.113,256H55.652c0,9.877,0.687,19.594,1.988,29.114c5.166,37.811,20.243,72.462,42.534,101.252
	c17.165,22.171,38.598,40.867,63.077,54.846c31.12,17.773,67.147,27.935,105.549,27.935c83.846,0,156.394-48.417,191.188-118.817
	C417.091,340.391,385.113,301.924,385.113,256z"/>
<g>
	<rect x="351.722" y="164.274" style="fill:#8F5543;" width="33.391" height="33.391"/>
	<rect x="311.652" y="97.491" style="fill:#8F5543;" width="33.391" height="33.391"/>
</g>
<g>
	<rect x="178.087" y="336.584" style="fill:#FFFFFF;" width="33.391" height="33.391"/>
	<rect x="351.722" y="358.845" style="fill:#FFFFFF;" width="33.391" height="33.391"/>
	<rect x="235.409" y="292.063" style="fill:#FFFFFF;" width="33.391" height="33.391"/>
</g>
<g>
</g>
<g>
</g>
<g>
</g>
<g>
</g>
<g>
</g>
<g>
</g>
<g>
</g>
<g>
</g>
<g>
</g>
<g>
</g>
<g>
</g>
<g>
</g>
<g>
</g>
<g>
</g>
<g>
</g>
</svg>
