<?xml version="1.0" encoding="iso-8859-1"?>
<!-- Generator: Adobe Illustrator 19.0.0, SVG Export Plug-In . SVG Version: 6.00 Build 0)  -->
<svg version="1.1" id="Layer_1" xmlns="http://www.w3.org/2000/svg" xmlns:xlink="http://www.w3.org/1999/xlink" x="0px" y="0px"
	 viewBox="0 0 512 512" style="enable-background:new 0 0 512 512;" xml:space="preserve">
<path style="fill:#F6D76F;" d="M434.087,0c-30.736,0-55.652,24.917-55.652,55.652V215.56l55.652-0.742V0z"/>
<g>
	<path style="fill:#FAEAB6;" d="M356.174,155.826V0c-30.736,0-55.652,24.917-55.652,55.652v166.957l-100.174,66.783
		c20.405,53.055,63.81,162.504,76.8,191.814l21.832-13.727c79.809-50.397,133.266-138.738,135.041-239.685
		c23.196-10.492,39.022-33.775,39.022-60.837v-11.13H356.174z"/>
	<path style="fill:#FAEAB6;" d="M90.261,417.044c-5.178-3.299-11.32-5.218-17.913-5.218c-18.442,0-33.391,14.949-33.391,33.391
		c0,36.883,29.9,66.783,66.783,66.783c1.879,0,3.734-0.097,5.574-0.249c0-3.536,23.362-55.032,23.365-55.032
		C122.064,444.847,104.255,430.005,90.261,417.044z"/>
</g>
<path style="fill:#F6D76F;" d="M111.313,512h233.73c0-24.588-19.933-44.522-44.522-44.522h-11.126
	c13.974-18.602,22.256-41.725,22.256-66.783c0-61.471-49.832-111.304-111.304-111.304S89.043,339.224,89.043,400.696
	c0,5.556,0.43,11.01,1.218,16.348c2.763,18.736,10.177,35.956,21.055,50.435c-0.003,0-0.003,40.736-0.003,44.272
	C111.313,511.911,111.313,512,111.313,512z"/>
<g>
	<rect x="122.435" y="400.696" style="fill:#FAE8AC;" width="33.391" height="33.391"/>
	<rect x="166.957" y="445.217" style="fill:#FAE8AC;" width="33.391" height="33.391"/>
</g>
</svg>
