<?xml version="1.0" encoding="iso-8859-1"?>
<!-- Generator: Adobe Illustrator 19.0.0, SVG Export Plug-In . SVG Version: 6.00 Build 0)  -->
<svg version="1.1" id="Layer_1" xmlns="http://www.w3.org/2000/svg" xmlns:xlink="http://www.w3.org/1999/xlink" x="0px" y="0px"
	 viewBox="0 0 512 512" style="enable-background:new 0 0 512 512;" xml:space="preserve">
<g>
	<path style="fill:#325763;" d="M272.696,456.348c0,30.736,24.917,55.652,55.652,55.652h22.261c0-12.295-9.966-22.261-22.261-22.261
		v-66.783l-26.713-33.391l-28.939,33.391V456.348z"/>
	<path style="fill:#325763;" d="M461.913,278.261c0-18.442-14.95-33.391-33.391-33.391v33.391l18.922,15.583L461.913,278.261z"/>
</g>
<path style="fill:#FAE8AC;" d="M473.043,300.522l-101.287,1.113l34.504,65.67l68.199-25.576
	c11.464-4.299,20.844-15.329,20.844-24.511s0-16.696,0-16.696H473.043z"/>
<path style="fill:#05232E;" d="M473.043,300.522l-11.13-22.261h-55.652c0-18.442-14.95-33.391-33.391-33.391v33.391H272.696
	l-47.861,70.122l47.861,74.574h77.913v33.391c0,30.736,24.917,55.652,55.652,55.652h22.261c0-12.295-9.966-22.261-22.261-22.261
	V325.565L473.043,300.522z"/>
<g>
	<path style="fill:#FAE8AC;" d="M74.574,263.791l-25.6,11.475v15.813l6.678,10.132c11.453,6.645,24.765,10.44,38.957,10.44v-33.391
		L74.574,263.791z"/>
	<polygon style="fill:#FAE8AC;" points="73.461,193.67 48.974,206.308 48.974,248.939 74.574,259.339 94.609,244.87 94.609,211.478 
			"/>
	<polygon style="fill:#FAE8AC;" points="74.574,130.226 48.974,140.014 48.974,184.241 74.574,194.783 94.609,178.087 
		94.609,144.696 	"/>
	<polygon style="fill:#FAE8AC;" points="72.348,61.217 48.974,72.527 48.974,116.265 73.462,124.661 94.609,111.304 94.609,77.913 	
		"/>
</g>
<g>
	<rect x="48.974" y="244.87" style="fill:#05232E;" width="45.635" height="33.391"/>
	<rect x="48.974" y="178.087" style="fill:#05232E;" width="45.635" height="33.391"/>
	<rect x="48.974" y="111.304" style="fill:#05232E;" width="45.635" height="33.391"/>
	<path style="fill:#05232E;" d="M94.609,77.913V38.957C94.609,17.441,77.167,0,55.652,0L34.504,41.183l21.148,36.73H94.609z"/>
</g>
<g>
	<path style="fill:#FDF3D3;" d="M30.675,278.261c6.522,9.361,15.059,17.23,24.977,22.951v-22.951l-12.956-14.668L30.675,278.261z"/>
	<path style="fill:#FDF3D3;" d="M55.652,211.478l-19.704-13.811l-19.252,13.811v22.261c0,3.784,0.267,7.491,0.801,11.13
		l19.749,12.754l18.406-12.754V211.478z"/>
	<polygon style="fill:#FDF3D3;" points="55.652,144.696 35.429,130.964 16.696,144.696 16.696,178.087 36.207,190.66 
		55.652,178.087 	"/>
	<polygon style="fill:#FDF3D3;" points="55.652,77.913 36.727,60.367 16.696,77.913 16.696,111.304 36.207,124.735 55.652,111.304 	
		"/>
</g>
<g>
	<path style="fill:#325763;" d="M55.652,244.87H17.497c1.747,12.288,6.378,23.652,13.178,33.391h24.977V244.87z"/>
	<rect x="16.696" y="178.087" style="fill:#325763;" width="38.957" height="33.391"/>
	<rect x="16.696" y="111.304" style="fill:#325763;" width="38.957" height="33.391"/>
	<path style="fill:#325763;" d="M55.652,0C34.137,0,16.696,17.441,16.696,38.957v38.957h38.957V0z"/>
	<path style="fill:#325763;" d="M94.609,278.261V512c47.772,0,86.499-38.727,86.499-86.499v-2.544h91.588V278.261H94.609z"/>
</g>
<g>
	<rect x="128" y="311.652" style="fill:#05232E;" width="33.391" height="33.391"/>
	<rect x="172.522" y="356.174" style="fill:#05232E;" width="33.391" height="33.391"/>
</g>
</svg>
