<?xml version="1.0" encoding="iso-8859-1"?>
<!-- Generator: Adobe Illustrator 19.0.0, SVG Export Plug-In . SVG Version: 6.00 Build 0)  -->
<svg version="1.1" id="Layer_1" xmlns="http://www.w3.org/2000/svg" xmlns:xlink="http://www.w3.org/1999/xlink" x="0px" y="0px"
	 viewBox="0 0 512 512" style="enable-background:new 0 0 512 512;" xml:space="preserve">
<path style="fill:#FBB071;" d="M33.391,322.783c15.797-11.325,27.841-20.773,44.245-33.391H33.391
	C14.949,289.391,0,304.342,0,322.783v33.391c0,18.441,14.95,33.391,33.391,33.391h189.217c18.442,0,33.391-14.95,33.391-33.391
	H33.391V322.783z"/>
<path style="fill:#05232E;" d="M478.609,222.609c0-12.295-9.966-22.261-22.261-22.261s-22.261,9.966-22.261,22.261v41.925
	c21.89,0,33.021-0.528,44.522-0.528V222.609z"/>
<path style="fill:#325763;" d="M487.556,271.308l-127.239-103.83c-34.513-28.149-78.571-45.043-126.579-45.043
	c-69.156,0-130.128,35.039-166.132,88.331c0.246,0.239,0.476,0.473,0.72,0.712c0,0,82.264,55.886,174.687,86.447
	c92.754,14.098,160.627,24.858,168.812,24.858H512C512,302.068,502.567,283.557,487.556,271.308z"/>
<path style="fill:#6B8F9C;" d="M378.435,289.391V256c-20.745,0-38.176,14.189-43.119,33.391l-126.435-0.371
	c13.357,10.388,27.455,20.035,47.118,33.762h155.826C393.384,322.783,378.435,307.832,378.435,289.391z"/>
<g>
	<path style="fill:#05232E;" d="M144.696,211.478H67.139c-15.425,23.042-26.195,49.461-30.972,77.913
		c-1.822,10.859-2.776,22.014-2.776,33.391H256c0-11.635-1.788-22.85-5.099-33.391C236.718,244.235,194.533,211.478,144.696,211.478
		z"/>
	<path style="fill:#05232E;" d="M378.435,222.609V256h44.522v-33.391c0-1.497-0.154-2.957-0.435-4.372
		c-2.031-10.2-11.028-17.889-21.826-17.889c-0.031,0-0.06,0.004-0.091,0.004C388.353,200.402,378.435,210.345,378.435,222.609z"/>
</g>
</svg>
