<?xml version="1.0" encoding="iso-8859-1"?>
<!-- Generator: Adobe Illustrator 19.0.0, SVG Export Plug-In . SVG Version: 6.00 Build 0)  -->
<svg version="1.1" id="Layer_1" xmlns="http://www.w3.org/2000/svg" xmlns:xlink="http://www.w3.org/1999/xlink" x="0px" y="0px"
	 viewBox="0 0 512 512" style="enable-background:new 0 0 512 512;" xml:space="preserve">
<path style="fill:#FB5858;" d="M283.945,439.652c12.427,32.535,43.913,55.652,80.815,55.652v-54.745
	c-0.119-0.302-0.242-0.603-0.357-0.907l-38.281-22.261L283.945,439.652z"/>
<path style="fill:#F6D76F;" d="M489.739,294.957v-6.492c0-24.588-19.934-44.522-44.522-44.522v73.275v-22.261l22.261,14.47
	L489.739,294.957z"/>
<path style="fill:#FB5858;" d="M422.957,288.464c0-24.588-19.934-44.522-44.522-44.522v51.014l23.374,15.583l21.148-15.583V288.464z
	"/>
<path style="fill:#FBB071;" d="M500.87,317.217l-11.13-22.261h-44.522l-23.374,46.748l23.374,50.643l47.905-29.941
	C503.505,355.918,512,343.096,512,333.913s0-16.696,0-16.696H500.87z"/>
<path style="fill:#F6D76F;" d="M61.217,5.565L45.635,40.07l15.583,32.278l31.165,17.809l30.052-17.809v-5.565
	C122.435,32.968,95.032,5.565,61.217,5.565z"/>
<g>
	<polygon style="fill:#FBB071;" points="91.27,249.322 53.426,262.879 53.426,297.628 91.27,312.765 122.435,294.957 
		122.435,265.272 	"/>
	<polygon style="fill:#FBB071;" points="90.157,170.296 53.426,189.344 53.426,222.303 92.383,240.417 122.435,220.75 
		122.435,191.076 	"/>
	<polygon style="fill:#FBB071;" points="91.27,96.835 53.426,115.245 53.426,148.253 92.383,168.07 122.435,146.554 122.435,116.87 
			"/>
</g>
<g>
	<rect x="53.426" y="220.75" style="fill:#FB5858;" width="69.009" height="44.522"/>
	<rect x="53.426" y="146.554" style="fill:#FB5858;" width="69.009" height="44.522"/>
	<rect x="53.426" y="72.348" style="fill:#FB5858;" width="69.009" height="44.522"/>
</g>
<g>
	<path style="fill:#FF835D;" d="M27.993,294.957c9.283,11.242,20.536,20.803,33.224,28.138l17.809-13.668l-17.809-14.47
		l-16.696-16.696L27.993,294.957z"/>
	<path style="fill:#FF835D;" d="M61.217,220.75l-28.939-13.724L0.067,220.75c0.456,15.772,3.907,30.798,9.795,44.522l25.756,8.537
		l25.6-8.537V220.75z"/>
	<polygon style="fill:#FF835D;" points="61.217,146.554 30.052,130.226 0,146.554 0,191.076 28.939,205.913 61.217,191.076 	"/>
	<polygon style="fill:#FF835D;" points="61.217,72.348 31.165,55.652 0,72.348 0,116.87 28.939,132.452 61.217,116.87 	"/>
</g>
<g>
	<path style="fill:#F6D76F;" d="M61.217,265.272H9.862c4.63,10.785,10.752,20.769,18.131,29.685h33.224V265.272z"/>
	<path style="fill:#F6D76F;" d="M61.217,191.076H0v25.967c0,1.235,0.022,2.471,0.067,3.706h61.151V191.076z"/>
	<rect y="116.87" style="fill:#F6D76F;" width="61.217" height="29.685"/>
</g>
<path style="fill:#FAE8AC;" d="M61.217,5.565C27.403,5.565,0,32.968,0,66.783v5.565h61.217V5.565z"/>
<path style="fill:#FF835D;" d="M208.934,294.957l-53.108,61.217c0,6.786,42.296,72.348,50.824,83.478h157.753
	c0.116,0.304,0.238,0.604,0.357,0.907c12.663,32.056,43.901,54.745,80.457,54.745V294.957H208.934z"/>
<g>
	<path style="fill:#FB5858;" d="M61.217,294.957v28.138c18.009,10.418,38.912,16.384,61.217,16.384v166.957
		c40.986,0,75.288-28.515,84.215-66.783c1.478-6.337,2.285-12.93,2.285-19.716V294.957H61.217z"/>
	<rect x="242.321" y="328.348" style="fill:#FB5858;" width="33.391" height="33.391"/>
	<rect x="286.842" y="372.87" style="fill:#FB5858;" width="33.391" height="33.391"/>
</g>
<g>
</g>
<g>
</g>
<g>
</g>
<g>
</g>
<g>
</g>
<g>
</g>
<g>
</g>
<g>
</g>
<g>
</g>
<g>
</g>
<g>
</g>
<g>
</g>
<g>
</g>
<g>
</g>
<g>
</g>
</svg>
