<?xml version="1.0" encoding="iso-8859-1"?>
<!-- Generator: Adobe Illustrator 19.0.0, SVG Export Plug-In . SVG Version: 6.00 Build 0)  -->
<svg version="1.1" id="Layer_1" xmlns="http://www.w3.org/2000/svg" xmlns:xlink="http://www.w3.org/1999/xlink" x="0px" y="0px"
	 viewBox="0 0 512 512" style="enable-background:new 0 0 512 512;" xml:space="preserve">
<g>
	<polygon style="fill:#6B8F9C;" points="478.608,83.469 478.608,192.556 512,166.573 512,83.469 	"/>
	<rect x="425.038" y="116.858" style="fill:#6B8F9C;" width="29.217" height="56.776"/>
</g>
<g>
	<polygon style="fill:#05232E;" points="338.247,428.53 400.69,428.53 400.69,350.569 338.247,309.426 	"/>
	<path style="fill:#05232E;" d="M367.292,155.826c17.276,5.04,33.296-21.751,33.392-21.723V83.469
		c-18.377,0-33.283,14.847-33.388,33.2c0,0.065-0.004,0.129-0.004,0.194V155.826z"/>
</g>
<g>
	<path style="fill:#325763;" d="M454.255,149.728l-29.219-8.523l-24.347-7.102l-53.421,49.548l53.421,59.725h66.786
		c24.488,0,44.524-20.036,44.524-44.524v-32.279l-33.392-9.74L454.255,149.728z"/>
	<path style="fill:#325763;" d="M209.018,143.476l-47.267-0.001c0,0-38.205,130.334-65.944,207.092
		c0,0.002,146.603,0.002,146.603,0.002C230.4,292.73,209.018,143.476,209.018,143.476z"/>
</g>
<path style="fill:#6B8F9C;" d="M367.292,124.36v-7.499c0-0.065,0.004-0.128,0.004-0.193v-33.2c-17.697,0-32.171,13.771-33.312,31.18
	c-5.475-1.595-8.967-2.611-8.963-2.606c-4.964-1.447-10.197-2.237-15.617-2.237c-22.93,0-42.621,13.87-51.135,33.672h-49.25v173.697
	c0,18.442,14.95,33.392,33.394,33.392v77.964h62.443v-77.962h95.835V134.104C400.588,134.073,384.568,129.399,367.292,124.36z"/>
<path style="fill:#05232E;" d="M0,350.613v44.524c18.442,0,33.394-14.95,33.394-33.394l20.033-23.378L33.394,317.22
	C14.95,317.22,0,332.171,0,350.613z"/>
<path style="fill:#6B8F9C;" d="M133.294,143.474c-54.943,0-99.901,44.958-99.901,99.9V428.53h62.415v-77.964
	c39.335-21.939,65.944-63.955,65.944-112.195v-94.897H133.294z"/>
<g>
	<rect x="309.203" y="210.264" style="fill:#325763;" width="33.391" height="33.391"/>
	<rect x="242.41" y="176.873" style="fill:#325763;" width="33.391" height="33.391"/>
	<rect x="66.781" y="265.638" style="fill:#325763;" width="33.391" height="33.391"/>
</g>
</svg>
