<?xml version="1.0" encoding="iso-8859-1"?>
<!-- Generator: Adobe Illustrator 19.0.0, SVG Export Plug-In . SVG Version: 6.00 Build 0)  -->
<svg version="1.1" id="Layer_1" xmlns="http://www.w3.org/2000/svg" xmlns:xlink="http://www.w3.org/1999/xlink" x="0px" y="0px"
	 viewBox="0 0 512 512" style="enable-background:new 0 0 512 512;" xml:space="preserve">
<g>
	<path style="fill:#C97E67;" d="M272.696,456.348c0,30.736,24.917,55.652,55.652,55.652h33.391c0-12.295-9.966-22.261-22.261-22.261
		h-11.13v-55.652l-26.906-35.02l-28.747,35.02V456.348z"/>
	<path style="fill:#C97E67;" d="M428.522,311.652v-11.13c0-9.22-7.475-16.696-16.696-16.696c-9.22,0-16.696,7.475-16.696,16.696
		v11.13l16.278,21.281L428.522,311.652z"/>
</g>
<path style="fill:#8F5543;" d="M406.261,311.652H372.87v-11.13c0-9.22-7.475-16.696-16.696-16.696
	c-9.22,0-16.696,7.475-16.696,16.696v11.13h-66.783l-34.311,53.58l34.311,68.855h77.913v22.261
	c0,30.736,24.917,55.652,55.652,55.652h33.391c0-12.295-9.966-22.261-22.261-22.261h-11.13V389.07l27.449-37.68L406.261,311.652z"/>
<g>
	<polygon style="fill:#C97E67;" points="75.359,227.582 47.674,240.029 47.674,284.169 73.82,297.56 94.609,278.261 94.609,244.87 	
		"/>
	<polygon style="fill:#C97E67;" points="73.051,91.469 47.674,105.699 47.674,149.329 73.82,161.448 94.609,144.696 94.609,111.304 
			"/>
	<polygon style="fill:#C97E67;" points="74.589,161.448 47.674,172.232 47.674,218.382 74.589,229.888 94.609,211.478 
		94.609,178.087 	"/>
</g>
<g>
	<polygon style="fill:#8F5543;" points="47.674,278.261 47.674,311.652 75.359,328.32 94.609,311.652 94.609,278.261 	"/>
	<rect x="47.674" y="211.478" style="fill:#8F5543;" width="46.937" height="33.391"/>
	<rect x="47.674" y="144.696" style="fill:#8F5543;" width="46.937" height="33.391"/>
	<polygon style="fill:#8F5543;" points="73.82,53.02 47.674,67.612 47.674,111.304 94.609,111.304 94.609,77.913 	"/>
</g>
<path style="fill:#05232E;" d="M55.652,0l-7.978,16.009v61.904h46.935V38.957C94.609,17.441,77.167,0,55.652,0z"/>
<g>
	<path style="fill:#FBB071;" d="M30.675,311.652c6.522,9.361,15.059,17.23,24.977,22.951l13.958-8.993l-13.943-13.981L43.06,297.56
		L30.675,311.652z"/>
	<path style="fill:#FBB071;" d="M55.652,244.87l-18.744-14.982L16.696,244.87v22.261c0,3.784,0.267,7.491,0.801,11.13l20.95,14.685
		l17.205-14.685V244.87z"/>
	<polygon style="fill:#FBB071;" points="55.652,178.087 36.139,165.293 16.696,178.087 16.696,211.478 36.909,224.505 
		55.652,211.478 	"/>
	<polygon style="fill:#FBB071;" points="55.652,111.304 36.909,88.393 16.696,111.304 16.696,144.696 35.37,159.141 55.652,144.696 
			"/>
</g>
<g>
	<path style="fill:#C97E67;" d="M55.652,278.261H17.497c1.747,12.288,6.378,23.652,13.178,33.391h24.977V278.261z"/>
	<rect x="16.696" y="211.478" style="fill:#C97E67;" width="38.957" height="33.391"/>
	<rect x="16.696" y="144.696" style="fill:#C97E67;" width="38.957" height="33.391"/>
	<rect x="16.696" y="77.913" style="fill:#C97E67;" width="38.957" height="33.391"/>
</g>
<path style="fill:#325763;" d="M55.652,0C34.137,0,16.696,17.441,16.696,38.957v38.957h38.957V0z"/>
<path style="fill:#C97E67;" d="M55.652,311.652v22.951c11.453,6.645,24.765,10.44,38.957,10.44V512
	c47.772,0,86.499-38.727,86.499-86.499v-6.678l91.588,15.264V311.652H55.652z"/>
<g>
	<rect x="128" y="345.043" style="fill:#8F5543;" width="33.391" height="33.391"/>
	<rect x="194.783" y="345.043" style="fill:#8F5543;" width="33.391" height="33.391"/>
</g>
<polygon style="fill:#05232E;" points="406.261,389.565 495.304,367.304 495.304,333.913 439.652,333.913 428.522,311.652 
	406.261,311.652 "/>
</svg>
