<?xml version="1.0" encoding="iso-8859-1"?>
<!-- Generator: Adobe Illustrator 19.0.0, SVG Export Plug-In . SVG Version: 6.00 Build 0)  -->
<svg version="1.1" id="Layer_1" xmlns="http://www.w3.org/2000/svg" xmlns:xlink="http://www.w3.org/1999/xlink" x="0px" y="0px"
	 viewBox="0 0 512 512" style="enable-background:new 0 0 512 512;" xml:space="preserve">
<g>
	<polygon style="fill:#FB5858;" points="112.803,105.174 112.803,55.367 79.411,55.367 79.411,138.565 215.93,138.565 
		150.413,105.174 	"/>
	<polygon style="fill:#FB5858;" points="84.976,274.577 84.976,341.182 57.15,341.182 57.15,374.574 118.368,374.574 
		118.368,307.968 150.413,307.968 217.043,274.577 	"/>
</g>
<g>
	<path style="fill:#F72349;" d="M410.328,263.101v118.94c0,47.11-38.327,85.437-85.436,85.437s-85.436-38.328-85.436-85.437
		l-0.357-24.008l31.371-172.154L217.196,0h-32.351l-16.581,25.902c-0.741-0.059-1.489-0.098-2.246-0.098
		c-15.368,0-27.826,12.458-27.826,27.826c0,9.583,4.846,18.036,12.221,23.04v79.814l20.995,18.264l-20.995,15.127v118.094
		l44.521,50.064v24.008c0,71.66,58.299,129.959,129.958,129.959S454.85,453.701,454.85,382.041v-118.94H410.328z"/>
	<polygon style="fill:#F72349;" points="316.023,307.957 316.023,374.574 377.24,374.574 377.24,341.182 349.414,341.182 
		349.414,274.577 218.157,274.577 283.979,307.957 	"/>
	<polygon style="fill:#F72349;" points="354.98,138.565 354.98,55.367 321.588,55.367 321.588,105.174 283.979,105.174 
		219.27,138.565 	"/>
</g>
<path style="fill:#AA3E51;" d="M268.374,25.804c-0.757,0-1.505,0.039-2.246,0.098L249.547,0h-32.351v105.174l18.769,15.035
	l-18.769,18.356v69.229l19.882,18.149l-19.882,15.242v116.847h21.902l0.357-0.398l44.523-49.677V189.875l-19.074-16.24
	l19.074-17.151V76.67c7.375-5.004,12.221-13.457,12.221-23.04C296.2,38.261,283.741,25.804,268.374,25.804z"/>
<rect id="SVGCleanerId_0" x="150.417" y="156.483" style="fill:#05232E;" width="33.391" height="33.391"/>
<rect id="SVGCleanerId_1" x="183.808" y="274.577" style="fill:#05232E;" width="33.391" height="33.391"/>
<g>
	<rect id="SVGCleanerId_0_1_" x="150.417" y="156.483" style="fill:#05232E;" width="33.391" height="33.391"/>
</g>
<g>
	<rect id="SVGCleanerId_1_1_" x="183.808" y="274.577" style="fill:#05232E;" width="33.391" height="33.391"/>
</g>
<g>
	<rect x="250.591" y="156.483" style="fill:#05232E;" width="33.391" height="33.391"/>
	<rect x="217.199" y="207.794" style="fill:#05232E;" width="33.391" height="33.391"/>
	<rect x="217.199" y="105.171" style="fill:#05232E;" width="33.391" height="33.391"/>
</g>
<g>
</g>
<g>
</g>
<g>
</g>
<g>
</g>
<g>
</g>
<g>
</g>
<g>
</g>
<g>
</g>
<g>
</g>
<g>
</g>
<g>
</g>
<g>
</g>
<g>
</g>
<g>
</g>
<g>
</g>
</svg>
