<?xml version="1.0" encoding="iso-8859-1"?>
<!-- Generator: Adobe Illustrator 19.0.0, SVG Export Plug-In . SVG Version: 6.00 Build 0)  -->
<svg version="1.1" id="Layer_1" xmlns="http://www.w3.org/2000/svg" xmlns:xlink="http://www.w3.org/1999/xlink" x="0px" y="0px"
	 viewBox="0 0 512 512" style="enable-background:new 0 0 512 512;" xml:space="preserve">
<path d="M194.031,130.455H66.029v33.391h128.002v-33.386h0.475c-0.157-0.194-0.315-0.387-0.475-0.578V130.455z"/>
<path d="M208.941,108.195h-33.391v37.367c0.138,0.327,0.272,0.661,0.406,0.994h32.985V108.195z"/>
<path d="M275.8,145.421h-0.967v-37.227h-33.391v37.236h33.391v1.525C275.168,146.458,275.491,145.944,275.8,145.421z"/>
<path d="M260.955,130.455c-0.352,0.313-0.718,0.62-1.099,0.917v32.474h124.496v-33.391
	C384.353,130.455,260.955,130.455,260.955,130.455z"/>
<rect x="254.798" y="197.242" width="107.297" height="33.391"/>
<polygon points="328.7,286.281 328.7,340.149 362.091,340.149 362.091,252.89 251.177,252.89 251.177,286.281 "/>
<rect x="88.287" y="197.242" width="113.23" height="33.391"/>
<polygon points="88.29,252.89 88.29,340.149 121.681,340.149 121.681,286.281 201.461,286.281 201.461,252.89 "/>
<path d="M401.453,390.478c0,42.457-34.542,77-77.001,77c-42.458,0-77-34.542-77-77v-5.274c0-25.691-14.255-58.34-22.261-58.34
	c-8.006,0-22.261,22.32-22.261,58.34v5.274c0,67.007,54.515,121.522,121.522,121.522s121.523-54.515,121.523-121.522l-19.679-31.707
	L401.453,390.478z"/>
<path style="fill:#325763;" d="M445.971,390.478V285.852c-18.438,0-33.388,14.949-33.391,33.391l0.001,25.856
	c-6.121,0.001-11.128,5.009-11.128,11.129v34.249h21.874H445.971z"/>
<path style="fill:#05232E;" d="M194.783,175.49l30.408,214.99c8.006,0,15.564-1.908,22.261-5.275
	c16.234-8.162,27.381-24.959,27.381-44.367V215.977L194.783,175.49z"/>
<g>
	<polygon style="fill:#325763;" points="274.833,215.976 274.833,130.461 225.191,130.461 198.492,215.976 	"/>
	<path style="fill:#325763;" d="M225.191,166.586l-49.642,49.39v124.861c0,19.407,11.147,36.204,27.381,44.367
		c6.697,3.367,14.255,5.275,22.261,5.275V166.586z"/>
</g>
<rect x="175.549" y="130.46" style="fill:#6B8F9C;" width="49.642" height="85.515"/>
<path style="fill:#325763;" d="M328.704,63.673V0c-18.438,0-33.388,14.95-33.391,33.391v30.281H328.704z"/>
<path style="fill:#05232E;" d="M317.574,97.064c0,18.445,14.949,33.396,33.391,33.391c18.438,0,33.388,0,33.388,0l0.003-97.064
	C384.353,14.95,369.402,0,350.965,0v63.673h-33.391V97.064z"/>
<path style="fill:#325763;" d="M155.069,63.673V33.391C155.066,14.95,140.115,0,121.678,0v63.673H155.069z"/>
<path style="fill:#05232E;" d="M132.808,97.064V63.673H99.417V0C80.979,0,66.029,14.95,66.026,33.391l0.003,97.064h33.388
	C117.858,130.46,132.808,115.509,132.808,97.064z"/>
<g>
</g>
<g>
</g>
<g>
</g>
<g>
</g>
<g>
</g>
<g>
</g>
<g>
</g>
<g>
</g>
<g>
</g>
<g>
</g>
<g>
</g>
<g>
</g>
<g>
</g>
<g>
</g>
<g>
</g>
</svg>
