<?xml version="1.0" encoding="iso-8859-1"?>
<!-- Generator: Adobe Illustrator 19.0.0, SVG Export Plug-In . SVG Version: 6.00 Build 0)  -->
<svg version="1.1" id="Layer_1" xmlns="http://www.w3.org/2000/svg" xmlns:xlink="http://www.w3.org/1999/xlink" x="0px" y="0px"
	 viewBox="0 0 512 512" style="enable-background:new 0 0 512 512;" xml:space="preserve">
<path style="fill:#325763;" d="M0,424.304h117.595c24.589,0,44.522-19.933,44.522-44.522l-43.764-30.658l-46.005,30.658H39.682
	C15.094,379.783,0,399.715,0,424.304z"/>
<path style="fill:#6B8F9C;" d="M467.478,379.783h-11.13l-0.267-87.43c-26.075,17.444-87.663,53.061-126.249,76.807
	c27.455,14.84,76.429,41.553,100.941,55.145H512C512,399.716,492.068,379.783,467.478,379.783z"/>
<path style="fill:#325763;" d="M428.522,87.696c0,0.001-6.445,0.002-6.445,0.002c-48.095,0-93.885,38.812-101.777,86.25
	c0,0-2.415,14.57-5.376,32.378c-2.961,17.809-23.786,32.378-46.269,32.378l-49.386,68.866l49.386,72.145
	c24.818,0,105.376-0.117,105.376-0.117c45.607-2.812,82.049-40.973,82.049-87.246V154.377C490.828,152.493,512,123.361,512,87.696
	H428.522z"/>
<g>
	<path style="fill:#6B8F9C;" d="M213.215,238.704c-77.802,0-140.867,63.065-140.867,140.867l196.307,0.145V238.704
		C246.172,238.704,213.215,238.704,213.215,238.704z"/>
	<rect x="345.043" y="213.938" style="fill:#6B8F9C;" width="33.391" height="33.391"/>
	<rect x="389.565" y="258.46" style="fill:#6B8F9C;" width="33.391" height="33.391"/>
</g>
<rect x="161.391" y="312.932" style="fill:#325763;" width="33.391" height="33.391"/>
<path style="fill:#05232E;" d="M386.251,379.783h-12.219V324.13c0,0-22.866,0-52.145,0c-29.256,0-53.195,25.007-53.23,55.585
	c0,0.022-0.001,0.045-0.001,0.067c0,24.589,15.093,44.522,39.682,44.522h122.435C430.772,399.716,410.84,379.783,386.251,379.783z"
	/>
</svg>
