<?xml version="1.0" encoding="iso-8859-1"?>
<!-- Generator: Adobe Illustrator 19.0.0, SVG Export Plug-In . SVG Version: 6.00 Build 0)  -->
<svg version="1.1" id="Layer_1" xmlns="http://www.w3.org/2000/svg" xmlns:xlink="http://www.w3.org/1999/xlink" x="0px" y="0px"
	 viewBox="0 0 512 512" style="enable-background:new 0 0 512 512;" xml:space="preserve">
<g>
	<path style="fill:#325763;" d="M398.918,415.732V512h38.957v-96.268c-2.675-4.277-10.838-13.182-18.257-26.538
		C411.192,401.809,399.583,413.681,398.918,415.732z"/>
	<path style="fill:#325763;" d="M62.408,415.732V512h38.957v-96.268c-2.675-4.277-10.838-13.182-18.257-26.538
		C74.682,401.809,63.073,413.681,62.408,415.732z"/>
</g>
<g>
	<path style="fill:#05232E;" d="M147.742,415.732V512h38.957v-96.268c-2.675-4.277-10.838-13.182-18.257-26.538
		C160.014,401.809,148.405,413.681,147.742,415.732z"/>
	<path style="fill:#05232E;" d="M314.699,415.732V512h38.957v-96.268c-2.675-4.277-10.838-13.182-18.257-26.538
		C326.971,401.809,315.362,413.681,314.699,415.732z"/>
</g>
<path style="fill:#FAE8AC;" d="M376.18,395.863c5.29,8.782,13.242,15.774,22.739,19.869c5.975,2.576,12.558,4.009,19.478,4.009
	s13.503-1.434,19.478-4.009c17.513-7.55,29.775-24.962,29.775-45.244v-116.9c-25.03,0-53.227,2.041-94.039,2.041
	C373.612,289.762,378.411,392.158,376.18,395.863z"/>
<g>
	<path style="fill:#F6D76F;" d="M124.862,395.863c5.29,8.782,13.242,15.774,22.739,19.869c5.975,2.576,12.558,4.009,19.478,4.009
		s13.503-1.434,19.478-4.009c17.513-7.55,29.775-24.962,29.775-45.244l-91.302-35.462
		C125.032,344.309,124.862,372.127,124.862,395.863z"/>
	<path style="fill:#F6D76F;" d="M377.97,36.348c-20.838,2.586-36.971,20.343-36.971,41.882v31.82
		c0,17.9-15.958,32.464-33.859,32.464h-22.431l-57.277,116.826l57.276,111.148c0,20.282,12.262,37.694,29.775,45.244
		c5.975,2.576,12.558,4.009,19.478,4.009s13.503-1.434,19.478-4.009c9.498-4.095,17.449-11.087,22.739-19.869
		c4.464-7.412,7.037-16.092,7.037-25.375v-4.97c48.398-14.513,84.434-59.192,84.434-111.93V97.386
		C443.362,80.511,377.97,36.348,377.97,36.348z"/>
</g>
<path style="fill:#FAE8AC;" d="M218.587,142.514l-86.686,0.014c-54.407-0.01-98.51,44.094-98.51,98.498
	C15.027,241.026,0,256.053,0,274.418v43.195h33.391v52.875c0,20.282,12.262,37.694,29.775,45.244
	c5.975,2.576,12.558,4.009,19.478,4.009c6.92,0,13.503-1.434,19.478-4.009c9.498-4.094,17.449-11.087,22.739-19.869
	c4.464-7.412,7.037-16.092,7.037-25.375h152.81V142.514H218.587z"/>
<g>
	<rect x="87.374" y="253.206" style="fill:#FFFFFF;" width="33.391" height="33.391"/>
	<rect x="131.896" y="297.728" style="fill:#FFFFFF;" width="33.391" height="33.391"/>
	<rect x="217.923" y="175.905" style="fill:#FFFFFF;" width="33.391" height="33.391"/>
</g>
<rect x="378.435" y="175.905" style="fill:#FAE8AC;" width="33.391" height="33.391"/>
<path style="fill:#05232E;" d="M411.361,36.011v-2.62C411.361,15.027,396.334,0,377.97,0v63.986h33.391v41.58c0,0,23.741,0,33.774,0
	c8.573,0,16.415-3.083,22.516-8.18c3.247-2.712,6.009-5.986,8.109-9.691L512,78.229V36.011
	C512,36.011,411.361,36.011,411.361,36.011z"/>
</svg>
