<?xml version="1.0" encoding="iso-8859-1"?>
<!-- Generator: Adobe Illustrator 19.0.0, SVG Export Plug-In . SVG Version: 6.00 Build 0)  -->
<svg version="1.1" id="Layer_1" xmlns="http://www.w3.org/2000/svg" xmlns:xlink="http://www.w3.org/1999/xlink" x="0px" y="0px"
	 viewBox="0 0 512 512" style="enable-background:new 0 0 512 512;" xml:space="preserve">
<path style="fill:#8F5543;" d="M478.609,158.609c0-12.295-9.966-22.261-22.261-22.261s-22.261,9.966-22.261,22.261v51.757
	l44.522,0.424V158.609z"/>
<path style="fill:#FBB071;" d="M33.391,225.391C14.95,225.391,0,240.342,0,258.783v133.565c0,18.441,14.95,33.391,33.391,33.391
	h189.217c18.442,0,33.391-14.95,33.391-33.391H33.391V258.783h22.152l49.713,18.155c-2-12.571-8.285-36.284-12.98-51.546H33.391z"/>
<rect x="345.043" y="233.928" style="fill:#8F5543;" width="33.391" height="125.028"/>
<path style="fill:#C97E67;" d="M495.121,223.895L368.725,123.578c-29.433-23.359-66.665-37.317-107.159-37.317
	c-13.542,0-26.721,1.56-39.365,4.511c-9.807,40.742-31.805,132.738-40.704,168.011h96.765v100.174h33.391V258.783h166.957v44.522
	H512v-44.522C512,244.643,505.4,232.051,495.121,223.895z"/>
<path style="fill:#8F5543;" d="M233.739,147.478c0-20.125-4.113-39.288-11.537-56.702C156.554,106.1,105.315,158.899,92.275,225.391
	c-2.119,10.803-3.231,21.967-3.231,33.391H55.652v100.174h33.391v-66.783c35.157,0,67.381-12.543,92.454-33.391
	C213.415,232.241,233.739,192.235,233.739,147.478z"/>
<path style="fill:#FBB071;" d="M378.435,158.609V192h44.522v-33.391c0-12.295-9.966-22.261-22.261-22.261
	c-4.289,0-8.281,1.233-11.679,3.336C382.674,143.606,378.435,150.604,378.435,158.609z"/>
<g>
</g>
<g>
</g>
<g>
</g>
<g>
</g>
<g>
</g>
<g>
</g>
<g>
</g>
<g>
</g>
<g>
</g>
<g>
</g>
<g>
</g>
<g>
</g>
<g>
</g>
<g>
</g>
<g>
</g>
</svg>
