<?xml version="1.0" encoding="iso-8859-1"?>
<!-- Generator: Adobe Illustrator 19.0.0, SVG Export Plug-In . SVG Version: 6.00 Build 0)  -->
<svg version="1.1" id="Layer_1" xmlns="http://www.w3.org/2000/svg" xmlns:xlink="http://www.w3.org/1999/xlink" x="0px" y="0px"
	 viewBox="0 0 512 512" style="enable-background:new 0 0 512 512;" xml:space="preserve">
<path style="fill:#05232E;" d="M104.247,512c48.156,0,88.037-35.42,95.017-81.629l-42.436-44.466l-52.58,37.052L104.247,512z"/>
<polygon style="fill:#325763;" points="307.651,340.963 104.248,357.541 104.248,422.957 199.264,430.37 272.187,436.06 "/>
<path style="fill:#05232E;" d="M478.609,258.17l-11.13-13.301h-26.333h-27.95c-18.365,0-38.979,13.946-45.813,30.998l-12.065,30.119
	c-0.008,0.006-74.104,55.505-83.13,62.655v67.418l39.465,3.079v17.209c0,30.736,24.917,55.652,55.652,55.652h24.378
	c0-12.295-9.966-22.261-22.261-22.261h-2.117v-46.258l22.261,1.736v11.13c0,30.736,24.917,55.652,55.652,55.652h24.378
	c0-12.295-9.966-22.261-22.261-22.261h-2.117V319.199l36.029-19.3c10.797-5.777,19.623-20.525,19.623-32.768v-8.96H478.609z"/>
<path style="fill:#325763;" d="M422.413,263.601c0,10.345,8.387,18.731,18.731,18.731V244.87
	C430.8,244.87,422.413,253.256,422.413,263.601z"/>
<path style="fill:#F6D76F;" d="M104.248,93.117C104.248,41.695,62.553,0,11.13,0v93.117l46.377,31.173L104.248,93.117z"/>
<path style="fill:#325763;" d="M11.13,93.117v171.307c0,39.658,24.799,73.539,59.737,86.951l22.999-130.621L70.867,93.117H11.13z"/>
<path style="fill:#05232E;" d="M89.414,338.736l181.797,14.84c54.168,2.968,49.045-49.88,49.045-49.88
	c0-0.002-216.008-14.305-216.008-14.305S89.391,338.731,89.414,338.736z"/>
<path style="fill:#FAE8AC;" d="M320.262,303.697c-0.006,0-1.483,3.685-1.483,3.685c-6.422,16.023-27.186,29.081-44.39,27.942
	l-170.118-11.245c-0.023-0.002-0.023-230.962-0.023-230.962h-33.38v258.257c10.362,3.985,21.615,6.166,33.38,6.166l167.939,11.102
	c1.431,0.095,2.866,0.141,4.305,0.141c30.417,0,61.999-20.829,73.282-48.979l5.536-13.813
	C355.311,305.988,320.262,303.697,320.262,303.697z"/>
<g>
</g>
<g>
</g>
<g>
</g>
<g>
</g>
<g>
</g>
<g>
</g>
<g>
</g>
<g>
</g>
<g>
</g>
<g>
</g>
<g>
</g>
<g>
</g>
<g>
</g>
<g>
</g>
<g>
</g>
</svg>
