<?xml version="1.0" encoding="iso-8859-1"?>
<!-- Generator: Adobe Illustrator 19.0.0, SVG Export Plug-In . SVG Version: 6.00 Build 0)  -->
<svg version="1.1" id="Layer_1" xmlns="http://www.w3.org/2000/svg" xmlns:xlink="http://www.w3.org/1999/xlink" x="0px" y="0px"
	 viewBox="0 0 511.997 511.997" style="enable-background:new 0 0 511.997 511.997;" xml:space="preserve">
<g>
	<rect x="445.217" y="241.841" style="fill:#FF835D;" width="33.391" height="108.333"/>
	<rect x="462.28" y="330.873" style="fill:#FF835D;" width="49.716" height="34.504"/>
</g>
<polygon style="fill:#FB5858;" points="239.31,431.141 478.614,431.141 478.614,397.75 197.751,372.126 "/>
<polygon style="fill:#FF835D;" points="239.31,366.932 0.006,397.75 0.006,431.141 239.31,431.141 "/>
<path style="fill:#FB5858;" d="M222.238,220.752L115.651,83.85c-29.062,5.777-56.787,19.923-79.304,42.44
	c-48.462,48.462-48.462,127.044,0,175.517c17.217,17.208,39.18,27.038,61.677,29.073c5.865,0.531,11.765,0.538,17.627,0
	L222.238,220.752z"/>
<g>
	<path style="fill:#F72349;" d="M115.651,172.949c-10.529,2.76-20.491,8.271-28.75,16.53c-19.857,19.846-19.857,52.035,0,71.891
		c7.936,7.936,18.354,11.898,28.75,11.898l36.094-48.806L115.651,172.949z"/>
	<path style="fill:#F72349;" d="M165.101,322.41l144.43-24.922c10.705-60.271-7.223-124.629-53.792-171.198
		c-38.066-38.065-90.98-52.213-140.088-42.44v89.099C125.774,214.073,144.325,265.273,165.101,322.41z"/>
</g>
<path style="fill:#AA3E51;" d="M115.651,330.878l220.118,44.216l0.128-77.607H180.738
	C136.904,299.407,124.29,309.795,115.651,330.878z"/>
<path style="fill:#FF835D;" d="M176.757,189.477c-16.551-16.562-39.981-22.072-61.106-16.53v36.932l20.511,30.165l-20.511,33.223
	v57.611c22.294-2.026,44.032-11.999,61.106-29.073c1.397-1.398,2.709-2.847,3.981-4.319
	C207.692,266.28,206.381,219.09,176.757,189.477z"/>
<path style="fill:#AA3E51;" d="M144.412,215.356c-7.78-7.78-19.256-9.606-28.761-5.476v63.388c10.418,0,20.814-3.964,28.761-11.898
	C157.112,248.658,157.112,228.056,144.412,215.356z"/>
<path style="fill:#FBB071;" d="M478.609,330.878h-66.783v-89.043h-33.391v89.043H115.651c-5.862,0.538-11.763,0.531-17.627,0H66.783
	C30.052,330.878,0,360.931,0,397.661v33.48c0,0,0.03,0,0.088,0H0.006V397.75h478.603V330.878z"/>
</svg>
