<?xml version="1.0" encoding="iso-8859-1"?>
<!-- Generator: Adobe Illustrator 19.0.0, SVG Export Plug-In . SVG Version: 6.00 Build 0)  -->
<svg version="1.1" id="Layer_1" xmlns="http://www.w3.org/2000/svg" xmlns:xlink="http://www.w3.org/1999/xlink" x="0px" y="0px"
	 viewBox="0 0 512 512" style="enable-background:new 0 0 512 512;" xml:space="preserve">
<g>
	<polygon style="fill:#325763;" points="90.48,0 57.089,0 57.089,141.318 90.48,141.357 	"/>
	<polygon style="fill:#325763;" points="454.91,0 421.518,0 421.518,141.357 454.91,141.318 	"/>
	<polygon style="fill:#325763;" points="149.445,0 116.054,0 116.054,97.918 149.445,98.318 	"/>
	<polygon style="fill:#325763;" points="395.945,0 362.554,0 362.554,97.577 395.945,97.918 	"/>
	<polygon style="fill:#325763;" points="58.63,512 92.021,512 92.021,372.933 76.058,347.64 58.63,372.933 	"/>
	<polygon style="fill:#325763;" points="419.997,512 453.388,512 453.388,372.933 437.426,347.64 419.997,372.933 	"/>
</g>
<g>
	<path style="fill:#05232E;" d="M355.548,158.838l99.363-17.52l-33.391-28.02l-75.171,13.254l49.597-28.635l-33.391-19.278
		l-54.451,31.438c-2.463-2.599-5.117-5.012-7.942-7.22V50.869h-33.121v37.622c-3.598-0.555-7.286-0.846-11.04-0.846L204.43,231.228
		c10.388,25.143,87.56,36.273,114.903-15.949l100.647,58.109l-0.363,99.545h33.753V254.11l-110.01-63.515l135.248,23.848v118.508
		H512V186.424L355.548,158.838z"/>
	<path style="fill:#05232E;" d="M203.897,208.797c0-29.597,0-66.698,0-98.719L149.445,78.64l-33.391,19.278l49.597,28.635
		L90.48,113.299l-33.391,28.02l99.362,17.52L0,186.424v146.528h33.391V214.443l135.248-23.848L58.63,254.11v118.823h33.391v-99.545
		l100.64-58.104c2.845-1.811,5.776-3.501,8.78-5.069L203.897,208.797z"/>
	<path style="fill:#05232E;" d="M244.96,50.869h-33.121v51.987c13.69,13.69,23.986,23.428,33.121,32.564V50.869z"/>
</g>
<path style="fill:#FDF3D3;" d="M239.439,392.486V512h33.121V392.486C258.597,392.486,244.852,393.62,239.439,392.486z"/>
<path style="fill:#6B8F9C;" d="M256,231.228c-7.049-16.411-12.986-30.51-17.438-43.124c-13.357,8.162-24.487,14.099-34.553,20.809
	c-0.863,0.424-1.719,0.857-2.569,1.301c-3.004,1.567-5.934,3.258-8.78,5.069c-32.928,20.962-54.774,57.781-54.774,99.708
	c0,59.611,44.162,108.899,101.553,116.952c5.412,0.76,10.939,1.161,16.56,1.161l64.928-118.113L256,231.228z"/>
<path style="fill:#325763;" d="M319.332,215.279c-2.842-1.808-5.767-3.496-8.766-5.061c-0.853-0.444-1.711-0.879-2.576-1.304
	c-13.077,13.737-31.527,22.314-51.99,22.314v201.876c5.622,0,11.148-0.401,16.561-1.161c57.39-8.054,101.552-57.342,101.552-116.952
	C374.113,273.063,352.264,236.24,319.332,215.279z"/>
<g>
	<rect x="239.304" y="264.904" style="fill:#05232E;" width="33.391" height="33.391"/>
	<rect x="272.696" y="331.687" style="fill:#05232E;" width="33.391" height="33.391"/>
</g>
<g>
	<rect x="205.913" y="331.687" style="fill:#325763;" width="33.391" height="33.391"/>
	<path style="fill:#325763;" d="M184.209,159.437c0,19.127,7.494,36.492,19.689,49.36c0.037,0.039,0.075,0.078,0.112,0.117
		c13.077,13.737,31.527,22.314,51.99,22.314V87.645c-3.754,0-7.442,0.291-11.04,0.846c-12.37,1.91-23.686,6.99-33.121,14.365
		c-2.825,2.208-5.478,4.621-7.942,7.22C191.703,122.945,184.209,140.31,184.209,159.437z"/>
</g>
<g>
</g>
<g>
</g>
<g>
</g>
<g>
</g>
<g>
</g>
<g>
</g>
<g>
</g>
<g>
</g>
<g>
</g>
<g>
</g>
<g>
</g>
<g>
</g>
<g>
</g>
<g>
</g>
<g>
</g>
</svg>
