<?xml version="1.0" encoding="iso-8859-1"?>
<!-- Generator: Adobe Illustrator 19.0.0, SVG Export Plug-In . SVG Version: 6.00 Build 0)  -->
<svg version="1.1" id="Layer_1" xmlns="http://www.w3.org/2000/svg" xmlns:xlink="http://www.w3.org/1999/xlink" x="0px" y="0px"
	 viewBox="0 0 512 512" style="enable-background:new 0 0 512 512;" xml:space="preserve">
<path style="fill:#F72349;" d="M139.873,382.516c-47.49-14.099-28.939-279.003-28.939-279.003L0,128v222.609
	c0,70.693,57.307,128,128,128c7.597,0,15.037-0.667,22.271-1.936C168.812,473.043,140.275,382.635,139.873,382.516z"/>
<path style="fill:#FBB071;" d="M94.609,350.609C94.609,369.021,109.588,384,128,384c0.42,0,35.201-0.017,35.617-0.031
	c-8.162-12.583-13.357-20.004-23.731-33.36H128V128L94.609,97.577V350.609z"/>
<path style="fill:#FF835D;" d="M128,128C128,57.314,70.686,0,0,0v128H128z"/>
<path style="fill:#FB5858;" d="M450.783,100.174c-24.588,0-44.522,19.933-44.522,44.522v44.892l44.522,0.742V100.174z"/>
<path style="fill:#FBB071;" d="M423.327,225.948c-1.562,75.73-61.028,111.927-115.014,158.052c0,23.745,0.742,80.139,0.742,99.432
	l28.823-15.953c79.835-50.386,133.324-138.719,135.099-239.685c14.474-6.547,26.055-18.087,32.736-32.405
	c0.115-0.245,0.236-0.485,0.347-0.732c0.034-0.078,0.075-0.152,0.109-0.23C496.788,182.168,424.812,153.971,423.327,225.948z"/>
<path style="fill:#FF835D;" d="M512,155.826H384v-55.652c-24.588,0-44.522,19.933-44.522,44.522v77.913l-100.174,66.783
	c0,41.925,1.484,65.786,1.484,127.258c20.777,0,88.301,0.423,108.601,0.423c53.986-46.126,88.872-114.13,90.203-189.865
	c0.321-18.238,15.206-32.804,33.374-32.804c0.2,0,0.398,0.001,0.599,0.004c7.826,0.138,24.897,0.062,32.595,0.019
	c3.749-8.38,5.84-17.673,5.84-27.47V155.826z"/>
<path style="fill:#FB5858;" d="M150.27,512H384c0-24.588-19.933-44.522-44.522-44.522h-11.126
	c10.87-14.471,18.273-31.683,21.036-50.406c0.789-5.347,1.22-10.81,1.22-16.376c0-61.471-49.833-111.304-111.304-111.304
	c-43.454,0-81.087,24.904-99.418,61.217c-5.201,10.305-8.851,21.525-10.635,33.36c-0.823,5.456-1.251,11.041-1.251,16.727
	c0,25.062,8.294,48.179,22.273,66.783c-0.001,0-0.002,3.809-0.002,9.195C150.27,489.71,150.27,512,150.27,512z"/>
<g>
	<rect x="161.391" y="400.696" style="fill:#FF835D;" width="33.391" height="33.391"/>
	<rect x="205.913" y="445.217" style="fill:#FF835D;" width="33.391" height="33.391"/>
</g>
</svg>
