<?xml version="1.0" encoding="iso-8859-1"?>
<!-- Generator: Adobe Illustrator 19.0.0, SVG Export Plug-In . SVG Version: 6.00 Build 0)  -->
<svg version="1.1" id="Layer_1" xmlns="http://www.w3.org/2000/svg" xmlns:xlink="http://www.w3.org/1999/xlink" x="0px" y="0px"
	 viewBox="0 0 512 512" style="enable-background:new 0 0 512 512;" xml:space="preserve">
<path style="fill:#FBB071;" d="M217.332,44.79l-18.899,153.764L46.354,169.014c-19.047-3.695-38.29,7.303-44.437,26.219
	c82.301,58.171,160.938,112.821,160.938,112.821L87.764,443.561c-9.4,16.972-4.887,38.673,11.204,50.365
	c72.811-55.014,157.031-118.198,157.031-118.198l-2.17-2.327c0.722,0.017,1.445,0.027,2.17,0.027l55.282-121.509L255.999,10.631
	C236.109,10.631,219.703,25.534,217.332,44.79z"/>
<g>
	<path style="fill:#F6D76F;" d="M160.362,277.789c0-10.318,1.641-20.249,4.663-29.559L1.917,195.232
		c-6.146,18.918,2.959,39.126,20.539,47.331l140.399,65.49l1.529-2.759C161.772,296.583,160.362,287.351,160.362,277.789z"/>
	<path style="fill:#F6D76F;" d="M199.786,355.162L98.968,493.926c16.091,11.69,38.124,9.277,51.361-4.907l105.67-113.29l-2.17-2.327
		C233.653,372.95,215.02,366.25,199.786,355.162z"/>
</g>
<path style="fill:#FF835D;" d="M510.083,195.232c-108.273,3.259-196.516,3.322-196.516,3.322l-18.9-153.764
	c-2.371-19.256-18.777-34.159-38.668-34.159v362.796c-0.726,0-1.449-0.011-2.17-0.027l2.17,2.327l105.67,113.29
	c13.236,14.185,35.269,16.598,51.361,4.907c-29.03-83.211-63.887-185.872-63.887-185.872l140.399-65.49
	C507.124,234.359,516.229,214.15,510.083,195.232z"/>
<g>
	<path style="fill:#FBB071;" d="M312.214,355.162l100.817,138.764c16.091-11.692,20.605-33.393,11.204-50.365l-75.091-135.507
		l-2.857,1.333C339.805,327.909,327.787,343.828,312.214,355.162z"/>
	<path style="fill:#FBB071;" d="M346.974,248.229l163.109-52.997c-6.146-18.916-25.391-29.915-44.437-26.219l-152.079,29.542
		l-3.119,0.607C327.456,210.962,340.449,228.136,346.974,248.229z"/>
	<path style="fill:#FBB071;" d="M255.999,215.544l-37.473,59.377l37.473,65.118c34.327,0,62.242-27.927,62.242-62.253
		C318.242,243.471,290.326,215.544,255.999,215.544z"/>
</g>
<path style="fill:#F6D76F;" d="M193.757,277.787c0,34.327,27.915,62.253,62.242,62.253V215.544
	C221.673,215.544,193.757,243.471,193.757,277.787z"/>
<path style="fill:#FF835D;" d="M284.85,277.787c0-15.906-12.945-28.85-28.85-28.85l-18.922,27.469l18.922,30.243
	C271.905,306.648,284.85,293.703,284.85,277.787z"/>
<path style="fill:#FBB071;" d="M255.999,248.936c-15.906,0-28.85,12.945-28.85,28.85c0,15.917,12.945,28.862,28.85,28.862V248.936z"
	/>
</svg>
