<?xml version="1.0" encoding="iso-8859-1"?>
<!-- Generator: Adobe Illustrator 19.0.0, SVG Export Plug-In . SVG Version: 6.00 Build 0)  -->
<svg version="1.1" id="Layer_1" xmlns="http://www.w3.org/2000/svg" xmlns:xlink="http://www.w3.org/1999/xlink" x="0px" y="0px"
	 viewBox="0 0 512 512" style="enable-background:new 0 0 512 512;" xml:space="preserve">
<path style="fill:#FAE8AC;" d="M164.36,30.795L123.213,5.136c-12.533-8.894-29.902-5.945-38.796,6.588s-5.945,29.902,6.588,38.796
	l17.175,12.189C128.743,51.571,145.809,42.667,164.36,30.795z"/>
<path style="fill:#F6D76F;" d="M276.349,62.709l17.175-12.189c12.533-8.894,15.482-26.263,6.588-38.796s-26.263-15.482-38.796-6.588
	L222.98,32.279C241.531,43.409,260.082,50.83,276.349,62.709z"/>
<path style="fill:#C97E67;" d="M63.99,512h33.391V268.244c-11.677,0-18.355,0.549-33.391,0.549C63.99,268.793,63.99,512,63.99,512z"
	/>
<polygon style="fill:#F6D76F;" points="381.228,0.001 327.606,248.209 381.228,512 448.01,512 448.01,0.001 "/>
<polygon style="fill:#FAE8AC;" points="314.445,0.001 314.445,148.035 290.505,187.362 314.445,232.627 314.445,278.191 
	294.957,329.832 314.445,378.365 314.445,512 381.228,512 381.228,0.001 "/>
<polygon style="fill:#FBB071;" points="314.445,233.67 314.445,181.576 347.836,181.576 347.836,148.184 254.887,148.184 
	254.331,233.67 "/>
<path style="fill:#8F5543;" d="M347.665,344.974h-33.047c-0.095,0-0.173-0.077-0.173-0.171v-33.047c0-0.095,0.077-0.173,0.173-0.173
	h33.047c0.095,0,0.171-0.077,0.171-0.171v-33.047c0-0.095-0.077-0.173-0.171-0.173h-67.504c-0.095,0-0.171-0.077-0.171-0.173V87.746
	c0,0.75-152.545-12.97-174.49-12.97c-0.009-0.004-29.814,125.912-39.029,168.046c-1.826,8.353-2.481,17.086-2.481,25.972
	c0,33.244,12.648,63.534,33.391,86.322c16.795,18.45,38.9,31.973,63.896,38.175c0.138,0.035,0.063-0.277,0.199-0.234
	c23.846,7.641,118.512,37.231,118.512,37.231c0,0.095,0.077,0.173,0.171,0.173h34.113c0.095,0,0.171-0.077,0.171-0.173v-51.75
	c0-0.095,0.077-0.173,0.173-0.173h33.047c0.095,0,0.171-0.077,0.171-0.171v-33.047C347.836,345.051,347.76,344.974,347.665,344.974z
	"/>
<path style="fill:#FBB071;" d="M236.151,85.705L192.264,0.001c-19.516,0-37.537,6.381-52.109,17.16
	c-15.111,11.177-26.492,27.093-31.976,45.55c-1.163,3.917-2.07,7.942-2.681,12.065c-0.518,3.499-0.81,7.07-0.902,10.691
	c-0.038,0.748-0.058,1.501-0.058,2.258c0,0.757,0.02,1.51,0.058,2.258c1.202,47.401,39.976,85.465,87.667,85.465l43.886-85.476
	C236.151,88.487,236.151,87.189,236.151,85.705z"/>
<path style="fill:#FAE8AC;" d="M148.403,43.862c-23.43,0-42.626,18.463-43.805,41.604c-0.038,0.748-0.058,1.501-0.058,2.258
	c0,0.757,0.02,1.51,0.058,2.258c1.18,23.14,20.376,41.602,43.805,41.602c24.185,0,43.862-19.676,43.862-43.862
	C192.264,63.539,172.589,43.862,148.403,43.862z"/>
<path style="fill:#325763;" d="M148.402,104.42c9.206,0,16.696-7.49,16.696-16.695c0-9.206-7.49-16.697-16.696-16.697
	s-16.696,7.49-16.696,16.697C131.707,96.931,139.196,104.42,148.402,104.42z"/>
<path style="fill:#FF835D;" d="M279.932,85.464c-0.2-7.888-1.431-15.516-3.582-22.755c-5.484-18.458-16.865-34.373-31.976-45.55
	C229.801,6.382,211.78,0.001,192.264,0.001v87.725c0,0.629,0.021,1.253,0.048,1.875c-0.016,0-0.032,0-0.048,0v85.848
	c47.691,0,86.463-38.062,87.667-85.463c0.038-0.741,0.057-1.488,0.057-2.239C279.989,86.967,279.97,86.214,279.932,85.464z"/>
<path style="fill:#F6D76F;" d="M279.932,85.464c-1.18-23.14-20.376-41.602-43.804-41.602c-24.186,0-43.863,19.676-43.863,43.863
	c0,24.185,19.676,43.862,43.863,43.862c23.427,0,42.624-18.462,43.804-41.601c0.038-0.741,0.057-1.488,0.057-2.239
	C279.989,86.967,279.97,86.214,279.932,85.464z"/>
<path style="fill:#05232E;" d="M252.823,87.725c0-9.206-7.49-16.697-16.696-16.697s-16.696,7.49-16.696,16.697
	c0,9.206,7.49,16.695,16.696,16.695S252.823,96.931,252.823,87.725z"/>
<path style="fill:#FBB071;" d="M218.231,222.933c-34.107,0-61.757,27.649-61.757,61.757v84.011c0,8.773,1.841,17.113,5.139,24.671
	c9.524,21.825,31.283,37.087,56.618,37.087l43.334-98.772L218.231,222.933z"/>
<path style="fill:#FF835D;" d="M279.989,284.689c0-34.108-27.649-61.757-61.757-61.757v207.527
	c0,17.054,13.825,30.878,30.878,30.878c17.054,0,30.878-13.824,30.878-30.878v-145.77H279.989z"/>
</svg>
