<?xml version="1.0" encoding="iso-8859-1"?>
<!-- Generator: Adobe Illustrator 19.0.0, SVG Export Plug-In . SVG Version: 6.00 Build 0)  -->
<svg version="1.1" id="Layer_1" xmlns="http://www.w3.org/2000/svg" xmlns:xlink="http://www.w3.org/1999/xlink" x="0px" y="0px"
	 viewBox="0 0 512 512" style="enable-background:new 0 0 512 512;" xml:space="preserve">
<path style="fill:#FBB071;" d="M100.174,483.061h38.957V358.852c-4.909,0-37.949-0.091-38.957-0.091V483.061z"/>
<path style="fill:#FF835D;" d="M372.87,322.343v160.718h38.957V322.214C401.421,322.214,385.619,322.343,372.87,322.343z"/>
<path style="fill:#FAE8AC;" d="M379.15,129.962c0,0-33.036,179.565-39.672,197.62v33.476c11.935-0.628,23.172-3.203,33.391-7.503
	c15.799-6.646,29.165-17.396,38.957-31.342c11.285-16.072,17.82-36.393,17.82-59.602v-52.924l24.21-40.224l-24.21-39.726
	L379.15,129.962z"/>
<path style="fill:#FDF3D3;" d="M321.084,302.454l-174.224-9.874c0.718,2.292,21.121,34.186,24.356,40.082l129.306,24.336
	L321.084,302.454z"/>
<path style="fill:#F6D76F;" d="M155.625,192.926L67.977,205c-20.854-13.981-34.586-37.763-34.586-64.757
	c0-43.03,34.883-77.913,77.913-77.913l20.045-16.411l-20.045-16.981C49.832,28.939,0,78.771,0,140.243
	c0,45.64,27.474,84.857,66.783,102.034v96.088H27.826v144.696h38.957V374.539c11.577,0,22.777-0.955,33.391-2.866
	c14.209-2.558,27.361-6.834,38.957-12.821c12.836-6.627,23.762-15.353,32.086-26.19c6.875-8.951,11.97-19.344,14.908-31.172
	c1.888-7.599,2.892-15.785,2.892-24.573v-7.484L155.625,192.926z"/>
<path style="fill:#325763;" d="M140.782,62.33c9.22,0,16.696-7.475,16.696-16.696s-7.475-16.696-16.696-16.696h-29.478V62.33
	H140.782z"/>
<path style="fill:#F6D76F;" d="M429.646,210.365c25.45,0,46.249-19.87,47.754-44.119l13.482-4.494
	C502.497,154.542,512,141.98,512,129.736l-40.905-27.073l-41.449,27.073V210.365z"/>
<polygon style="fill:#325763;" points="155.625,269.433 189.016,269.433 200.21,225.675 189.016,188.326 155.625,192.926 "/>
<path style="fill:#FBB071;" d="M489.739,95.881L467.478,76.8h-37.832V43.409c-18.442,0-33.391,14.949-33.391,33.391l-73.673,93.125
	l-16.363,12.24l-17.028-7.64l-33.391,4.6l0,0l-17.26,11.693l-16.131-7.092l-33.391,4.6v88.592c0,8.787-1.004,16.974-2.892,24.573
	l114.398,21.526v160.045h38.957V327.582c13.315-1.018,25.297-5.585,34.861-13.515c14.136-11.72,21.916-29.997,21.916-51.456V147.066
	l33.391-17.33H512V99.061L489.739,95.881z"/>
<g>
	<polygon style="fill:#05232E;" points="322.581,269.433 322.581,169.925 289.19,174.525 289.19,269.433 	"/>
	<polygon style="fill:#05232E;" points="222.407,269.433 255.799,269.433 255.799,179.125 222.407,183.726 	"/>
</g>
<g>
</g>
<g>
</g>
<g>
</g>
<g>
</g>
<g>
</g>
<g>
</g>
<g>
</g>
<g>
</g>
<g>
</g>
<g>
</g>
<g>
</g>
<g>
</g>
<g>
</g>
<g>
</g>
<g>
</g>
</svg>
