<?xml version="1.0" encoding="iso-8859-1"?>
<!-- Generator: Adobe Illustrator 19.0.0, SVG Export Plug-In . SVG Version: 6.00 Build 0)  -->
<svg version="1.1" id="Layer_1" xmlns="http://www.w3.org/2000/svg" xmlns:xlink="http://www.w3.org/1999/xlink" x="0px" y="0px"
	 viewBox="0 0 512 512" style="enable-background:new 0 0 512 512;" xml:space="preserve">
<path style="fill:#8F5543;" d="M467.478,84.391c0-29.919-24.253-54.172-54.172-54.172c-35.061,0-69.053,4.53-101.409,13.057
	l-99.306,180.445l76.8,201.461l100.174,1.113l92.383-81.252L512,151.174V84.391C512,84.391,467.478,84.391,467.478,84.391z"/>
<g>
	<path style="fill:#C97E67;" d="M17.92,393.311c37.732,5.159,293.977,44.115,293.977,44.115V43.276
		C152.263,85.271,32.121,224.105,17.92,393.311z"/>
	<path style="fill:#C97E67;" d="M467.478,281.433L420.73,343.93l46.742,50.706C495.071,364.823,512,325.012,512,281.433V151.174
		h-44.522V281.433z"/>
	<path style="fill:#C97E67;" d="M375.953,399.911c-9.877,2.579-20.235,3.957-30.909,3.957H244.87l67.027,44.522h33.146
		c7.227,0,73.148-0.467,80.139-1.369L375.953,399.911z"/>
</g>
<g>
	<path style="fill:#FBB071;" d="M311.897,403.868H105.739c0,9.071,1.113,33.558,1.113,44.522h205.045V403.868z"/>
	<path style="fill:#FBB071;" d="M467.478,281.433c0-16.939-12.839-31.455-30.052-33.184c-17.214-1.731-32.686,9.937-36.058,26.537
		l-25.415,125.125l-9.569,47.108l-0.278,1.369v33.391H512c0-18.441-14.949-33.391-33.391-33.391H467.47l0.002-53.753
		L467.478,281.433z"/>
</g>
<path style="fill:#8F5543;" d="M150.154,481.781h107.539c0-18.441-14.95-33.391-33.391-33.391h-75.154
	C149.148,461.913,150.154,475.27,150.154,481.781z"/>
<path style="fill:#F6D76F;" d="M200.241,431.694c0-10.298-3.111-19.868-8.439-27.826c-8.984-13.422-24.282-22.261-41.648-22.261
	H50.087c-12.246,0-23.461,4.404-32.167,11.704c-1.125,0.943-2.213,1.929-3.251,2.965C5.608,405.345,0,417.867,0,431.694
	l100.174,33.558L200.241,431.694z"/>
<path style="fill:#C97E67;" d="M197.379,448.39c1.847-5.222,2.861-10.84,2.861-16.696H0c0,27.664,22.423,50.087,50.087,50.087
	h100.067C171.962,481.781,190.503,467.842,197.379,448.39z"/>
<g>
	<rect x="245.114" y="107.798" style="fill:#FBB071;" width="33.391" height="33.391"/>
	<rect x="110.047" y="222.442" style="fill:#FBB071;" width="33.391" height="33.391"/>
	<rect x="154.568" y="266.963" style="fill:#FBB071;" width="33.391" height="33.391"/>
</g>
<g>
	<rect x="245.114" y="200.181" style="fill:#F6D76F;" width="33.391" height="33.391"/>
	<rect x="83.371" y="314.824" style="fill:#F6D76F;" width="33.391" height="33.391"/>
</g>
</svg>
