<?xml version="1.0" encoding="iso-8859-1"?>
<!-- Generator: Adobe Illustrator 19.0.0, SVG Export Plug-In . SVG Version: 6.00 Build 0)  -->
<svg version="1.1" id="Layer_1" xmlns="http://www.w3.org/2000/svg" xmlns:xlink="http://www.w3.org/1999/xlink" x="0px" y="0px"
	 viewBox="0 0 512 512" style="enable-background:new 0 0 512 512;" xml:space="preserve">
<path style="fill:#05232E;" d="M122.435,261.565H44.522C19.933,261.565,0,281.499,0,306.087h96.654
	c16.554,46.83,58.476,81.673,109.259,88.006v67.82h66.783c0-18.441-14.949-33.391-33.391-33.391v-34.429
	C239.304,360.255,259.339,297.925,122.435,261.565z"/>
<g>
	<path style="fill:#325763;" d="M222.609,361.739v33.391c5.654,0,11.226-0.355,16.696-1.037
		c65.885-8.216,116.87-64.416,116.87-132.528c-11.812,0-23.077-2.321-33.391-6.497C322.783,255.068,222.609,274.922,222.609,361.739
		z"/>
	<path style="fill:#325763;" d="M222.609,361.739l44.151-51.942l-44.151-48.232H122.435
		C122.435,316.89,167.284,361.739,222.609,361.739z"/>
</g>
<path style="fill:#05232E;" d="M322.783,261.565v-6.497c-21.148-76.61-55.652-193.035-55.652-193.035
	c-26.621,15.371-44.522,44.143-44.522,77.097v222.609C277.934,361.739,322.783,316.89,322.783,261.565z"/>
<path style="fill:#FAE8AC;" d="M311.652,50.087c-16.225,0-31.421,4.361-44.522,11.942v110.493c0,37.365,23.026,69.334,55.652,82.547
	c10.315,4.176,21.58,6.497,33.391,6.497V139.13l66.412-33.391L311.652,50.087z"/>
<polygon style="fill:#FF835D;" points="493.078,126.516 422.957,50.087 311.652,50.087 339.478,105.739 "/>
<polygon style="fill:#FB5858;" points="339.478,105.739 356.174,139.13 422.957,139.13 475.27,105.739 "/>
<path style="fill:#F72349;" d="M422.957,50.087v89.043H512C512,89.953,472.134,50.087,422.957,50.087z"/>
</svg>
