<?xml version="1.0" encoding="iso-8859-1"?>
<!-- Generator: Adobe Illustrator 19.0.0, SVG Export Plug-In . SVG Version: 6.00 Build 0)  -->
<svg version="1.1" id="Layer_1" xmlns="http://www.w3.org/2000/svg" xmlns:xlink="http://www.w3.org/1999/xlink" x="0px" y="0px"
	 viewBox="0 0 512 512" style="enable-background:new 0 0 512 512;" xml:space="preserve">
<polygon style="fill:#84D993;" points="350.609,320 512,320 512,286.609 457.461,247.096 "/>
<path style="fill:#B9F291;" d="M456.348,230.957c-30.736,0-55.652,24.917-55.652,55.652H512
	C512,255.873,487.083,230.957,456.348,230.957z"/>
<rect y="286.609" style="fill:#84D993;" width="87.93" height="33.391"/>
<rect x="81.252" y="303.861" style="fill:#F6D76F;" width="274.922" height="49.53"/>
<rect x="33.391" y="303.304" style="fill:#B9F291;" width="89.043" height="105.739"/>
<rect x="311.652" y="302.191" style="fill:#84D993;" width="89.043" height="106.852"/>
<polygon style="fill:#578C76;" points="149.148,211.478 217.043,320 400.696,320 400.696,286.609 "/>
<g>
	<polygon style="fill:#50BF94;" points="217.043,320 217.043,234.852 33.391,286.609 33.391,320 	"/>
	<path style="fill:#50BF94;" d="M162.504,146.922l54.539,139.687h183.652c0-56.221-25.264-106.552-65.059-140.23
		C292.73,146.379,216.98,146.922,162.504,146.922z"/>
</g>
<g>
	<path style="fill:#84D993;" d="M335.637,146.379c-31.99-27.088-73.381-43.422-118.594-43.422l-67.896,58.435l67.896,67.827
		C271.519,229.218,317.938,194.715,335.637,146.379z"/>
	<path style="fill:#84D993;" d="M217.043,286.609v-140.8c-54.476,0-80.139,0.57-118.594,0.57
		c-39.795,33.678-65.058,84.009-65.058,140.23H217.043z"/>
</g>
<path style="fill:#B9F291;" d="M217.043,229.218V102.957c-45.213,0-86.604,16.334-118.594,43.422
	C116.149,194.715,162.568,229.218,217.043,229.218z"/>
<g>
</g>
<g>
</g>
<g>
</g>
<g>
</g>
<g>
</g>
<g>
</g>
<g>
</g>
<g>
</g>
<g>
</g>
<g>
</g>
<g>
</g>
<g>
</g>
<g>
</g>
<g>
</g>
<g>
</g>
</svg>
