<?xml version="1.0" encoding="iso-8859-1"?>
<!-- Generator: Adobe Illustrator 19.0.0, SVG Export Plug-In . SVG Version: 6.00 Build 0)  -->
<svg version="1.1" id="Layer_1" xmlns="http://www.w3.org/2000/svg" xmlns:xlink="http://www.w3.org/1999/xlink" x="0px" y="0px"
	 viewBox="0 0 512 512" style="enable-background:new 0 0 512 512;" xml:space="preserve">
<path style="fill:#C97E67;" d="M0,424.304h117.595c24.589,0,44.522-19.934,44.522-44.522l-39.312-34.369l-50.458,34.369H39.682
	C15.094,379.783,0,399.715,0,424.304z"/>
<polygon style="fill:#FAE8AC;" points="456.348,254.009 489.739,254.009 489.739,132.217 424.07,107.223 "/>
<path style="fill:#FBB071;" d="M467.478,379.783h-11.13v-87.43c-44.892,18.928-90.157,38.963-136.904,61.224
	c27.455,19.292,89.786,55.652,111.329,70.727H512C512,399.716,492.068,379.783,467.478,379.783z"/>
<path style="fill:#C97E67;" d="M445.217,87.696l-34.271,0.002c-24.487,0-56.638,15.955-71.447,35.457l-70.844,93.289l-58.29,82.223
	l58.29,81.05c32.979,0,105.376-0.117,105.376-0.117c45.626-2.81,82.316-40.973,82.316-87.246V132.217h33.391
	C489.739,107.629,469.806,87.696,445.217,87.696z"/>
<g>
	<path style="fill:#FBB071;" d="M213.215,216.444c-77.802,0-140.867,63.065-140.867,140.867v22.261l196.307,0.145V216.444
		C246.172,216.444,213.215,216.444,213.215,216.444z"/>
	<rect x="345.043" y="213.938" style="fill:#FBB071;" width="33.391" height="33.391"/>
	<rect x="389.565" y="258.46" style="fill:#FBB071;" width="33.391" height="33.391"/>
</g>
<g>
	<rect x="161.391" y="312.932" style="fill:#8F5543;" width="33.391" height="33.391"/>
	<path style="fill:#8F5543;" d="M386.251,379.783h-12.219V324.13c0,0-22.866,0-52.145,0c-29.256,0-53.195,25.007-53.23,55.585
		c0,0.022-0.001,0.045-0.001,0.067c0,24.589,15.093,44.522,39.682,44.522h122.435C430.772,399.716,410.84,379.783,386.251,379.783z"
		/>
</g>
<g>
</g>
<g>
</g>
<g>
</g>
<g>
</g>
<g>
</g>
<g>
</g>
<g>
</g>
<g>
</g>
<g>
</g>
<g>
</g>
<g>
</g>
<g>
</g>
<g>
</g>
<g>
</g>
<g>
</g>
</svg>
