<?xml version="1.0" encoding="iso-8859-1"?>
<!-- Generator: Adobe Illustrator 19.0.0, SVG Export Plug-In . SVG Version: 6.00 Build 0)  -->
<svg version="1.1" id="Layer_1" xmlns="http://www.w3.org/2000/svg" xmlns:xlink="http://www.w3.org/1999/xlink" x="0px" y="0px"
	 viewBox="0 0 512 512" style="enable-background:new 0 0 512 512;" xml:space="preserve">
<path style="fill:#C97E67;" d="M434.087,339.854v29.676c0,24.588,19.65,44.522,44.239,44.522V303.861
	C461.197,319.092,440.046,337.075,434.087,339.854z"/>
<path style="fill:#F6D76F;" d="M399.922,336.139h-0.442v33.391h0.442c11.433,0,23.248-2.79,34.165-7.881
	c5.959-2.779,11.656-6.233,16.866-10.318c15.957-12.507,25.707-29.567,27.372-47.471l0.284-134.677l-65.858-16.963
	C412.751,152.22,403.523,302.943,399.922,336.139z"/>
<path style="fill:#FAE8AC;" d="M374.301,315.247l-154.568-0.769c6.921,23.07,12.304,40.756,19.249,55.052h115.977L374.301,315.247z"
	/>
<g>
	<path style="fill:#C97E67;" d="M461.913,97.948c-7.988,0-14.658,5.614-16.299,13.111l15.585,19.63l17.355-17.162
		C477.975,104.829,470.756,97.948,461.913,97.948z"/>
	<path style="fill:#C97E67;" d="M255.072,336.139l30.796-38.579l-30.796-39.334h-65.854c-14.711,0-28.307,4.759-39.342,12.819
		l-99.41,72.607l-6.064,31.576l32.319,4.387l45.714-33.375v67.812h111.304c0-13.523-10.963-24.487-24.487-24.487h-2.91
		c12.79-3.384,24.072-10.466,32.639-20.035C247.214,360.336,252.926,348.847,255.072,336.139z"/>
</g>
<g>
	<path style="fill:#8F5543;" d="M60.083,356.825l-9.618-13.173L0,380.516c14.503,19.857,42.351,24.198,62.208,9.695l14.514-10.596
		L60.083,356.825z"/>
	<path style="fill:#8F5543;" d="M500.87,129.113l-22.261-15.583l-0.057-0.004l-32.939-2.468l-0.807-0.06
		c-1.664-7.465-8.317-13.05-16.284-13.05c-7.091,0-13.144,4.428-15.564,10.664l-58,149.614h-99.887v77.913h99.887v33.391
		c0,24.588,19.934,44.522,44.522,44.522v-77.913h0.442c20.76,0,45.295-16.986,45.295-37.747v-129.21h33.391
		c0,0,7.513-2.504,16.696-5.565S512,151.541,512,143.583c0-7.958,0-14.47,0-14.47H500.87z"/>
</g>
<g>
</g>
<g>
</g>
<g>
</g>
<g>
</g>
<g>
</g>
<g>
</g>
<g>
</g>
<g>
</g>
<g>
</g>
<g>
</g>
<g>
</g>
<g>
</g>
<g>
</g>
<g>
</g>
<g>
</g>
</svg>
