<?xml version="1.0" encoding="iso-8859-1"?>
<!-- Generator: Adobe Illustrator 19.0.0, SVG Export Plug-In . SVG Version: 6.00 Build 0)  -->
<svg version="1.1" id="Layer_1" xmlns="http://www.w3.org/2000/svg" xmlns:xlink="http://www.w3.org/1999/xlink" x="0px" y="0px"
	 viewBox="0 0 512 512" style="enable-background:new 0 0 512 512;" xml:space="preserve">
<path style="fill:#FAE8AC;" d="M425.389,178.071c-86.654,63.458-171.987,118.368-206.12,140.628l100.547,72.151
	c83.116-34.868,141.501-117.004,141.501-212.78C461.313,178.071,425.389,178.071,425.389,178.071z"/>
<path style="fill:#FAEAB6;" d="M207.398,190.33c-36.359,4.452-203.903,27.286-203.903,27.286l-0.111-0.045
	c-0.008-0.042-0.013-0.086-0.021-0.128c0.01,0.066,0.007,0.127,0.018,0.193c18.763,108.535,113.387,191.087,227.272,191.087
	C225.949,343.928,215.56,221.495,207.398,190.33z"/>
<path style="fill:#4AD0FF;" d="M274.017,329.442l53.588-81.235l-53.588-70.138H0c0,13.423,1.162,26.569,3.362,39.373
	c0.008,0.042,0.013,0.086,0.021,0.128l0.111,0.045h124.299c0.026,0,0.05-0.003,0.076-0.003c12.295,0,22.261,9.966,22.261,22.261
	c0,6.02-2.401,11.473-6.284,15.481c16.938,28.468,42.942,50.909,74.036,63.334c-15.861,28.762-11.618,65.647,12.772,90.036
	c29.558,29.558,77.479,29.558,107.037,0l-80.174-80.173C262.936,329.138,268.441,329.442,274.017,329.442z"/>
<path style="fill:#16A5D9;" d="M443.354,104.129c0,0-10.381,28.323-17.969,44.914v29.028H274.017v66.782l15.003,16.712
	l-15.003,16.679v51.199c83.6,0,151.371-67.771,151.372-151.371h35.923v-29.027C490.512,141.15,512,114.485,512,82.789
	C486.011,77.14,460.299,86.088,443.354,104.129z"/>
<path style="fill:#4AD0FF;" d="M443.354,104.129c-16.957-18.041-42.669-26.989-68.646-21.34c0,31.692,21.484,58.355,50.677,66.254
	c5.729,1.55,11.749,2.392,17.969,2.392L443.354,104.129L443.354,104.129z"/>
<g>
	<rect x="340.799" y="211.464" style="fill:#99E5FF;" width="33.391" height="33.391"/>
	<rect x="274.017" y="244.855" style="fill:#99E5FF;" width="33.391" height="33.391"/>
</g>
</svg>
