<?xml version="1.0" encoding="iso-8859-1"?>
<!-- Generator: Adobe Illustrator 19.0.0, SVG Export Plug-In . SVG Version: 6.00 Build 0)  -->
<svg version="1.1" id="Layer_1" xmlns="http://www.w3.org/2000/svg" xmlns:xlink="http://www.w3.org/1999/xlink" x="0px" y="0px"
	 viewBox="0 0 512 512" style="enable-background:new 0 0 512 512;" xml:space="preserve">
<path style="fill:#6B8F9C;" d="M467.478,72.348c0-18.442-14.95-33.391-33.391-33.391v44.522l17.438,12.986l15.953-12.986V72.348z"/>
<path style="fill:#325763;" d="M411.826,287.165v185.878h33.391V287.744C433.716,287.744,427.779,287.165,411.826,287.165z"/>
<g>
	<path style="fill:#05232E;" d="M512,83.478H411.826v-11.13c0-18.442-14.95-33.391-33.391-33.391v44.522l-55.652,81.753
		l-27.826,68.508l27.826,76.466l22.261,4.687v158.151h33.391V318.718c11.94-0.383,23.179-2.784,33.391-6.949
		c13.035-5.315,24.395-13.499,33.391-24.026c13.98-16.356,22.261-38.359,22.261-64.022V135.42L512,128V83.478z"/>
	<path style="fill:#05232E;" d="M178.087,274.551v198.492h33.391V372.87c41.886,0,76.997-28.928,86.495-67.89
		C297.973,304.979,254.145,245.612,178.087,274.551z"/>
</g>
<path style="fill:#6B8F9C;" d="M233.739,174.442l-52.313,51.134c0,2.547,52.181,63.31,51.971,65.802l64.575,13.601l24.81,5.226
	V165.231L233.739,174.442z"/>
<path style="fill:#325763;" d="M0,198.776c21.994,30.254,59.069,48.279,98.95,44.111c16.801-1.756,32.293-7.275,45.746-15.615
	v89.945h-33.391v155.826h33.391V372.87c11.813,0,23.077-2.321,33.391-6.497c30.404-12.311,52.445-40.915,55.31-74.993
	c0.209-2.492,0.342-5.006,0.342-7.552V174.443L0,198.776z"/>
<rect x="183.652" y="210.365" style="fill:#6B8F9C;" width="33.391" height="33.391"/>
<rect x="250.435" y="228.174" style="fill:#325763;" width="33.391" height="33.391"/>
</svg>
