<?xml version="1.0" encoding="iso-8859-1"?>
<!-- Generator: Adobe Illustrator 19.0.0, SVG Export Plug-In . SVG Version: 6.00 Build 0)  -->
<svg version="1.1" id="Layer_1" xmlns="http://www.w3.org/2000/svg" xmlns:xlink="http://www.w3.org/1999/xlink" x="0px" y="0px"
	 viewBox="0 0 512 512" style="enable-background:new 0 0 512 512;" xml:space="preserve">
<path style="fill:#8F5543;" d="M267.13,314.435c0,36.883,29.9,66.783,66.783,66.783h22.261c0-12.295-9.966-22.261-22.261-22.261
	v-42.296l-30.052-27.64l-36.73,20.962V314.435z"/>
<path style="fill:#C97E67;" d="M89.043,380.109c52.724,0,98.166-31.146,118.952-76.04l-56.992-35.083l-61.96,23.188V380.109z"/>
<path style="fill:#8F5543;" d="M115.137,173.702H66.849c-36.88,0-66.776,29.686-66.783,66.563L0,240.277v74.158
	c0,36.883,29.9,66.783,66.783,66.783V240.401l22.261,0.041l3.66-2.458c8.534-6.122,16.746-15.747,24.166-23.168
	C118.353,198.492,115.386,185.878,115.137,173.702z"/>
<path style="fill:#FBB071;" d="M372.127,239.304c-30.773-3.563-101.2-11.382-124.661-14.099l19.664,84.777l89.208,8.921
	c-0.098-1.478,2.432-6.861,2.432-8.365L372.127,239.304z"/>
<path style="fill:#F6D76F;" d="M178.087,147.478c-24.52,0-46.806,10.046-62.95,26.223c-16.101,16.134-26.093,38.367-26.093,62.82
	v55.652l178.087,17.809v-62.542C260.663,240.565,205.742,180.668,178.087,147.478z"/>
<path style="fill:#8F5543;" d="M461.913,130.783c-9.22,0-16.696,7.475-16.696,16.696l17.252,11.13l16.139-11.13
	C478.609,138.258,471.133,130.783,461.913,130.783z"/>
<path style="fill:#C97E67;" d="M406.261,130.783c-9.22,0-16.696,7.475-16.696,16.696l17.809,13.357l15.583-13.357
	C422.957,138.258,415.481,130.783,406.261,130.783z"/>
<path style="fill:#8F5543;" d="M489.739,169.739l-66.783-22.261H267.13l-30.609,47.861l30.609,52.102
	c23.461,2.716,58.27,6.746,89.043,10.31v56.684c0,1.504,0.067,2.99,0.165,4.469c2.302,34.797,31.239,62.314,66.618,62.314h22.261
	c0-12.295-9.966-22.261-22.261-22.261V236.522l68.2-25.574c11.464-4.3,20.844-15.33,20.844-24.513c0-9.183,0-16.696,0-16.696
	H489.739z"/>
<polygon style="fill:#FBB071;" points="489.739,169.739 478.609,147.478 422.957,147.478 422.957,194.783 "/>
<path style="fill:#C97E67;" d="M256.289,246.183c3.239,0.378,6.879,0.801,10.841,1.258v-99.962h-89.043
	C172.455,196.129,207.638,240.54,256.289,246.183z"/>
</svg>
