<?xml version="1.0" encoding="iso-8859-1"?>
<!-- Generator: Adobe Illustrator 19.0.0, SVG Export Plug-In . SVG Version: 6.00 Build 0)  -->
<svg version="1.1" id="Layer_1" xmlns="http://www.w3.org/2000/svg" xmlns:xlink="http://www.w3.org/1999/xlink" x="0px" y="0px"
	 viewBox="0 0 512 512" style="enable-background:new 0 0 512 512;" xml:space="preserve">
<path style="fill:#FBB071;" d="M122.435,374.226v98.817l19.664,25.229l19.292-25.229v-94.609c38.411,0,73.029-16.22,97.395-42.178
	l-87.007-73.949C156.939,295.699,138.388,340.221,122.435,374.226z"/>
<rect x="122.435" y="473.043" style="fill:#05232E;" width="38.957" height="38.957"/>
<path style="fill:#FBB071;" d="M408.487,74.574l47.861-30.052V0c-9.888,0-18.768,4.301-24.882,11.13l-1.882,5.011L408.487,74.574z"
	/>
<g>
	<path style="fill:#05232E;" d="M397.727,69.379c0,0-8.534-50.829-10.783-58.249h-29.146l-94.92,169.501l45.806,44.575
		L397.727,69.379z"/>
	<polygon style="fill:#05232E;" points="434.087,66.412 434.087,11.13 411.826,11.13 389.936,66.412 	"/>
</g>
<path style="fill:#FBB071;" d="M372.87,294.586v178.458l20.035,27.084l18.922-27.084V292.782
	C399.212,292.782,388.452,294.586,372.87,294.586z"/>
<path style="fill:#F6D76F;" d="M411.826,44.522V0c-9.888,0-18.768,4.301-24.882,11.13c-5.289,5.908-8.509,13.707-8.509,22.261v11.13
	l-77.913,139.13l-37.644-3.021l-40.268-3.232l-71.607,60.422c15.953,25.971,32.278,57.878,46.165,85.465l61.619,12.973l41.735,8.785
	v128l19.664,27.084l19.292-27.084V339.722c11.807-3.295,23.008-8.038,33.391-14.045c14.862-8.598,28.043-19.769,38.957-32.895
	c6.558-7.888,12.308-16.473,17.09-25.647c-0.007-0.003-37.001-0.004-50.875-0.004h50.867c-3.725-9.275-4.096-12.986-6.322-20.405
	c5.565-3.71,13.727-8.534,18.75-12.976c0.007-0.006-50.563-0.01-64.785-0.01h64.787c2.54-10.717,3.879-21.898,3.879-33.391
	l-12.614-17.438l12.614-15.953v-33.391l-17.066-17.438l17.066-15.953l33.391-5.565l17.066-25.6l-17.066-24.487H411.826z"/>
<rect x="372.87" y="473.043" style="fill:#05232E;" width="38.957" height="38.957"/>
<g>
	<rect x="300.522" y="473.043" style="fill:#325763;" width="38.957" height="38.957"/>
	<polygon style="fill:#325763;" points="478.609,44.522 478.609,94.609 512,89.043 512,44.522 	"/>
</g>
<path style="fill:#05232E;" d="M95.654,205.35H50.087C22.424,205.35,0,227.774,0,255.437v105.739
	c27.66,0,50.087-22.427,50.087-50.087v-55.652h38.957l18.922-24.666C103.884,221.866,100.916,214.075,95.654,205.35z"/>
<path style="fill:#FAEAB6;" d="M155.826,172.178L155.826,172.178l-0.204-0.016c-5.362,7.78-9.814,14.458-15.379,20.394
	c-4.823-4.082-11.13-9.275-17.798-14.024c-0.009-0.007-0.011,48.994-0.011,62.771v-62.766
	c-11.562,5.796-20.937,15.165-26.781,26.812c-4.228,8.429-6.61,18.049-6.61,28.389v108.522H50.087v130.783l18.179,27.084
	l20.777-27.084v-94.609c11.53,0,22.718-1.461,33.391-4.208c30.485-7.846,56.751-26.19,74.733-50.942
	c15.998-22.022,25.441-49.113,25.441-78.415l-11.13-32.278l11.13-35.192l-15.583,17.013l-17.812-19.624L155.826,172.178z"/>
<g>
	<path style="fill:#325763;" d="M122.435,244.87h33.391v-72.692l-0.204-0.016c-12.062-0.943-23.393,1.448-33.176,6.37
		C122.435,178.538,122.435,244.87,122.435,244.87z"/>
	<polygon style="fill:#325763;" points="189.217,244.87 222.609,244.87 222.609,177.399 189.217,174.789 	"/>
</g>
<g>
	<rect x="372.87" y="100.174" style="fill:#05232E;" width="72.348" height="33.391"/>
	<path style="fill:#05232E;" d="M372.87,233.739v33.391h56.038c5.446-10.448,9.653-21.638,12.428-33.381
		C441.338,233.739,372.87,233.739,372.87,233.739z"/>
	<rect x="372.87" y="166.957" style="fill:#05232E;" width="72.348" height="33.391"/>
	<rect x="50.087" y="473.043" style="fill:#05232E;" width="38.957" height="38.957"/>
</g>
</svg>
